<svg xmlns="http://www.w3.org/2000/svg"  viewBox="0 0 48 48" width="192px" height="192px"><path fill="#74cccf" d="M14.284,6.351c-3.003,2.008-5.23,4.177-7.181,7.218c-0.591,0.922-2.588,9.503-2.595,10.969 c-0.01,2.377-0.014,4.802,0.716,7.064c0.816,2.529,4.375,7.618,7.043,9.347c3.457,2.241,10.697,3.596,13.198,3.645 c4.971,0.096,9.206-2.031,12.797-5.469c1.042-0.998,2.408-2.342,3.361-3.425c3.603-4.095,3.06-10.667,2.833-12.416 c-0.608-4.674-2.161-8.713-5.603-12.223c-2.304-2.349-4.647-4.715-7.74-5.834s-6.411-1.477-9.698-1.607 c-0.803-0.032-1.622-0.049-2.395,0.173C17.067,4.353,15.499,5.539,14.284,6.351z"/><path fill="#38b47b" d="M29.549,10.207c-0.231-0.302-0.574-0.493-0.909-0.672c-0.692-0.37-1.394-0.722-2.103-1.057 c-0.23-0.109-0.481-0.218-0.73-0.168c-0.738,0.148-0.58,1.274-0.994,1.902c-0.288,0.437-0.882,0.599-1.394,0.494 c-0.513-0.105-0.954-0.431-1.326-0.8c-0.344-0.341-0.656-0.747-0.738-1.225C21.27,8.205,21.481,7.65,21.931,7.47 c0.219-0.088,0.466-0.081,0.686-0.165c0.22-0.084,0.42-0.325,0.325-0.541c-0.061-0.139-0.217-0.207-0.359-0.261 c-1.328-0.506-3.93-1.951-5.738-1.794L13.299,7.27c0.487,0.455,0.727,1.16,0.619,1.818c-0.145,0.878-0.828,1.548-1.365,2.257 c-1.001,1.323-1.558,3.148-0.87,4.658c0.218,0.479,0.547,0.898,0.813,1.352c0.528,0.904,0.8,1.957,0.777,3.004 c0.062-0.606,0.203-1.204,0.42-1.774c0.081-0.213,0.214-0.454,0.441-0.474c0.297-0.027,0.464,0.328,0.534,0.618 c0.355,1.461,0.644,3.157,1.932,3.933c0.988,0.595,2.261,0.433,3.332,0.861c1.053,0.42,1.795,1.354,2.572,2.179 c0.159,0.169,0.377,0.35,0.598,0.276c0.09-0.03,0.161-0.099,0.222-0.171c0.532-0.626,0.472-1.669-0.129-2.229 c-0.337-0.314-0.835-0.525-0.941-0.973c-0.123-0.518,0.339-1.173-0.049-1.538c-0.247-0.233-0.64-0.127-0.977-0.087 c-0.876,0.104-1.791-0.415-2.15-1.221c-0.09-0.201-0.148-0.421-0.133-0.64c0.031-0.487,0.415-0.895,0.859-1.098 c0.444-0.203,0.943-0.24,1.43-0.274c0.26-0.018,0.535-0.033,0.765,0.088c0.293,0.154,0.436,0.485,0.615,0.764 c0.296,0.46,0.787,0.84,1.335,0.828s1.075-0.547,0.937-1.077c-0.046-0.178-0.157-0.339-0.167-0.522 c-0.026-0.496,0.617-0.699,0.96-1.059c0.571-0.598,0.268-1.652,0.745-2.328c0.245-0.348,0.654-0.533,1.04-0.711 c0.717-0.33,1.447-0.705,1.928-1.33C29.871,11.776,30.028,10.833,29.549,10.207z"/><path fill="#38b47b" d="M28.073,24.547c-1.544,0.082-3.278,1.354-3.189,2.897c0.02,0.345,0.096,0.72-0.088,1.012 c-0.153,0.242-0.443,0.354-0.658,0.542c-0.397,0.348-0.506,0.942-0.393,1.458c0.113,0.516,0.413,0.97,0.728,1.394 c0.774,1.042,1.676,1.989,2.68,2.813c0.175,0.143,0.359,0.291,0.453,0.497c0.153,0.335,0.028,0.724-0.098,1.07 c-0.647,1.778-1.265,3.12-1.912,4.898c-0.196,0.538-0.395,1.103-0.313,1.669c0.082,0.566,0.546,1.122,1.118,1.093 c0.566-0.028,0.95-0.569,1.244-1.053c0.307-0.505,0.614-1.011,0.92-1.516c0.327-0.538,0.647-0.663,1.195-0.971 c0.409-0.23,0.887-0.295,1.345-0.399c2.127-0.485,4.011-1.949,5.004-3.892c0.117-0.229,0.243-0.485,0.482-0.582 c0.149-0.06,0.317-0.047,0.472-0.089c0.624-0.168,0.678-1.009,0.926-1.606c0.467-1.127,1.989-1.826,1.861-3.039 c-0.094-0.882-1.043-1.391-1.899-1.622c-0.856-0.231-1.824-0.389-2.372-1.086c-0.244-0.31-0.375-0.698-0.624-1.004 c-0.275-0.338-0.67-0.551-1.055-0.755C32.186,25.366,30.009,24.444,28.073,24.547z"/><path fill="#38b47b" d="M29.091,5.508c-0.259-0.422-0.218-0.673,0.25-0.836l-4.014-0.756 c0.407,0.049,0.876,0.848,1.091,1.197c0.287,0.466,0.59,0.937,1.023,1.273c0.432,0.336,1.024,0.517,1.538,0.329 c0.264-0.096,0.514-0.336,0.478-0.614C29.426,5.868,29.214,5.708,29.091,5.508z"/><path fill="#010101" d="M27.126,22.728c-0.024,0-0.048-0.002-0.072-0.005l-0.853-0.122 c-0.657-0.095-1.646-0.236-2.248-0.965c-0.177-0.212-0.146-0.527,0.066-0.703c0.211-0.176,0.527-0.148,0.703,0.066 c0.329,0.397,0.954,0.516,1.619,0.611l0.854,0.122c0.273,0.039,0.463,0.293,0.424,0.566C27.584,22.548,27.37,22.728,27.126,22.728z"/><path fill="#010101" d="M28.706,23.302c-0.138,0-0.276-0.062-0.378-0.178c-0.182-0.207-0.144-0.536,0.064-0.718 c0.2-0.176,0.489-0.23,0.768-0.283c0.104-0.021,0.28-0.054,0.331-0.079c0.206-0.183,0.505-0.152,0.688,0.058 c0.183,0.207,0.146,0.535-0.062,0.718c-0.202,0.178-0.492,0.232-0.771,0.286c-0.104,0.02-0.279,0.053-0.33,0.078 C28.925,23.264,28.815,23.302,28.706,23.302z"/><path fill="#010101" d="M44.951,23.22c-0.682-5.234-2.506-9.209-5.741-12.509c-2.308-2.352-4.693-4.783-7.928-5.953 c-0.569-0.206-1.145-0.377-1.721-0.534c-0.06-0.03-0.125-0.047-0.193-0.051c-1.341-0.354-2.678-0.589-3.962-0.746 C25.4,3.426,25.394,3.421,25.388,3.42c-0.009-0.001-0.017,0.002-0.026,0.002c-1.407-0.17-2.746-0.254-3.928-0.301 c-0.871-0.031-1.721-0.046-2.553,0.192c-0.815,0.233-1.552,0.573-2.233,0.944c-0.021,0.009-0.042,0.019-0.061,0.031 c-0.78,0.429-1.479,0.899-2.094,1.319l-0.487,0.33c-3.149,2.106-5.408,4.378-7.324,7.365c-0.591,0.921-2.729,6.829-2.674,11.244 l0.008,0.714c0.024,2.437,0.043,4.361,0.732,6.498c0.876,2.714,4.547,7.862,7.247,9.613c3.634,2.354,11.082,3.678,13.46,3.725 c0.11,0.002,0.219,0.003,0.329,0.003c4.622,0,8.935-1.887,12.822-5.611c1.122-1.075,2.45-2.429,3.385-3.448 C45.848,31.826,45.133,24.621,44.951,23.22z M28.665,5.771c0.053,0.085,0.117,0.166,0.183,0.245 c0.041,0.05,0.104,0.142,0.115,0.116c-0.011,0.024-0.071,0.082-0.154,0.113c-0.306,0.108-0.721,0.009-1.062-0.255 c-0.356-0.277-0.62-0.681-0.938-1.195c-0.036-0.059-0.075-0.114-0.111-0.173c0.58,0.096,1.165,0.205,1.753,0.342 C28.408,5.28,28.542,5.57,28.665,5.771z M14.563,6.768l0.494-0.336c0.571-0.39,1.218-0.827,1.93-1.225 C18.245,5.135,20,5.919,21.293,6.495c0.334,0.148,0.642,0.285,0.911,0.396c-0.003,0-0.005,0.001-0.007,0.001 c-0.137,0.023-0.291,0.049-0.453,0.114c-0.635,0.255-1.015,1.013-0.885,1.762c0.088,0.506,0.375,0.995,0.88,1.494 c0.523,0.518,1.039,0.823,1.577,0.935c0.767,0.156,1.53-0.129,1.912-0.708c0.206-0.312,0.295-0.682,0.374-1.008 c0.095-0.394,0.167-0.652,0.303-0.68c0.104-0.022,0.299,0.074,0.417,0.13c0.702,0.331,1.396,0.681,2.082,1.046 c0.313,0.166,0.584,0.321,0.748,0.534c0.344,0.449,0.175,1.152-0.158,1.586c-0.418,0.542-1.089,0.88-1.747,1.183 c-0.428,0.197-0.913,0.42-1.233,0.875c-0.296,0.419-0.359,0.909-0.414,1.342c-0.051,0.392-0.095,0.729-0.283,0.929 c-0.09,0.094-0.208,0.172-0.322,0.252c-0.341,0.238-0.808,0.565-0.776,1.178c0.011,0.199,0.077,0.358,0.132,0.486 c0.019,0.046,0.039,0.09,0.051,0.135c0.024,0.094-0.032,0.188-0.068,0.235c-0.096,0.126-0.255,0.214-0.396,0.217 c-0.345-0.017-0.666-0.229-0.903-0.598l-0.098-0.162c-0.154-0.261-0.347-0.586-0.705-0.775c-0.365-0.192-0.768-0.163-1.033-0.145 c-0.502,0.035-1.071,0.075-1.604,0.319c-0.67,0.307-1.11,0.889-1.149,1.519c-0.019,0.277,0.04,0.572,0.175,0.878 c0.45,1.007,1.572,1.652,2.668,1.514l0.167-0.022c0.123-0.019,0.351-0.05,0.402-0.03c0.021,0.059-0.022,0.271-0.048,0.397 c-0.057,0.271-0.12,0.577-0.043,0.898c0.117,0.493,0.497,0.773,0.803,0.999c0.099,0.072,0.197,0.145,0.284,0.225 c0.388,0.362,0.445,1.042,0.108,1.506c-0.024-0.021-0.056-0.05-0.094-0.091l-0.338-0.364c-0.692-0.755-1.409-1.535-2.414-1.938 c-0.521-0.207-1.063-0.287-1.589-0.364c-0.616-0.09-1.199-0.176-1.67-0.46c-0.992-0.598-1.306-1.931-1.609-3.221l-0.095-0.401 c-0.161-0.659-0.577-1.036-1.065-0.998c-0.209,0.019-0.48,0.121-0.699,0.464c-0.125-0.336-0.278-0.662-0.461-0.975 c-0.101-0.172-0.211-0.34-0.32-0.508c-0.178-0.271-0.346-0.528-0.469-0.799c-0.646-1.415-0.003-3.07,0.813-4.148 c0.105-0.14,0.217-0.276,0.328-0.415c0.489-0.605,0.995-1.232,1.132-2.063c0.114-0.687-0.086-1.393-0.505-1.943 C14.123,7.073,14.335,6.92,14.563,6.768z M28.062,34.953c-0.142-0.311-0.389-0.512-0.591-0.676 c-0.974-0.798-1.847-1.715-2.596-2.726c-0.278-0.373-0.549-0.777-0.642-1.202c-0.07-0.321-0.025-0.747,0.234-0.975 c0.062-0.055,0.132-0.099,0.201-0.146c0.176-0.116,0.395-0.262,0.55-0.506c0.242-0.384,0.206-0.805,0.177-1.143l-0.013-0.165 c-0.032-0.566,0.266-1.025,0.521-1.311c0.538-0.602,1.399-1.017,2.194-1.06c1.491-0.07,3.301,0.47,5.566,1.67 c0.338,0.18,0.687,0.364,0.901,0.628c0.107,0.133,0.188,0.285,0.269,0.437c0.105,0.194,0.214,0.388,0.351,0.563 c0.578,0.735,1.485,0.966,2.286,1.169l0.349,0.09c0.34,0.092,1.454,0.449,1.533,1.192c0.052,0.492-0.352,0.922-0.819,1.42 c-0.385,0.41-0.782,0.834-1.007,1.376c-0.069,0.168-0.126,0.354-0.182,0.54c-0.131,0.437-0.23,0.726-0.411,0.774 c-0.041,0.012-0.085,0.015-0.129,0.02c-0.112,0.013-0.252,0.028-0.402,0.09c-0.405,0.164-0.593,0.532-0.738,0.817 c-0.931,1.82-2.676,3.178-4.67,3.632l-0.263,0.057c-0.403,0.084-0.82,0.171-1.216,0.395l-0.19,0.105 c-0.465,0.255-0.832,0.457-1.187,1.041l-0.922,1.517c-0.238,0.394-0.525,0.798-0.841,0.813c-0.006,0-0.012,0-0.017,0 c-0.279,0-0.536-0.346-0.582-0.665c-0.065-0.458,0.122-0.973,0.288-1.427c0.322-0.886,0.638-1.663,0.952-2.44 c0.317-0.782,0.635-1.565,0.96-2.458C28.102,36.063,28.309,35.496,28.062,34.953z M41.253,35.362 c-0.92,1.006-2.23,2.341-3.338,3.401c-3.255,3.12-6.791,4.882-10.583,5.253c0.354-0.29,0.596-0.681,0.741-0.921l0.921-1.516 c0.216-0.356,0.403-0.459,0.813-0.685l0.199-0.11c0.262-0.147,0.586-0.215,0.931-0.287l0.28-0.061 c2.278-0.519,4.273-2.07,5.347-4.168c0.054-0.106,0.155-0.306,0.215-0.329c0.023-0.01,0.088-0.018,0.141-0.023 c0.092-0.01,0.184-0.022,0.274-0.047c0.733-0.198,0.95-0.924,1.109-1.453c0.046-0.153,0.091-0.307,0.147-0.444 c0.154-0.374,0.475-0.714,0.813-1.074c0.555-0.592,1.185-1.262,1.084-2.21c-0.1-0.941-0.926-1.689-2.266-2.052l-0.364-0.095 c-0.709-0.18-1.378-0.35-1.746-0.817c-0.102-0.13-0.179-0.276-0.258-0.422c-0.11-0.204-0.224-0.407-0.371-0.589 c-0.344-0.422-0.823-0.677-1.209-0.881c-2.431-1.289-4.419-1.872-6.088-1.785c-1.063,0.057-2.17,0.589-2.887,1.391 c-0.548,0.612-0.816,1.315-0.774,2.035l0.015,0.192c0.018,0.209,0.036,0.425-0.025,0.522c-0.04,0.063-0.146,0.134-0.258,0.208 c-0.107,0.071-0.213,0.144-0.308,0.227c-0.506,0.442-0.718,1.187-0.552,1.941c0.134,0.608,0.471,1.121,0.815,1.584 c0.798,1.076,1.728,2.053,2.771,2.908c0.13,0.105,0.264,0.214,0.308,0.311c0.071,0.157-0.021,0.439-0.112,0.691 c-0.32,0.88-0.634,1.652-0.947,2.425c-0.319,0.788-0.639,1.575-0.965,2.473c-0.196,0.537-0.439,1.204-0.339,1.912 c0.068,0.468,0.327,0.935,0.712,1.226c-0.008,0-0.017,0.001-0.025,0.001c-2.633-0.052-9.719-1.479-12.936-3.564 c-2.499-1.62-6.029-6.569-6.84-9.08c-0.642-1.992-0.659-3.758-0.684-6.201l-0.008-0.716c-0.052-4.148,1.978-9.854,2.516-10.693 c1.55-2.416,3.277-4.285,5.58-6.028c0.26,0.335,0.39,0.778,0.322,1.195c-0.094,0.57-0.497,1.069-0.924,1.598 c-0.118,0.146-0.235,0.292-0.347,0.439c-0.991,1.308-1.755,3.352-0.927,5.166c0.154,0.34,0.352,0.641,0.542,0.933 c0.101,0.153,0.201,0.308,0.294,0.465c0.478,0.818,0.729,1.792,0.708,2.741c-0.006,0.268,0.201,0.493,0.469,0.51 c0.288,0.027,0.502-0.182,0.528-0.448c0.058-0.562,0.188-1.114,0.389-1.644c0.008,0.024,0.016,0.052,0.022,0.081l0.094,0.395 c0.335,1.421,0.714,3.032,2.066,3.848c0.644,0.389,1.354,0.492,2.042,0.594c0.489,0.071,0.951,0.139,1.363,0.303 c0.792,0.317,1.402,0.981,2.048,1.685l0.346,0.374c0.283,0.301,0.569,0.452,0.854,0.452c0.09,0,0.18-0.016,0.269-0.045 c0.213-0.073,0.354-0.218,0.441-0.32c0.71-0.834,0.633-2.17-0.169-2.918c-0.113-0.106-0.243-0.203-0.372-0.299 c-0.201-0.148-0.392-0.288-0.424-0.425c-0.025-0.106,0.013-0.289,0.049-0.466c0.076-0.364,0.189-0.915-0.241-1.321 c-0.386-0.363-0.899-0.286-1.237-0.238l-0.141,0.021c-0.661,0.071-1.363-0.32-1.635-0.928c-0.067-0.154-0.099-0.291-0.091-0.407 c0.019-0.295,0.298-0.551,0.567-0.674c0.367-0.168,0.82-0.2,1.258-0.23c0.173-0.013,0.384-0.028,0.496,0.031 c0.108,0.057,0.206,0.224,0.311,0.399l0.117,0.193c0.436,0.677,1.107,1.077,1.768,1.058c0.443-0.011,0.893-0.246,1.171-0.614 c0.246-0.325,0.333-0.723,0.238-1.091c-0.024-0.092-0.06-0.181-0.098-0.27c-0.021-0.05-0.053-0.126-0.055-0.15 c-0.003-0.059,0.237-0.227,0.353-0.308c0.169-0.118,0.338-0.241,0.471-0.381c0.416-0.436,0.488-0.996,0.552-1.491 c0.045-0.348,0.087-0.676,0.239-0.893c0.166-0.235,0.491-0.385,0.842-0.546c0.731-0.336,1.558-0.755,2.115-1.479 c0.574-0.746,0.813-1.949,0.158-2.804c-0.285-0.372-0.67-0.595-1.071-0.809c-0.698-0.373-1.408-0.729-2.123-1.067 c-0.231-0.108-0.626-0.291-1.043-0.206c-0.771,0.154-0.948,0.889-1.078,1.426c-0.063,0.259-0.127,0.526-0.235,0.691 c-0.154,0.234-0.523,0.35-0.877,0.279c-0.342-0.071-0.693-0.288-1.075-0.666c-0.352-0.348-0.547-0.659-0.598-0.954 c-0.049-0.28,0.076-0.584,0.272-0.663c0.062-0.024,0.151-0.04,0.247-0.056c0.147-0.025,0.293-0.054,0.429-0.105 c0.272-0.103,0.5-0.315,0.606-0.569c0.089-0.211,0.09-0.438,0.001-0.641c-0.151-0.343-0.482-0.468-0.639-0.526 c-0.297-0.113-0.659-0.275-1.063-0.455c-0.874-0.389-1.95-0.86-3-1.14c0.154-0.054,0.299-0.122,0.458-0.167 c0.47-0.135,0.974-0.172,1.497-0.172c0.243,0,0.49,0.008,0.74,0.019c1.163,0.046,2.481,0.129,3.863,0.296 c0.097,0.046,0.295,0.243,0.735,0.96c0.323,0.523,0.653,1.025,1.142,1.404c0.428,0.332,0.932,0.509,1.41,0.509 c0.209,0,0.414-0.034,0.605-0.104c0.438-0.158,0.876-0.586,0.803-1.149c-0.039-0.297-0.208-0.503-0.332-0.653 c-0.036-0.045-0.074-0.089-0.103-0.135c-0.001-0.002-0.001-0.002-0.002-0.004c0.478,0.135,0.955,0.283,1.427,0.453 c3.021,1.093,5.324,3.442,7.553,5.715c3.076,3.136,4.813,6.929,5.464,11.937C44.132,24.673,44.811,31.478,41.253,35.362z"/></svg>