<?xml version="1.0" encoding="UTF-8"?>
<svg xmlns="http://www.w3.org/2000/svg" xmlns:xlink="http://www.w3.org/1999/xlink" viewBox="0 0 192 192" width="192px" height="192px">
<g id="surface165884489">
<path style=" stroke:none;fill-rule:nonzero;fill:rgb(93.725491%,27.843139%,32.941177%);fill-opacity:1;" d="M 66.414062 55.914062 C 66.414062 53.585938 66.75 45.1875 63 45.523438 L 62.960938 45.523438 C 62.664062 45.898438 62.363281 46.273438 62.101562 46.648438 C 61.835938 47.023438 61.574219 47.4375 61.351562 47.851562 C 61.273438 48.039062 61.164062 48.1875 61.085938 48.375 C 60.9375 49.460938 60.261719 50.476562 60.039062 51.601562 C 59.851562 52.726562 59.699219 53.851562 59.664062 54.976562 C 59.625 57.148438 59.773438 59.363281 59.664062 61.539062 C 59.585938 63.601562 58.949219 72.824219 63.148438 70.726562 C 68.0625 68.289062 66.414062 60.300781 66.414062 55.914062 Z M 66.414062 55.914062 "/>
<path style=" stroke:none;fill-rule:nonzero;fill:rgb(40.392157%,34.901962%,19.215687%);fill-opacity:1;" d="M 155.25 60.75 C 155.0625 50.886719 151.5 41.363281 146.664062 32.851562 C 144.375 28.800781 141.789062 25.199219 138 22.386719 C 134.585938 19.800781 130.574219 17.738281 126.335938 16.914062 C 123.9375 16.460938 121.875 16.460938 119.25 16.761719 C 118.011719 16.914062 116.699219 17.0625 115.5 17.4375 C 115.125 17.550781 114.710938 17.699219 114.335938 17.925781 C 114.335938 18.148438 114.300781 18.335938 114.226562 18.523438 C 114.335938 18.75 114.488281 18.976562 114.601562 19.199219 C 118.125 26.175781 118.875 34.539062 116.960938 42.113281 C 117 42.261719 117 42.414062 117 42.5625 C 116.886719 46.574219 119.175781 49.988281 122.101562 52.539062 C 125.4375 55.5 129.074219 56.960938 133.351562 58.164062 C 135.148438 58.648438 136.875 59.175781 138.636719 59.550781 C 139.914062 59.8125 141.1875 60.1875 142.425781 60.710938 C 142.726562 60.824219 143.023438 60.976562 143.363281 61.125 C 144.601562 60.148438 146.738281 60.488281 146.664062 62.4375 C 146.324219 68.4375 146.175781 74.550781 145.761719 80.625 C 148.238281 78.449219 150.675781 76.085938 152.363281 73.3125 C 154.6875 69.488281 155.363281 65.175781 155.25 60.75 Z M 155.25 60.75 "/>
<path style=" stroke:none;fill-rule:nonzero;fill:rgb(98.823529%,74.901962%,58.431375%);fill-opacity:1;" d="M 124.386719 136.539062 C 123.636719 134.773438 123 132.976562 122.398438 131.136719 C 122.363281 131.0625 122.363281 130.949219 122.324219 130.875 C 120.675781 131.886719 118.988281 132.789062 117.1875 133.613281 C 107.101562 138.148438 96.375 139.085938 85.6875 136.238281 C 81.824219 135.1875 77.925781 133.875 74.136719 132.261719 C 74.0625 132.5625 73.949219 132.863281 73.800781 133.125 C 74.0625 134.960938 74.324219 136.875 74.4375 138.789062 C 74.738281 138.789062 75.039062 138.898438 75.375 139.125 C 78.039062 140.886719 81.074219 141.523438 84.148438 142.125 C 87.375 142.726562 90.5625 143.4375 93.75 144.074219 C 98.363281 144.976562 103.949219 146.023438 108.300781 144.9375 C 111.898438 144 115.460938 142.800781 118.875 141.300781 C 120.375 140.625 121.835938 139.949219 123.1875 138.976562 C 123.601562 138.675781 123.898438 138.488281 124.199219 138.113281 C 123.976562 137.476562 124.085938 136.949219 124.386719 136.539062 Z M 44.886719 102.039062 C 44.175781 99.789062 43.539062 97.539062 42.976562 95.289062 C 40.835938 96.113281 40.3125 98.4375 41.023438 100.6875 C 41.8125 103.164062 43.6875 105.414062 46.273438 105.863281 C 45.75 104.585938 45.300781 103.3125 44.886719 102.039062 Z M 44.886719 102.039062 "/>
<path style=" stroke:none;fill-rule:nonzero;fill:rgb(83.92157%,89.803922%,89.803922%);fill-opacity:1;" d="M 132.113281 146.398438 C 130.539062 145.425781 129.113281 144.1875 127.875 142.648438 C 127.539062 142.199219 127.199219 141.710938 126.863281 141.261719 C 125.625 142.460938 123.898438 143.363281 122.699219 144 C 118.835938 145.949219 114.675781 147.449219 110.511719 148.613281 C 105.1875 150.039062 99.824219 149.398438 94.425781 148.425781 C 90.523438 147.710938 86.664062 146.886719 82.800781 146.101562 C 79.914062 145.539062 76.988281 144.863281 74.4375 143.398438 C 74.25 145.613281 73.6875 147.75 72.601562 149.699219 C 72.75 150 72.789062 150.375 72.75 150.789062 C 72.488281 153.675781 73.988281 157.199219 77.136719 157.835938 C 80.398438 158.511719 82.835938 155.960938 84.523438 153.523438 C 85.425781 152.25 87.601562 152.8125 88.011719 154.199219 C 88.800781 156.789062 89.550781 160.648438 92.289062 161.886719 C 95.625 163.386719 98.886719 159.824219 99.9375 156.976562 C 100.574219 155.25 103.199219 155.664062 103.726562 157.199219 C 104.773438 160.238281 108.9375 162.976562 112.050781 161.101562 C 114.300781 159.710938 117.863281 156.523438 117.710938 153.5625 C 117.636719 151.949219 119.25 150.898438 120.675781 151.539062 C 124.988281 153.488281 129.75 152.8125 132.074219 149.023438 C 131.476562 148.3125 131.25 147.261719 132.113281 146.398438 Z M 132.113281 146.398438 "/>
<path style=" stroke:none;fill-rule:nonzero;fill:rgb(98.823529%,74.901962%,58.431375%);fill-opacity:1;" d="M 145.164062 87.863281 C 144.824219 91.164062 144.335938 94.460938 143.699219 97.726562 C 145.613281 96.9375 148.050781 96.226562 148.351562 94.238281 C 148.726562 91.425781 147.1875 89.476562 145.164062 87.863281 Z M 140.773438 64.5 C 140.324219 64.3125 139.875 64.164062 139.425781 64.011719 C 138.898438 63.863281 138.375 63.710938 137.851562 63.601562 C 137.8125 63.601562 137.324219 63.523438 137.398438 63.523438 C 137.0625 63.523438 136.726562 63.449219 136.386719 63.300781 C 132.449219 62.175781 127.988281 61.386719 124.425781 59.289062 C 120.449219 56.960938 116.398438 53.476562 114.300781 49.199219 C 110.738281 55.988281 104.699219 61.3125 97.875 64.761719 C 90.074219 68.699219 81.148438 70.3125 72.449219 70.273438 C 71.398438 70.273438 70.351562 70.238281 69.261719 70.164062 C 69 70.726562 68.699219 71.25 68.324219 71.773438 C 66.5625 74.136719 62.398438 76.460938 59.511719 74.699219 C 57.414062 73.425781 56.363281 71.175781 55.875 68.8125 C 52.164062 68.511719 48.488281 68.4375 44.8125 69.074219 C 44.511719 69.375 44.101562 69.5625 43.539062 69.5625 C 43.648438 75.5625 44.289062 81.523438 45.414062 87.414062 C 46.539062 93.261719 47.886719 99.335938 50.289062 104.8125 C 54.1875 113.8125 61.164062 120.863281 69.75 125.511719 C 79.164062 130.613281 90.335938 134.699219 101.175781 133.800781 C 110.625 133.050781 120.300781 128.738281 127.050781 122.0625 C 141.636719 107.664062 141.449219 85.539062 142.3125 66.226562 C 141.523438 66.074219 140.925781 65.324219 140.773438 64.5 Z M 76.085938 86.625 C 72.710938 84 67.613281 83.625 64.761719 87.1875 C 63.113281 89.25 60 86.550781 61.648438 84.449219 C 65.960938 79.050781 73.726562 79.539062 78.824219 83.511719 C 80.925781 85.164062 78.1875 88.273438 76.085938 86.625 Z M 103.351562 110.8125 C 98.511719 115.011719 91.835938 115.273438 86.960938 111.039062 C 84.9375 109.3125 87.675781 106.199219 89.699219 107.925781 C 93.300781 111.039062 97.613281 110.363281 101.0625 107.398438 C 103.085938 105.636719 105.335938 109.085938 103.351562 110.8125 Z M 126.226562 82.3125 C 124.835938 83.101562 123.414062 82.164062 123.039062 81 C 122.886719 80.886719 122.773438 80.773438 122.625 80.664062 C 122.210938 80.363281 121.835938 80.101562 121.386719 79.835938 C 120.636719 79.386719 119.773438 78.789062 118.914062 78.5625 C 118.273438 78.414062 117.5625 78.449219 116.886719 78.636719 C 116.476562 78.75 115.988281 78.863281 115.613281 79.085938 C 115.574219 79.125 115.539062 79.125 115.5 79.164062 C 115.988281 81.414062 112.425781 82.539062 111.488281 80.175781 C 109.761719 75.710938 116.738281 73.574219 119.960938 74.625 C 121.988281 75.261719 123.976562 76.460938 125.625 77.773438 C 126.9375 78.824219 128.324219 81.113281 126.226562 82.3125 Z M 126.226562 82.3125 "/>
<path style=" stroke:none;fill-rule:nonzero;fill:rgb(40.392157%,34.901962%,19.215687%);fill-opacity:1;" d="M 109.875 19.125 C 109.761719 18.9375 109.6875 18.75 109.613281 18.5625 C 104.136719 15.789062 98.8125 13.050781 92.625 12.300781 C 87 11.625 81.375 12.976562 76.085938 14.851562 C 70.914062 16.6875 65.738281 18.75 60.976562 21.523438 C 51.789062 26.886719 43.875 33.976562 36.710938 41.773438 C 30 48.976562 25.875 59.585938 26.25 69.5625 C 26.625 78.710938 33.824219 85.425781 41.585938 89.25 C 40.199219 82.238281 39.414062 75.113281 39.375 67.988281 C 39.375 67.085938 39.863281 66.449219 40.460938 66.113281 C 40.6875 65.851562 41.023438 65.625 41.476562 65.511719 C 46.125 64.386719 50.738281 64.238281 55.425781 64.574219 C 55.425781 63.898438 55.460938 63.226562 55.5 62.550781 C 55.6875 59.925781 55.386719 57.261719 55.539062 54.601562 C 55.761719 50.699219 56.664062 47.101562 58.949219 43.914062 C 59.585938 43.011719 60.601562 41.398438 61.761719 41.136719 C 62.511719 40.988281 63.1875 41.0625 63.710938 41.363281 C 65.023438 41.4375 66.335938 41.925781 67.238281 42.898438 C 71.289062 47.363281 70.5 54.9375 70.574219 60.5625 C 70.613281 62.324219 70.613281 64.199219 70.351562 66.039062 C 78.601562 66.226562 87.039062 65.175781 94.613281 61.6875 C 102.261719 58.199219 109.125 52.085938 112.050781 44.023438 C 115.011719 36 114.414062 26.511719 109.875 19.125 Z M 169.050781 113.550781 C 163.238281 102.824219 159.414062 90.5625 149.324219 82.875 C 148.761719 83.398438 148.164062 83.925781 147.601562 84.449219 C 147.675781 84.523438 147.75 84.601562 147.824219 84.675781 C 147.898438 84.75 147.976562 84.863281 148.050781 84.9375 C 150.898438 87.300781 153.039062 90.5625 152.4375 94.460938 C 152.101562 96.5625 151.050781 98.550781 149.136719 99.675781 C 147.675781 100.5 146.023438 100.914062 144.601562 101.8125 C 143.925781 102.226562 143.25 102.226562 142.6875 101.960938 C 142.164062 104.023438 141.523438 106.085938 140.8125 108.113281 C 137.8125 116.363281 132.449219 123.5625 125.476562 128.738281 C 125.8125 128.960938 126.113281 129.300781 126.261719 129.789062 C 127.835938 134.511719 129.601562 139.835938 133.949219 142.800781 C 137.664062 145.351562 142.351562 145.164062 146.773438 145.613281 C 147.1875 144.523438 148.386719 144.039062 149.398438 144.261719 C 154.875 140.210938 160.273438 135.710938 165.039062 130.914062 C 167.324219 128.585938 169.6875 126.039062 170.773438 122.886719 C 171.824219 119.8125 170.550781 116.289062 169.050781 113.550781 Z M 69.414062 131.363281 C 69.375 130.949219 69.488281 130.539062 69.710938 130.164062 C 65.960938 128.25 62.4375 125.960938 59.25 123.335938 C 54.75 119.585938 51 115.050781 48.261719 109.949219 C 48.074219 110.023438 47.886719 110.023438 47.664062 110.0625 C 42.601562 110.175781 38.0625 106.386719 36.976562 101.4375 C 36.414062 98.738281 36.75 96.226562 38.023438 94.3125 C 37.988281 94.3125 37.949219 94.3125 37.914062 94.351562 C 36.261719 94.613281 34.574219 98.175781 33.863281 99.523438 C 32.664062 101.773438 31.648438 104.101562 30.449219 106.351562 C 26.476562 113.773438 24.148438 122.738281 24.074219 131.175781 C 24.074219 131.8125 23.8125 132.488281 23.363281 132.9375 C 23.0625 133.988281 22.761719 135.148438 22.949219 136.164062 C 23.175781 137.398438 24.488281 138.824219 25.3125 139.648438 C 28.460938 142.875 32.25 145.164062 36.226562 147.226562 C 39.601562 148.949219 43.085938 150.523438 46.613281 151.875 C 49.648438 153.039062 53.023438 154.351562 56.324219 154.425781 C 56.925781 154.425781 57.414062 154.6875 57.789062 155.023438 C 58.914062 154.6875 59.960938 154.351562 60.863281 154.011719 C 64.800781 152.476562 68.773438 150.113281 69.824219 145.6875 C 70.949219 140.851562 70.011719 136.050781 69.414062 131.363281 Z M 69.414062 131.363281 "/>
<path style=" stroke:none;fill-rule:nonzero;fill:rgb(93.725491%,27.843139%,32.941177%);fill-opacity:1;" d="M 153.675781 151.875 C 149.363281 149.363281 144.335938 149.738281 139.574219 149.023438 C 138.675781 148.875 137.773438 148.6875 136.914062 148.460938 C 135.75 151.875 133.460938 154.835938 129.898438 156.074219 C 127.125 157.011719 124.238281 156.9375 121.5 156.148438 C 120.261719 160.011719 116.585938 163.6875 113.289062 165.074219 C 109.273438 166.761719 104.664062 165.113281 101.925781 161.925781 C 99.5625 164.960938 95.699219 167.175781 91.988281 166.085938 C 88.386719 165.039062 86.550781 162.148438 85.3125 158.925781 C 82.613281 161.398438 79.050781 162.9375 75.375 161.511719 C 71.851562 160.164062 69.710938 157.351562 68.960938 153.976562 C 67.125 155.511719 65.023438 156.675781 62.699219 157.539062 C 58.835938 159.039062 54.601562 159.824219 50.925781 161.773438 C 49.5 162.523438 47.25 163.726562 47.476562 165.675781 C 47.625 167.210938 48.636719 168.636719 49.648438 169.6875 C 52.914062 173.0625 57.148438 175.425781 61.425781 177.261719 C 71.585938 181.613281 82.613281 182.625 93.523438 183.261719 C 104.773438 183.9375 116.363281 183.675781 127.3125 180.710938 C 134.289062 178.835938 140.289062 176.023438 146.0625 171.75 C 148.761719 169.761719 151.351562 167.625 153.523438 165.113281 C 155.25 163.125 157.011719 160.726562 157.3125 158.023438 C 157.574219 155.511719 155.8125 153.113281 153.675781 151.875 Z M 153.675781 151.875 "/>
<path style=" stroke:none;fill-rule:nonzero;fill:rgb(0%,0%,0%);fill-opacity:1;" d="M 173.925781 114.335938 C 172.761719 111.300781 171.039062 108.488281 169.6875 105.523438 C 168.1875 102.261719 166.648438 99.039062 164.925781 95.886719 C 161.699219 89.925781 157.6875 84.148438 152.289062 79.988281 C 153.449219 78.75 154.5 77.476562 155.476562 76.050781 C 158.289062 71.886719 159.148438 67.351562 159.375 62.363281 C 159.863281 51.601562 155.773438 40.949219 150.710938 31.6875 C 148.3125 27.261719 145.539062 23.324219 141.675781 20.0625 C 137.925781 16.914062 133.5 14.625 128.8125 13.273438 C 125.925781 12.449219 123.039062 12.335938 120.074219 12.5625 C 117.375 12.75 113.960938 13.050781 111.75 14.738281 C 111.675781 14.773438 111.636719 14.851562 111.5625 14.886719 C 106.761719 12.488281 102.039062 9.9375 96.75 8.773438 C 91.351562 7.574219 85.988281 7.914062 80.625 9.1875 C 75.1875 10.460938 69.976562 12.75 64.835938 14.925781 C 60 16.875 55.460938 19.875 51.300781 22.914062 C 47.0625 25.949219 43.125 29.4375 39.375 33.074219 C 35.664062 36.675781 32.0625 40.351562 29.210938 44.699219 C 26.476562 48.863281 24.636719 53.585938 23.476562 58.425781 C 22.351562 63.074219 21.601562 68.363281 22.5 73.125 C 23.925781 80.699219 29.398438 86.664062 35.8125 90.75 C 33.9375 91.6875 32.625 93.5625 31.460938 95.324219 C 29.738281 97.949219 28.460938 100.875 27.074219 103.6875 C 23.023438 111.9375 20.25 120.789062 19.949219 130.011719 C 19.761719 130.273438 19.648438 130.539062 19.574219 130.835938 C 19.164062 132.5625 18.675781 134.289062 18.75 136.050781 C 18.824219 137.664062 19.761719 139.125 20.664062 140.363281 C 23.585938 144.375 27.863281 147.226562 32.136719 149.585938 C 36.039062 151.761719 40.085938 153.601562 44.210938 155.210938 C 46.199219 156 48.300781 156.789062 50.398438 157.386719 C 45.898438 159.335938 42.261719 162.226562 43.5 167.25 C 44.398438 170.925781 47.550781 173.8125 50.511719 175.949219 C 54.710938 178.988281 59.550781 181.199219 64.425781 182.851562 C 74.699219 186.335938 85.835938 187.050781 96.601562 187.539062 C 107.8125 188.023438 119.101562 187.3125 129.9375 184.273438 C 136.6875 182.398438 142.6875 179.289062 148.351562 175.199219 C 153.375 171.5625 159.039062 166.800781 160.914062 160.613281 C 162.898438 154.164062 158.363281 149.101562 152.738281 146.886719 C 158.289062 142.6875 163.6875 138.074219 168.5625 133.199219 C 171 130.761719 173.210938 127.949219 174.488281 124.6875 C 175.835938 121.238281 175.238281 117.710938 173.925781 114.335938 Z M 114.375 17.886719 C 114.710938 17.664062 115.125 17.550781 115.539062 17.398438 C 116.738281 16.988281 118.011719 16.835938 119.289062 16.726562 C 121.914062 16.425781 123.976562 16.425781 126.375 16.875 C 130.613281 17.699219 134.625 19.761719 138.039062 22.351562 C 141.789062 25.199219 144.375 28.761719 146.699219 32.8125 C 151.539062 41.289062 155.101562 50.851562 155.289062 60.710938 C 155.363281 65.136719 154.6875 69.449219 152.363281 73.273438 C 150.675781 76.050781 148.238281 78.414062 145.761719 80.585938 C 146.175781 74.511719 146.324219 68.398438 146.664062 62.398438 C 146.773438 60.449219 144.601562 60.148438 143.363281 61.085938 C 143.023438 60.9375 142.726562 60.789062 142.425781 60.675781 C 141.226562 60.1875 139.914062 59.8125 138.636719 59.511719 C 136.875 59.136719 135.113281 58.613281 133.351562 58.125 C 129.074219 56.925781 125.476562 55.460938 122.101562 52.5 C 119.210938 49.949219 116.886719 46.539062 117 42.523438 C 117 42.375 117 42.226562 116.960938 42.074219 C 118.875 34.460938 118.125 26.136719 114.601562 19.164062 C 114.488281 18.9375 114.375 18.710938 114.226562 18.488281 C 114.335938 18.300781 114.335938 18.113281 114.375 17.886719 Z M 148.3125 94.238281 C 148.011719 96.226562 145.574219 96.9375 143.664062 97.726562 C 144.300781 94.460938 144.789062 91.164062 145.125 87.863281 C 147.1875 89.476562 148.726562 91.425781 148.3125 94.238281 Z M 132.148438 148.988281 C 129.824219 152.773438 125.0625 153.449219 120.75 151.5 C 119.324219 150.863281 117.675781 151.914062 117.789062 153.523438 C 117.976562 156.488281 114.414062 159.675781 112.125 161.0625 C 109.011719 162.976562 104.8125 160.199219 103.800781 157.164062 C 103.273438 155.585938 100.648438 155.175781 100.011719 156.9375 C 98.960938 159.824219 95.699219 163.351562 92.363281 161.851562 C 89.585938 160.613281 88.835938 156.75 88.085938 154.164062 C 87.675781 152.773438 85.460938 152.210938 84.601562 153.488281 C 82.914062 155.925781 80.4375 158.476562 77.210938 157.800781 C 74.0625 157.164062 72.523438 153.636719 72.824219 150.75 C 72.863281 150.335938 72.789062 150 72.675781 149.664062 C 73.800781 147.710938 74.324219 145.574219 74.511719 143.363281 C 77.0625 144.824219 79.988281 145.5 82.875 146.0625 C 86.738281 146.851562 90.636719 147.636719 94.5 148.386719 C 99.863281 149.398438 105.261719 150.039062 110.585938 148.574219 C 114.789062 147.449219 118.914062 145.949219 122.773438 143.960938 C 123.976562 143.363281 125.699219 142.425781 126.9375 141.226562 C 127.238281 141.710938 127.574219 142.164062 127.949219 142.613281 C 129.1875 144.1875 130.613281 145.425781 132.1875 146.363281 C 131.25 147.261719 131.476562 148.3125 132.148438 148.988281 Z M 124.199219 138.074219 C 123.898438 138.449219 123.601562 138.636719 123.1875 138.9375 C 121.875 139.875 120.375 140.585938 118.875 141.261719 C 115.460938 142.761719 111.898438 144 108.300781 144.898438 C 103.949219 146.023438 98.398438 144.9375 93.75 144.039062 C 90.523438 143.4375 87.335938 142.726562 84.148438 142.085938 C 81.074219 141.488281 78 140.851562 75.375 139.085938 C 75.039062 138.863281 74.738281 138.789062 74.4375 138.75 C 74.324219 136.835938 74.0625 134.925781 73.800781 133.085938 C 73.949219 132.824219 74.101562 132.523438 74.136719 132.226562 C 77.925781 133.835938 81.824219 135.148438 85.6875 136.199219 C 96.414062 139.085938 107.136719 138.113281 117.1875 133.574219 C 118.949219 132.789062 120.675781 131.851562 122.324219 130.835938 C 122.324219 130.914062 122.363281 131.023438 122.398438 131.101562 C 123 132.898438 123.636719 134.738281 124.386719 136.5 C 124.085938 136.949219 123.976562 137.476562 124.199219 138.074219 Z M 101.175781 133.761719 C 90.300781 134.625 79.164062 130.574219 69.75 125.476562 C 61.199219 120.824219 54.1875 113.773438 50.289062 104.773438 C 47.925781 99.300781 46.539062 93.226562 45.414062 87.375 C 44.289062 81.488281 43.648438 75.523438 43.539062 69.523438 C 44.101562 69.523438 44.511719 69.335938 44.8125 69.039062 C 48.488281 68.398438 52.199219 68.476562 55.875 68.773438 C 56.363281 71.136719 57.414062 73.386719 59.511719 74.664062 C 62.398438 76.425781 66.5625 74.101562 68.324219 71.738281 C 68.699219 71.25 69 70.6875 69.261719 70.125 C 70.3125 70.199219 71.363281 70.238281 72.449219 70.238281 C 81.148438 70.3125 90.074219 68.664062 97.875 64.726562 C 104.699219 61.273438 110.738281 55.949219 114.300781 49.164062 C 116.363281 53.4375 120.449219 56.925781 124.425781 59.25 C 127.988281 61.351562 132.449219 62.136719 136.386719 63.261719 C 136.726562 63.414062 137.023438 63.488281 137.398438 63.488281 C 137.324219 63.488281 137.8125 63.5625 137.851562 63.5625 C 138.375 63.675781 138.898438 63.824219 139.425781 63.976562 C 139.875 64.125 140.324219 64.273438 140.773438 64.460938 C 140.925781 65.289062 141.523438 66.039062 142.351562 66.148438 C 141.488281 85.460938 141.636719 107.585938 127.085938 121.988281 C 120.335938 128.699219 110.625 132.976562 101.175781 133.761719 Z M 46.273438 105.824219 C 43.6875 105.375 41.8125 103.164062 41.023438 100.648438 C 40.3125 98.398438 40.835938 96.039062 42.976562 95.25 C 43.539062 97.539062 44.175781 99.789062 44.886719 102 C 45.300781 103.3125 45.75 104.585938 46.273438 105.824219 Z M 59.699219 54.976562 C 59.738281 53.851562 59.886719 52.6875 60.074219 51.601562 C 60.261719 50.511719 60.9375 49.460938 61.125 48.375 C 61.199219 48.1875 61.3125 48.039062 61.386719 47.851562 C 61.613281 47.4375 61.875 47.023438 62.136719 46.648438 C 62.398438 46.273438 62.699219 45.898438 63 45.523438 L 63.039062 45.523438 C 66.789062 45.1875 66.449219 53.585938 66.449219 55.914062 C 66.449219 60.335938 68.101562 68.289062 63.226562 70.726562 C 59.023438 72.824219 59.664062 63.601562 59.738281 61.539062 C 59.8125 59.363281 59.664062 57.148438 59.699219 54.976562 Z M 26.25 69.5625 C 25.835938 59.625 29.960938 49.011719 36.675781 41.738281 C 43.875 33.976562 51.789062 26.851562 60.9375 21.488281 C 65.699219 18.710938 70.875 16.648438 76.050781 14.8125 C 81.335938 12.9375 86.960938 11.585938 92.585938 12.261719 C 98.773438 13.011719 104.101562 15.75 109.574219 18.523438 C 109.613281 18.710938 109.726562 18.898438 109.835938 19.085938 C 114.375 26.476562 114.976562 35.960938 112.050781 44.0625 C 109.125 52.125 102.261719 58.238281 94.613281 61.726562 C 87.039062 65.175781 78.601562 66.261719 70.351562 66.074219 C 70.613281 64.238281 70.613281 62.363281 70.574219 60.601562 C 70.5 54.976562 71.289062 47.398438 67.238281 42.9375 C 66.335938 41.960938 65.023438 41.476562 63.710938 41.398438 C 63.1875 41.101562 62.511719 40.988281 61.761719 41.175781 C 60.5625 41.4375 59.585938 43.011719 58.949219 43.949219 C 56.699219 47.175781 55.761719 50.738281 55.539062 54.636719 C 55.386719 57.261719 55.648438 59.925781 55.5 62.585938 C 55.460938 63.261719 55.425781 63.9375 55.425781 64.613281 C 50.699219 64.238281 46.085938 64.425781 41.476562 65.550781 C 41.023438 65.664062 40.6875 65.886719 40.460938 66.148438 C 39.824219 66.488281 39.335938 67.125 39.375 68.023438 C 39.414062 75.148438 40.164062 82.273438 41.585938 89.289062 C 33.863281 85.425781 26.625 78.675781 26.25 69.5625 Z M 46.613281 151.726562 C 43.050781 150.375 39.601562 148.800781 36.226562 147.074219 C 32.25 145.050781 28.460938 142.726562 25.3125 139.5 C 24.488281 138.675781 23.175781 137.25 22.949219 136.011719 C 22.761719 135 23.0625 133.835938 23.363281 132.789062 C 23.8125 132.335938 24.074219 131.664062 24.074219 131.023438 C 24.148438 122.625 26.476562 113.625 30.449219 106.199219 C 31.648438 103.949219 32.664062 101.625 33.863281 99.375 C 34.613281 98.023438 36.261719 94.460938 37.914062 94.199219 C 37.949219 94.199219 37.988281 94.199219 38.023438 94.164062 C 36.75 96.074219 36.414062 98.625 36.976562 101.289062 C 38.023438 106.238281 42.601562 110.023438 47.664062 109.914062 C 47.886719 109.914062 48.074219 109.875 48.261719 109.800781 C 51.039062 114.898438 54.789062 119.4375 59.25 123.1875 C 62.4375 125.851562 65.960938 128.101562 69.710938 130.011719 C 69.488281 130.386719 69.375 130.800781 69.414062 131.210938 C 70.011719 135.898438 70.949219 140.699219 69.789062 145.386719 C 68.699219 149.773438 64.761719 152.175781 60.824219 153.710938 C 59.960938 154.050781 58.914062 154.386719 57.75 154.726562 C 57.414062 154.386719 56.925781 154.164062 56.289062 154.125 C 52.988281 154.199219 49.648438 152.886719 46.613281 151.726562 Z M 153.675781 151.875 C 155.8125 153.148438 157.574219 155.511719 157.273438 158.101562 C 156.976562 160.800781 155.210938 163.199219 153.488281 165.1875 C 151.3125 167.699219 148.726562 169.875 146.023438 171.824219 C 140.210938 176.0625 134.210938 178.914062 127.273438 180.789062 C 116.324219 183.710938 104.738281 184.011719 93.488281 183.335938 C 82.574219 182.664062 71.511719 181.6875 61.386719 177.335938 C 57.113281 175.5 52.875 173.136719 49.613281 169.761719 C 48.5625 168.675781 47.585938 167.25 47.4375 165.75 C 47.25 163.800781 49.460938 162.601562 50.886719 161.851562 C 54.5625 159.898438 58.800781 159.113281 62.664062 157.613281 C 64.988281 156.710938 67.085938 155.550781 68.925781 154.050781 C 69.675781 157.386719 71.8125 160.238281 75.335938 161.585938 C 79.011719 163.011719 82.574219 161.511719 85.273438 159 C 86.511719 162.226562 88.351562 165.113281 91.949219 166.164062 C 95.699219 167.25 99.523438 165.039062 101.886719 162 C 104.664062 165.1875 109.273438 166.800781 113.25 165.148438 C 116.585938 163.761719 120.261719 160.050781 121.460938 156.226562 C 124.199219 157.011719 127.085938 157.085938 129.863281 156.148438 C 133.386719 154.949219 135.675781 151.949219 136.875 148.539062 C 137.738281 148.761719 138.636719 148.949219 139.539062 149.101562 C 144.335938 149.738281 149.363281 149.324219 153.675781 151.875 Z M 170.773438 122.886719 C 169.726562 126.039062 167.363281 128.625 165.039062 130.914062 C 160.273438 135.710938 154.875 140.210938 149.398438 144.261719 C 148.425781 144.039062 147.1875 144.488281 146.773438 145.613281 C 142.351562 145.164062 137.664062 145.351562 133.949219 142.800781 C 129.636719 139.835938 127.875 134.511719 126.261719 129.789062 C 126.113281 129.300781 125.8125 128.960938 125.476562 128.738281 C 132.414062 123.523438 137.8125 116.363281 140.8125 108.113281 C 141.5625 106.085938 142.164062 104.023438 142.6875 101.960938 C 143.25 102.226562 143.925781 102.226562 144.601562 101.8125 C 146.023438 100.949219 147.675781 100.5 149.136719 99.675781 C 151.050781 98.585938 152.101562 96.601562 152.4375 94.460938 C 153.039062 90.523438 150.898438 87.300781 148.050781 84.9375 C 147.976562 84.863281 147.898438 84.75 147.824219 84.675781 C 147.75 84.601562 147.675781 84.523438 147.601562 84.449219 C 148.199219 83.925781 148.761719 83.398438 149.324219 82.875 C 159.414062 90.5625 163.238281 102.824219 169.050781 113.550781 C 170.550781 116.289062 171.824219 119.8125 170.773438 122.886719 Z M 170.773438 122.886719 "/>
<path style=" stroke:none;fill-rule:nonzero;fill:rgb(0%,0%,0%);fill-opacity:1;" d="M 78.824219 83.550781 C 73.761719 79.574219 65.960938 79.125 61.648438 84.488281 C 60 86.550781 63.074219 89.289062 64.761719 87.226562 C 67.613281 83.664062 72.710938 84.039062 76.085938 86.664062 C 78.1875 88.273438 80.925781 85.164062 78.824219 83.550781 Z M 125.625 77.738281 C 124.011719 76.386719 121.988281 75.226562 119.960938 74.585938 C 116.738281 73.574219 109.761719 75.710938 111.488281 80.136719 C 112.386719 82.5 115.988281 81.375 115.5 79.125 C 115.539062 79.085938 115.574219 79.085938 115.613281 79.050781 C 115.988281 78.824219 116.476562 78.710938 116.886719 78.601562 C 117.5625 78.414062 118.273438 78.335938 118.914062 78.523438 C 119.773438 78.75 120.636719 79.351562 121.386719 79.800781 C 121.800781 80.0625 122.210938 80.324219 122.625 80.625 C 122.773438 80.738281 122.925781 80.851562 123.039062 80.960938 C 123.414062 82.125 124.800781 83.0625 126.226562 82.273438 C 128.324219 81.113281 126.9375 78.824219 125.625 77.738281 Z M 101.0625 107.363281 C 97.613281 110.324219 93.300781 111.039062 89.699219 107.886719 C 87.675781 106.125 84.976562 109.238281 86.960938 111 C 91.875 115.238281 98.511719 114.976562 103.351562 110.773438 C 105.335938 109.085938 103.085938 105.636719 101.0625 107.363281 Z M 101.0625 107.363281 "/>
</g>
</svg>
