<?xml version="1.0" encoding="UTF-8"?>
<svg xmlns="http://www.w3.org/2000/svg" xmlns:xlink="http://www.w3.org/1999/xlink" viewBox="0 0 192 192" width="192px" height="192px">
<g id="surface162503130">
<path style=" stroke:none;fill-rule:nonzero;fill:rgb(62.352943%,85.490197%,87.450981%);fill-opacity:1;" d="M 92.359375 32.914062 C 69.226562 32.46875 43.3125 56.9375 37.246094 82.386719 C 34.894531 92.257812 34.878906 102.605469 36.523438 112.617188 C 37.558594 118.925781 39.308594 125.253906 42.890625 130.542969 C 49.699219 140.601562 61.882812 145.367188 73.472656 148.996094 C 78.664062 150.621094 83.890625 152.136719 89.152344 153.535156 C 92.859375 154.523438 96.617188 155.460938 100.449219 155.613281 C 106.273438 155.84375 112.011719 154.265625 117.515625 152.355469 C 125.828125 149.472656 133.933594 145.765625 140.957031 140.46875 C 147.984375 135.175781 153.90625 128.210938 157.070312 120 C 159.476562 113.757812 160.226562 107.003906 160.535156 100.320312 C 161.039062 89.328125 160.355469 78.074219 156.398438 67.808594 C 152.445312 57.539062 144.863281 48.300781 134.636719 44.234375 C 132.464844 43.371094 130.203125 42.753906 128.015625 41.929688 C 121.171875 39.355469 114.890625 34.792969 107.601562 34.210938 C 102.597656 33.816406 97.378906 33.011719 92.359375 32.914062 Z M 92.359375 32.914062 "/>
<path style=" stroke:none;fill-rule:nonzero;fill:rgb(83.137256%,88.627452%,66.274512%);fill-opacity:1;" d="M 157.394531 61.984375 C 148.910156 61.34375 140.464844 65.28125 135.894531 72.296875 C 131.332031 79.3125 130.101562 87.929688 130.117188 96.242188 C 130.121094 98.640625 130.21875 101.050781 130.800781 103.378906 C 132.230469 109.136719 136.554688 113.953125 141.796875 116.9375 C 147.035156 119.921875 153.125 121.222656 159.171875 121.660156 C 162.539062 121.902344 166.007812 121.875 169.175781 120.730469 C 173.21875 119.273438 176.386719 116.136719 179.035156 112.808594 C 184.847656 105.503906 188.851562 96.722656 189.808594 87.519531 C 190.230469 83.445312 190.023438 79.164062 188.105469 75.519531 C 185.867188 71.28125 181.589844 68.417969 177.148438 66.429688 C 170.988281 63.671875 164.152344 62.496094 157.394531 61.984375 Z M 157.394531 61.984375 "/>
<path style=" stroke:none;fill-rule:nonzero;fill:rgb(96.078432%,51.764709%,12.54902%);fill-opacity:1;" d="M 115.992188 14.253906 C 110.9375 10.355469 107.308594 10.363281 102.714844 8.84375 C 93.621094 5.828125 82.960938 8.15625 75.953125 14.691406 C 68.945312 21.226562 65.871094 31.695312 68.238281 40.980469 C 70.609375 50.265625 78.324219 57.984375 87.609375 60.355469 C 91.222656 61.28125 94.992188 61.445312 98.722656 61.394531 C 104.824219 61.316406 111.359375 60.511719 115.957031 56.496094 C 118.097656 54.625 119.65625 52.179688 120.941406 49.644531 C 123.960938 43.683594 125.601562 36.765625 124.058594 30.261719 C 122.515625 23.753906 121.285156 18.328125 115.992188 14.253906 Z M 115.992188 14.253906 "/>
<path style=" stroke:none;fill-rule:nonzero;fill:rgb(99.607843%,74.901962%,6.27451%);fill-opacity:1;" d="M 103.910156 126.707031 C 97.734375 126.523438 94.488281 125.140625 88.539062 126.804688 C 82.59375 128.46875 77.167969 132.199219 74.164062 137.421875 C 71.46875 142.105469 70.839844 147.605469 70.335938 152.9375 C 69.925781 157.269531 69.585938 161.800781 71.300781 165.824219 C 72.640625 168.96875 75.136719 171.535156 77.871094 173.683594 C 87.785156 181.472656 102.199219 184.324219 113.84375 179.21875 C 125.488281 174.117188 132.855469 160.410156 128.828125 148.722656 C 126.714844 142.601562 122.007812 137.660156 117.125 133.242188 C 112.644531 129.195312 110.039062 126.890625 103.910156 126.707031 Z M 103.910156 126.707031 "/>
<path style=" stroke:none;fill-rule:nonzero;fill:rgb(79.607844%,85.882354%,17.647059%);fill-opacity:1;" d="M 52.347656 79.273438 C 50.285156 76.578125 47.382812 75.320312 44.324219 73.859375 C 41.242188 72.386719 38.125 70.902344 34.785156 70.203125 C 28.117188 68.8125 21.03125 70.730469 15.335938 74.472656 C 5.539062 80.90625 -0.382812 93.683594 3.128906 104.867188 C 6.457031 115.480469 17.074219 122.34375 27.871094 125.03125 C 34.695312 126.730469 42.214844 127.046875 48.488281 123.859375 C 57.46875 119.296875 61.796875 108.460938 61.636719 98.386719 C 61.59375 95.546875 61.238281 92.652344 60.015625 90.089844 C 58.058594 85.992188 55.105469 82.867188 52.347656 79.273438 Z M 52.347656 79.273438 "/>
<path style=" stroke:none;fill-rule:nonzero;fill:rgb(77.254903%,39.607844%,15.686275%);fill-opacity:1;" d="M 117.683594 176.585938 C 113.746094 168.9375 108.125 161.894531 99.527344 161.507812 C 97.292969 161.40625 95 161.546875 92.914062 162.367188 C 91.621094 162.875 90.441406 163.636719 89.308594 164.445312 C 85.472656 167.199219 82.128906 170.640625 79.484375 174.550781 C 79.484375 174.554688 96.785156 188.5 117.683594 176.585938 Z M 117.683594 176.585938 "/>
<path style=" stroke:none;fill-rule:nonzero;fill:rgb(29.411766%,48.235294%,69.803923%);fill-opacity:1;" d="M 178.449219 113.527344 C 174.46875 106.980469 170.203125 98.386719 162.558594 97.875 C 160.824219 97.761719 157.441406 97.949219 155.746094 98.351562 C 153.796875 98.816406 151.585938 101.128906 149.921875 102.253906 C 145.453125 105.273438 142.671875 109.511719 140.476562 114.4375 C 140.476562 114.4375 161.335938 131.179688 178.449219 113.527344 Z M 178.449219 113.527344 "/>
<path style=" stroke:none;fill-rule:nonzero;fill:rgb(98.823529%,74.901962%,58.431375%);fill-opacity:1;" d="M 104.894531 138.464844 C 102.941406 137.355469 100.214844 137.640625 98.054688 138.148438 C 95.929688 138.652344 93.707031 139.542969 92.480469 141.472656 C 91.558594 142.914062 91.332031 144.71875 91.128906 146.453125 C 90.96875 147.800781 90.828125 149.246094 91.4375 150.441406 C 92.222656 151.984375 93.984375 152.585938 95.578125 153.011719 C 98.414062 153.773438 101.570312 154.394531 104.132812 152.890625 C 105.921875 151.839844 107.109375 149.898438 107.878906 147.878906 C 108.5 146.257812 108.898438 144.460938 108.550781 142.742188 C 108.203125 141.027344 106.347656 139.289062 104.894531 138.464844 Z M 104.894531 138.464844 "/>
<path style=" stroke:none;fill-rule:nonzero;fill:rgb(0.392157%,0.392157%,0.392157%);fill-opacity:1;" d="M 106.632812 137.308594 C 106.464844 137.085938 106.238281 136.882812 105.90625 136.734375 C 105.605469 136.539062 105.304688 136.457031 105.019531 136.433594 C 100.414062 134.855469 93.957031 136.027344 91.046875 140.074219 C 88.058594 144.234375 87.742188 151.851562 92.960938 154.21875 C 98.007812 156.511719 104.679688 156.734375 108.113281 151.753906 C 111.597656 146.695312 111.460938 140.960938 106.632812 137.308594 Z M 104.308594 150.160156 C 102.171875 152.496094 97.953125 152.078125 95.300781 150.851562 C 92.378906 149.503906 92.472656 145.023438 94.203125 142.480469 C 95.949219 139.921875 101.199219 138.992188 103.886719 140.1875 C 107.574219 142.566406 107.089844 147.125 104.308594 150.160156 Z M 104.308594 150.160156 "/>
<path style=" stroke:none;fill-rule:nonzero;fill:rgb(8.627451%,71.764708%,72.156864%);fill-opacity:1;" d="M 116.832031 55.125 C 115.296875 50.625 112.894531 46.105469 108.511719 44.257812 C 104.128906 42.410156 99.261719 42.015625 94.511719 42.222656 C 92.808594 42.296875 91.078125 42.453125 89.492188 43.074219 C 87.695312 43.785156 86.1875 45.050781 84.714844 46.300781 C 81.722656 48.835938 78.691406 49.800781 76.496094 53.046875 C 76.492188 53.050781 95.832031 70.832031 116.832031 55.125 Z M 116.832031 55.125 "/>
<path style=" stroke:none;fill-rule:nonzero;fill:rgb(77.254903%,39.607844%,15.686275%);fill-opacity:1;" d="M 158.988281 74.988281 C 157.300781 75.175781 155.71875 75.972656 154.378906 77.019531 C 153.554688 77.664062 152.796875 78.425781 152.347656 79.363281 C 151.84375 80.421875 151.765625 81.625 151.789062 82.792969 C 151.828125 84.710938 152.222656 86.820312 153.722656 88.023438 C 154.296875 88.484375 154.984375 88.773438 155.671875 89.019531 C 157.175781 89.5625 158.765625 89.960938 160.359375 89.886719 C 163.339844 89.757812 166.175781 87.878906 167.464844 85.1875 C 168.726562 82.542969 168.296875 78.96875 165.945312 77.226562 C 165.085938 76.597656 160.679688 74.800781 158.988281 74.988281 Z M 158.988281 74.988281 "/>
<path style=" stroke:none;fill-rule:nonzero;fill:rgb(0.392157%,0.392157%,0.392157%);fill-opacity:1;" d="M 169.6875 79.195312 C 168.328125 75.164062 163 72.925781 158.988281 72.988281 C 158.859375 72.992188 158.765625 73.039062 158.648438 73.0625 C 158.578125 73.070312 158.523438 73.046875 158.457031 73.058594 C 152.304688 74.1875 148.722656 79.289062 150.078125 85.402344 C 151.328125 91.039062 158.503906 93.089844 163.496094 91.257812 C 168.289062 89.5 171.367188 84.171875 169.6875 79.195312 Z M 163.535156 86.777344 C 160.914062 88.539062 155.828125 88.285156 154.21875 85.269531 C 152.140625 81.371094 155.585938 77.835938 159.199219 77.003906 C 160.863281 77.039062 163.347656 77.808594 164.648438 78.777344 C 167.445312 80.855469 166 85.117188 163.535156 86.777344 Z M 163.535156 86.777344 "/>
<path style=" stroke:none;fill-rule:nonzero;fill:rgb(93.725491%,28.235295%,13.725491%);fill-opacity:1;" d="M 53.183594 119.941406 C 51.34375 117.769531 50.121094 115.136719 48.332031 112.921875 C 43.824219 107.335938 35.902344 105.0625 28.882812 106.554688 C 22.28125 107.960938 16.546875 112.363281 12.746094 117.960938 C 12.746094 117.960938 34.195312 135.710938 53.183594 119.941406 Z M 53.183594 119.941406 "/>
<path style=" stroke:none;fill-rule:nonzero;fill:rgb(99.607843%,74.901962%,6.27451%);fill-opacity:1;" d="M 99.429688 17.957031 C 97.101562 17.765625 95.300781 18.652344 94.003906 19.191406 C 92.996094 19.613281 92.203125 20.449219 91.535156 21.332031 C 90.796875 22.308594 90.15625 23.390625 89.882812 24.597656 C 89.382812 26.804688 90.203125 29.148438 91.539062 30.953125 C 92.515625 32.269531 93.828125 33.394531 95.394531 33.769531 C 95.898438 33.886719 96.414062 33.929688 96.933594 33.960938 C 98.519531 34.0625 100.167969 34.105469 101.632812 33.464844 C 104.195312 32.34375 105.546875 29.398438 106.023438 26.578125 C 106.222656 25.394531 106.308594 24.160156 105.992188 23.003906 C 105.675781 21.84375 104.523438 21.300781 103.808594 20.351562 C 103.019531 19.3125 101.554688 18.132812 99.429688 17.957031 Z M 99.429688 17.957031 "/>
<path style=" stroke:none;fill-rule:nonzero;fill:rgb(0.392157%,0.392157%,0.392157%);fill-opacity:1;" d="M 106.460938 20.1875 C 104.542969 18.128906 102.835938 16.503906 99.957031 16.027344 C 99.890625 16.015625 99.84375 16.039062 99.785156 16.03125 C 99.660156 16.007812 99.5625 15.957031 99.425781 15.957031 C 94 15.890625 88.496094 19.261719 87.816406 25.019531 C 87.195312 30.257812 91.347656 35.4375 96.539062 35.929688 C 102.273438 36.472656 106.453125 33.632812 107.777344 27.964844 C 108.421875 25.203125 108.476562 22.351562 106.460938 20.1875 Z M 103.921875 26.898438 C 103.097656 30.402344 101.089844 32.203125 97.40625 31.984375 C 93.808594 31.773438 90.9375 28.089844 92.035156 24.507812 C 93 21.363281 96.1875 19.996094 99.238281 19.976562 C 102.390625 20.675781 104.695312 23.605469 103.921875 26.898438 Z M 103.921875 26.898438 "/>
<path style=" stroke:none;fill-rule:nonzero;fill:rgb(98.823529%,74.901962%,58.431375%);fill-opacity:1;" d="M 33.164062 82.355469 C 30.460938 81.074219 27.160156 81.941406 24.828125 83.847656 C 22.496094 85.757812 21.3125 89.054688 21.882812 92.074219 C 22.003906 92.703125 22.191406 93.320312 22.472656 93.886719 C 23.964844 96.921875 27.652344 98.011719 30.9375 98.019531 C 33.058594 98.023438 35.398438 97.589844 36.734375 95.875 C 37.777344 94.542969 37.980469 92.722656 38.042969 91.007812 C 38.117188 89.054688 38.03125 86.988281 37.039062 85.324219 C 36.128906 83.800781 34.65625 83.273438 33.164062 82.355469 Z M 33.164062 82.355469 "/>
<path style=" stroke:none;fill-rule:nonzero;fill:rgb(0.392157%,0.392157%,0.392157%);fill-opacity:1;" d="M 39.683594 86.574219 C 38.882812 83.523438 36.757812 82.125 34.171875 80.628906 C 34.054688 80.558594 33.949219 80.554688 33.835938 80.515625 C 33.785156 80.492188 33.753906 80.449219 33.695312 80.429688 C 21.996094 76.003906 13.695312 94.664062 25.882812 99.167969 C 30.34375 100.816406 37.019531 100.492188 39.191406 95.554688 C 40.335938 92.957031 40.398438 89.300781 39.683594 86.574219 Z M 35.980469 92.046875 C 35.488281 96.257812 31.070312 96.589844 27.734375 95.574219 C 19.847656 93.179688 25.132812 81.777344 32.386719 84.21875 C 33.855469 85.0625 35.351562 85.878906 35.824219 87.636719 C 36.191406 88.992188 36.144531 90.660156 35.980469 92.046875 Z M 35.980469 92.046875 "/>
<path style=" stroke:none;fill-rule:nonzero;fill:rgb(0.392157%,0.392157%,0.392157%);fill-opacity:1;" d="M 157.398438 60 C 156.480469 59.960938 155.601562 60 154.761719 60.078125 C 151.160156 53.71875 146.238281 48.199219 139.679688 44.480469 C 135.359375 42.039062 130.921875 40 126.398438 38.238281 C 127.238281 28.839844 124.28125 19.039062 117.398438 12.839844 C 117.320312 12.761719 117.238281 12.761719 117.199219 12.71875 C 117.121094 12.640625 117.078125 12.558594 117 12.519531 C 103.558594 3.601562 83.878906 2.398438 72.558594 15.359375 C 66.601562 22.160156 64.558594 31.078125 66.078125 39.441406 C 54.761719 46.640625 45.519531 57.679688 39.878906 69.441406 C 29.519531 66.359375 17.800781 68.519531 9.679688 76.441406 C -2 87.878906 -3.199219 106.160156 9.160156 117.558594 C 16.601562 124.441406 28.761719 129.160156 39.679688 128.238281 C 42.800781 133.878906 47.078125 138.839844 52.761719 142.398438 C 57.558594 145.398438 63 147.839844 68.640625 149.960938 C 68.519531 150.960938 68.398438 151.921875 68.320312 152.921875 C 66.800781 171.121094 80.519531 182.199219 98.121094 183.640625 C 113.679688 184.878906 129.320312 175.199219 131.640625 159 C 132.121094 155.71875 131.761719 152.320312 130.800781 149 C 131.761719 148.519531 132.71875 148.039062 133.640625 147.519531 C 144.71875 141.441406 152.199219 133.121094 156.839844 123.441406 C 157.601562 123.519531 158.359375 123.601562 159.160156 123.640625 C 178.078125 124.679688 190.039062 105.238281 191.71875 88.039062 C 193.761719 67.480469 174.398438 61.558594 157.398438 60 Z M 150.480469 60.640625 C 143.601562 62.121094 138.320312 66 134.679688 71.359375 C 133.921875 69.039062 133.039062 66.761719 132.121094 64.441406 C 136.71875 61.199219 140.960938 57.480469 144.640625 53.199219 C 146.921875 55.441406 148.800781 57.960938 150.480469 60.640625 Z M 113.519531 115.359375 C 113.558594 110.238281 113.320312 104.921875 112.921875 99.519531 C 118.078125 98.679688 123.199219 97.71875 128.320312 96.601562 C 128.761719 103.679688 131.28125 109.480469 135.398438 113.878906 C 134.960938 117.71875 134.320312 121.480469 133.359375 125.078125 C 127.121094 121.28125 120.640625 117.558594 113.519531 115.359375 Z M 132.160156 129.039062 C 130.839844 133.121094 129.078125 137 127.039062 140.71875 C 123.558594 135.199219 118.601562 130.441406 113.039062 127.558594 C 113.238281 124.921875 113.398438 122.28125 113.480469 119.519531 C 119.800781 121.640625 125.601562 125.039062 131.679688 128.71875 C 131.839844 128.839844 132 128.921875 132.160156 129.039062 Z M 92.398438 113.121094 C 89.480469 113.160156 86.640625 113.28125 83.800781 113.839844 C 83.640625 113.878906 83.519531 113.921875 83.359375 113.960938 C 83.078125 112.121094 82.839844 110.28125 82.640625 108.480469 C 82.398438 106.441406 82.28125 104.398438 82.078125 102.359375 C 90.960938 102.121094 99.960938 101.359375 108.960938 100.078125 C 109.28125 104.960938 109.519531 109.679688 109.519531 114.28125 C 103.601562 113.078125 97.640625 113 92.398438 113.121094 Z M 109.519531 118.359375 C 109.441406 120.921875 109.320312 123.398438 109.160156 125.878906 C 107.441406 125.28125 105.679688 124.878906 103.921875 124.71875 C 97.441406 124.28125 91.558594 123.921875 85.921875 125.71875 C 85.160156 123.160156 84.519531 120.558594 84.039062 117.921875 C 84.238281 117.878906 84.398438 117.800781 84.601562 117.761719 C 87.121094 117.238281 89.761719 117.160156 92.480469 117.121094 C 97.71875 117 103.761719 117.039062 109.519531 118.359375 Z M 76.71875 75.960938 L 76.71875 78.160156 C 76.800781 84.921875 77.199219 91.71875 77.71875 98.480469 C 72.921875 98.519531 68.160156 98.359375 63.480469 98.121094 C 63.199219 92.601562 61.199219 88.199219 58.199219 83.800781 C 59 79.039062 59.878906 74.640625 60.960938 70.679688 C 65.960938 73.078125 71.28125 74.800781 76.71875 75.960938 Z M 62.078125 66.761719 C 63.078125 63.519531 64.199219 60.601562 65.441406 57.800781 C 66.761719 54.878906 68.320312 52.160156 70 49.601562 C 71.359375 51.800781 73 53.839844 75 55.640625 C 76.078125 56.601562 77.28125 57.480469 78.601562 58.320312 C 77.960938 60.878906 77.441406 63.441406 77.160156 65.960938 C 76.960938 67.960938 76.839844 69.960938 76.761719 71.921875 C 71.679688 70.800781 66.761719 69 62.078125 66.761719 Z M 63.441406 102.160156 C 67.519531 102.398438 71.679688 102.558594 75.839844 102.558594 C 76.601562 102.558594 77.359375 102.480469 78.078125 102.480469 C 78.28125 104.640625 78.398438 106.800781 78.679688 108.921875 C 78.878906 110.960938 79.160156 113 79.480469 115.078125 C 78.199219 115.519531 77.039062 116 76.039062 116.441406 C 70.921875 118.640625 66.039062 121.359375 61.398438 124.480469 C 60.441406 121.761719 59.71875 118.960938 59.121094 116.160156 C 61.558594 112.039062 62.960938 107.238281 63.398438 102.519531 C 63.441406 102.398438 63.398438 102.28125 63.441406 102.160156 Z M 78.878906 53.398438 C 88.640625 42.839844 107.800781 39.199219 114.480469 54.761719 C 105.199219 62.601562 88.519531 60.71875 78.878906 53.398438 Z M 105.359375 72 C 102.480469 72.601562 99.601562 73.121094 96.640625 73.359375 C 91.320312 73.800781 86 73.480469 80.761719 72.640625 C 80.800781 70.558594 80.921875 68.480469 81.160156 66.398438 C 81.359375 64.398438 81.761719 62.359375 82.238281 60.320312 C 88.601562 63.28125 96.480469 64.519531 103.679688 63.558594 C 104.238281 66.039062 104.761719 68.519531 105.199219 71 C 105.28125 71.320312 105.320312 71.640625 105.359375 72 Z M 80.71875 76.71875 C 84.238281 77.238281 87.800781 77.558594 91.398438 77.558594 C 93.238281 77.558594 95.121094 77.519531 96.960938 77.359375 C 100.039062 77.121094 103.039062 76.601562 106 75.960938 C 107.160156 82.921875 108.078125 89.640625 108.640625 96.121094 C 99.640625 97.398438 90.640625 98.238281 81.761719 98.480469 C 81.199219 91.679688 80.800781 84.878906 80.71875 78.078125 Z M 109.28125 71.078125 C 109.238281 70.800781 109.199219 70.558594 109.160156 70.28125 C 108.71875 67.761719 108.199219 65.28125 107.640625 62.761719 C 112.238281 61.558594 116.359375 59.320312 119.320312 55.839844 C 120.238281 54.800781 121.039062 53.679688 121.761719 52.480469 C 123.761719 56 125.601562 59.558594 127.160156 63.039062 C 121.640625 66.601562 115.601562 69.28125 109.28125 71.078125 Z M 128.761719 66.761719 C 129.921875 69.679688 130.960938 72.601562 131.800781 75.480469 C 131.878906 75.71875 131.921875 75.921875 132 76.160156 C 129.878906 80.761719 128.640625 86 128.28125 91.558594 C 128.238281 91.878906 128.28125 92.160156 128.238281 92.480469 C 123.078125 93.71875 117.839844 94.679688 112.640625 95.519531 C 112.039062 88.921875 111.078125 82.078125 109.921875 75.039062 C 116.558594 73.199219 122.921875 70.398438 128.761719 66.761719 Z M 125.800781 42.359375 C 129.878906 43.960938 133.878906 45.761719 137.640625 47.921875 C 139.078125 48.71875 140.359375 49.640625 141.601562 50.601562 C 138.320312 54.398438 134.558594 57.761719 130.519531 60.679688 C 128.640625 56.601562 126.398438 52.441406 123.960938 48.320312 C 124.761719 46.398438 125.359375 44.398438 125.800781 42.359375 Z M 79.480469 14.558594 C 89.839844 7.039062 104.398438 9.078125 114.71875 15.839844 C 124.078125 24.441406 124.71875 40.800781 117.839844 51.121094 C 117.71875 51.28125 117.558594 51.441406 117.441406 51.601562 C 113.71875 44.078125 108.078125 40.761719 98.800781 40.238281 C 89.761719 39.761719 81.878906 43.960938 75.921875 50.71875 C 75.640625 50.398438 75.359375 50.121094 75.078125 49.800781 C 66.441406 39.199219 68.199219 22.679688 79.480469 14.558594 Z M 67.078125 43.320312 C 67.320312 44.121094 67.601562 44.839844 67.921875 45.601562 C 65.640625 48.839844 63.519531 52.320312 61.800781 56.160156 C 60.519531 59.039062 59.441406 62 58.480469 64.921875 C 55.679688 63.320312 53 61.519531 50.441406 59.519531 C 55.039062 53.121094 60.71875 47.558594 67.078125 43.320312 Z M 48.160156 62.839844 C 51.078125 65.078125 54.121094 67.078125 57.320312 68.800781 C 56.320312 72.519531 55.519531 76.121094 54.921875 79.320312 C 54.519531 78.839844 54.160156 78.359375 53.761719 77.839844 C 50.878906 74.839844 47.480469 72.519531 43.800781 70.878906 C 45.078125 68.121094 46.519531 65.398438 48.160156 62.839844 Z M 12.441406 115.160156 C 12.320312 115 12.121094 114.878906 12 114.71875 C 1.679688 105.121094 2.121094 90.320312 11.601562 80.28125 C 22.121094 69.121094 40.398438 69.640625 50.921875 80.679688 C 56 87.078125 60.121094 92.519531 59.558594 101.160156 C 59.199219 106.640625 57.28125 112.800781 53.601562 117.199219 C 48.078125 109.679688 43 103.839844 32.441406 104.160156 C 24.199219 104.398438 17.480469 109 12.441406 115.160156 Z M 15.558594 117.601562 C 19.640625 112.601562 24.921875 108.878906 31.519531 108.320312 C 41.359375 107.480469 45.640625 113.039062 50.71875 119.960938 C 41.039062 127.441406 25.519531 124.441406 15.558594 117.601562 Z M 43.960938 127.558594 C 47.761719 126.640625 51.320312 124.921875 54.320312 122.199219 C 54.960938 121.640625 55.519531 121.039062 56.039062 120.441406 C 56.601562 122.640625 57.238281 124.800781 58.039062 126.960938 C 54.921875 129.28125 51.960938 131.761719 49.160156 134.480469 C 47.078125 132.398438 45.398438 130.039062 43.960938 127.558594 Z M 69.28125 145.960938 C 64.039062 143.960938 59.039062 141.558594 54.761719 138.921875 C 53.878906 138.359375 53 137.761719 52.199219 137.121094 C 54.558594 134.839844 57.039062 132.71875 59.640625 130.761719 C 61.039062 133.761719 62.761719 136.640625 64.960938 139.238281 C 66.078125 140.558594 67.28125 141.761719 68.480469 143 L 69.679688 144.199219 C 69.558594 144.800781 69.398438 145.359375 69.28125 145.960938 Z M 68 136.640625 C 65.878906 134.121094 64.238281 131.28125 62.878906 128.28125 C 67.519531 125.078125 72.480469 122.320312 77.601562 120.121094 C 78.359375 119.800781 79.28125 119.441406 80.199219 119.078125 C 80.71875 121.839844 81.398438 124.558594 82.199219 127.238281 C 81.078125 127.839844 79.960938 128.519531 78.839844 129.359375 C 75 132.238281 72.558594 135.839844 71 139.839844 C 70 138.800781 68.960938 137.761719 68 136.640625 Z M 96.960938 179.398438 C 91.679688 178.761719 86.71875 177 82.199219 174.238281 C 86.839844 168.160156 93.121094 162.199219 101.28125 163.839844 C 107.960938 165.160156 111.960938 170.519531 115.121094 176.078125 C 109.71875 179.039062 103.28125 180.199219 96.960938 179.398438 Z M 127.160156 161 C 125.71875 166.480469 122.558594 170.800781 118.480469 173.921875 C 114.480469 166.960938 109.039062 160.558594 100.558594 159.640625 C 91.238281 158.601562 84.28125 164.960938 78.960938 171.960938 C 73.238281 167.121094 71.640625 160.761719 72.320312 152.921875 C 73.121094 144 75.441406 135.519531 83.839844 130.878906 C 90.28125 127.28125 96.960938 128.238281 103.921875 128.71875 C 117.398438 130 130.679688 147.960938 127.160156 161 Z M 129.558594 145.519531 C 129.441406 145.320312 129.398438 145.121094 129.320312 144.960938 C 131.878906 140.601562 134.039062 136 135.679688 131.121094 C 138.320312 132.679688 141 134.199219 143.761719 135.519531 C 139.800781 139.199219 134.878906 142.640625 129.558594 145.519531 Z M 146.640625 132.480469 C 143.320312 130.921875 140.078125 129.121094 136.878906 127.199219 C 137.800781 123.878906 138.480469 120.519531 139 117.078125 C 142.878906 119.921875 147.640625 121.921875 153.078125 122.921875 C 151.398438 126.28125 149.320312 129.519531 146.640625 132.480469 Z M 159.160156 119.640625 C 152.800781 119.519531 147.078125 117.800781 142.558594 114.761719 C 145.921875 107.960938 152.039062 100.238281 160.078125 99.878906 C 168.199219 99.519531 172.238281 106.839844 175.878906 113.078125 C 171.480469 117.199219 165.878906 119.800781 159.160156 119.640625 Z M 187.121094 91.558594 C 185.761719 98.121094 182.921875 104.839844 178.679688 110.039062 C 174.320312 102.761719 169.519531 95.640625 160.078125 95.878906 C 150.640625 96.121094 143.441406 104.238281 139.398438 112.199219 C 134.640625 107.679688 131.878906 101.199219 132.160156 93.121094 C 132.71875 77.839844 140.359375 63.71875 157.398438 64 C 173.839844 65.519531 191.28125 71.558594 187.121094 91.558594 Z M 187.121094 91.558594 "/>
</g>
</svg>
