<?xml version="1.0" encoding="UTF-8"?>
<svg xmlns="http://www.w3.org/2000/svg" xmlns:xlink="http://www.w3.org/1999/xlink" viewBox="0 0 192 192" width="192px" height="192px">
<g id="surface165625690">
<path style=" stroke:none;fill-rule:nonzero;fill:rgb(78.039217%,56.862748%,39.215687%);fill-opacity:1;" d="M 37.46875 118.390625 C 37.46875 118.390625 9.824219 120.523438 9.109375 131.363281 C 8.390625 142.203125 6.511719 170.351562 6.511719 170.351562 C 6.511719 170.351562 4.046875 174.769531 11.136719 172.460938 C 18.222656 170.152344 39.585938 164.578125 54 166.699219 C 68.414062 168.820312 90.144531 175.234375 94.257812 173.5 C 98.367188 171.765625 114.722656 163.007812 120.765625 160.738281 C 126.804688 158.472656 152.804688 147.488281 157.246094 145.234375 C 161.691406 142.984375 186.726562 128.566406 186.726562 128.566406 C 186.726562 128.566406 169.34375 114.648438 159.496094 118.566406 C 149.648438 122.488281 142.847656 124.765625 142.847656 124.765625 C 142.847656 124.765625 136.0625 119.265625 126.617188 122.300781 C 117.167969 125.335938 96 130.316406 96 130.316406 C 96 130.316406 77.460938 125.519531 65.855469 121.429688 C 54.253906 117.332031 37.46875 118.390625 37.46875 118.390625 Z M 37.46875 118.390625 "/>
<path style=" stroke:none;fill-rule:nonzero;fill:rgb(0.392157%,0.392157%,0.392157%);fill-opacity:1;" d="M 187.847656 128.066406 C 185.457031 123.300781 181.046875 120.429688 175.652344 120 C 174.164062 119.511719 172.871094 118.949219 171.644531 118.40625 C 169 117.253906 166.503906 116.15625 163.027344 116.105469 C 159.054688 116.132812 155.335938 117.898438 152.109375 119.542969 L 151.503906 119.847656 C 148.824219 121.207031 146.210938 122.414062 143.628906 123.535156 C 142.910156 123.605469 141.574219 122.675781 140.570312 121.992188 C 139.574219 121.3125 138.550781 120.609375 137.464844 120.207031 C 133.371094 118.714844 129.042969 119.691406 125.554688 120.492188 C 120.128906 121.730469 115.648438 122.988281 111.320312 124.203125 C 107.050781 125.402344 102.636719 126.644531 97.320312 127.859375 C 96.972656 127.941406 96.6875 128.128906 96.441406 128.351562 C 88.019531 126.859375 79.472656 125.152344 71.652344 121.824219 C 70.773438 121.449219 69.898438 121.050781 69.023438 120.65625 C 66.742188 119.625 64.386719 118.558594 61.875 117.839844 C 58.492188 116.871094 55.015625 116.589844 52.023438 116.402344 C 37.105469 115.46875 25.117188 117.1875 15.34375 121.660156 C 12.519531 122.980469 9.109375 124.925781 7.761719 128.269531 C 7.179688 129.703125 7.089844 131.183594 7.003906 132.480469 C 6.589844 138.996094 6.171875 145.1875 5.757812 151.378906 C 5.339844 157.554688 4.925781 163.730469 4.507812 170.230469 C 4.457031 171.046875 4.378906 172.285156 5.046875 173.445312 C 5.671875 174.523438 7.019531 175.191406 8.007812 175.355469 C 8.761719 175.492188 9.457031 175.367188 10.023438 175.03125 C 26.101562 168.660156 44.808594 166.800781 62.726562 169.78125 C 67.503906 170.570312 72.324219 171.742188 76.988281 172.875 C 80.023438 173.617188 83.058594 174.351562 86.109375 175 C 87.949219 175.390625 89.871094 175.753906 91.824219 175.753906 C 92.769531 175.753906 93.71875 175.667969 94.671875 175.460938 C 97.449219 174.855469 99.714844 173.335938 101.910156 171.867188 L 102.796875 171.28125 C 113.171875 164.4375 118.671875 162.699219 125.039062 160.695312 C 130.402344 159.003906 136.484375 157.089844 146.21875 151.632812 C 149.046875 150.046875 154.167969 147.6875 159.589844 145.183594 C 170.3125 140.234375 182.46875 134.625 187.347656 130.503906 C 188.058594 129.898438 188.265625 128.894531 187.847656 128.066406 Z M 153.320312 123.414062 L 153.929688 123.105469 C 156.878906 121.605469 159.820312 120.191406 162.96875 120.101562 C 164.613281 120.128906 165.984375 120.480469 167.371094 120.984375 C 164.109375 121.941406 161.199219 123.359375 159.003906 124.5625 C 156.191406 126.109375 153.371094 127.265625 150.382812 128.488281 C 148.785156 129.140625 147.171875 129.800781 145.546875 130.53125 C 140.710938 132.691406 126.847656 138.152344 119.921875 140.058594 C 119.921875 139.242188 119.800781 138.441406 119.546875 137.671875 C 119.242188 136.746094 118.761719 135.972656 118.207031 135.269531 C 130.585938 133.140625 141.332031 129.496094 153.320312 123.414062 Z M 112.40625 128.050781 C 116.691406 126.847656 121.121094 125.609375 126.453125 124.386719 C 129.421875 123.710938 133.113281 122.867188 136.089844 123.960938 C 136.707031 124.191406 137.523438 124.746094 138.320312 125.292969 C 138.445312 125.375 138.578125 125.460938 138.707031 125.546875 C 130.613281 128.640625 122.585938 130.675781 113.566406 131.960938 C 111.898438 131.277344 110.148438 130.84375 108.617188 130.542969 C 107.558594 130.339844 106.496094 130.160156 105.4375 129.96875 C 107.867188 129.324219 110.164062 128.679688 112.40625 128.050781 Z M 157.914062 141.539062 C 152.183594 144.1875 147.230469 146.472656 144.273438 148.128906 C 134.890625 153.378906 129.273438 155.15625 123.839844 156.867188 C 117.464844 158.878906 111.441406 160.78125 100.601562 167.933594 L 99.691406 168.535156 C 97.722656 169.855469 95.863281 171.105469 93.828125 171.546875 C 91.691406 172.007812 89.355469 171.601562 86.953125 171.078125 C 83.9375 170.441406 80.941406 169.710938 77.945312 168.984375 C 73.210938 167.835938 68.316406 166.644531 63.394531 165.828125 C 57.613281 164.867188 51.746094 164.390625 45.90625 164.390625 C 32.921875 164.390625 20.058594 166.742188 8.5 171.332031 C 8.472656 171.101562 8.5 170.679688 8.507812 170.484375 C 8.925781 163.988281 9.339844 157.816406 9.753906 151.648438 C 10.167969 145.453125 10.585938 139.257812 11.003906 132.734375 C 11.074219 131.644531 11.140625 130.609375 11.480469 129.765625 C 12.308594 127.710938 14.886719 126.292969 17.03125 125.292969 C 26.179688 121.105469 37.535156 119.5 51.785156 120.390625 C 54.566406 120.566406 57.789062 120.824219 60.789062 121.679688 C 63.015625 122.316406 65.136719 123.277344 67.378906 124.296875 C 68.285156 124.703125 69.183594 125.113281 70.09375 125.5 C 79.382812 129.457031 89.425781 131.203125 99.140625 132.894531 C 102.046875 133.402344 104.957031 133.90625 107.84375 134.476562 C 112.53125 135.390625 115.042969 136.804688 115.742188 138.929688 C 116.292969 140.59375 115.53125 142.796875 113.890625 144.292969 C 112.054688 145.976562 109.421875 146.789062 107.332031 147.304688 C 97.960938 149.625 87.898438 148.945312 78.167969 148.285156 C 67.90625 147.589844 57.289062 146.871094 47.105469 149.546875 C 46.035156 149.828125 45.398438 150.925781 45.679688 151.988281 C 45.964844 153.058594 47.0625 153.710938 48.125 153.410156 C 57.667969 150.898438 67.953125 151.597656 77.894531 152.269531 C 87.933594 152.949219 98.308594 153.652344 108.292969 151.183594 C 110.839844 150.554688 114.089844 149.535156 116.59375 147.242188 C 117.488281 146.429688 118.21875 145.480469 118.765625 144.464844 C 118.769531 144.464844 118.773438 144.464844 118.777344 144.464844 C 124.988281 143.191406 141.554688 136.703125 147.179688 134.1875 C 148.769531 133.480469 150.339844 132.835938 151.898438 132.195312 C 154.859375 130.984375 157.921875 129.730469 160.929688 128.078125 C 166.160156 125.207031 170.3125 123.910156 174.363281 123.914062 C 178.195312 123.945312 181.429688 125.578125 183.445312 128.464844 C 178.171875 132.191406 167.027344 137.335938 157.914062 141.539062 Z M 157.914062 141.539062 "/>
<path style=" stroke:none;fill-rule:nonzero;fill:rgb(0.392157%,0.392157%,0.392157%);fill-opacity:1;" d="M 99.367188 146.894531 C 99.242188 146.894531 99.117188 146.882812 98.992188 146.859375 C 98.085938 146.683594 97.332031 146.183594 96.820312 145.40625 C 95.800781 143.863281 96.105469 141.757812 96.285156 140.921875 L 97.363281 135.910156 C 97.597656 134.832031 98.664062 134.160156 99.738281 134.375 C 100.820312 134.613281 101.507812 135.671875 101.277344 136.757812 L 100.195312 141.765625 C 100.074219 142.320312 100.085938 142.789062 100.125 143.042969 C 100.988281 143.394531 101.515625 144.316406 101.335938 145.273438 C 101.148438 146.226562 100.308594 146.894531 99.367188 146.894531 Z M 100.167969 143.222656 L 100.207031 143.222656 Z M 100.167969 143.222656 "/>
<path style=" stroke:none;fill-rule:nonzero;fill:rgb(16.862746%,54.901963%,36.862746%);fill-opacity:1;" d="M 23.9375 30.957031 C 24.910156 46.128906 26.496094 69.015625 27.46875 84.1875 C 27.570312 85.804688 27.855469 93.261719 28.5 94.746094 C 33.875 95.5 36.8125 94.726562 42.109375 94.898438 C 80.386719 96.15625 118.726562 95.433594 156.933594 92.730469 C 158.363281 92.632812 160.011719 92.402344 160.769531 91.179688 C 161.238281 90.421875 161.222656 89.464844 161.191406 88.566406 C 160.539062 70.066406 158.984375 44.410156 158.332031 25.910156 C 112.976562 26.414062 69.152344 27.34375 23.9375 30.957031 Z M 23.9375 30.957031 "/>
<path style=" stroke:none;fill-rule:nonzero;fill:rgb(0.392157%,0.392157%,0.392157%);fill-opacity:1;" d="M 78.40625 97.496094 C 66.257812 97.496094 54.132812 97.296875 42.042969 96.902344 C 40.035156 96.835938 38.355469 96.910156 36.765625 96.988281 C 34.148438 97.105469 31.671875 97.210938 28.222656 96.734375 C 27.53125 96.640625 26.945312 96.1875 26.664062 95.546875 C 26.160156 94.375 25.859375 91.726562 25.53125 85.433594 L 25.472656 84.324219 C 24.984375 76.738281 24.34375 67.226562 23.707031 57.714844 C 23.066406 48.199219 22.429688 38.679688 21.941406 31.097656 C 21.867188 30.007812 22.6875 29.058594 23.777344 28.976562 C 66.691406 25.546875 108.597656 24.476562 158.3125 23.929688 C 158.320312 23.929688 158.324219 23.929688 158.332031 23.929688 C 159.40625 23.929688 160.292969 24.78125 160.332031 25.855469 C 160.660156 35.113281 161.210938 46.164062 161.765625 57.210938 C 162.316406 68.238281 162.863281 79.269531 163.191406 88.507812 C 163.226562 89.476562 163.277344 90.9375 162.472656 92.242188 C 161.105469 94.457031 158.382812 94.648438 157.074219 94.738281 C 131.015625 96.570312 104.671875 97.496094 78.40625 97.496094 Z M 40.476562 92.875 C 41.019531 92.875 41.578125 92.882812 42.175781 92.902344 C 80.261719 94.15625 118.816406 93.429688 156.792969 90.738281 C 158.113281 90.648438 158.875 90.445312 159.066406 90.132812 C 159.234375 89.863281 159.207031 89.101562 159.191406 88.644531 C 158.863281 79.414062 158.316406 68.410156 157.765625 57.402344 C 157.253906 47.105469 156.734375 36.800781 156.402344 27.945312 C 108.378906 28.488281 67.613281 29.542969 26.054688 32.800781 C 26.523438 40.027344 27.109375 48.730469 27.695312 57.441406 C 28.335938 66.957031 28.976562 76.476562 29.464844 84.058594 L 29.527344 85.214844 C 29.722656 88.960938 29.925781 91.539062 30.125 92.933594 C 32.539062 93.171875 34.4375 93.085938 36.585938 92.992188 C 37.804688 92.929688 39.0625 92.875 40.476562 92.875 Z M 40.476562 92.875 "/>
<path style=" stroke:none;fill-rule:nonzero;fill:rgb(44.313726%,77.254903%,59.607846%);fill-opacity:1;" d="M 41.992188 40.332031 C 68.519531 43.667969 97.625 39.785156 124.273438 37.652344 C 128.125 37.34375 135.339844 36.128906 139 37.355469 C 143.386719 38.832031 144.375 43.410156 148.78125 41.988281 C 148.859375 46.753906 148.941406 59.519531 149.019531 64.285156 C 149.078125 67.980469 150.667969 71.507812 149.039062 74.832031 C 144.039062 78 142.667969 80 139.167969 84 C 114.652344 86.050781 77.789062 87.078125 53.1875 87.480469 C 51.144531 87.511719 49.027344 87.535156 47.140625 86.753906 C 43.53125 85.257812 40.589844 80.914062 36.839844 82.007812 C 37.785156 72.855469 37.222656 55.550781 35.191406 46.578125 C 38.054688 45.3125 40.484375 43.078125 41.992188 40.332031 M 96 53.890625 C 91.65625 53.222656 89.304688 53.230469 85.21875 55.101562 C 81.140625 56.96875 78.179688 62.636719 79.777344 67.429688 C 80.667969 70.105469 82.722656 72.011719 84.878906 73.371094 C 88.738281 75.816406 93.445312 76.898438 97.554688 75.109375 C 101.667969 73.316406 104.8125 68.125 103.980469 63.066406 C 103.203125 58.351562 100.054688 54.515625 96 53.890625 Z M 57.945312 60.140625 C 55.238281 59.339844 52.589844 60.566406 52.363281 63.835938 C 52.140625 67.105469 55.144531 69.941406 57.886719 69.339844 C 59.988281 68.878906 61.757812 66.5625 61.675781 64.054688 C 61.589844 61.542969 60.015625 60.753906 57.945312 60.140625 Z M 128.253906 56.535156 C 126.585938 55.65625 124.738281 56.753906 122.925781 57.363281 C 121.109375 57.972656 119.457031 59.878906 119.566406 62.09375 C 119.667969 64.148438 121.1875 65.722656 122.773438 66.609375 C 124.597656 67.628906 126.765625 68.046875 128.648438 67.1875 C 130.53125 66.328125 131.980469 63.964844 131.636719 61.625 C 131.292969 59.285156 130.09375 57.511719 128.253906 56.535156 Z M 128.253906 56.535156 "/>
<path style=" stroke:none;fill-rule:nonzero;fill:rgb(0.392157%,0.392157%,0.392157%);fill-opacity:1;" d="M 51.992188 89.492188 C 50.230469 89.492188 48.238281 89.371094 46.375 88.601562 C 44.859375 87.972656 43.542969 86.996094 42.277344 86.046875 C 40.148438 84.464844 38.761719 83.519531 37.394531 83.929688 C 36.761719 84.105469 36.066406 83.972656 35.554688 83.539062 C 35.042969 83.117188 34.78125 82.460938 34.847656 81.796875 C 35.757812 73.011719 35.253906 55.898438 33.238281 47.019531 C 33.027344 46.09375 33.503906 45.136719 34.378906 44.753906 C 36.855469 43.652344 38.9375 41.738281 40.234375 39.367188 C 40.632812 38.644531 41.40625 38.222656 42.238281 38.34375 C 63.800781 41.050781 87.046875 38.953125 109.535156 36.925781 C 114.453125 36.480469 119.324219 36.039062 124.113281 35.660156 C 124.894531 35.597656 125.820312 35.496094 126.828125 35.382812 C 131.050781 34.925781 136.320312 34.347656 139.640625 35.46875 C 141.8125 36.199219 143.277344 37.527344 144.457031 38.59375 C 146.125 40.109375 146.71875 40.558594 148.167969 40.09375 C 148.769531 39.890625 149.433594 40 149.949219 40.367188 C 150.464844 40.734375 150.773438 41.324219 150.785156 41.957031 C 150.824219 44.371094 150.863281 48.851562 150.902344 53.296875 C 150.945312 57.617188 150.984375 61.902344 151.019531 64.253906 C 151.039062 65.367188 151.214844 66.472656 151.378906 67.554688 C 151.769531 70.066406 152.207031 72.910156 150.835938 75.707031 C 150.671875 76.039062 150.421875 76.320312 150.109375 76.519531 C 146.027344 79.105469 144.59375 80.773438 141.988281 83.792969 L 140.671875 85.3125 C 140.332031 85.703125 139.847656 85.945312 139.332031 85.988281 C 111.453125 88.320312 69.824219 89.203125 53.21875 89.476562 C 52.828125 89.488281 52.414062 89.492188 51.992188 89.492188 Z M 39.023438 79.902344 C 41.160156 80.230469 42.992188 81.597656 44.664062 82.839844 C 45.789062 83.675781 46.847656 84.46875 47.90625 84.90625 C 49.449219 85.542969 51.332031 85.511719 53.15625 85.484375 C 69.558594 85.214844 110.441406 84.351562 138.191406 82.074219 L 138.960938 81.1875 C 141.523438 78.210938 143.246094 76.207031 147.449219 73.480469 C 148.011719 71.925781 147.738281 70.171875 147.433594 68.167969 C 147.238281 66.90625 147.042969 65.621094 147.023438 64.320312 C 146.984375 61.964844 146.945312 57.664062 146.90625 53.335938 C 146.878906 50.039062 146.847656 46.726562 146.820312 44.253906 C 144.59375 44.113281 143.066406 42.722656 141.773438 41.550781 C 140.730469 40.609375 139.746094 39.714844 138.367188 39.253906 C 135.882812 38.421875 130.898438 38.96875 127.269531 39.355469 C 126.21875 39.472656 125.257812 39.578125 124.441406 39.640625 C 119.664062 40.023438 114.808594 40.464844 109.902344 40.902344 C 87.652344 42.914062 64.652344 44.992188 43.039062 42.46875 C 41.621094 44.605469 39.699219 46.390625 37.472656 47.667969 C 39.164062 56.53125 39.65625 70.8125 39.023438 79.902344 Z M 39.023438 79.902344 "/>
<path style=" stroke:none;fill-rule:nonzero;fill:rgb(0.392157%,0.392157%,0.392157%);fill-opacity:1;" d="M 93.167969 78 C 90.113281 78 86.878906 77.007812 83.8125 75.066406 C 80.789062 73.152344 78.792969 70.800781 77.878906 68.0625 C 75.867188 62.019531 79.695312 55.429688 84.386719 53.285156 C 88.886719 51.222656 91.585938 51.199219 96.300781 51.921875 C 101.128906 52.660156 105.003906 57.007812 105.953125 62.742188 C 106.886719 68.4375 103.550781 74.671875 98.355469 76.945312 C 96.734375 77.648438 94.984375 77.996094 93.167969 78 Z M 91.769531 55.488281 C 89.867188 55.488281 88.292969 55.894531 86.050781 56.921875 C 82.972656 58.324219 80.390625 62.945312 81.675781 66.796875 C 82.289062 68.632812 83.722656 70.277344 85.953125 71.683594 C 89.703125 74.058594 93.636719 74.632812 96.761719 73.277344 C 99.84375 71.929688 102.726562 67.765625 102.011719 63.386719 C 101.355469 59.433594 98.765625 56.335938 95.699219 55.867188 C 94.136719 55.632812 92.894531 55.488281 91.769531 55.488281 Z M 91.769531 55.488281 "/>
<path style=" stroke:none;fill-rule:nonzero;fill:rgb(0.392157%,0.392157%,0.392157%);fill-opacity:1;" d="M 57.128906 71.421875 C 55.667969 71.421875 54.195312 70.847656 52.957031 69.785156 C 51.179688 68.246094 50.207031 65.976562 50.367188 63.699219 C 50.511719 61.664062 51.398438 59.976562 52.878906 58.953125 C 54.421875 57.882812 56.472656 57.628906 58.515625 58.21875 C 60.015625 58.664062 63.53125 59.703125 63.675781 63.984375 C 63.789062 67.398438 61.4375 70.605469 58.320312 71.289062 C 57.925781 71.378906 57.527344 71.421875 57.128906 71.421875 Z M 56.363281 61.902344 C 55.894531 61.902344 55.480469 62.015625 55.160156 62.238281 C 54.683594 62.566406 54.414062 63.15625 54.359375 63.976562 C 54.289062 64.988281 54.757812 66.054688 55.570312 66.757812 C 56.179688 67.28125 56.871094 67.519531 57.460938 67.386719 C 58.546875 67.148438 59.726562 65.746094 59.675781 64.125 C 59.640625 63.113281 59.433594 62.671875 57.375 62.058594 C 57.023438 61.953125 56.683594 61.902344 56.363281 61.902344 Z M 56.363281 61.902344 "/>
<path style=" stroke:none;fill-rule:nonzero;fill:rgb(0.392157%,0.392157%,0.392157%);fill-opacity:1;" d="M 126.453125 69.644531 C 124.929688 69.644531 123.328125 69.210938 121.792969 68.355469 C 119.265625 66.941406 117.6875 64.632812 117.5625 62.191406 C 117.398438 58.871094 119.816406 56.296875 122.285156 55.46875 C 122.621094 55.355469 122.953125 55.21875 123.289062 55.09375 C 124.960938 54.445312 127.046875 53.640625 129.179688 54.765625 C 129.179688 54.765625 129.179688 54.765625 129.179688 54.769531 C 131.605469 56.046875 133.175781 58.378906 133.605469 61.335938 C 134.058594 64.425781 132.28125 67.726562 129.46875 69.007812 C 128.539062 69.433594 127.515625 69.644531 126.453125 69.644531 Z M 126.871094 58.207031 C 126.371094 58.207031 125.664062 58.464844 124.738281 58.824219 C 124.347656 58.976562 123.953125 59.128906 123.558594 59.257812 C 122.550781 59.597656 121.5 60.734375 121.5625 61.996094 C 121.640625 63.5625 123.257812 64.589844 123.746094 64.867188 C 124.445312 65.257812 126.242188 66.078125 127.816406 65.367188 C 128.875 64.882812 129.867188 63.382812 129.652344 61.914062 C 129.480469 60.742188 128.9375 59.164062 127.3125 58.304688 C 127.1875 58.238281 127.042969 58.207031 126.871094 58.207031 Z M 126.871094 58.207031 "/>
</g>
</svg>
