<?xml version="1.0" encoding="UTF-8"?>
<svg xmlns="http://www.w3.org/2000/svg" xmlns:xlink="http://www.w3.org/1999/xlink" viewBox="0 0 192 192" width="192px" height="192px">
<g id="surface162612860">
<path style=" stroke:none;fill-rule:nonzero;fill:rgb(96.078432%,52.549022%,32.156864%);fill-opacity:1;" d="M 62.375 121.125 C 62.375 121.125 73.90625 91 96.890625 93 C 119.875 95 124.753906 101.875 128.875 117.253906 C 133 132.628906 131.4375 134.261719 131.4375 134.261719 C 131.4375 134.261719 68.746094 133.628906 61.125 137.128906 C 60.875 129.625 61.753906 124.375 62.375 121.125 Z M 62.375 121.125 "/>
<path style=" stroke:none;fill-rule:nonzero;fill:rgb(26.274511%,85.09804%,56.470591%);fill-opacity:1;" d="M 88.292969 177.257812 C 88.722656 166.855469 83.527344 157.34375 77.628906 149.804688 C 74.199219 145.429688 70.347656 141.328125 65.699219 139.191406 C 61.042969 137.050781 55.9375 137.03125 50.960938 137.132812 C 42.183594 137.3125 32.496094 138.261719 26.367188 145.90625 C 20.675781 153.011719 19.769531 163.792969 19.171875 173.691406 C 19.167969 173.691406 62.757812 180.480469 88.292969 177.257812 Z M 88.292969 177.257812 "/>
<path style=" stroke:none;fill-rule:nonzero;fill:rgb(98.039216%,52.549022%,56.470591%);fill-opacity:1;" d="M 106.058594 177.757812 C 104.875 161.269531 116.695312 144.585938 129.054688 139.144531 C 135.261719 136.410156 142.136719 136.824219 148.460938 139.074219 C 162.207031 143.972656 168.886719 154.511719 173.871094 171 C 175.496094 176.375 167.714844 178.085938 165.121094 178.125 C 153.457031 178.3125 130.507812 178.410156 106.058594 177.757812 Z M 106.058594 177.757812 "/>
<path style=" stroke:none;fill-rule:nonzero;fill:rgb(98.823529%,74.901962%,58.431375%);fill-opacity:1;" d="M 54.042969 102.132812 C 49.296875 102.132812 46.964844 104.066406 44.011719 108.230469 C 39.453125 114.660156 38.558594 123.6875 41.769531 130.945312 C 42.605469 132.835938 43.730469 134.648438 45.347656 135.882812 C 47.941406 137.863281 51.363281 138.097656 54.585938 138.183594 C 56.800781 138.242188 59.144531 138.242188 61.070312 137.105469 C 62.398438 136.316406 63.410156 135.050781 64.222656 133.703125 C 66.789062 129.441406 67.566406 124.164062 66.863281 119.191406 C 66.160156 114.21875 64.042969 109.539062 61.230469 105.449219 C 60.03125 103.710938 58.921875 102.132812 54.042969 102.132812 Z M 54.042969 102.132812 "/>
<path style=" stroke:none;fill-rule:nonzero;fill:rgb(98.823529%,74.901962%,58.431375%);fill-opacity:1;" d="M 128.914062 110.890625 C 127.1875 113.390625 126.371094 116.363281 125.960938 119.328125 C 125.328125 123.867188 125.558594 128.625 127.476562 132.824219 C 129.390625 137.027344 133.167969 140.605469 137.851562 141.660156 C 145.03125 143.28125 152.730469 138.273438 154.976562 131.578125 C 157.222656 124.886719 154.683594 117.300781 149.765625 112.058594 C 147.96875 110.148438 145.8125 108.460938 143.261719 107.640625 C 140.710938 106.820312 133.898438 103.683594 128.914062 110.890625 Z M 128.914062 110.890625 "/>
<path style=" stroke:none;fill-rule:nonzero;fill:rgb(98.823529%,74.901962%,58.431375%);fill-opacity:1;" d="M 58.003906 14.265625 C 52.144531 13.671875 48.132812 14.128906 45.160156 19.269531 C 42.1875 24.40625 41.949219 30.890625 43.824219 36.535156 C 44.847656 39.625 46.507812 42.550781 48.945312 44.6875 C 51.375 46.824219 54.636719 48.101562 57.839844 47.746094 C 62.835938 47.199219 66.722656 42.921875 68.769531 38.28125 C 69.414062 36.808594 69.9375 35.257812 70.0625 33.652344 C 70.253906 31.3125 69.601562 28.996094 68.941406 26.742188 C 68.144531 24.023438 67.304688 21.269531 65.761719 18.894531 C 64.214844 16.523438 60.785156 14.65625 58.003906 14.265625 Z M 58.003906 14.265625 "/>
<path style=" stroke:none;fill-rule:nonzero;fill:rgb(98.823529%,74.901962%,58.431375%);fill-opacity:1;" d="M 133.964844 17.855469 C 128.386719 17.648438 123.746094 20.1875 122.398438 25.765625 C 122.027344 27.304688 121.96875 28.898438 121.980469 30.488281 C 122.003906 34.136719 122.421875 37.84375 123.796875 41.203125 C 125.171875 44.566406 127.078125 47.578125 130.324219 49.050781 C 133.566406 50.523438 137.652344 50.234375 140.347656 47.867188 C 141.800781 46.59375 142.777344 44.828125 143.511719 43.015625 C 145.621094 37.8125 145.945312 31.804688 144.101562 26.496094 C 142.257812 21.1875 138.933594 18.042969 133.964844 17.855469 Z M 133.964844 17.855469 "/>
<path style=" stroke:none;fill-rule:nonzero;fill:rgb(77.64706%,47.843137%,80.784315%);fill-opacity:1;" d="M 89.894531 84.113281 C 69.238281 82.578125 48.339844 80.65625 27.128906 82.058594 C 24.429688 82.238281 22.261719 79.765625 22.96875 77.152344 C 26.519531 63.988281 33.558594 50.914062 45.933594 48.714844 C 49.429688 48.097656 52.996094 48.027344 56.542969 47.964844 C 63.746094 47.835938 71.765625 48.003906 76.96875 52.988281 C 79.730469 55.636719 81.269531 59.289062 82.726562 62.828125 C 84.683594 67.574219 87.9375 79.367188 89.894531 84.113281 Z M 89.894531 84.113281 "/>
<path style=" stroke:none;fill-rule:nonzero;fill:rgb(63.529414%,77.64706%,83.529413%);fill-opacity:1;" d="M 102.425781 84.375 C 107.988281 83.460938 114.125 83.433594 119.765625 83.328125 C 126.148438 83.207031 132.570312 83.3125 138.859375 84.449219 C 141.46875 84.921875 144.042969 85.5625 146.671875 85.886719 C 152.375 86.59375 158.464844 85.835938 164.152344 85.007812 C 164.035156 79.359375 162.328125 73.949219 159.363281 69.136719 C 156.402344 64.328125 152.53125 60.144531 148.472656 56.214844 C 146.011719 53.835938 143.355469 51.472656 140.078125 50.492188 C 136.675781 49.476562 133.015625 50.070312 129.5625 50.90625 C 122.246094 52.675781 114.824219 55.734375 110.21875 61.6875 C 108.910156 63.378906 107.867188 65.261719 106.945312 67.183594 C 104.378906 72.511719 103.167969 78.507812 102.425781 84.375 Z M 102.425781 84.375 "/>
<path style=" stroke:none;fill-rule:nonzero;fill:rgb(98.823529%,74.901962%,58.431375%);fill-opacity:1;" d="M 89.835938 65.394531 C 86.011719 69.339844 83.738281 76.292969 83.929688 81.882812 C 84.078125 86.378906 85.507812 90.957031 88.53125 94.183594 C 91.554688 97.410156 96.316406 99.039062 100.429688 97.597656 C 105.761719 95.722656 108.53125 89.578125 109.441406 83.824219 C 110.070312 79.832031 110.078125 75.660156 108.847656 71.820312 C 107.617188 67.980469 105.027344 64.503906 101.46875 62.839844 C 97.90625 61.175781 92.605469 62.542969 89.835938 65.394531 Z M 89.835938 65.394531 "/>
<path style=" stroke:none;fill-rule:nonzero;fill:rgb(0.392157%,0.392157%,0.392157%);fill-opacity:1;" d="M 175.800781 170.441406 C 170.625 153.320312 163.785156 143.898438 152.726562 138.753906 C 154.566406 136.929688 156.035156 134.710938 156.871094 132.214844 C 159.203125 125.277344 156.988281 116.824219 151.222656 110.6875 C 148.90625 108.226562 146.4375 106.5625 143.875 105.734375 L 143.234375 105.515625 C 140.492188 104.554688 133.390625 102.121094 128.007812 108.800781 C 126.125 103.984375 122.925781 98.914062 119.121094 96.355469 C 115.273438 93.730469 112.773438 92.710938 108.933594 92.066406 C 110.105469 89.746094 110.777344 87.378906 111.152344 85.570312 C 113.53125 85.449219 115.933594 85.386719 118.320312 85.355469 L 119.800781 85.316406 C 125.480469 85.195312 132.121094 85.234375 138.519531 86.394531 C 139.398438 86.554688 140.320312 86.757812 141.238281 86.957031 C 142.960938 87.316406 144.679688 87.636719 146.441406 87.875 C 148.121094 88.074219 149.800781 88.15625 151.519531 88.15625 C 155.878906 88.15625 160.238281 87.597656 164.441406 86.996094 C 165.441406 86.835938 166.160156 85.957031 166.160156 84.957031 C 166.039062 79.117188 164.28125 73.277344 161.078125 68.074219 C 157.71875 62.675781 153.320312 58.117188 149.878906 54.757812 C 147.5625 52.542969 145.050781 50.359375 141.945312 49.089844 C 143.304688 47.796875 144.433594 46.0625 145.367188 43.757812 C 147.710938 37.976562 147.941406 31.441406 145.992188 25.832031 C 143.222656 17.851562 137.96875 16 134.042969 15.851562 C 127.070312 15.605469 121.953125 19.117188 120.464844 25.289062 C 120.023438 27.105469 119.976562 28.9375 119.984375 30.496094 C 120.019531 35.125 120.644531 38.765625 121.949219 41.957031 C 122.898438 44.28125 124.488281 47.3125 127.28125 49.445312 C 118.695312 51.789062 112.570312 55.386719 108.644531 60.472656 C 107.839844 61.472656 107.097656 62.675781 106.367188 63.996094 C 105.152344 62.777344 103.824219 61.714844 102.324219 61.015625 C 98.144531 59.070312 91.894531 60.398438 88.402344 63.996094 C 87.632812 64.792969 86.929688 65.734375 86.269531 66.738281 C 85.652344 64.894531 85.066406 63.273438 84.5625 62.066406 C 83.125 58.507812 81.484375 54.507812 78.363281 51.546875 C 74.855469 48.1875 70.335938 46.78125 65.507812 46.234375 C 67.550781 44.429688 69.3125 42.003906 70.601562 39.074219 C 71.464844 37.113281 71.933594 35.4375 72.058594 33.804688 C 72.285156 31.023438 71.496094 28.335938 70.863281 26.175781 C 70.125 23.652344 69.203125 20.511719 67.441406 17.796875 C 65.449219 14.738281 61.328125 12.703125 58.289062 12.273438 C 58.261719 12.269531 58.230469 12.265625 58.207031 12.265625 C 52.800781 11.734375 47.199219 11.742188 43.429688 18.269531 C 40.335938 23.621094 39.773438 30.683594 41.925781 37.167969 C 43.160156 40.886719 45.128906 44.003906 47.625 46.195312 C 47.71875 46.28125 47.828125 46.335938 47.925781 46.414062 C 47.136719 46.507812 46.347656 46.613281 45.558594 46.761719 C 34.398438 48.71875 25.679688 59.359375 21.039062 76.640625 C 20.519531 78.480469 20.960938 80.359375 22.160156 81.839844 C 23.398438 83.359375 25.28125 84.199219 27.238281 84.039062 C 45.804688 82.824219 64.367188 84.179688 82.332031 85.550781 C 82.761719 87.945312 83.554688 90.136719 84.636719 92.082031 C 79.746094 93.625 73.832031 99.105469 70.761719 102.597656 C 69.269531 104.304688 67.242188 106.789062 65.804688 109.402344 C 64.96875 107.691406 64.027344 105.988281 62.875 104.3125 C 61.300781 102.023438 59.550781 100.128906 54.042969 100.128906 C 48.40625 100.128906 45.5 102.675781 42.378906 107.070312 C 37.378906 114.117188 36.425781 123.800781 39.941406 131.746094 C 40.648438 133.34375 41.464844 134.648438 42.375 135.734375 C 35.636719 136.691406 29.359375 139.015625 24.800781 144.679688 C 18.921875 152 17.839844 162.519531 17.160156 173.558594 C 17.121094 174.601562 17.839844 175.519531 18.878906 175.679688 C 20.28125 175.878906 47.878906 180.121094 71.921875 180.121094 C 77.800781 180.121094 83.519531 179.878906 88.558594 179.238281 C 89.519531 179.121094 90.238281 178.320312 90.28125 177.320312 C 90.679688 168.121094 86.921875 158.480469 79.199219 148.558594 C 76.324219 144.886719 72.332031 140.414062 67.339844 137.839844 C 82.859375 136.851562 120.546875 134.945312 127.558594 137.398438 C 127.71875 137.441406 127.839844 137.480469 127.960938 137.480469 C 115.398438 143.121094 102.761719 160.078125 104.078125 177.921875 C 104.121094 178.921875 104.960938 179.71875 106 179.761719 C 119.921875 180.121094 133.839844 180.28125 145.679688 180.28125 C 153.160156 180.28125 159.839844 180.199219 165.160156 180.121094 C 166.921875 180.078125 172.480469 179.238281 174.960938 175.921875 C 176.121094 174.320312 176.398438 172.441406 175.800781 170.441406 Z M 130.558594 112.03125 C 132.542969 109.164062 134.789062 108.273438 137.039062 108.273438 C 138.695312 108.273438 140.355469 108.757812 141.921875 109.300781 L 142.648438 109.546875 C 144.585938 110.171875 146.4375 111.449219 148.3125 113.441406 C 153.074219 118.515625 154.953125 125.386719 153.078125 130.953125 C 151.066406 136.949219 144.167969 141.03125 138.292969 139.71875 C 134.523438 138.867188 131.074219 135.914062 129.296875 132.003906 C 127.730469 128.570312 127.277344 124.402344 127.945312 119.609375 C 128.382812 116.414062 129.242188 113.9375 130.558594 112.03125 Z M 125.648438 40.445312 C 124.539062 37.738281 124.011719 34.566406 123.980469 30.472656 C 123.972656 29.160156 124.007812 27.628906 124.34375 26.226562 C 125.703125 20.59375 130.792969 19.839844 133.390625 19.839844 C 133.566406 19.839844 133.734375 19.84375 133.886719 19.851562 C 137.835938 20 140.558594 22.386719 142.210938 27.144531 C 143.847656 31.851562 143.644531 37.359375 141.660156 42.257812 C 140.898438 44.128906 140.039062 45.472656 139.03125 46.355469 C 137.03125 48.105469 133.867188 48.457031 131.152344 47.222656 C 128.863281 46.191406 127.117188 44.035156 125.648438 40.445312 Z M 111.800781 62.921875 C 115.398438 58.238281 121.398438 54.921875 130.039062 52.839844 C 133.199219 52.078125 136.519531 51.519531 139.519531 52.398438 C 142.359375 53.28125 144.839844 55.480469 147.078125 57.640625 C 150.398438 60.839844 154.558594 65.160156 157.679688 70.160156 C 160.160156 74.238281 161.679688 78.761719 162.039062 83.28125 C 157.039062 84 151.800781 84.480469 146.921875 83.921875 C 145.28125 83.679688 143.640625 83.359375 142.039062 83.039062 C 141.078125 82.839844 140.160156 82.640625 139.199219 82.480469 C 133.921875 81.519531 128.480469 81.28125 123.519531 81.28125 C 122.238281 81.28125 120.960938 81.320312 119.71875 81.320312 L 118.238281 81.359375 C 116.058594 81.390625 113.878906 81.480469 111.699219 81.574219 C 112.03125 77.761719 111.738281 74.273438 110.757812 71.207031 C 110.324219 69.867188 109.730469 68.636719 109.058594 67.472656 C 109.960938 65.625 110.863281 64.144531 111.800781 62.921875 Z M 91.273438 66.792969 C 91.273438 66.789062 91.273438 66.789062 91.273438 66.792969 C 92.882812 65.125 95.601562 64.128906 97.976562 64.128906 C 98.949219 64.128906 99.863281 64.296875 100.625 64.652344 C 103.441406 65.96875 105.804688 68.878906 106.949219 72.433594 C 107.957031 75.566406 108.132812 79.296875 107.472656 83.511719 C 107.101562 85.871094 105.445312 93.714844 99.769531 95.707031 C 96.601562 96.832031 92.664062 95.664062 89.996094 92.816406 C 87.523438 90.179688 86.078125 86.273438 85.929688 81.816406 C 85.753906 76.484375 87.996094 70.167969 91.273438 66.792969 Z M 45.722656 35.910156 C 43.929688 30.496094 44.363281 24.652344 46.894531 20.273438 C 48.769531 17.03125 50.957031 16.054688 54.511719 16.054688 C 55.488281 16.054688 56.5625 16.132812 57.765625 16.246094 C 60.140625 16.601562 62.96875 18.273438 64.09375 19.992188 C 65.429688 22.046875 66.179688 24.421875 67.027344 27.3125 C 67.597656 29.246094 68.238281 31.449219 68.074219 33.5 C 67.984375 34.671875 67.625 35.9375 66.945312 37.476562 C 65.316406 41.167969 62.011719 45.285156 57.628906 45.765625 C 55.136719 46.03125 52.410156 45.066406 50.269531 43.1875 C 48.304688 41.46875 46.730469 38.949219 45.722656 35.910156 Z M 27 80.078125 C 26.320312 80.121094 25.679688 79.839844 25.238281 79.320312 C 25.039062 79.039062 24.679688 78.480469 24.878906 77.679688 C 27.359375 68.558594 33.398438 53 46.28125 50.679688 C 49.640625 50.078125 53.160156 50.039062 56.558594 49.960938 C 63.71875 49.839844 71.039062 50.078125 75.601562 54.441406 C 78.078125 56.839844 79.558594 60.441406 80.878906 63.601562 C 81.664062 65.457031 82.660156 68.570312 83.691406 71.84375 C 82.535156 74.945312 81.894531 78.324219 81.941406 81.503906 C 69.046875 80.542969 55.882812 79.558594 42.601562 79.558594 C 37.398438 79.558594 32.199219 79.71875 27 80.078125 Z M 45.644531 109.390625 C 48.570312 105.265625 50.378906 104.136719 54.046875 104.136719 C 57.898438 104.136719 58.53125 105.054688 59.585938 106.585938 C 62.488281 110.808594 64.269531 115.144531 64.882812 119.480469 C 65.566406 124.308594 64.722656 128.996094 62.511719 132.679688 C 61.726562 133.988281 60.925781 134.875 60.058594 135.386719 C 58.640625 136.226562 56.769531 136.261719 54.644531 136.191406 C 51.578125 136.109375 48.65625 135.898438 46.566406 134.296875 C 45.425781 133.421875 44.453125 132.058594 43.601562 130.140625 C 40.6875 123.554688 41.507812 115.21875 45.644531 109.390625 Z M 76.039062 151.039062 C 82.679688 159.519531 86.160156 167.761719 86.320312 175.480469 C 64.160156 177.800781 29.519531 173.160156 21.28125 172 C 21.921875 162.28125 23.078125 153.199219 27.921875 147.160156 C 32.863281 141 40.46875 139.628906 47.765625 139.238281 C 49.941406 139.921875 52.261719 140.121094 54.53125 140.1875 C 54.933594 140.199219 55.367188 140.210938 55.839844 140.210938 C 57.152344 140.210938 58.683594 140.101562 60.179688 139.636719 C 61.800781 139.929688 63.378906 140.320312 64.878906 141 C 69.480469 143.121094 73.28125 147.480469 76.039062 151.039062 Z M 66.324219 133.921875 C 68.679688 129.589844 69.609375 124.324219 68.839844 118.910156 C 68.667969 117.6875 68.410156 116.464844 68.074219 115.246094 C 68.074219 115.242188 68.074219 115.238281 68.074219 115.234375 C 67.835938 113.714844 69.476562 110.035156 73.714844 105.234375 C 79.074219 99.277344 84.796875 95.636719 87.117188 95.636719 C 87.144531 95.636719 87.15625 95.636719 87.171875 95.636719 C 89.914062 98.511719 93.648438 100.113281 97.269531 100.113281 C 98.574219 100.113281 99.863281 99.902344 101.089844 99.476562 C 103.328125 98.691406 105.046875 97.320312 106.441406 95.722656 C 110.855469 96.328125 112.996094 97.023438 116.871094 99.632812 C 120.652344 102.214844 124.070312 108.574219 125.355469 113.476562 C 124.730469 115.125 124.265625 116.960938 123.972656 119.050781 C 123.242188 124.285156 123.746094 128.925781 125.378906 132.902344 C 111.511719 131.027344 73.070312 133.4375 66.324219 133.921875 Z M 171.71875 173.558594 C 170.480469 175.199219 166.800781 176.078125 165.078125 176.121094 C 151.839844 176.320312 130.039062 176.359375 108 175.800781 C 107.800781 160.71875 118.878906 145.800781 129.878906 140.960938 C 130.269531 140.792969 130.652344 140.660156 131.039062 140.519531 C 132.941406 142.011719 135.105469 143.097656 137.410156 143.617188 C 138.457031 143.855469 139.515625 143.96875 140.578125 143.96875 C 143.539062 143.96875 146.484375 143.050781 149.101562 141.515625 C 160.269531 145.957031 166.808594 154.515625 171.964844 171.5625 C 172.28125 172.601562 172 173.160156 171.71875 173.558594 Z M 171.71875 173.558594 "/>
</g>
</svg>
