<?xml version="1.0" encoding="UTF-8"?>
<svg xmlns="http://www.w3.org/2000/svg" xmlns:xlink="http://www.w3.org/1999/xlink" viewBox="0 0 192 192" width="192px" height="192px">
<g id="surface162497735">
<path style=" stroke:none;fill-rule:nonzero;fill:rgb(45.490196%,80.000001%,81.176472%);fill-opacity:1;" d="M 156.414062 145.539062 C 149.625 144.074219 142.875 147.1875 136.050781 146.289062 C 135.1875 146.175781 134.363281 145.988281 133.574219 145.761719 C 131.625 148.914062 129.898438 152.289062 127.351562 154.949219 C 124.613281 157.800781 121.125 159.75 117.148438 160.199219 C 111.375 160.835938 105.1875 158.699219 102 153.976562 C 98.625 159.488281 92.585938 164.175781 86.210938 162.824219 C 79.539062 161.4375 73.539062 155.8125 70.574219 149.585938 C 69.261719 150.300781 67.914062 150.976562 66.5625 151.574219 C 64.050781 152.699219 61.460938 153.675781 58.875 154.6875 C 56.476562 155.625 54.1875 156.75 51.789062 157.648438 C 49.125 158.664062 43.648438 160.460938 43.3125 163.914062 C 43.125 165.9375 44.960938 168.039062 46.273438 169.425781 C 47.8125 171.074219 49.5 172.574219 51.300781 173.886719 C 55.164062 176.664062 59.511719 178.835938 63.898438 180.636719 C 85.199219 189.261719 108.414062 186.523438 129.300781 178.125 C 138.375 174.449219 147.261719 169.539062 153.976562 162.261719 C 157.199219 158.699219 165.488281 147.488281 156.414062 145.539062 Z M 102.5625 170.511719 C 102.226562 170.925781 101.699219 171.148438 101.175781 171.226562 C 100.613281 171.261719 100.085938 171.074219 99.636719 170.699219 C 99.523438 170.625 99.449219 170.511719 99.375 170.398438 C 99.335938 170.363281 99.300781 170.363281 99.261719 170.324219 C 98.851562 169.988281 98.625 169.460938 98.550781 168.9375 C 98.511719 168.375 98.699219 167.8125 99.074219 167.398438 C 99.414062 167.023438 99.9375 166.6875 100.460938 166.6875 C 100.726562 166.6875 100.988281 166.6875 101.25 166.726562 C 101.664062 166.800781 102 166.988281 102.300781 167.25 C 102.789062 167.664062 103.050781 168.335938 103.050781 168.976562 C 103.050781 169.539062 102.9375 170.0625 102.5625 170.511719 Z M 102.5625 170.511719 "/>
<path style=" stroke:none;fill-rule:nonzero;fill:rgb(93.333334%,75.686276%,59.215689%);fill-opacity:1;" d="M 125.101562 137.324219 C 124.761719 136.386719 124.3125 135.261719 124.011719 134.175781 C 122.886719 134.886719 121.6875 135.523438 120.488281 136.085938 C 111 140.585938 100.050781 139.835938 90.1875 137.136719 C 86.511719 136.125 82.800781 134.960938 79.164062 133.5 C 79.3125 135.074219 79.386719 136.6875 79.199219 138.261719 C 79.425781 138.335938 79.648438 138.488281 79.875 138.710938 C 83.925781 142.648438 89.699219 144.074219 95.136719 144.75 C 98.0625 145.125 100.988281 145.273438 103.914062 145.3125 C 105.375 145.351562 106.875 145.425781 108.335938 145.199219 C 111.710938 144.636719 115.085938 143.8125 118.386719 142.875 C 120.074219 142.386719 121.800781 141.863281 123.414062 141.148438 C 123.75 141 124.085938 140.851562 124.425781 140.664062 C 124.425781 139.875 125.023438 139.164062 125.773438 138.863281 C 125.476562 138.335938 125.25 137.8125 125.101562 137.324219 Z M 125.101562 137.324219 "/>
<path style=" stroke:none;fill-rule:nonzero;fill:rgb(11.764706%,26.274511%,51.764709%);fill-opacity:1;" d="M 94.875 148.835938 C 88.914062 148.085938 82.613281 146.550781 77.960938 142.574219 C 77.851562 142.800781 77.738281 143.023438 77.625 143.210938 C 76.6875 144.789062 75.449219 146.101562 74.0625 147.226562 C 76.199219 152.101562 80.925781 157.199219 86.0625 158.511719 C 91.949219 160.011719 97.726562 154.6875 99.789062 149.363281 C 98.101562 149.25 96.449219 149.023438 94.875 148.835938 Z M 129.601562 143.8125 C 129.113281 143.4375 128.664062 143.0625 128.210938 142.613281 C 125.210938 146.476562 111.75 148.761719 109.460938 149.175781 C 107.851562 149.476562 106.164062 149.585938 104.476562 149.585938 C 106.351562 154.6875 111.976562 156.898438 117.300781 156 C 123.636719 154.914062 126.523438 149.324219 129.636719 144.335938 C 129.601562 144.148438 129.601562 143.960938 129.601562 143.8125 Z M 129.601562 143.8125 "/>
<path style=" stroke:none;fill-rule:nonzero;fill:rgb(52.156866%,29.803923%,11.372549%);fill-opacity:1;" d="M 156.1875 42.898438 C 157.914062 42.976562 159.449219 43.425781 161.023438 44.175781 C 161.476562 44.398438 161.925781 44.625 162.335938 44.8125 C 161.4375 39.824219 157.726562 36.261719 153.5625 33.148438 C 148.726562 29.585938 143.324219 26.550781 139.648438 21.75 C 138.789062 20.625 139.539062 19.164062 140.664062 18.636719 C 143.398438 17.4375 146.175781 16.273438 148.949219 15.113281 C 147.074219 12.710938 143.625 11.699219 140.773438 11.136719 C 137.136719 10.425781 133.460938 10.273438 129.789062 10.273438 C 126.261719 10.273438 122.699219 10.386719 119.210938 11.023438 C 116.699219 11.476562 112.351562 12.300781 111.898438 15.375 C 111.636719 17.0625 109.914062 17.324219 108.789062 16.613281 C 107.960938 17.550781 106.386719 17.886719 105.5625 16.5 C 102.5625 11.585938 95.925781 10.539062 90.636719 10.125 C 87.824219 9.898438 85.050781 9.976562 82.238281 9.898438 C 78.335938 9.789062 74.289062 9.488281 70.425781 10.238281 C 66.226562 11.0625 62.136719 13.613281 58.460938 15.710938 C 54.976562 17.738281 51.488281 19.835938 48.226562 22.238281 C 43.988281 25.351562 40.726562 28.988281 38.398438 33.449219 C 42.675781 32.289062 46.761719 30.75 51.414062 32.0625 C 52.613281 32.398438 53.585938 33.75 52.875 34.988281 C 51.335938 37.648438 48.335938 39.039062 45.789062 40.613281 C 42.710938 42.523438 39.976562 44.851562 37.613281 47.550781 C 35.136719 50.398438 32.773438 53.4375 30.789062 56.625 C 29.585938 58.539062 28.386719 60.601562 27.636719 62.773438 C 28.914062 62.0625 30.1875 61.425781 31.613281 60.976562 C 32.851562 60.601562 34.273438 61.386719 34.351562 62.773438 C 34.726562 69.976562 32.664062 77.023438 32.886719 84.226562 C 33 87.863281 33.113281 93.523438 35.699219 96.75 C 37.011719 93.863281 38.324219 91.085938 40.914062 88.988281 C 42.113281 88.050781 44.101562 89.0625 44.136719 90.523438 C 44.210938 94.5 45.601562 98.324219 47.585938 101.738281 C 48.636719 103.539062 50.398438 104.625 52.164062 105.75 C 52.011719 105.335938 51.863281 104.886719 51.75 104.476562 C 48.335938 93.300781 46.539062 81.414062 45.261719 69.824219 C 45.148438 68.664062 45.863281 67.949219 46.761719 67.726562 C 49.351562 60.335938 58.425781 59.136719 64.539062 55.574219 C 66.335938 54.523438 68.324219 56.25 67.539062 58.199219 C 66.710938 60.226562 66.601562 62.664062 66.710938 64.835938 C 66.789062 66.226562 66.898438 67.761719 67.351562 69.113281 C 70.238281 67.238281 72.261719 64.125 74.175781 61.351562 C 76.425781 58.085938 78.75 54.75 82.164062 52.574219 C 83.511719 51.710938 85.164062 52.574219 85.386719 54.113281 C 85.875 57.710938 84.5625 61.085938 84.039062 64.574219 C 86.210938 63.335938 88.125 61.613281 89.8125 59.8125 C 92.4375 57.039062 94.761719 54.039062 97.050781 50.960938 C 99.601562 47.476562 102.261719 43.949219 104.101562 40.011719 C 105.824219 36.335938 105.636719 32.363281 106.6875 28.539062 C 106.761719 28.164062 106.875 27.824219 107.023438 27.449219 C 107.398438 26.324219 108.335938 26.101562 109.199219 26.363281 C 110.363281 26.664062 111.335938 27.863281 110.738281 29.289062 C 110.8125 29.101562 110.699219 29.550781 110.738281 29.851562 C 110.773438 30.226562 110.8125 30.5625 110.925781 30.898438 C 111.226562 32.0625 111.636719 33.1875 112.085938 34.3125 C 113.023438 36.601562 114.148438 38.8125 115.273438 41.023438 C 116.324219 43.125 117.300781 45.300781 118.574219 47.25 C 119.585938 48.75 120.675781 50.136719 121.835938 51.488281 C 121.949219 49.726562 122.175781 47.960938 122.773438 46.199219 C 123.1875 44.960938 125.136719 44.699219 126 45.5625 C 129.148438 48.75 131.925781 52.351562 135.601562 54.9375 C 138.074219 56.664062 140.960938 57.5625 143.585938 58.949219 C 143.925781 58.914062 144.300781 58.949219 144.675781 59.101562 C 145.425781 59.4375 145.875 60 146.0625 60.710938 C 146.664062 60.976562 147.148438 61.5 147.300781 62.289062 C 148.835938 69.976562 148.613281 77.925781 147.976562 85.6875 C 147.824219 87.636719 147.636719 89.585938 147.449219 91.539062 C 149.585938 89.851562 150.863281 86.585938 151.761719 84.300781 C 153 81.1875 153.863281 77.960938 154.835938 74.773438 C 155.175781 73.613281 156.039062 73.011719 157.238281 73.125 C 158.476562 73.238281 159.5625 73.800781 160.5 74.550781 C 161.210938 69.5625 160.835938 64.351562 159.449219 59.550781 C 158.699219 56.886719 157.988281 54.1875 156.789062 51.710938 C 155.738281 49.574219 154.539062 47.363281 154.425781 44.925781 C 154.238281 44.101562 155.023438 42.863281 156.1875 42.898438 Z M 156.1875 42.898438 "/>
<path style=" stroke:none;fill-rule:nonzero;fill:rgb(93.333334%,75.686276%,59.215689%);fill-opacity:1;" d="M 143.210938 63.710938 C 142.988281 63.636719 142.800781 63.523438 142.613281 63.375 C 141.113281 62.25 139.199219 61.6875 137.511719 60.9375 C 135.601562 60.074219 133.800781 59.023438 132.148438 57.75 C 129.75 55.914062 127.726562 53.699219 125.699219 51.488281 C 125.585938 53.25 125.738281 55.050781 125.738281 56.773438 C 125.738281 58.351562 123.636719 59.960938 122.324219 58.5 C 119.625 55.5 116.738281 52.574219 114.636719 49.085938 C 113.25 46.800781 112.125 44.324219 110.925781 41.925781 C 110.289062 40.6875 109.6875 39.449219 109.085938 38.175781 C 108.5625 40.085938 107.738281 41.925781 106.761719 43.6875 C 104.625 47.476562 102.074219 51.039062 99.449219 54.523438 C 95.101562 60.375 89.773438 67.648438 82.386719 69.75 C 81.148438 70.125 79.726562 69.335938 79.648438 67.949219 C 79.5 64.835938 80.511719 61.875 81 58.835938 C 76.3125 63.824219 73.835938 70.988281 67.011719 73.875 C 66.148438 74.25 65.136719 73.800781 64.613281 73.085938 C 62.960938 70.726562 62.511719 67.5 62.476562 64.6875 C 62.476562 63.488281 62.476562 62.25 62.625 61.050781 C 60.710938 61.875 58.800781 62.585938 56.925781 63.488281 C 54.148438 64.800781 51.113281 66.523438 50.363281 69.75 C 50.210938 70.386719 49.875 70.800781 49.425781 71.0625 C 50.175781 77.511719 51.148438 83.960938 52.460938 90.335938 C 53.664062 96.335938 54.898438 102.449219 57.335938 108.113281 C 61.199219 117 67.914062 123.863281 76.726562 127.914062 C 85.835938 132.113281 96.375 135.601562 106.5 135.1875 C 116.625 134.773438 125.398438 129.710938 131.738281 121.914062 C 137.476562 114.824219 141.75 105.488281 142.6875 96.335938 C 143.8125 85.5 145.164062 74.511719 143.210938 63.710938 Z M 83.773438 85.3125 C 83.773438 86.363281 83.0625 87.523438 81.863281 87.523438 C 81 87.523438 80.136719 87.414062 79.613281 86.625 C 79.386719 86.289062 79.164062 85.988281 78.789062 85.800781 C 77.851562 85.3125 76.800781 85.164062 75.75 85.199219 C 74.511719 85.238281 73.273438 85.425781 72.148438 85.875 C 71.851562 85.988281 71.585938 86.101562 71.289062 86.289062 C 71.136719 88.085938 68.664062 89.324219 67.613281 87.414062 C 65.664062 83.851562 70.199219 81.976562 72.898438 81.414062 C 75.75 80.8125 79.238281 80.960938 81.5625 82.761719 C 82.613281 82.613281 83.738281 83.210938 83.738281 84.5625 L 83.738281 85.3125 Z M 111.113281 111 C 108.523438 119.324219 94.386719 121.199219 90.113281 113.25 C 88.875 110.925781 92.289062 108.601562 93.523438 110.925781 C 95.886719 115.3125 105.414062 115.386719 107.023438 110.175781 C 107.851562 107.699219 111.898438 108.449219 111.113281 111 Z M 126.261719 82.761719 C 125.585938 81.375 120.710938 80.25 120.113281 82.460938 C 119.398438 85.011719 115.351562 84.226562 116.0625 81.675781 C 117.824219 75.300781 127.5 76.050781 130.164062 81.375 C 131.363281 83.773438 127.425781 85.125 126.261719 82.761719 Z M 126.261719 82.761719 "/>
<path style=" stroke:none;fill-rule:nonzero;fill:rgb(0%,0%,0%);fill-opacity:1;" d="M 157.988281 31.386719 C 153.75 27.9375 148.574219 25.3125 144.75 21.375 C 147.335938 20.25 149.960938 19.199219 152.550781 18.039062 C 153.5625 17.585938 154.238281 16.539062 153.824219 15.414062 C 150.375 6.335938 137.585938 6.148438 129.488281 6.148438 C 125.210938 6.148438 120.976562 6.375 116.773438 7.3125 C 113.398438 8.0625 109.539062 9.75 108.226562 13.125 C 104.699219 8.4375 98.4375 6.863281 92.8125 6.1875 C 89.851562 5.851562 86.8125 5.773438 83.8125 5.773438 C 79.199219 5.773438 74.625 5.324219 70.050781 6.074219 C 65.699219 6.789062 61.726562 9.148438 57.898438 11.25 C 53.925781 13.425781 50.023438 15.824219 46.351562 18.449219 C 40.238281 22.835938 35.550781 28.3125 33 35.4375 C 32.511719 36.75 33.300781 38.699219 35.023438 38.398438 C 38.699219 37.800781 42.226562 36.1875 45.863281 35.773438 C 45.824219 35.8125 45.789062 35.8125 45.75 35.851562 C 44.324219 36.710938 42.898438 37.539062 41.550781 38.511719 C 38.324219 40.875 35.511719 43.574219 32.960938 46.6875 C 28.238281 52.5 22.875 59.476562 22.6875 67.273438 C 22.648438 68.886719 24.710938 69.636719 25.914062 68.8125 C 27.335938 67.875 28.726562 66.898438 30.1875 66.113281 C 30.039062 69.335938 29.511719 72.523438 29.136719 75.710938 C 28.726562 79.238281 28.613281 82.761719 28.800781 86.324219 C 29.101562 91.988281 30.226562 98.773438 35.476562 101.960938 C 36.414062 102.5625 37.800781 101.960938 38.25 101.023438 C 39.074219 99.335938 39.710938 97.425781 40.613281 95.699219 C 41.25 98.210938 42.261719 100.648438 43.5 102.976562 C 44.476562 104.8125 45.710938 106.273438 47.398438 107.511719 C 49.011719 108.710938 50.8125 109.613281 52.3125 111 C 53.023438 111.675781 53.773438 111.675781 54.414062 111.375 C 56.960938 116.664062 60.488281 121.425781 64.988281 125.25 C 67.949219 127.761719 71.289062 129.824219 74.773438 131.511719 C 75.449219 135.523438 75.675781 139.761719 72.75 142.988281 C 71.136719 144.789062 68.585938 145.988281 66.449219 147.039062 C 63.976562 148.238281 61.386719 149.25 58.800781 150.226562 C 54.335938 151.949219 49.761719 153.636719 45.523438 155.851562 C 42.1875 157.613281 39.335938 160.386719 39.261719 164.363281 C 39.1875 168.601562 43.5 172.574219 46.425781 175.125 C 50.023438 178.238281 54.261719 180.636719 58.574219 182.664062 C 68.324219 187.238281 78.824219 189.5625 89.550781 189.976562 C 100.835938 190.425781 112.199219 188.398438 122.851562 184.761719 C 133.050781 181.273438 143.023438 177 151.460938 170.136719 C 154.5 167.664062 157.351562 164.886719 159.75 161.773438 C 162.1875 158.625 164.4375 154.875 164.664062 150.824219 C 164.851562 147.335938 163.199219 144.226562 160.164062 142.5 C 157.238281 140.8125 153.375 140.886719 150.113281 141.113281 C 145.273438 141.414062 140.476562 142.914062 135.636719 141.976562 C 133.613281 141.601562 131.851562 140.585938 130.613281 138.898438 C 129.9375 137.960938 129.449219 136.949219 129.039062 135.863281 C 128.585938 134.664062 127.875 133.011719 127.875 131.699219 C 127.875 131.625 127.875 131.511719 127.875 131.4375 C 135.789062 125.289062 141.375 116.289062 144.488281 106.800781 C 145.613281 103.386719 146.324219 99.9375 146.8125 96.449219 C 147 96.449219 147.148438 96.375 147.335938 96.335938 C 151.125 94.914062 153.300781 91.011719 154.835938 87.523438 C 156.1875 84.488281 157.125 81.261719 158.101562 78.074219 C 158.8125 78.675781 159.414062 79.5 159.976562 80.175781 C 161.101562 81.636719 163.238281 81.1875 163.726562 79.425781 C 165.414062 73.199219 165.226562 66.523438 163.800781 60.226562 C 163.164062 57.449219 162.375 54.523438 161.289062 51.898438 C 160.726562 50.511719 159.898438 49.125 159.261719 47.699219 C 160.914062 48.414062 162.449219 49.460938 164.289062 49.574219 C 165.710938 49.648438 166.6875 48.863281 166.726562 47.398438 C 166.914062 40.6875 163.011719 35.4375 157.988281 31.386719 Z M 77.625 143.210938 C 77.738281 142.988281 77.851562 142.761719 77.960938 142.574219 C 82.613281 146.585938 88.914062 148.125 94.875 148.835938 C 96.449219 149.023438 98.101562 149.210938 99.789062 149.363281 C 97.726562 154.6875 91.949219 159.976562 86.0625 158.511719 C 80.925781 157.199219 76.199219 152.101562 74.0625 147.226562 C 75.449219 146.101562 76.6875 144.789062 77.625 143.210938 Z M 79.125 133.5 C 82.761719 134.925781 86.476562 136.125 90.148438 137.136719 C 100.011719 139.875 110.960938 140.585938 120.449219 136.085938 C 121.6875 135.523438 122.851562 134.851562 123.976562 134.175781 C 124.273438 135.261719 124.726562 136.386719 125.0625 137.324219 C 125.25 137.851562 125.476562 138.335938 125.699219 138.824219 C 124.949219 139.125 124.386719 139.835938 124.351562 140.625 C 124.011719 140.8125 123.710938 140.960938 123.335938 141.113281 C 121.726562 141.824219 120 142.351562 118.3125 142.835938 C 115.011719 143.8125 111.636719 144.601562 108.261719 145.164062 C 106.800781 145.425781 105.335938 145.3125 103.835938 145.273438 C 100.914062 145.238281 97.988281 145.050781 95.0625 144.710938 C 89.625 144.039062 83.851562 142.613281 79.800781 138.675781 C 79.574219 138.449219 79.351562 138.335938 79.125 138.226562 C 79.351562 136.6875 79.3125 135.074219 79.125 133.5 Z M 133.574219 145.761719 C 134.363281 145.988281 135.226562 146.175781 136.050781 146.289062 C 142.875 147.1875 149.625 144.113281 156.414062 145.539062 C 165.488281 147.488281 157.199219 158.699219 153.976562 162.1875 C 147.261719 169.460938 138.375 174.375 129.300781 178.050781 C 108.414062 186.449219 85.199219 189.226562 63.898438 180.5625 C 59.476562 178.761719 55.164062 176.625 51.300781 173.8125 C 49.460938 172.5 47.773438 171 46.273438 169.351562 C 45 167.960938 43.125 165.863281 43.3125 163.835938 C 43.648438 160.386719 49.125 158.585938 51.789062 157.574219 C 54.1875 156.675781 56.476562 155.550781 58.875 154.613281 C 61.460938 153.601562 64.050781 152.625 66.5625 151.5 C 67.914062 150.898438 69.261719 150.261719 70.574219 149.511719 C 73.539062 155.699219 79.5 161.324219 86.210938 162.75 C 92.625 164.101562 98.664062 159.414062 102 153.898438 C 105.1875 158.625 111.375 160.800781 117.148438 160.125 C 121.125 159.675781 124.613281 157.761719 127.351562 154.875 C 129.898438 152.289062 131.625 148.875 133.574219 145.761719 Z M 128.210938 142.574219 C 128.664062 143.023438 129.113281 143.4375 129.601562 143.773438 C 129.601562 143.960938 129.601562 144.113281 129.636719 144.261719 C 126.5625 149.25 123.675781 154.835938 117.300781 155.925781 C 111.976562 156.824219 106.3125 154.613281 104.476562 149.511719 C 106.164062 149.511719 107.851562 149.363281 109.460938 149.101562 C 111.75 148.726562 125.25 146.4375 128.210938 142.574219 Z M 142.6875 96.335938 C 141.75 105.488281 137.476562 114.824219 131.738281 121.914062 C 125.398438 129.710938 116.625 134.773438 106.5 135.1875 C 96.375 135.601562 85.835938 132.113281 76.726562 127.914062 C 67.949219 123.863281 61.199219 117 57.335938 108.113281 C 54.898438 102.488281 53.699219 96.335938 52.460938 90.335938 C 51.148438 83.960938 50.175781 77.511719 49.425781 71.0625 C 49.835938 70.800781 50.210938 70.386719 50.363281 69.75 C 51.113281 66.5625 54.148438 64.800781 56.925781 63.488281 C 58.800781 62.625 60.75 61.875 62.625 61.050781 C 62.511719 62.25 62.476562 63.488281 62.476562 64.6875 C 62.511719 67.5 62.960938 70.726562 64.613281 73.085938 C 65.101562 73.800781 66.148438 74.25 67.011719 73.875 C 73.835938 70.988281 76.273438 63.824219 81 58.835938 C 80.511719 61.875 79.5 64.835938 79.648438 67.949219 C 79.726562 69.335938 81.148438 70.085938 82.386719 69.75 C 89.738281 67.648438 95.0625 60.375 99.449219 54.523438 C 102.039062 51.039062 104.625 47.476562 106.761719 43.6875 C 107.738281 41.925781 108.5625 40.085938 109.085938 38.175781 C 109.6875 39.449219 110.324219 40.6875 110.925781 41.925781 C 112.125 44.324219 113.25 46.800781 114.636719 49.085938 C 116.738281 52.539062 119.664062 55.460938 122.324219 58.5 C 123.636719 60 125.738281 58.386719 125.738281 56.773438 C 125.738281 55.050781 125.585938 53.25 125.699219 51.488281 C 127.726562 53.699219 129.789062 55.875 132.148438 57.75 C 133.800781 59.023438 135.601562 60.113281 137.511719 60.9375 C 139.199219 61.6875 141.113281 62.25 142.613281 63.375 C 142.800781 63.523438 143.023438 63.636719 143.210938 63.710938 C 145.164062 74.511719 143.8125 85.5 142.6875 96.335938 Z M 161.023438 44.175781 C 159.449219 43.425781 157.914062 42.976562 156.1875 42.898438 C 155.023438 42.824219 154.238281 44.101562 154.273438 45.113281 C 154.386719 47.550781 155.585938 49.726562 156.636719 51.898438 C 157.835938 54.375 158.550781 57.113281 159.300781 59.738281 C 160.6875 64.539062 161.0625 69.75 160.351562 74.738281 C 159.414062 73.988281 158.324219 73.425781 157.085938 73.3125 C 155.886719 73.199219 155.023438 73.800781 154.6875 74.960938 C 153.710938 78.148438 152.851562 81.375 151.613281 84.488281 C 150.710938 86.773438 149.476562 90.039062 147.300781 91.726562 C 147.488281 89.773438 147.675781 87.824219 147.824219 85.875 C 148.460938 78.074219 148.6875 70.164062 147.148438 62.476562 C 147 61.6875 146.511719 61.164062 145.914062 60.898438 C 145.726562 60.1875 145.273438 59.585938 144.523438 59.289062 C 144.148438 59.136719 143.773438 59.0625 143.4375 59.136719 C 140.8125 57.710938 137.925781 56.851562 135.449219 55.125 C 131.773438 52.539062 129 48.898438 125.851562 45.75 C 124.988281 44.886719 123.074219 45.148438 122.625 46.386719 C 122.023438 48.148438 121.800781 49.914062 121.6875 51.675781 C 120.523438 50.324219 119.398438 48.9375 118.425781 47.4375 C 117.113281 45.488281 116.175781 43.3125 115.125 41.210938 C 114 39 112.914062 36.789062 111.9375 34.5 C 111.488281 33.375 111.074219 32.25 110.773438 31.085938 C 110.664062 30.75 110.625 30.375 110.585938 30.039062 C 110.550781 29.738281 110.664062 29.289062 110.585938 29.476562 C 111.1875 28.050781 110.210938 26.851562 109.050781 26.550781 C 108.1875 26.289062 107.25 26.511719 106.875 27.636719 C 106.726562 27.976562 106.613281 28.351562 106.539062 28.726562 C 105.488281 32.550781 105.675781 36.523438 103.949219 40.199219 C 102.113281 44.136719 99.488281 47.664062 96.898438 51.148438 C 94.648438 54.226562 92.289062 57.226562 89.664062 60 C 87.976562 61.800781 86.0625 63.523438 83.886719 64.761719 C 84.375 61.273438 85.6875 57.898438 85.238281 54.300781 C 85.050781 52.761719 83.398438 51.898438 82.011719 52.761719 C 78.601562 54.9375 76.273438 58.238281 74.023438 61.539062 C 72.113281 64.3125 70.085938 67.425781 67.199219 69.300781 C 66.75 67.914062 66.636719 66.414062 66.5625 65.023438 C 66.449219 62.886719 66.523438 60.414062 67.386719 58.386719 C 68.175781 56.4375 66.1875 54.710938 64.386719 55.761719 C 58.273438 59.324219 49.199219 60.523438 46.613281 67.914062 C 45.710938 68.101562 44.960938 68.8125 45.113281 70.011719 C 46.386719 81.601562 48.1875 93.488281 51.601562 104.664062 C 51.710938 105.074219 51.863281 105.523438 52.011719 105.9375 C 50.25 104.8125 48.488281 103.726562 47.4375 101.925781 C 45.414062 98.511719 44.0625 94.6875 43.988281 90.710938 C 43.949219 89.210938 41.960938 88.199219 40.761719 89.175781 C 38.175781 91.273438 36.863281 94.050781 35.550781 96.9375 C 32.960938 93.710938 32.851562 88.050781 32.738281 84.414062 C 32.511719 77.210938 34.574219 70.164062 34.199219 62.960938 C 34.125 61.613281 32.699219 60.789062 31.460938 61.164062 C 30.074219 61.613281 28.761719 62.25 27.488281 62.960938 C 28.238281 60.789062 29.4375 58.726562 30.636719 56.8125 C 32.625 53.625 34.988281 50.585938 37.460938 47.738281 C 39.824219 45.039062 42.601562 42.710938 45.636719 40.800781 C 48.148438 39.226562 51.1875 37.835938 52.726562 35.175781 C 53.4375 33.9375 52.460938 32.585938 51.261719 32.25 C 46.574219 30.9375 42.523438 32.476562 38.25 33.636719 C 40.574219 29.136719 43.875 25.539062 48.074219 22.425781 C 51.300781 20.023438 54.789062 17.886719 58.3125 15.898438 C 61.988281 13.761719 66.039062 11.25 70.273438 10.425781 C 74.136719 9.675781 78.1875 9.976562 82.085938 10.085938 C 84.898438 10.164062 87.710938 10.085938 90.488281 10.3125 C 95.773438 10.726562 102.414062 11.773438 105.414062 16.6875 C 106.238281 18.074219 107.8125 17.773438 108.636719 16.800781 C 109.761719 17.511719 111.523438 17.25 111.75 15.5625 C 112.199219 12.488281 116.585938 11.664062 119.0625 11.210938 C 122.550781 10.574219 126.113281 10.5 129.636719 10.460938 C 133.3125 10.460938 136.988281 10.613281 140.625 11.324219 C 143.476562 11.886719 146.925781 12.898438 148.800781 15.300781 C 146.023438 16.5 143.25 17.625 140.511719 18.824219 C 139.386719 19.3125 138.636719 20.8125 139.5 21.9375 C 143.210938 26.773438 148.613281 29.8125 153.414062 33.335938 C 157.613281 36.414062 161.289062 40.011719 162.1875 45 C 161.886719 44.625 161.476562 44.398438 161.023438 44.175781 Z M 161.023438 44.175781 "/>
<path style=" stroke:none;fill-rule:nonzero;fill:rgb(0%,0%,0%);fill-opacity:1;" d="M 81.601562 82.726562 C 79.238281 80.886719 75.789062 80.773438 72.9375 81.375 C 70.199219 81.9375 65.699219 83.8125 67.648438 87.375 C 68.699219 89.289062 71.210938 88.050781 71.324219 86.25 C 71.585938 86.101562 71.886719 85.949219 72.1875 85.835938 C 73.351562 85.386719 74.550781 85.238281 75.789062 85.164062 C 76.835938 85.125 77.886719 85.3125 78.824219 85.761719 C 79.199219 85.949219 79.425781 86.25 79.648438 86.585938 C 80.175781 87.414062 81.039062 87.488281 81.898438 87.488281 C 83.101562 87.488281 83.8125 86.324219 83.8125 85.273438 L 83.8125 84.523438 C 83.773438 83.175781 82.6875 82.613281 81.601562 82.726562 Z M 130.164062 81.414062 C 127.5 76.085938 117.824219 75.335938 116.0625 81.710938 C 115.351562 84.261719 119.398438 85.050781 120.113281 82.5 C 120.710938 80.289062 125.585938 81.414062 126.261719 82.800781 C 127.425781 85.125 131.363281 83.773438 130.164062 81.414062 Z M 107.0625 110.210938 C 105.449219 115.425781 95.925781 115.351562 93.5625 110.960938 C 92.289062 108.601562 88.914062 110.960938 90.148438 113.289062 C 94.425781 121.238281 108.5625 119.324219 111.148438 111.039062 C 111.898438 108.449219 107.851562 107.699219 107.0625 110.210938 Z M 102.300781 167.25 C 102 166.988281 101.664062 166.800781 101.25 166.726562 C 100.988281 166.6875 100.726562 166.6875 100.460938 166.6875 C 99.9375 166.6875 99.414062 167.023438 99.074219 167.398438 C 98.699219 167.8125 98.511719 168.375 98.550781 168.9375 C 98.585938 169.460938 98.851562 169.988281 99.261719 170.324219 C 99.300781 170.363281 99.335938 170.363281 99.375 170.398438 C 99.449219 170.511719 99.5625 170.625 99.636719 170.699219 C 100.050781 171.074219 100.613281 171.261719 101.175781 171.226562 C 101.699219 171.1875 102.226562 170.925781 102.5625 170.511719 C 102.9375 170.0625 103.085938 169.574219 103.085938 168.976562 C 103.050781 168.335938 102.824219 167.664062 102.300781 167.25 Z M 102.300781 167.25 "/>
</g>
</svg>
