<?xml version="1.0" encoding="UTF-8"?>
<svg xmlns="http://www.w3.org/2000/svg" xmlns:xlink="http://www.w3.org/1999/xlink" viewBox="0 0 192 192" width="192px" height="192px">
<g id="surface165756325">
<path style=" stroke:none;fill-rule:nonzero;fill:rgb(83.92157%,89.803922%,89.803922%);fill-opacity:1;" d="M 131.585938 63.449219 C 127.726562 55.125 120.488281 48.335938 112.425781 44.0625 C 105.039062 40.164062 96.898438 38.4375 88.574219 39.601562 C 80.738281 40.6875 73.273438 43.988281 67.085938 48.863281 C 54.375 58.914062 47.8125 75.226562 53.136719 90.976562 C 53.25 91.351562 53.289062 91.6875 53.210938 91.988281 C 61.5 102.9375 74.175781 109.199219 87.863281 110.101562 C 104.210938 111.1875 122.960938 104.023438 130.761719 88.761719 C 134.886719 80.8125 135.414062 71.625 131.585938 63.449219 Z M 93.75 101.585938 C 80.4375 103.351562 61.199219 98.4375 57.75 83.625 C 57.300781 83.324219 57 82.835938 57.039062 82.085938 C 57.710938 66.113281 69.976562 51.675781 85.273438 47.4375 C 92.886719 45.335938 101.476562 45.5625 108.523438 49.386719 C 115.835938 53.363281 122.25 60.523438 124.273438 68.738281 C 128.925781 87.5625 109.949219 99.414062 93.75 101.585938 Z M 93.75 101.585938 "/>
<path style=" stroke:none;fill-rule:nonzero;fill:rgb(93.725491%,28.235295%,13.725491%);fill-opacity:1;" d="M 114.488281 59.363281 C 108.710938 53.023438 100.835938 49.5 92.175781 50.324219 C 76.835938 51.75 62.550781 64.949219 61.199219 80.550781 C 61.351562 80.773438 61.460938 81.074219 61.5 81.414062 C 63 92.773438 76.988281 97.6875 86.960938 97.875 C 93 97.988281 99.074219 96.75 104.625 94.386719 C 109.949219 92.101562 115.386719 88.613281 118.386719 83.511719 C 123.074219 75.449219 120.5625 66 114.488281 59.363281 Z M 114.488281 59.363281 "/>
<path style=" stroke:none;fill-rule:nonzero;fill:rgb(7.843138%,71.372551%,72.549021%);fill-opacity:1;" d="M 148.648438 79.425781 C 148.273438 62.363281 142.050781 45.039062 127.875 34.6875 C 119.550781 28.613281 109.3125 26.0625 99.1875 25.050781 C 88.539062 24 77.136719 23.699219 66.824219 26.886719 C 50.210938 32.023438 37.800781 46.273438 34.011719 63.148438 C 32.25 71.023438 32.101562 79.386719 34.050781 87.261719 C 36.449219 96.898438 41.773438 105.488281 47.289062 113.625 C 53.585938 122.925781 60.5625 131.738281 67.3125 140.664062 C 74.210938 149.773438 81.675781 158.476562 89.738281 166.574219 C 96.710938 161.4375 103.613281 156.300781 110.0625 150.488281 C 116.960938 144.261719 123.523438 137.585938 129.335938 130.273438 C 135.601562 122.398438 141.148438 113.699219 144.636719 104.175781 C 147.488281 96.375 148.800781 87.824219 148.648438 79.425781 Z M 135.976562 87.449219 C 129.675781 103.125 112.648438 112.914062 96.300781 114.1875 C 77.8125 115.648438 59.4375 108.226562 48.75 92.8125 C 48.1875 92.023438 48.300781 91.199219 48.710938 90.601562 C 46.085938 81.488281 46.726562 71.699219 50.699219 63 C 54.710938 54.261719 61.613281 46.835938 69.863281 41.960938 C 84.449219 33.375 102.074219 32.773438 116.664062 41.738281 C 124.460938 46.539062 131.363281 53.210938 135.261719 61.574219 C 139.085938 69.789062 139.3125 79.050781 135.976562 87.449219 Z M 135.976562 87.449219 "/>
<path style=" stroke:none;fill-rule:nonzero;fill:rgb(0%,0%,0%);fill-opacity:1;" d="M 152.738281 78.601562 C 152.363281 61.761719 146.101562 44.324219 132.863281 33.375 C 124.988281 26.851562 115.460938 23.363281 105.449219 21.75 C 95.101562 20.0625 84.039062 19.648438 73.6875 21.226562 C 55.5 23.960938 40.425781 35.851562 33.148438 52.6875 C 26.625 67.800781 26.960938 85.726562 34.539062 100.351562 C 41.175781 113.175781 49.875 124.6875 58.648438 136.125 C 67.648438 147.863281 76.6875 159.375 87.113281 169.875 C 87.300781 171.261719 88.800781 172.5 90.261719 171.414062 C 94.386719 168.375 98.585938 165.488281 102.5625 162.300781 C 106.5 159.148438 110.363281 155.851562 114.074219 152.476562 C 121.726562 145.539062 128.886719 137.960938 135.039062 129.675781 C 140.925781 121.800781 146.023438 113.101562 149.101562 103.761719 C 151.800781 95.625 152.925781 87.113281 152.738281 78.601562 Z M 144.601562 104.25 C 141.113281 113.738281 135.5625 122.4375 129.300781 130.351562 C 123.523438 137.664062 116.960938 144.335938 110.023438 150.5625 C 103.574219 156.375 96.675781 161.550781 89.699219 166.648438 C 81.636719 158.511719 74.210938 149.851562 67.273438 140.738281 C 60.488281 131.8125 53.511719 123 47.25 113.699219 C 41.738281 105.5625 36.414062 96.976562 34.011719 87.335938 C 32.0625 79.460938 32.210938 71.101562 33.976562 63.226562 C 37.761719 46.351562 50.175781 32.101562 66.789062 26.960938 C 77.136719 23.773438 88.5 24.074219 99.148438 25.125 C 109.273438 26.101562 119.511719 28.648438 127.835938 34.761719 C 141.976562 45.113281 148.238281 62.4375 148.613281 79.5 C 148.800781 87.824219 147.488281 96.375 144.601562 104.25 Z M 144.601562 104.25 "/>
<path style=" stroke:none;fill-rule:nonzero;fill:rgb(0%,0%,0%);fill-opacity:1;" d="M 135.261719 61.574219 C 131.363281 53.175781 124.460938 46.5 116.664062 41.738281 C 102.074219 32.773438 84.449219 33.414062 69.863281 41.960938 C 61.574219 46.835938 54.710938 54.261719 50.699219 63 C 46.6875 71.699219 46.050781 81.449219 48.710938 90.601562 C 48.300781 91.199219 48.1875 92.023438 48.75 92.8125 C 59.4375 108.226562 77.8125 115.648438 96.300781 114.1875 C 112.648438 112.875 129.710938 103.125 135.976562 87.449219 C 139.3125 79.050781 139.085938 69.789062 135.261719 61.574219 Z M 130.835938 88.761719 C 123.039062 104.023438 104.289062 111.226562 87.9375 110.101562 C 74.210938 109.164062 61.539062 102.9375 53.289062 91.988281 C 53.324219 91.6875 53.324219 91.351562 53.210938 90.976562 C 47.886719 75.261719 54.449219 58.914062 67.164062 48.863281 C 73.351562 43.949219 80.8125 40.6875 88.648438 39.601562 C 96.976562 38.4375 105.113281 40.164062 112.5 44.0625 C 120.5625 48.335938 127.800781 55.085938 131.664062 63.449219 C 135.414062 71.625 134.886719 80.8125 130.835938 88.761719 Z M 130.835938 88.761719 "/>
<path style=" stroke:none;fill-rule:nonzero;fill:rgb(0%,0%,0%);fill-opacity:1;" d="M 124.273438 68.773438 C 122.25 60.5625 115.835938 53.398438 108.523438 49.425781 C 101.476562 45.5625 92.886719 45.375 85.273438 47.476562 C 69.9375 51.710938 57.710938 66.148438 57.039062 82.125 C 57 82.875 57.300781 83.363281 57.75 83.664062 C 61.199219 98.476562 80.4375 103.386719 93.75 101.625 C 109.949219 99.414062 128.925781 87.5625 124.273438 68.773438 Z M 118.351562 83.476562 C 115.351562 88.574219 109.914062 92.0625 104.585938 94.351562 C 99.039062 96.710938 92.960938 97.949219 86.925781 97.835938 C 76.949219 97.648438 62.960938 92.738281 61.460938 81.375 C 61.425781 81.039062 61.3125 80.773438 61.164062 80.511719 C 62.511719 64.914062 76.800781 51.710938 92.136719 50.289062 C 100.761719 49.460938 108.675781 52.988281 114.449219 59.324219 C 120.5625 66 123.074219 75.449219 118.351562 83.476562 Z M 118.351562 83.476562 "/>
</g>
</svg>
