<svg xmlns="http://www.w3.org/2000/svg"  viewBox="0 0 512 512" width="55px" height="55px"><path fill="#74CCCF" d="M350.7,227.2c-2.7-28.3-9.7-60-31.6-80.1c-20.9-19.2-52.4-15.9-79-13.1c0.2,6.5,2.2,13,2.3,19.5c0,0.9-0.1,1.7-0.4,2.4c8.8,4.1,16.6,12.2,19.6,20.2c1.9,5.3,2.1,11.3,2.7,16.8c0.7,7.2,1.3,14.4,1.4,21.6c0.2,12,0.8,26.7-4.5,37.7c-4.8,9.9-15,17.7-26.3,13.1c-9.1-3.7-13.4-15-16.8-23.5c-4.9-12.2-10.1-24-10.8-37.4c-0.4-7.6,0.1-15.3,1.6-22.8c0.8-4,1.7-7.9,2.9-11.8c0.6-2,0.9-3.7,1.8-5.2c-0.1-1.2,0.2-2.4,1.1-3.6c4.5-6.3,10.6-8.5,17-8.1c-0.3-5.3-1.3-10.4-1.8-15.6c-1.8-0.2-3.5-1.2-4.3-3.4c0.8,2.2,1.2,0.7-1.7,0.7c-2.7,0-5.4,0.2-8.1,0.6c-5.4,0.8-10.8,1.9-16.2,3.2c-4.7,1.1-9.1,2.3-13.9,2.7c-7.2,0.5-14.4,0.5-21.5,1.8c-5.6,1-11.7,2.8-15.7,7c-4.5,4.7-7.4,10.7-9.8,16.7c-5.5,13.4-8.3,27.8-9.8,42.2c-1.5,14.5-1.8,29.1-1.8,43.7c0,15.5-0.9,31.4,0.8,46.9c1.8,16.4,7.1,30.4,17.7,43.2c8.7,10.5,20.4,20.6,34,23.7c7.7,1.8,15.7,1.3,23.6,1.5c8,0.2,16.1,0.5,24.1-0.1c15.9-1.2,31.1-6.4,46.8-9c26.2-4.4,49.7-17.6,64.1-40.4c8.1-12.8,11.9-27.4,13.1-42.4C352.3,260,352.3,243.4,350.7,227.2z"/><path fill="#14B6B9" d="M254.8,213.6c-0.4-10.3-0.8-21-2.6-31.1c-1.8-10.2-18.8-24.6-28-15.8c0.1,0.9-0.1,1.8-0.6,2.7c5.7-0.8,12.4,0.7,17.4,0.8c6.9,0.1,7.8,10.9,0.8,10.8c-3.5-0.1-7-0.5-10.5-0.6c-2.4-0.1-6.6-0.7-8.5,0.8c-1,0.9-2.1,1.2-3.1,1.2c-0.2,1.2-0.5,2.3-0.7,3.5c0,0.3-0.1,0.6-0.1,0.9c0.1,0,0.1,0,0.2,0c7.9-1.7,27.4-8.8,30.6,3.3c1.7,6.5-7.8,10.1-10,4.1c-0.3-0.1-0.7-0.1-1-0.1c-2,0.1-4,0.3-6,0.6c-3.4,0.6-6.7,1.5-10.1,2.2c-1.8,0.4-3.5-0.1-4.7-1c-0.1,2.6-0.1,5.3,0.1,7.9c0.1,1.2,0.2,2.3,0.4,3.5c0.7-1.4,2.1-2.4,4.2-2.5c8.4-0.3,17.4-4.7,25.5-0.5c6.2,3.1,1.4,12.8-4.8,9.7c-2.8-1.4-6.5-0.4-9.4,0.1c-3.5,0.6-6.9,1.4-10.5,1.5c-1.6,0-2.8-0.5-3.7-1.3c1.2,4.8,2.8,9.5,4.6,14.2c-0.1-2.6,1.4-5.2,4.8-5.3c5.3-0.1,10.8-2.3,15.8,0.5c6,3.4,1.3,13.1-4.8,9.7c-2.4-1.4-7.2,0.5-10.1,0.5c-1.8,0-3.2-0.7-4.2-1.7c0.2,0.5,0.4,1,0.6,1.5c1.3,3.3,2.6,7.2,4.2,11c0.8-0.6,1.8-1,2.8-1c4.5,0,8.9,0.1,13.3,1.2c2.4,0.6,3.7,2.3,4.1,4.2c0.7-1.3,1.2-2.6,1.6-3.7C255.2,235.2,255.2,224,254.8,213.6z"/><path fill="#14B6B9" d="M374.1,296.1c-0.4-17-2.2-33.9-2.9-50.8c-0.6-15.7-0.2-31.4-3-47c-2.7-15-7.9-29.4-15.5-42.7c-6.4-11.2-14.1-22.1-24.8-29.6c-12.6-8.8-26.5-9-41.4-9.3c-16.8-0.3-33.4-0.8-50.1-3c-24.2-3.2-51.4-1.5-72.5,5.5c-8.2,2.7-16.3,5.8-24.1,9.3c-3.5,1.6-7.1,3.2-10.4,5.3c-0.5,0.3-1,0.7-1.5,1c0.2,2.1-1,4.1-2.8,5.2c-0.2,0.4-0.4,0.8-0.8,1.2c-10.2,13-6.2,31.7-8.8,46.9c-5.6,32.8-11.5,65.4-12.8,98.8c-1.1,29.5-1,60.7,7.5,89.3c7.3,24.4,20,48,39.6,64.7c22.4,19.1,52,27.1,81.2,25c15.8-1.2,31.2-4.8,45.9-10.6c14-5.5,28.2-12.2,40.1-21.5c20.3-15.8,34.7-38,43.9-61.8C370.4,348,374.8,322,374.1,296.1z M344,328.7c-15.1,21.3-37.6,34.6-63,39.8c-7.7,1.6-15.5,2.8-23.1,4.7c-7.3,1.8-14.7,3.8-22.2,4.7c-16,2.1-32.9,1.4-49,0.5c-27.7-1.5-49.8-24.5-62.1-47.6c-7.6-14.2-8.4-32.6-8.5-48.3c-0.1-14.8-0.2-29.6,0.2-44.3c0.6-28.2,2.6-58.4,16.1-83.7c5.9-11.2,14.3-18.5,26.8-21.3c6-1.4,12.1-1.8,18.3-2.1c4.6-0.3,9.9-0.5,12.8-1.2c8.5-2.1,17-4.3,25.7-5.3c4.5-0.5,10.6-1.1,15,0.9c1-1,2.3-1.6,3.6-1.8c32.7-3.4,72.1-7.6,96.2,19.7c23.9,27,31,64,31.8,99.1C363.2,272.6,362.1,303.4,344,328.7z"/><path fill="#14B6B9" d="M237.3,254.5c0.1,0,0.1,0.1,0.2,0.1c2.5,1.9,4.9,1.9,7.2,0.8C242.2,254.8,239.7,254.6,237.3,254.5z"/><path fill="#010101" d="M383.2,264.5c-1.2-16.4-1-32.8-2-49.1c-1.9-28.9-11.4-57-28.9-80.3c-7.6-10.1-17.2-18.7-28.7-23.9c-13.7-6.2-29.4-5.1-44-5.3c-15.7-0.3-31.3-2-46.9-3.1c0.6-0.9,1.1-1.9,1.1-3.2c0.4-9.7-4.7-17.5-9.6-25.4c-5.2-8.2-9.2-18.1-3.9-27.1c2.2-3.8,5.8-6.6,8.2-10.3c1.7-2.6,3.1-5.6,4.1-8.5c1-3,1.9-6.4,0-9.2c-2.3-3.4-6.2-2.8-9.4-1.2c-3.5,1.8-3.1,5.3-1,7.6c-0.4,0.9-0.8,1.8-1.2,2.7c-1.2,2.5-2.5,4-4.3,6.1c-5.1,5.9-9.6,12.3-9.8,20.3c-0.3,8.3,2.7,16,6.8,23.1c4.2,7.4,9.8,13.8,9.4,22.8c0,0.7,0,1.3,0.2,1.8c-12.8-0.6-25.5-0.6-38.5,1.2c-15.5,2.2-30.1,7.2-44.5,13.2c-4.6,1.9-24.7,9.8-24.3,18.1c-8.2,10.8-9.2,23.9-9.7,37c-0.6,15.7-4.2,31-6.9,46.4c-5.4,32.1-8.2,64.7-7.6,97.2c0.5,28.1,3.8,55.9,14.6,82c9.7,23.4,25.2,44.7,46.1,59.2c49.9,34.8,121.3,21.8,168.3-11.9c41.7-29.8,61-83.5,63.8-133C385.6,296,384.3,280.2,383.2,264.5z M361.1,372.2c-9.2,23.8-23.6,46-43.9,61.8c-11.9,9.3-26.1,16-40.1,21.5c-14.7,5.8-30.1,9.4-45.9,10.6c-29.2,2.2-58.8-5.9-81.2-25c-19.6-16.7-32.3-40.3-39.6-64.7c-8.6-28.6-8.6-59.8-7.5-89.3c1.2-33.3,7.2-65.9,12.8-98.8c2.6-15.3-1.4-33.9,8.8-46.9c0.3-0.4,0.6-0.8,0.8-1.2c1.8-1.1,3-3.2,2.8-5.2c0.5-0.3,1-0.7,1.5-1c3.3-2.1,6.8-3.8,10.4-5.3c7.9-3.5,16-6.6,24.1-9.3c21.1-7,48.3-8.7,72.5-5.5c16.7,2.2,33.3,2.7,50.1,3c14.9,0.3,28.7,0.5,41.4,9.3c10.7,7.5,18.4,18.4,24.8,29.6c7.6,13.3,12.8,27.6,15.5,42.7c2.8,15.6,2.4,31.2,3,47c0.7,17,2.5,33.9,2.9,50.8C374.8,322,370.4,348,361.1,372.2z"/><path fill="#010101" d="M362.5,242.6c-0.8-35.1-8-72.1-31.8-99.1c-24.1-27.3-63.4-23.1-96.2-19.7c-1.3,0.1-2.6,0.8-3.6,1.8c-4.4-2-10.5-1.4-15-0.9c-8.7,1-17.2,3.3-25.7,5.3c-2.9,0.7-8.2,0.9-12.8,1.2c-6.1,0.4-12.3,0.8-18.3,2.1c-12.5,2.8-20.8,10.1-26.8,21.3c-13.5,25.4-15.5,55.6-16.1,83.7c-0.3,14.8-0.2,29.6-0.2,44.3c0.1,15.7,0.9,34.1,8.5,48.3c12.3,23.1,34.5,46.1,62.1,47.6c16.1,0.9,33,1.6,49-0.5c7.5-1,14.8-2.9,22.2-4.7c7.7-1.9,15.4-3.1,23.1-4.7c25.4-5.2,47.8-18.5,63-39.8C362.1,303.4,363.2,272.6,362.5,242.6z M233.4,243.6c-1.1,0-2,0.4-2.8,1c-1.6-3.7-2.9-7.7-4.2-11c-0.2-0.5-0.4-1-0.6-1.5c1,1.1,2.3,1.8,4.2,1.7c2.9-0.1,7.7-1.9,10.1-0.5c6.1,3.5,10.8-6.2,4.8-9.7c-5-2.8-10.5-0.7-15.8-0.5c-3.4,0.1-4.9,2.7-4.8,5.3c-1.8-4.7-3.4-9.3-4.6-14.2c0.9,0.8,2.2,1.3,3.7,1.3c3.5-0.1,7-0.9,10.5-1.5c2.9-0.5,6.6-1.5,9.4-0.1c6.2,3.2,11-6.5,4.8-9.7c-8.1-4.1-17,0.3-25.5,0.5c-2.1,0.1-3.5,1.1-4.2,2.5c-0.2-1.1-0.3-2.3-0.4-3.5c-0.2-2.6-0.2-5.3-0.1-7.9c1.2,0.9,2.8,1.4,4.7,1c3.4-0.7,6.7-1.6,10.1-2.2c2-0.4,4-0.6,6-0.6c0.3,0,0.7,0,1,0.1c2.2,6,11.7,2.4,10-4.1c-3.2-12.1-22.8-5-30.6-3.3c-0.1,0-0.1,0-0.2,0c0-0.3,0.1-0.6,0.1-0.9c0.2-1.2,0.4-2.3,0.7-3.5c1,0,2.1-0.3,3.1-1.2c1.8-1.5,6.1-0.9,8.5-0.8c3.5,0.1,7,0.6,10.5,0.6c7,0.1,6.1-10.7-0.8-10.8c-5-0.1-11.7-1.5-17.4-0.8c0.5-0.9,0.7-1.8,0.6-2.7c9.2-8.8,26.2,5.6,28,15.8c1.8,10.2,2.3,20.8,2.6,31.1c0.4,10.4,0.3,21.5-2.5,31.7c-0.3,1.2-0.9,2.4-1.6,3.7c-0.4-1.9-1.6-3.6-4.1-4.2C242.3,243.8,237.9,243.6,233.4,243.6z M244.6,255.4c-2.2,1.1-4.7,1.1-7.2-0.8c-0.1,0-0.1-0.1-0.2-0.1C239.7,254.6,242.2,254.8,244.6,255.4z M351,276.2c-1.2,15-5,29.6-13.1,42.4c-14.4,22.8-37.8,36-64.1,40.4c-15.7,2.6-30.8,7.8-46.8,9c-8,0.6-16.1,0.3-24.1,0.1c-7.9-0.2-15.8,0.2-23.6-1.5c-13.6-3.1-25.3-13.2-34-23.7c-10.6-12.8-15.9-26.7-17.7-43.2c-1.7-15.5-0.8-31.3-0.8-46.9c0-14.6,0.3-29.2,1.8-43.7c1.5-14.4,4.3-28.8,9.8-42.2c2.4-6,5.3-12,9.8-16.7c4-4.2,10.1-6.1,15.7-7c7.1-1.2,14.4-1.3,21.5-1.8c4.8-0.4,9.3-1.5,13.9-2.7c5.3-1.3,10.7-2.4,16.2-3.2c2.7-0.4,5.4-0.6,8.1-0.6c2.9,0,2.6,1.4,1.7-0.7c0.8,2.2,2.5,3.2,4.3,3.4c0.5,5.2,1.6,10.3,1.8,15.6c-6.3-0.4-12.5,1.8-17,8.1c-0.8,1.2-1.2,2.4-1.1,3.6c-1,1.6-1.2,3.3-1.8,5.2c-1.2,3.9-2.1,7.8-2.9,11.8c-1.5,7.5-1.9,15.2-1.6,22.8c0.7,13.4,5.9,25.2,10.8,37.4c3.4,8.4,7.7,19.7,16.8,23.5c11.3,4.6,21.5-3.3,26.3-13.1c5.3-11.1,4.8-25.8,4.5-37.7c-0.1-7.2-0.7-14.4-1.4-21.6c-0.5-5.6-0.7-11.5-2.7-16.8c-2.9-8-10.8-16.1-19.6-20.2c0.3-0.7,0.5-1.5,0.4-2.4c-0.2-6.5-2.1-13-2.3-19.5c26.6-2.9,58.1-6.1,79,13.1c21.9,20.1,28.9,51.8,31.6,80.1C352.3,243.4,352.3,260,351,276.2z"/></svg>