<svg xmlns="http://www.w3.org/2000/svg"  viewBox="0 0 48 48" width="48px" height="48px"><path fill="#d6e5e5" d="M45.194,23.188c-0.28-1.844-0.493-4.872-0.407-6.735c0.052-1.129,0.016-2.261-0.107-3.384 c-0.012-0.111-0.047-0.357-0.093-0.663c-0.221-1.483-1.449-2.655-2.948-2.712c-0.005,0-0.01,0-0.014,0 c-1.223-0.033-2.82-0.042-4.043-0.068c-9.281-0.201-17.606-0.192-26.71,0.498c-1.411,0.107-2.844,0.234-4.162,0.75 c-1.318,0.516-2.526,1.481-3.008,2.811c-0.314,0.867-0.3,1.812-0.307,2.734c-0.051,6.376-1.71,12.889-0.042,19.043 c0.211,0.779,0.496,1.587,1.115,2.105c0.519,0.435,1.205,0.605,1.869,0.738c3.872,0.773,8.264,0.684,12.211,0.592 c6.56-0.153,14.12-0.306,20.68-0.459c1.642-0.038,3.452-0.143,4.631-1.287c1.301-1.262,1.345-3.3,1.302-5.113 C45.072,28.317,45.78,27.04,45.194,23.188z"/><path fill="#010101" d="M45.688,23.112c-0.261-1.719-0.489-4.745-0.402-6.637c0.054-1.156,0.017-2.321-0.109-3.46 c-0.012-0.114-0.048-0.368-0.096-0.684c-0.26-1.752-1.699-3.072-3.442-3.139c-0.693-0.019-1.508-0.029-2.306-0.04 c-0.609-0.009-1.21-0.017-1.74-0.028C29.45,8.949,20.572,8.887,10.834,9.624c-1.563,0.118-2.968,0.259-4.306,0.782 c-1.607,0.631-2.809,1.764-3.295,3.106c-0.324,0.893-0.33,1.824-0.337,2.724l-0.001,0.178c-0.017,2.06-0.206,4.178-0.39,6.227 c-0.385,4.286-0.782,8.719,0.366,12.951c0.234,0.866,0.552,1.752,1.276,2.358c0.616,0.516,1.403,0.706,2.092,0.844 c2.673,0.533,5.631,0.661,8.409,0.66c1.365,0,2.688-0.03,3.911-0.059c3.203-0.074,6.644-0.149,10.09-0.224 c3.613-0.078,7.232-0.157,10.59-0.235c1.813-0.042,3.688-0.187,4.968-1.428c1.428-1.386,1.499-3.558,1.453-5.483 c-0.035-1.457,0.054-2.521,0.14-3.55C45.929,26.938,46.05,25.487,45.688,23.112z M6.894,11.338 c1.208-0.474,2.533-0.604,4.017-0.716c6.135-0.465,11.93-0.611,17.415-0.611c3.185,0,6.265,0.05,9.246,0.114 c0.532,0.012,1.136,0.02,1.748,0.027c0.794,0.011,1.603,0.022,2.301,0.041c0.559,0.021,1.072,0.235,1.49,0.572 c-5.642,6.353-11.602,12.325-15.627,16.23c-1.032,1.001-1.98,1.841-3.134,1.978c-1.628,0.182-3.1-1.09-4.457-2.422 c-1.096-1.074-2.189-2.167-3.288-3.263c-3.683-3.678-7.493-7.469-11.547-10.763C5.542,12.041,6.158,11.626,6.894,11.338z M3.502,22.729c0.186-2.068,0.377-4.207,0.394-6.308l0.001-0.179c0.006-0.853,0.012-1.658,0.276-2.39 c0.067-0.185,0.175-0.358,0.276-0.532c4.006,3.258,7.791,7.022,11.449,10.675c0.973,0.971,1.941,1.935,2.912,2.89 C14.086,29.542,8.802,32.527,3.947,35.7c-0.038-0.123-0.077-0.246-0.111-0.37C2.736,31.271,3.125,26.929,3.502,22.729z M39.217,37.937c-3.356,0.078-6.976,0.157-10.588,0.235c-3.447,0.075-6.889,0.149-10.092,0.224 c-3.663,0.085-8.223,0.191-12.102-0.582c-0.593-0.119-1.209-0.266-1.646-0.631c-0.18-0.15-0.318-0.344-0.442-0.552 c4.952-3.245,10.387-6.307,15.207-9.017c1.276,1.215,2.749,2.378,4.465,2.378c0.146,0,0.296-0.008,0.446-0.026 c1.584-0.187,2.814-1.381,3.714-2.253c0.182-0.177,0.389-0.38,0.579-0.565c4.255,2.161,10.355,5.47,14.876,9.497 c-0.043,0.048-0.077,0.101-0.124,0.147C42.491,37.78,40.898,37.897,39.217,37.937z M44.804,28.393 c-0.088,1.056-0.179,2.146-0.143,3.656c0.032,1.333,0.008,2.692-0.472,3.756c-4.493-3.97-10.421-7.224-14.675-9.395 c3.932-3.856,9.206-9.204,14.25-14.877c0.161,0.286,0.277,0.603,0.328,0.946c0.044,0.297,0.078,0.533,0.09,0.644 c0.12,1.09,0.155,2.202,0.105,3.307c-0.092,1.979,0.138,5.028,0.412,6.833C45.044,25.521,44.933,26.852,44.804,28.393z"/></svg>