<?xml version="1.0" encoding="UTF-8"?>
<svg xmlns="http://www.w3.org/2000/svg" xmlns:xlink="http://www.w3.org/1999/xlink" viewBox="0 0 192 192" width="192px" height="192px">
<g id="surface162667464">
<path style=" stroke:none;fill-rule:nonzero;fill:rgb(60.784316%,34.901962%,71.372551%);fill-opacity:1;" d="M 18.242188 163.953125 L 50.277344 158.421875 L 112.667969 155.472656 L 133.359375 164.425781 C 133.359375 164.425781 115.285156 187.652344 74.632812 185.753906 C 33.980469 183.851562 26.394531 183.355469 18.242188 163.953125 Z M 18.242188 163.953125 "/>
<path style=" stroke:none;fill-rule:nonzero;fill:rgb(83.92157%,89.803922%,89.803922%);fill-opacity:1;" d="M 56.289062 152.886719 C 56.289062 152.886719 60.863281 158.566406 77.425781 156.398438 C 93.984375 154.230469 99.066406 148.183594 99.066406 148.183594 L 112.667969 155.476562 C 112.667969 155.476562 108.875 165.683594 96.800781 161.921875 C 93.65625 170.574219 86.496094 169.871094 79.179688 165.8125 C 74.695312 173.734375 64.320312 168.96875 62.914062 164.765625 C 57.484375 171.125 44.257812 168.5 46.621094 159.136719 C 49.203125 157.171875 56.289062 152.886719 56.289062 152.886719 Z M 56.289062 152.886719 "/>
<path style=" stroke:none;fill-rule:nonzero;fill:rgb(60.784316%,34.901962%,71.372551%);fill-opacity:1;" d="M 35.355469 102.539062 C 35.355469 106.402344 32.222656 109.535156 28.359375 109.535156 C 24.496094 109.535156 21.363281 106.402344 21.363281 102.539062 C 21.363281 98.675781 24.496094 95.542969 28.359375 95.542969 C 32.222656 95.542969 35.355469 98.675781 35.355469 102.539062 Z M 35.355469 102.539062 "/>
<path style=" stroke:none;fill-rule:nonzero;fill:rgb(60.784316%,34.901962%,71.372551%);fill-opacity:1;" d="M 121.726562 98.019531 C 121.726562 101.882812 118.59375 105.015625 114.730469 105.015625 C 110.867188 105.015625 107.734375 101.882812 107.734375 98.019531 C 107.734375 94.15625 110.867188 91.023438 114.730469 91.023438 C 118.59375 91.023438 121.726562 94.15625 121.726562 98.019531 Z M 121.726562 98.019531 "/>
<path style=" stroke:none;fill-rule:nonzero;fill:rgb(98.823529%,74.901962%,58.431375%);fill-opacity:1;" d="M 27.203125 56.308594 C 27.203125 56.308594 31.242188 111.300781 37.269531 121.6875 C 41.320312 128.671875 47.121094 137.539062 57.429688 142.226562 C 58.898438 142.894531 57.6875 153.460938 57.6875 153.460938 C 57.6875 153.460938 65.3125 157.59375 76.015625 157.59375 C 86.71875 157.59375 98.136719 149.121094 98.136719 149.121094 C 98.136719 149.121094 94.09375 137.054688 95.257812 135.84375 C 104.78125 125.953125 109.410156 111.4375 110.203125 107.574219 C 111.410156 101.679688 115.027344 66.269531 112.667969 50.253906 L 89.320312 31.644531 Z M 27.203125 56.308594 "/>
<path style=" stroke:none;fill-rule:nonzero;fill:rgb(90.196079%,49.411765%,13.333334%);fill-opacity:1;" d="M 113.851562 76.390625 C 113.851562 76.390625 127.570312 67.667969 122.171875 44.730469 C 126.679688 31.703125 116.585938 20.523438 108.539062 19.90625 C 100.496094 19.292969 93.484375 21.574219 93.484375 21.574219 C 93.484375 21.574219 87.636719 3.90625 60.625 6.085938 C 35.742188 8.089844 25.746094 26.425781 25.746094 26.425781 L 27.203125 31.804688 C 27.203125 31.804688 9.914062 39.730469 9.726562 56.304688 C 10.421875 62.804688 12.238281 67.890625 12.238281 67.890625 L 15.929688 65.171875 C 15.929688 65.171875 19.160156 89.597656 30.976562 97.09375 L 28.039062 64.070312 L 57.523438 51.496094 L 59.300781 54.847656 L 76.019531 49.167969 L 74.648438 55.125 C 74.648438 55.125 87.105469 54.289062 93.488281 39.976562 C 99.871094 54.289062 106.644531 56.3125 106.644531 56.3125 L 110.472656 55.011719 L 113.855469 57.972656 Z M 113.851562 76.390625 "/>
<path style=" stroke:none;fill-rule:nonzero;fill:rgb(2.352941%,2.352941%,2.352941%);fill-opacity:1;" d="M 125.746094 45.574219 C 125.199219 40.800781 124.386719 36.0625 123.179688 31.402344 C 122.078125 27.167969 120.167969 24.097656 116.59375 21.503906 C 110.367188 16.996094 101.953125 15.945312 94.789062 18.644531 C 94.445312 18.773438 94.1875 18.976562 93.980469 19.203125 C 91.261719 13.980469 86.539062 9.863281 80.664062 7.285156 C 71.664062 3.332031 61.136719 3.195312 51.664062 5.648438 C 44.511719 7.5 37.457031 12.03125 31.699219 16.519531 C 27.710938 19.632812 20.808594 26.453125 24.820312 31.128906 C 20.710938 34.257812 16.71875 37.652344 13.316406 41.496094 C 6.585938 49.097656 6.324219 59.90625 10.511719 68.902344 C 11.285156 70.566406 13.679688 69.925781 14.167969 68.429688 C 14.296875 68.03125 14.566406 67.808594 14.875 67.636719 C 15.53125 69.53125 15.828125 71.632812 16.207031 73.542969 C 16.878906 76.921875 17.539062 80.304688 18.523438 83.609375 C 19.734375 87.667969 21.476562 91.714844 24.257812 94.785156 C 23.316406 95.496094 22.460938 96.347656 21.753906 97.238281 C 20.378906 98.96875 19.710938 101.128906 19.894531 103.347656 C 20.078125 105.589844 20.914062 107.664062 22.542969 109.242188 C 24.019531 110.675781 25.980469 111.761719 28.09375 111.640625 C 29.34375 111.570312 30.46875 111.164062 31.519531 110.59375 C 31.703125 111.375 31.835938 112.164062 32.050781 112.949219 C 33.847656 119.488281 36.515625 126.253906 40.539062 131.765625 C 44.609375 137.335938 50.03125 140.574219 56.289062 143.222656 C 63.160156 146.128906 70.660156 147.984375 78.164062 147.246094 C 84.925781 146.585938 90.375 142.527344 95.21875 138.054688 C 99.539062 134.066406 103.664062 130.121094 106.675781 125.015625 C 110.367188 118.757812 111.589844 111.097656 112.984375 104.046875 C 114.730469 95.246094 115.46875 86.40625 115.753906 77.527344 C 121.308594 73.964844 124.210938 67.53125 124.988281 61.117188 C 125.480469 57.074219 125.886719 51.691406 124.390625 47.375 C 125.191406 47.121094 125.855469 46.5 125.746094 45.574219 Z M 21.660156 79.898438 C 20.378906 74.816406 20.148438 68.988281 17.785156 64.246094 C 17.363281 63.398438 16.363281 63.183594 15.523438 63.328125 C 14.5625 63.492188 13.730469 63.800781 12.980469 64.199219 C 11.597656 59.984375 11.3125 55.4375 12.398438 51.109375 C 13.265625 47.65625 15.238281 45.191406 17.6875 42.675781 C 21.167969 39.105469 25.050781 35.839844 29.074219 32.894531 C 30.226562 32.050781 30.5 30.230469 29.074219 29.441406 C 24.570312 26.945312 32.078125 21.253906 34.332031 19.507812 C 39.390625 15.59375 45.332031 11.972656 51.414062 9.910156 C 54.996094 8.699219 58.9375 8.382812 62.941406 8.164062 C 67.140625 7.9375 71.304688 8.222656 75.328125 9.496094 C 83.578125 12.105469 91.148438 17.585938 92.363281 26.707031 C 93.152344 32.617188 91.1875 38.496094 88.515625 43.683594 C 87.367188 45.914062 86.015625 47.921875 83.855469 49.277344 C 81.886719 50.511719 79.59375 51.429688 77.296875 52.195312 C 77.738281 50.296875 78.296875 48.429688 79.191406 46.664062 C 80.175781 44.71875 77.679688 42.511719 76.050781 44.238281 C 72.058594 48.46875 66.957031 51.308594 61.34375 52.457031 C 61.929688 51.742188 62.523438 51.042969 63.261719 50.421875 C 64.992188 48.945312 62.742188 46.070312 60.835938 47.28125 C 54.894531 51.039062 48.34375 53.339844 41.796875 55.792969 C 38.796875 56.914062 35.8125 58.09375 32.914062 59.453125 C 30.386719 60.640625 28.292969 62.398438 25.40625 61.496094 C 22.949219 60.722656 21.890625 64.582031 24.34375 65.351562 C 24.871094 65.515625 25.410156 65.640625 25.953125 65.71875 C 26.40625 73.460938 27.828125 81.105469 28.597656 88.816406 C 28.765625 90.5 28.914062 92.167969 29.070312 93.839844 C 24.761719 90.777344 22.886719 84.789062 21.660156 79.898438 Z M 30.605469 106.507812 C 29.414062 107.371094 27.828125 108.121094 26.457031 107.253906 C 24.550781 106.222656 23.539062 103.925781 23.941406 101.785156 C 24.257812 99.890625 25.855469 98.4375 27.457031 97.476562 C 28.117188 97.902344 28.820312 98.28125 29.5625 98.613281 C 29.84375 101.246094 30.171875 103.875 30.632812 106.492188 C 30.621094 106.496094 30.613281 106.503906 30.605469 106.507812 Z M 106.40625 114.839844 C 104.984375 120.414062 102.289062 125.609375 98.175781 129.707031 C 93.769531 134.101562 89.128906 139.054688 83.425781 141.738281 C 76.945312 144.789062 68.851562 143.390625 62.308594 141.246094 C 56.308594 139.285156 50.058594 136.574219 45.730469 131.851562 C 41.542969 127.28125 38.804688 121.105469 36.910156 115.257812 C 34.253906 107.035156 33.496094 98.792969 32.738281 90.246094 C 32 81.921875 30.382812 73.691406 29.933594 65.339844 C 30.191406 65.246094 30.460938 65.1875 30.714844 65.066406 C 34.476562 63.277344 38.121094 61.441406 42.027344 59.960938 C 46.570312 58.238281 51.132812 56.589844 55.53125 54.585938 C 55.339844 55.769531 55.953125 57.078125 57.375 57 C 63.140625 56.675781 68.609375 54.835938 73.320312 51.710938 C 73.105469 52.664062 72.902344 53.621094 72.71875 54.59375 C 72.445312 56.035156 73.621094 57.503906 75.179688 57.050781 C 80.769531 55.433594 86.953125 53.34375 90.40625 48.375 C 91.433594 46.902344 92.304688 45.269531 93.097656 43.578125 C 93.101562 43.597656 93.109375 43.609375 93.113281 43.625 C 94.15625 45.84375 95.28125 48.039062 96.734375 50.023438 C 99.382812 53.632812 102.785156 56.609375 106.765625 58.675781 C 108.304688 59.476562 109.703125 58.308594 109.6875 56.867188 C 109.769531 56.898438 109.855469 56.90625 109.9375 56.941406 C 110.488281 57.167969 111.023438 57.4375 111.550781 57.714844 C 111.660156 57.773438 111.765625 57.835938 111.867188 57.894531 C 111.867188 57.925781 111.851562 57.945312 111.851562 57.972656 C 112.015625 70.640625 112.242188 83.402344 110.355469 95.96875 C 109.402344 102.324219 108 108.609375 106.40625 114.839844 Z M 120.96875 61.230469 C 120.394531 65.316406 118.78125 69.429688 115.875 72.34375 C 115.9375 68.109375 115.921875 63.867188 115.871094 59.617188 C 116.574219 58.921875 116.914062 58 116.605469 56.960938 C 116.230469 55.714844 114.953125 55.027344 113.894531 54.441406 C 111.847656 53.292969 109.617188 52.464844 107.316406 51.988281 C 106.367188 51.792969 105.589844 52.21875 105.160156 52.910156 C 103.359375 51.566406 101.710938 50.019531 100.347656 48.214844 C 99.132812 46.617188 98.152344 44.84375 97.261719 43.046875 C 96.472656 41.457031 95.171875 39.382812 95.542969 37.53125 C 95.605469 37.234375 95.59375 36.945312 95.542969 36.660156 C 95.949219 34.992188 96.265625 33.320312 96.414062 31.679688 C 96.714844 28.40625 96.292969 25.378906 95.382812 22.585938 C 95.539062 22.5625 95.683594 22.570312 95.851562 22.511719 C 101.839844 20.257812 108.652344 20.886719 113.976562 24.546875 C 117.285156 26.824219 118.609375 29.5625 119.550781 33.375 C 120.273438 36.28125 120.804688 39.21875 121.246094 42.175781 C 120.65625 41.929688 120.066406 41.675781 119.453125 41.457031 C 117.289062 40.691406 115.976562 44 117.910156 45.113281 C 119.996094 46.3125 120.675781 48.835938 121.171875 51.050781 C 121.914062 54.34375 121.433594 57.921875 120.96875 61.230469 Z M 120.96875 61.230469 "/>
<path style=" stroke:none;fill-rule:nonzero;fill:rgb(2.352941%,2.352941%,2.352941%);fill-opacity:1;" d="M 114.957031 93.496094 C 115.050781 93.390625 115.703125 93.164062 115.238281 93.324219 C 116.066406 92.921875 116.902344 93.210938 117.195312 93.238281 C 119.011719 93.660156 118.550781 96.003906 118.910156 97.273438 C 119.003906 98.367188 119.03125 99.273438 118.933594 99.84375 C 118.726562 101.003906 117.765625 102.222656 116.691406 102.585938 C 116.273438 102.863281 115.414062 102.6875 114.808594 102.574219 C 113.734375 102.398438 113.164062 102.164062 112.160156 101.90625 C 111.148438 101.648438 109.945312 102.238281 109.699219 103.304688 C 109.464844 104.34375 110.011719 105.484375 111.097656 105.765625 C 113.21875 106.308594 115.433594 106.902344 117.628906 106.449219 C 119.757812 106.003906 121.652344 104.238281 122.289062 102.175781 C 122.578125 101.230469 122.699219 100.214844 122.800781 99.234375 C 122.878906 98.453125 122.9375 97.648438 122.855469 96.859375 C 122.640625 94.800781 122.078125 92.609375 120.730469 90.992188 C 118.90625 88.804688 115.277344 88.605469 112.9375 90.039062 C 112.042969 90.589844 111.625 91.855469 112.21875 92.777344 C 112.796875 93.671875 114.003906 94.085938 114.957031 93.496094 Z M 114.957031 93.496094 "/>
<path style=" stroke:none;fill-rule:nonzero;fill:rgb(2.352941%,2.352941%,2.352941%);fill-opacity:1;" d="M 95.585938 70.851562 C 94.398438 70.027344 93.023438 69.449219 91.585938 69.3125 C 90.160156 69.175781 88.734375 69.730469 87.476562 70.332031 C 86.125 70.976562 84.855469 71.855469 83.773438 72.882812 C 83.011719 73.605469 82.992188 74.996094 83.773438 75.710938 C 84.589844 76.460938 85.789062 76.480469 86.601562 75.710938 C 86.71875 75.601562 86.839844 75.488281 86.964844 75.378906 C 87.046875 75.308594 87.136719 75.234375 87.222656 75.164062 C 87.230469 75.15625 87.28125 75.121094 87.316406 75.09375 C 87.320312 75.09375 87.53125 74.9375 87.589844 74.898438 C 87.761719 74.78125 87.933594 74.667969 88.109375 74.554688 C 88.296875 74.4375 88.496094 74.332031 88.691406 74.222656 C 87.886719 75.085938 87.457031 76.226562 87.824219 77.46875 C 88.34375 79.222656 89.929688 80.242188 91.710938 80.316406 C 93.257812 80.378906 94.714844 79.605469 95.96875 78.777344 C 97.515625 77.746094 98.757812 76.203125 98.382812 74.234375 C 98.089844 72.730469 96.769531 71.675781 95.585938 70.851562 Z M 95.585938 70.851562 "/>
<path style=" stroke:none;fill-rule:nonzero;fill:rgb(2.352941%,2.352941%,2.352941%);fill-opacity:1;" d="M 54.996094 73.660156 C 53.960938 72.476562 52.640625 71.730469 51.0625 71.628906 C 48.136719 71.433594 45.050781 72.316406 42.671875 74.015625 C 41.824219 74.625 41.332031 75.789062 41.957031 76.753906 C 42.5 77.597656 43.78125 78.121094 44.691406 77.46875 C 45.023438 77.226562 45.367188 77.003906 45.722656 76.804688 C 45.921875 76.691406 46.125 76.585938 46.328125 76.484375 C 46.390625 76.453125 46.625 76.355469 46.691406 76.324219 C 46.824219 76.277344 46.964844 76.253906 47.097656 76.207031 C 46.792969 76.578125 46.550781 76.996094 46.40625 77.410156 C 45.6875 79.5 47.230469 81.261719 49.171875 81.78125 C 50.53125 82.148438 52.023438 82.050781 53.324219 81.523438 C 54.785156 80.933594 56.425781 79.757812 56.863281 78.148438 C 57.304688 76.53125 56 74.808594 54.996094 73.660156 Z M 54.996094 73.660156 "/>
<path style=" stroke:none;fill-rule:nonzero;fill:rgb(2.352941%,2.352941%,2.352941%);fill-opacity:1;" d="M 74.726562 75.871094 C 76.738281 82.257812 76.476562 88.878906 77.089844 95.46875 C 77.320312 97.988281 77.335938 100.1875 76.242188 102.542969 C 75.265625 104.660156 73.578125 106.777344 71.230469 107.390625 C 70.179688 107.667969 69.078125 107.386719 68.621094 106.300781 C 68.242188 105.40625 68.667969 103.964844 69.710938 103.6875 C 71.472656 103.222656 72.46875 101.550781 72.992188 99.898438 C 73.625 97.902344 73.085938 95.800781 72.949219 93.761719 C 72.585938 88.289062 72.691406 82.671875 71.027344 77.386719 C 70.257812 74.949219 73.953125 73.414062 74.726562 75.871094 Z M 74.726562 75.871094 "/>
<path style=" stroke:none;fill-rule:nonzero;fill:rgb(59.607846%,47.843137%,34.901962%);fill-opacity:1;" d="M 67.542969 122.125 C 67.710938 126.535156 72.3125 129.617188 76.503906 128.53125 C 79.289062 128.492188 83.109375 125.246094 81.246094 122.445312 C 80.074219 120.910156 78.78125 119.429688 77.128906 118.429688 C 75.480469 117.429688 73.414062 116.960938 71.589844 117.570312 C 69.761719 118.183594 67.324219 120.207031 67.542969 122.125 "/>
<path style=" stroke:none;fill-rule:nonzero;fill:rgb(2.352941%,2.352941%,2.352941%);fill-opacity:1;" d="M 83.066406 121.589844 C 82.195312 120.128906 80.820312 118.71875 79.492188 117.667969 C 77.871094 116.382812 76.054688 115.539062 73.988281 115.332031 C 71.851562 115.121094 69.863281 115.921875 68.210938 117.21875 C 66.738281 118.375 65.398438 120.148438 65.542969 122.121094 C 65.714844 125.359375 67.628906 128.324219 70.578125 129.738281 C 72.023438 130.433594 73.628906 130.839844 75.238281 130.730469 C 75.691406 130.703125 76.144531 130.640625 76.585938 130.554688 C 76.667969 130.539062 76.902344 130.496094 76.847656 130.5 C 77.0625 130.476562 77.28125 130.457031 77.496094 130.425781 C 78.28125 130.300781 79.019531 130.015625 79.726562 129.664062 C 82.589844 128.238281 84.925781 124.695312 83.066406 121.589844 Z M 79.6875 124.347656 C 78.910156 126.070312 76.96875 126.574219 75.234375 126.734375 C 74.875 126.765625 74.515625 126.742188 74.15625 126.722656 C 71.882812 126.449219 69.648438 124.570312 69.542969 122.125 C 69.320312 120.933594 71.828125 119.589844 71.960938 119.554688 C 72.910156 119.203125 73.800781 119.207031 74.761719 119.53125 C 75.425781 119.730469 75.84375 119.960938 76.503906 120.402344 C 77.679688 121.332031 79.171875 122.457031 79.71875 123.863281 C 79.742188 123.960938 79.796875 124.242188 79.6875 124.347656 Z M 79.6875 124.347656 "/>
<path style=" stroke:none;fill-rule:nonzero;fill:rgb(2.352941%,2.352941%,2.352941%);fill-opacity:1;" d="M 130.699219 160.785156 C 123.074219 158.226562 115.765625 154.792969 108.535156 151.300781 C 105.363281 149.769531 101.308594 148.386719 99.230469 145.339844 C 97.476562 142.761719 97.546875 138.902344 97.316406 135.90625 C 97.121094 133.355469 93.121094 133.335938 93.316406 135.90625 C 93.597656 139.542969 93.714844 143.578125 95.488281 146.863281 C 97.59375 150.761719 102.027344 152.585938 105.792969 154.40625 C 113.722656 158.253906 121.808594 162.039062 130.21875 164.769531 C 129.441406 165.535156 128.648438 166.296875 127.839844 167.03125 C 125.273438 169.359375 122.605469 171.636719 119.6875 173.519531 C 116.429688 175.625 112.644531 176.71875 109.015625 178.011719 C 104.515625 179.613281 100.171875 181.789062 95.507812 182.863281 C 85.519531 185.171875 75.09375 183.542969 64.976562 183.34375 C 55.359375 183.15625 45.78125 183.269531 36.515625 180.253906 C 31.601562 178.652344 26.375 176.515625 23.925781 171.707031 C 22.816406 169.535156 21.84375 167.285156 20.875 165.039062 C 24.230469 163.757812 28.027344 163.394531 31.53125 163.066406 C 35.847656 162.664062 40.203125 162.492188 44.449219 161.542969 C 48.890625 160.550781 54.265625 158.949219 57.589844 155.640625 C 59.125 154.113281 60.054688 152.167969 60.175781 150 C 60.320312 147.34375 59.210938 144.8125 59.246094 142.160156 C 59.28125 139.585938 55.28125 139.585938 55.246094 142.160156 C 55.21875 144.4375 55.996094 146.535156 56.164062 148.777344 C 56.371094 151.539062 54.730469 153.179688 52.480469 154.4375 C 48.296875 156.773438 43.320312 157.96875 38.585938 158.453125 C 31.546875 159.171875 23.675781 158.929688 17.234375 162.226562 C 16.195312 162.761719 16.105469 164.019531 16.519531 164.964844 C 18.296875 169.007812 19.804688 173.820312 22.742188 177.179688 C 26.894531 181.929688 34.683594 184.195312 40.617188 185.488281 C 47.453125 186.976562 54.476562 187.316406 61.453125 187.320312 C 69.214844 187.324219 76.964844 188.144531 84.730469 188.019531 C 88.410156 187.960938 92.113281 187.65625 95.71875 186.902344 C 99.179688 186.183594 102.296875 184.8125 105.5625 183.527344 C 111.089844 181.359375 117.183594 179.996094 122.167969 176.671875 C 126.140625 174.019531 129.816406 170.816406 133.210938 167.46875 C 134.03125 166.660156 135.378906 165.613281 135.699219 164.441406 C 136.4375 161.707031 132.433594 161.363281 130.699219 160.785156 Z M 131.992188 163 C 132.078125 162.839844 132.101562 162.882812 131.992188 163 Z M 131.992188 163 "/>
<path style=" stroke:none;fill-rule:nonzero;fill:rgb(2.352941%,2.352941%,2.352941%);fill-opacity:1;" d="M 58.765625 156.644531 C 65.902344 159.609375 73.800781 160.335938 81.367188 158.757812 C 88.128906 157.347656 95.644531 154.726562 100.484375 149.597656 C 102.246094 147.722656 99.429688 144.890625 97.65625 146.769531 C 93.277344 151.410156 86.40625 153.628906 80.308594 154.898438 C 73.410156 156.335938 66.308594 155.476562 59.832031 152.789062 C 57.453125 151.800781 56.414062 155.667969 58.765625 156.644531 Z M 58.765625 156.644531 "/>
<path style=" stroke:none;fill-rule:nonzero;fill:rgb(2.352941%,2.352941%,2.352941%);fill-opacity:1;" d="M 110.941406 155.386719 C 108.191406 160.238281 102.460938 162.261719 97.335938 159.855469 C 95.738281 159.109375 94.019531 160.335938 94.394531 162.117188 C 95.101562 165.441406 89.855469 166.371094 87.535156 166.535156 C 84.921875 166.71875 82.375 166.238281 80.503906 164.300781 C 79.625 163.386719 77.980469 163.59375 77.363281 164.703125 C 75.292969 168.441406 66.269531 168.640625 64.851562 164.226562 C 64.480469 163.066406 63.035156 162.289062 61.910156 163.03125 C 59.683594 164.511719 57.199219 165.40625 54.5 165.355469 C 52.246094 165.3125 48.15625 164.394531 48.683594 161.3125 C 49.113281 158.796875 45.261719 157.710938 44.828125 160.246094 C 44.105469 164.5 46.898438 167.804688 50.929688 168.882812 C 54.6875 169.894531 58.6875 169.191406 62.125 167.449219 C 65.753906 172.433594 74.976562 172.835938 79.390625 168.527344 C 82.519531 170.632812 86.507812 170.898438 90.242188 170.179688 C 93.746094 169.503906 97.222656 167.546875 98.160156 164.316406 C 104.464844 165.921875 111.019531 163.378906 114.398438 157.40625 C 115.664062 155.164062 112.210938 153.148438 110.941406 155.386719 Z M 110.941406 155.386719 "/>
<path style=" stroke:none;fill-rule:nonzero;fill:rgb(85.09804%,89.411765%,89.411765%);fill-opacity:1;" d="M 186.296875 96.035156 C 186.078125 93.644531 185.179688 91.390625 184.292969 89.183594 C 182.769531 85.394531 181.203125 81.542969 178.699219 78.40625 C 176.914062 76.175781 175.539062 72.523438 173.292969 70.832031 C 167.902344 66.777344 162.695312 64.121094 156.449219 61.875 C 150.199219 59.632812 141.6875 60.023438 135.230469 60.488281 C 128.773438 60.953125 123.03125 65.769531 117.390625 69.097656 C 111.746094 72.421875 106.628906 77.378906 104.542969 83.894531 C 103.800781 86.222656 103.464844 88.6875 103.332031 91.144531 C 102.988281 97.746094 104.320312 104.578125 107.375 110.269531 C 107.273438 110.714844 107.214844 111.175781 107.035156 111.605469 C 106.445312 113.011719 105.429688 114.195312 104.539062 115.441406 C 102.855469 117.800781 101.507812 120.546875 99.070312 122.125 C 98.109375 122.746094 97.003906 123.160156 95.863281 123.3125 C 99.019531 123.6875 102.179688 124.066406 105.335938 124.445312 C 106.902344 124.632812 108.480469 124.820312 110.050781 124.699219 C 112.160156 124.539062 114.183594 123.835938 116.257812 123.433594 C 117.863281 123.117188 119.519531 122.960938 121.136719 122.675781 C 123.054688 123.589844 125.015625 124.421875 126.984375 125.1875 C 131.171875 126.824219 135.414062 128.371094 139.816406 129.132812 C 149.828125 130.863281 160.152344 128.40625 169.476562 124.136719 C 173.359375 122.355469 177.230469 120.167969 179.902344 116.671875 C 182.449219 113.34375 183.6875 109.125 184.871094 105.015625 C 185.714844 102.097656 186.570312 99.078125 186.296875 96.035156 Z M 186.296875 96.035156 "/>
<path style=" stroke:none;fill-rule:nonzero;fill:rgb(2.352941%,2.352941%,2.352941%);fill-opacity:1;" d="M 183.199219 81.765625 C 182.179688 79.796875 180.847656 78.113281 179.628906 76.28125 C 178.371094 74.390625 177.410156 72.316406 175.910156 70.59375 C 173.027344 67.273438 168.296875 64.921875 164.386719 63.03125 C 160.238281 61.027344 155.925781 59.28125 151.339844 58.636719 C 142.386719 57.371094 132.605469 57.601562 124.640625 62.199219 C 117.09375 66.554688 108.566406 71.34375 104.335938 79.304688 C 99.363281 88.65625 100.695312 101.027344 105.226562 110.355469 C 104.535156 112.535156 102.835938 114.363281 101.59375 116.253906 C 99.949219 118.742188 98.433594 120.789062 95.332031 121.386719 C 92.929688 121.851562 93.816406 125.070312 95.863281 125.316406 C 100.324219 125.847656 105.089844 126.914062 109.585938 126.722656 C 113.324219 126.5625 117.183594 125.433594 120.910156 124.757812 C 127.453125 127.777344 134.414062 130.539062 141.589844 131.398438 C 149.347656 132.328125 157.257812 130.945312 164.558594 128.304688 C 170.9375 126 177.800781 123.027344 181.875 117.347656 C 183.960938 114.445312 185.171875 111.003906 186.195312 107.609375 C 187.335938 103.835938 188.507812 100.015625 188.292969 96.03125 C 187.675781 91.109375 185.472656 86.152344 183.199219 81.765625 Z M 181.414062 109.40625 C 179.851562 113.796875 177.414062 117.257812 173.457031 119.773438 C 166.160156 124.410156 156.875 127.300781 148.253906 127.660156 C 143.78125 127.847656 139.421875 127.234375 135.136719 125.964844 C 130.652344 124.632812 126.539062 122.453125 122.144531 120.957031 C 120.644531 120.445312 118.898438 120.996094 117.34375 121.234375 C 114.898438 121.613281 112.511719 122.492188 110.050781 122.707031 C 107.414062 122.9375 104.65625 122.621094 101.914062 122.210938 C 103.382812 120.730469 104.574219 118.902344 105.847656 117.050781 C 107.070312 115.273438 108.597656 113.621094 109.15625 111.480469 C 109.742188 109.234375 107.984375 107.15625 107.257812 105.078125 C 103.789062 95.152344 104.328125 83.3125 112.105469 75.605469 C 115.511719 72.226562 119.835938 69.925781 123.855469 67.363281 C 128.054688 64.691406 132.03125 62.679688 137.066406 62.363281 C 141.960938 62.054688 147 61.851562 151.84375 62.738281 C 156.671875 63.625 161.351562 65.785156 165.605469 68.179688 C 167.964844 69.507812 170.683594 70.980469 172.613281 72.910156 C 174.367188 74.671875 175.308594 77.152344 176.765625 79.148438 C 178.472656 81.492188 179.875 83.882812 181.042969 86.546875 C 182.355469 89.542969 183.875 92.765625 184.289062 96.035156 C 184.539062 100.53125 182.914062 105.199219 181.414062 109.40625 Z M 181.414062 109.40625 "/>
<path style=" stroke:none;fill-rule:nonzero;fill:rgb(73.333335%,73.333335%,73.333335%);fill-opacity:1;" d="M 120.945312 93.722656 C 120.78125 95.21875 121.5625 96.71875 122.691406 97.535156 C 123.820312 98.351562 125.226562 98.558594 126.558594 98.40625 C 127.695312 98.277344 128.871094 97.851562 129.597656 96.863281 C 130.164062 96.09375 130.386719 95.074219 130.527344 94.085938 C 130.664062 93.128906 130.703125 92.03125 130.125 91.320312 C 129.835938 90.96875 129.441406 90.765625 129.042969 90.597656 C 126.449219 89.484375 123.492188 89.480469 120.894531 90.585938 Z M 120.945312 93.722656 "/>
<path style=" stroke:none;fill-rule:nonzero;fill:rgb(2.352941%,2.352941%,2.352941%);fill-opacity:1;" d="M 131.488281 89.847656 C 130.65625 88.957031 129.371094 88.507812 128.222656 88.195312 C 125.660156 87.496094 122.824219 87.632812 120.363281 88.65625 C 119.859375 88.863281 119.457031 89.085938 119.167969 89.574219 C 118.914062 90.003906 118.8125 90.636719 118.964844 91.117188 C 119.09375 91.515625 119.394531 91.890625 119.757812 92.175781 C 119.300781 92.535156 119 93.066406 118.941406 93.722656 C 118.726562 96.09375 120.175781 98.566406 122.285156 99.632812 C 124.460938 100.730469 127.191406 100.730469 129.363281 99.621094 C 131.664062 98.445312 132.402344 95.890625 132.589844 93.5 C 132.691406 92.191406 132.398438 90.828125 131.488281 89.847656 Z M 128.601562 93.550781 C 128.496094 94.15625 128.40625 95.339844 127.910156 95.792969 C 127.660156 96.144531 127.050781 96.421875 126.4375 96.425781 C 125.074219 96.429688 122.875 96.125 122.945312 93.722656 C 122.960938 93.175781 122.683594 92.652344 122.277344 92.273438 C 122.820312 92.101562 123.355469 91.902344 123.929688 91.804688 C 123.804688 91.828125 125.539062 91.644531 126.136719 91.824219 C 126.132812 91.757812 128.339844 92.007812 128.585938 92.648438 C 128.710938 92.992188 128.488281 94.21875 128.601562 93.550781 Z M 128.601562 93.550781 "/>
<path style=" stroke:none;fill-rule:nonzero;fill:rgb(73.333335%,73.333335%,73.333335%);fill-opacity:1;" d="M 163.320312 89.847656 C 161.953125 90.296875 160.578125 90.984375 159.699219 92.210938 C 158.820312 93.445312 158.574219 95.328125 159.460938 96.554688 C 159.921875 97.195312 160.617188 97.585938 161.308594 97.875 C 162.570312 98.410156 163.921875 98.710938 165.273438 98.757812 C 165.863281 98.777344 166.488281 98.738281 166.996094 98.402344 C 167.390625 98.144531 167.675781 97.726562 167.953125 97.320312 C 168.441406 96.597656 168.941406 95.855469 169.171875 94.996094 C 169.539062 93.640625 169.164062 92.09375 168.285156 91.058594 C 167.402344 90.023438 166.058594 89.511719 164.773438 89.644531 Z M 163.320312 89.847656 "/>
<path style=" stroke:none;fill-rule:nonzero;fill:rgb(2.352941%,2.352941%,2.352941%);fill-opacity:1;" d="M 171.15625 92.523438 C 170.578125 89.609375 167.753906 87.394531 164.777344 87.644531 C 164.445312 87.671875 164.132812 87.789062 163.839844 87.949219 C 163.507812 87.84375 163.15625 87.800781 162.792969 87.925781 C 160.3125 88.753906 158.066406 90.222656 157.207031 92.8125 C 156.824219 93.964844 156.789062 95.347656 157.210938 96.492188 C 157.710938 97.84375 158.726562 98.871094 160.027344 99.484375 C 161.289062 100.070312 162.578125 100.453125 163.957031 100.640625 C 165.363281 100.828125 166.914062 100.902344 168.136719 100.046875 C 169.207031 99.292969 170.050781 97.96875 170.613281 96.789062 C 171.261719 95.421875 171.449219 94.011719 171.15625 92.523438 Z M 164.542969 96.714844 C 164.589844 96.722656 164.597656 96.722656 164.542969 96.714844 Z M 167.132812 94.808594 C 166.355469 97.785156 162.898438 96.765625 161.089844 95.402344 C 160.8125 94.722656 160.851562 94.742188 161.070312 93.8125 C 161.078125 93.507812 162.421875 92.210938 163.242188 91.972656 C 163.214844 91.992188 163.542969 91.800781 163.488281 91.835938 C 163.828125 91.636719 163.941406 91.609375 164.261719 91.558594 C 166.136719 91.378906 167.941406 92.820312 167.132812 94.808594 Z M 167.132812 94.808594 "/>
<path style=" stroke:none;fill-rule:nonzero;fill:rgb(73.333335%,73.333335%,73.333335%);fill-opacity:1;" d="M 142.183594 90.421875 C 140.859375 90.921875 139.746094 91.980469 139.171875 93.292969 C 138.953125 93.792969 138.808594 94.332031 138.824219 94.878906 C 138.855469 96.03125 139.601562 97.070312 140.550781 97.691406 C 141.503906 98.3125 142.648438 98.5625 143.773438 98.6875 C 144.863281 98.8125 146.007812 98.820312 147.023438 98.398438 C 149.113281 97.53125 150.160156 94.789062 149.324219 92.65625 C 148.488281 90.523438 146.011719 89.269531 143.800781 89.710938 Z M 142.183594 90.421875 "/>
<path style=" stroke:none;fill-rule:nonzero;fill:rgb(2.352941%,2.352941%,2.352941%);fill-opacity:1;" d="M 150.769531 91.058594 C 149.257812 88.449219 146.167969 87.246094 143.269531 87.785156 C 142.882812 87.855469 142.574219 88.109375 142.320312 88.414062 C 142.101562 88.398438 141.875 88.402344 141.652344 88.492188 C 139.042969 89.519531 136.65625 92.042969 136.832031 95.035156 C 137.015625 98.175781 139.835938 100.09375 142.707031 100.546875 C 144.183594 100.78125 145.761719 100.914062 147.210938 100.457031 C 148.542969 100.03125 149.601562 99.210938 150.40625 98.082031 C 151.851562 96.066406 152.007812 93.203125 150.769531 91.058594 Z M 147.121094 92.777344 C 147.125 92.785156 147.128906 92.789062 147.132812 92.796875 C 147.066406 92.707031 146.949219 92.5 147.121094 92.777344 Z M 143.71875 96.683594 C 143.492188 96.660156 143.621094 96.671875 143.71875 96.683594 Z M 146.273438 96.554688 C 146.269531 96.558594 146.265625 96.558594 146.261719 96.5625 C 146.15625 96.625 146.09375 96.601562 146.273438 96.554688 Z M 147.394531 95.328125 C 147.308594 95.476562 147.234375 95.636719 147.144531 95.785156 C 146.453125 96.929688 144.949219 96.820312 143.773438 96.691406 C 142.691406 96.519531 141.335938 96.234375 140.875 95.113281 C 140.6875 94.476562 141.105469 93.847656 141.449219 93.335938 C 141.21875 93.707031 141.460938 93.328125 141.53125 93.246094 C 141.660156 92.925781 143.136719 92.121094 142.710938 92.347656 C 143.078125 92.203125 143.394531 91.953125 143.660156 91.660156 C 143.875 91.679688 144.097656 91.679688 144.324219 91.640625 L 144.320312 91.640625 C 144.875 91.570312 145.367188 91.671875 145.882812 91.855469 C 146.183594 91.988281 146.476562 92.183594 146.734375 92.363281 C 146.714844 92.371094 146.695312 92.339844 146.671875 92.324219 C 147.277344 92.847656 147.691406 93.585938 147.609375 94.394531 C 147.609375 94.660156 147.492188 95.050781 147.394531 95.328125 Z M 147.597656 94.609375 C 147.59375 94.632812 147.59375 94.671875 147.589844 94.671875 C 147.589844 94.671875 147.59375 94.644531 147.597656 94.609375 Z M 147.597656 94.609375 "/>
</g>
</svg>
