<svg xmlns="http://www.w3.org/2000/svg"  viewBox="0 0 48 48" width="192px" height="192px"><path fill="#373837" d="M29.688,39.438c3.924-0.204,8.287,0.198,12.216,0.274c0.947,0.018,2.021-0.026,2.647-0.737 c0.369-0.42,0.501-0.994,0.598-1.545c0.183-1.042,0.382-2.091,0.393-3.148c0.082-7.594,0.386-16.365,0.082-23.992 c-0.017-0.438-0.154-0.889-0.44-1.222c-0.33-0.384-0.857-0.526-1.357-0.606c-1.406-0.226-3.684,0.113-5.108,0.101 C30.174,8.489,19.494,8.321,10,8.654c-1.698,0.06-3.769-0.033-5.464,0.078C4.116,8.76,3.68,8.792,3.314,9 c-0.86,0.488-0.958,1.668-0.939,2.657c0.129,7.073,0.764,15.546-0.435,22.518c-0.201,1.166-0.441,2.433,0.116,3.477 c0.656,1.229,2.177,1.691,3.561,1.846c1.647,0.184,3.31,0.098,4.965,0.012C16.842,39.183,23.427,39.763,29.688,39.438z"/><path fill="#73a1b2" d="M45.623,14.735c-3.989-0.305-8.001-0.306-11.99-0.001c-1.462,0.112-2.92,0.264-4.384,0.342 c-1.66,0.089-3.486-0.239-5.148-0.246c-7.128-0.031-14.348-0.294-21.476-0.324l-0.241-3.444c0,0-0.519-2.307,2.455-2.347 s21.974-0.252,21.974-0.252h16.542c0,0,2.177-0.462,2.269,2.287C45.715,13.499,45.623,14.735,45.623,14.735z"/><path fill="#010101" d="M46.123,10.269c-0.023-0.591-0.223-1.134-0.56-1.526c-0.448-0.522-1.121-0.688-1.656-0.773 c-0.946-0.154-2.188-0.069-3.39,0.012c-0.663,0.044-1.284,0.087-1.793,0.082L35.302,8.03c-7.989-0.078-17.044-0.166-25.32,0.123 c-0.717,0.025-1.5,0.023-2.295,0.021c-1.08,0.001-2.194-0.007-3.184,0.06C4.075,8.262,3.541,8.296,3.067,8.565 c-1.236,0.702-1.204,2.444-1.192,3.1c0.026,1.455,0.074,2.969,0.124,4.516C2.183,22.002,2.391,28.6,1.43,34.186 c-0.205,1.188-0.438,2.534,0.184,3.701c0.627,1.176,1.955,1.884,3.947,2.106c1.691,0.189,3.397,0.102,5.047,0.015 c3.112-0.161,6.368-0.096,9.517-0.035c3.167,0.063,6.441,0.128,9.588-0.036c2.553-0.133,5.325-0.005,8.005,0.119 c1.419,0.065,2.823,0.13,4.175,0.156c0.105,0.002,0.223,0.004,0.35,0.004c0.799,0,1.962-0.091,2.682-0.911 c0.462-0.525,0.611-1.198,0.714-1.788l0.038-0.212c0.173-0.979,0.353-1.99,0.364-3.017c0.021-1.936,0.056-3.948,0.092-5.998 C46.24,22.231,46.35,15.967,46.123,10.269z M3.562,9.435c0.273-0.155,0.646-0.18,1.008-0.203c0.956-0.063,2.053-0.057,3.115-0.058 c0.805,0.002,1.604,0.003,2.333-0.021c8.253-0.291,17.296-0.2,25.275-0.123l3.422,0.032c0.548,0.004,1.187-0.038,1.869-0.084 c1.093-0.075,2.331-0.159,3.165-0.022c0.368,0.059,0.82,0.161,1.056,0.437c0.188,0.221,0.305,0.555,0.32,0.916 c0.051,1.272,0.079,2.581,0.1,3.902c-3.865-0.271-7.775-0.271-11.628,0.025c-0.514,0.039-1.027,0.083-1.541,0.128 c-0.943,0.081-1.886,0.163-2.832,0.214c-0.908,0.048-1.897-0.035-2.856-0.116c-0.75-0.063-1.524-0.128-2.264-0.131 c-3.56-0.015-7.205-0.09-10.73-0.162c-3.429-0.07-6.969-0.14-10.44-0.159c-0.023-0.801-0.044-1.591-0.058-2.362 C2.852,10.399,3.064,9.718,3.562,9.435z M45.133,28.272c-0.036,2.053-0.071,4.066-0.092,6.005c-0.01,0.944-0.182,1.915-0.348,2.854 l-0.038,0.213c-0.08,0.456-0.189,0.97-0.48,1.301c-0.488,0.556-1.426,0.584-2.261,0.567c-1.344-0.026-2.738-0.091-4.149-0.155 c-1.886-0.087-3.817-0.176-5.695-0.176c-0.815,0-1.62,0.017-2.407,0.058c-3.112,0.161-6.368,0.096-9.517,0.035 c-3.166-0.063-6.441-0.128-9.588,0.036c-1.611,0.083-3.275,0.17-4.884-0.011c-1.13-0.126-2.599-0.503-3.175-1.583 c-0.461-0.864-0.268-1.98-0.065-3.156c0.962-5.591,0.751-12.242,0.566-18.11c-0.012-0.385-0.023-0.76-0.035-1.14 c3.452,0.018,6.976,0.088,10.39,0.158c3.529,0.072,7.178,0.146,10.746,0.162c0.699,0.003,1.42,0.063,2.184,0.128 c0.782,0.065,1.586,0.134,2.369,0.134c0.21,0,0.418-0.005,0.625-0.017c0.956-0.051,1.91-0.133,2.864-0.216 c0.51-0.044,1.021-0.088,1.531-0.127c3.833-0.294,7.722-0.296,11.566-0.019C45.283,19.48,45.209,23.926,45.133,28.272z"/><path fill="#71c598" d="M12.645,20.576c0.87-0.467,1.711-1.457,2.58-1.925c2.226,2.886,4.564,5.509,6.791,8.395 c0.107,0.139,0.22,0.292,0.222,0.468c0.003,0.156-0.083,0.3-0.169,0.43c-1.834,2.771-4.94,4.679-7.025,7.266 c-0.101,0.125-0.214,0.263-0.373,0.287c-0.155,0.024-0.302-0.066-0.432-0.153c-0.336-0.223-1.364-1.462-1.7-1.686 c2.047-2.2,3.881-4.027,5.955-6.143C16.718,24.798,14.948,22.864,12.645,20.576z"/><path fill="#010101" d="M14.617,36.002c-0.293,0-0.524-0.153-0.656-0.241c-0.202-0.134-0.488-0.436-0.937-0.916 c-0.256-0.274-0.644-0.689-0.763-0.769c-0.122-0.081-0.203-0.212-0.22-0.358c-0.017-0.146,0.03-0.292,0.13-0.399 c1.61-1.729,3.086-3.229,4.65-4.816l1.031-1.048c-1.659-2.479-3.312-4.289-5.562-6.523c-0.112-0.111-0.165-0.27-0.142-0.427 c0.023-0.156,0.119-0.293,0.258-0.368c0.388-0.208,0.783-0.545,1.203-0.902c0.44-0.375,0.896-0.763,1.378-1.021 c0.214-0.115,0.482-0.059,0.632,0.135c1.108,1.437,2.265,2.833,3.384,4.184c1.125,1.357,2.288,2.762,3.406,4.211 c0.12,0.156,0.321,0.417,0.327,0.765c0.005,0.324-0.162,0.578-0.252,0.714c-1.057,1.597-2.519,2.914-3.934,4.189 c-1.092,0.983-2.22,2-3.12,3.115c-0.125,0.154-0.332,0.411-0.684,0.468C14.704,35.999,14.66,36.002,14.617,36.002z M13.25,33.63 c0.142,0.144,0.308,0.32,0.506,0.532c0.255,0.273,0.641,0.688,0.759,0.767c0.014,0.009,0.044,0.029,0.073,0.047 c0.023-0.026,0.049-0.058,0.066-0.079c0.948-1.177,2.107-2.221,3.228-3.23c1.368-1.232,2.783-2.508,3.769-3.998 c0.053-0.08,0.083-0.133,0.087-0.156c-0.01-0.017-0.087-0.117-0.12-0.16c-1.107-1.436-2.265-2.832-3.384-4.183 c-1.032-1.246-2.096-2.53-3.129-3.854c-0.275,0.192-0.556,0.432-0.848,0.681c-0.268,0.228-0.541,0.46-0.822,0.666 c2.126,2.137,3.813,4.038,5.475,6.581c0.128,0.196,0.103,0.456-0.062,0.623l-1.316,1.339C16.089,30.672,14.718,32.063,13.25,33.63z"/><path fill="#71c598" d="M24.483,32.583c0.123,0.6,0.178,1.434,0,2.021c2.125,0,3.809,0.026,5.823,0.004 c1.461-0.016,2.919,0.193,4.378,0.127c0.261-0.012,0.561-0.055,0.701-0.275c0.118-0.185,0.076-0.426,0.029-0.641 c-0.08-0.372-0.161-0.744-0.241-1.117c-0.013-0.058-0.026-0.119-0.061-0.167c-0.07-0.095-0.201-0.115-0.319-0.126 C31.635,32.101,27.613,32.06,24.483,32.583z"/><path fill="#010101" d="M34.083,35.248c-0.62,0-1.237-0.036-1.839-0.071c-0.636-0.037-1.297-0.077-1.933-0.068 c-1.288,0.014-2.441,0.008-3.661,0.003c-0.689-0.004-1.399-0.007-2.167-0.007c-0.158,0-0.307-0.075-0.402-0.202 c-0.094-0.127-0.123-0.292-0.077-0.443c0.156-0.513,0.091-1.276-0.011-1.775c-0.027-0.133,0-0.271,0.078-0.384 c0.077-0.111,0.196-0.188,0.33-0.21c2.831-0.475,6.735-0.538,10.441-0.179c0.14,0.015,0.466,0.047,0.673,0.327 c0.1,0.137,0.13,0.275,0.148,0.358l0.241,1.118c0.049,0.224,0.14,0.643-0.095,1.013c-0.299,0.472-0.882,0.497-1.101,0.507 C34.499,35.244,34.291,35.248,34.083,35.248z M30.463,34.107c0.62,0,1.239,0.036,1.84,0.071c0.777,0.045,1.581,0.089,2.358,0.058 c0.242-0.012,0.302-0.049,0.312-0.056c-0.004-0.014-0.016-0.106-0.048-0.255l-0.219-1.02c-3.447-0.329-6.978-0.29-9.651,0.094 c0.041,0.352,0.056,0.738,0.024,1.105c0.546,0.001,1.067,0.003,1.576,0.006c1.215,0.006,2.364,0.013,3.645-0.003 C30.354,34.107,30.409,34.107,30.463,34.107z"/><path fill="#010101" d="M43.195,12.494c-0.082-0.392-0.322-0.741-0.736-1.068c-0.013-0.011-0.028-0.02-0.042-0.031 c0.167-0.186,0.348-0.361,0.51-0.549c0.18-0.209,0.157-0.525-0.053-0.705c-0.208-0.18-0.525-0.158-0.705,0.053 c-0.17,0.198-0.36,0.382-0.536,0.577c-0.066-0.07-0.133-0.138-0.204-0.198c-0.091-0.077-0.192-0.143-0.301-0.211l-0.441-0.278 c-0.232-0.148-0.542-0.078-0.69,0.156c-0.147,0.233-0.078,0.542,0.156,0.689l0.451,0.284c0.062,0.039,0.124,0.076,0.181,0.124 c0.048,0.04,0.09,0.086,0.132,0.132l0.035,0.035c-0.18,0.188-0.348,0.389-0.532,0.572c-0.019,0.019-0.05,0.05-0.077,0.073 c-0.153,0.07-0.29,0.2-0.336,0.34c-0.061,0.183-0.012,0.385,0.127,0.519c0.095,0.091,0.22,0.14,0.347,0.14 c0.059,0,0.119-0.011,0.176-0.032c0.218-0.082,0.368-0.231,0.468-0.331c0.21-0.21,0.402-0.437,0.607-0.653 c0.035,0.026,0.071,0.05,0.105,0.077c0.219,0.174,0.346,0.338,0.377,0.488c0.049,0.236,0.257,0.398,0.489,0.398 c0.034,0,0.068-0.003,0.102-0.011C43.078,13.029,43.251,12.765,43.195,12.494z"/><path fill="#010101" d="M37.684,13.074c-0.027,0-0.054-0.002-0.082-0.005c-0.754-0.096-1.508-0.132-2.264-0.126 c-0.158-0.006-0.276-0.055-0.372-0.157c-0.097-0.103-0.146-0.24-0.135-0.381c0.051-0.671,0.088-1.344,0.112-2.017 c0.009-0.276,0.262-0.466,0.517-0.482c0.079,0.003,0.152,0.023,0.218,0.059c0.138-0.047,0.291-0.033,0.416,0.041l1.763,0.058 c0.264,0.009,0.476,0.222,0.484,0.485c0.019,0.664-0.008,1.335-0.081,1.995c-0.014,0.129-0.105,0.318-0.205,0.401 C37.95,13.031,37.826,13.074,37.684,13.074z M35.866,11.943c0.48,0.008,0.961,0.036,1.438,0.085c0.025-0.326,0.04-0.653,0.042-0.98 l-1.313-0.043c-0.028-0.001-0.067-0.003-0.114-0.009C35.904,11.313,35.887,11.628,35.866,11.943z M36.224,10.115L36.224,10.115 L36.224,10.115z"/><path fill="#010101" d="M32.363,13.195c-0.185,0-0.359-0.034-0.5-0.062c-0.509-0.099-0.997-0.087-1.456,0.028 c-0.271,0.061-0.54-0.097-0.606-0.364c-0.067-0.268,0.096-0.539,0.363-0.606c0.6-0.15,1.237-0.166,1.844-0.049 c0.154,0.031,0.353,0.072,0.411,0.048c0.217-0.168,0.527-0.127,0.697,0.092c0.169,0.219,0.125,0.535-0.094,0.704 C32.813,13.148,32.581,13.195,32.363,13.195z"/></svg>