<svg xmlns="http://www.w3.org/2000/svg"  viewBox="0 0 512 512" width="192px" height="192px"><path fill="#D6E5E5" d="M301.5 191.4c-4.7-.3-9.4-.9-14-1.6-1.9-.3-3.7-.6-5.6-.9-.4-.1-.8-.1-1.2-.1.3 5.2 1.1 10.3 1.9 15.4.4 2.8 1 5.7 1 8.6 0 .4 0 .8 0 1.1 0 0 .1.1.1.1 2.1 1.8 8.7 1.2 11.7 1.1 2-.1 4-.2 6-.3C300.4 207.1 301.2 199.2 301.5 191.4zM123.5 189.6c-4.7-.3-9.4-.9-14-1.6-1.9-.3-3.7-.6-5.6-.9-.4-.1-.8-.1-1.2-.1.3 5.2 1.1 10.3 1.9 15.4.4 2.8 1 5.7 1 8.6 0 .4 0 .8 0 1.1 0 0 .1.1.1.1 2.1 1.8 8.7 1.2 11.7 1.1 2-.1 4-.2 6-.3C122.4 205.4 123.2 197.4 123.5 189.6zM299.4 261.4c-4.7-.3-9.4-.9-14-1.6-1.9-.3-3.7-.6-5.6-.9-.4-.1-.8-.1-1.2-.1.3 5.2 1.1 10.3 1.9 15.4.4 2.8 1 5.7 1 8.6 0 .4 0 .8 0 1.1 0 0 .1.1.1.1 2.1 1.8 8.7 1.2 11.7 1.1 2-.1 4-.2 6-.3C298.3 277.1 299 269.2 299.4 261.4zM123.5 330.3c-4.7-.3-9.4-.9-14-1.6-1.9-.3-3.7-.6-5.6-.9-.4-.1-.8-.1-1.2-.1.3 5.2 1.1 10.3 1.9 15.4.4 2.8 1 5.7 1 8.6 0 .4 0 .8 0 1.1 0 0 .1.1.1.1 2.1 1.8 8.7 1.2 11.7 1.1 2-.1 4-.2 6-.3C122.4 346.1 123.2 338.1 123.5 330.3zM364.3 259.6c-4.7-.3-9.4-.9-14-1.6-1.9-.3-3.7-.6-5.6-.9-.4-.1-.8-.1-1.2-.1.3 5.2 1.1 10.3 1.9 15.4.4 2.8 1 5.7 1 8.6 0 .4 0 .8 0 1.1 0 0 .1.1.1.1 2.1 1.8 8.7 1.2 11.7 1.1 2-.1 4-.2 6-.3C363.3 275.4 364 267.4 364.3 259.6z"/><path fill="#C56528" d="M297.5,419.4c-1-10.3-2-20.7-3-31c-1.8-18.4-6.1-36.5-6.9-55c-19.1-0.2-38.1-0.9-57.2-0.9c-0.2,0.2-0.4,0.4-0.6,0.6c0,0,0,0,0,0.1c-0.3,1.2-0.5,2.5-0.6,3.7c-0.4,3.7-0.5,7.4-0.5,11c-0.1,8.9,0.2,17.8,0.7,26.7c1.1,20.6,5.4,41.6,3.2,62.1c8.8,0.8,17.6,1.8,26.3,2.4c13.2,1,26.4,1.8,39.6,2.4C297,434.3,298.2,427,297.5,419.4z"/><path fill="#D6E5E5" d="M238.8 259.6c-4.7-.3-9.4-.9-14-1.6-1.9-.3-3.7-.6-5.6-.9-.4-.1-.8-.1-1.2-.1.3 5.2 1.1 10.3 1.9 15.4.4 2.8 1 5.7 1 8.6 0 .4 0 .8 0 1.1 0 0 .1.1.1.1 2.1 1.8 8.7 1.2 11.7 1.1 2-.1 4-.2 6-.3C237.8 275.4 238.5 267.4 238.8 259.6zM179.1 259.6c-4.7-.3-9.4-.9-14-1.6-1.9-.3-3.7-.6-5.6-.9-.4-.1-.8-.1-1.2-.1.3 5.2 1.1 10.3 1.9 15.4.4 2.8 1 5.7 1 8.6 0 .4 0 .8 0 1.1 0 0 .1.1.1.1 2.1 1.8 8.7 1.2 11.7 1.1 2-.1 4-.2 6-.3C178.1 275.4 178.8 267.4 179.1 259.6zM181.2 189.6c-4.7-.3-9.4-.9-14-1.6-1.9-.3-3.7-.6-5.6-.9-.4-.1-.8-.1-1.2-.1.3 5.2 1.1 10.3 1.9 15.4.4 2.8 1 5.7 1 8.6 0 .4 0 .8 0 1.1 0 0 .1.1.1.1 2.1 1.8 8.7 1.2 11.7 1.1 2-.1 4-.2 6-.3C180.2 205.4 180.9 197.4 181.2 189.6zM240.9 189.6c-4.7-.3-9.4-.9-14-1.6-1.9-.3-3.7-.6-5.6-.9-.4-.1-.8-.1-1.2-.1.3 5.2 1.1 10.3 1.9 15.4.4 2.8 1 5.7 1 8.6 0 .4 0 .8 0 1.1 0 0 .1.1.1.1 2.1 1.8 8.7 1.2 11.7 1.1 2-.1 4-.2 6-.3C239.9 205.4 240.6 197.4 240.9 189.6zM366.4 189.6c-4.7-.3-9.4-.9-14-1.6-1.9-.3-3.7-.6-5.6-.9-.4-.1-.8-.1-1.2-.1.3 5.2 1.1 10.3 1.9 15.4.4 2.8 1 5.7 1 8.6 0 .4 0 .8 0 1.1 0 0 .1.1.1.1 2.1 1.8 8.7 1.2 11.7 1.1 2-.1 4-.2 6-.3C365.4 205.4 366.1 197.4 366.4 189.6zM426.4 189.6c-4.7-.3-9.4-.9-14-1.6-1.9-.3-3.7-.6-5.6-.9-.4-.1-.8-.1-1.2-.1.3 5.2 1.1 10.3 1.9 15.4.4 2.8 1 5.7 1 8.6 0 .4 0 .8 0 1.1 0 0 .1.1.1.1 2.1 1.8 8.7 1.2 11.7 1.1 2-.1 4-.2 6-.3C425.4 205.4 426.1 197.4 426.4 189.6zM379.3 57.4c-.3-1.3-.6-3.5-1.3-4.3.5.6-2.1-.3-2.6-.3-13-1.8-25.9-1.3-38.9-.5v18.5c15 .1 29.9.2 44.9-.3C380.6 66 380.3 61.7 379.3 57.4z"/><path fill="#FEBF10" d="M457.1,409.6c-0.5-12.3-1.9-24.4-2.7-36.7c-1.7-23.8-1.4-47.7-1.5-71.6c0-12.2,0-24.3-0.9-36.5c-0.9-11.1-2.2-22.2-2.9-33.3c-1.4-23.3-0.6-46.8-0.5-70.2c-0.5,0-0.9,0-1.4,0c-32.4-0.7-64.6-2.2-97-1.5c-32.8,0.7-65.6,2.3-98.4,3.1c-60.2,1.5-120.3-2.5-180.4-3.3c0.1,1,0.1,2.1,0.2,3.1c0.3,4.7,0.8,9.3,1,14c0.7,13,1.7,25.9,1.5,38.9c-0.3,27.5-0.5,55,0.3,82.5c0.8,28.5,2.2,57,4,85.4c0.8,12.6,1.3,25.2,2.3,37.9c0.4,4.7,1.7,10.6,1.5,16c28.4-0.3,56.8-2.5,85.2-3.2c14.7-0.3,29.5-0.3,44.2,0.6c3.4,0.2,6.7,0.5,10.1,0.8v-0.3c0-0.9,0.2-1.7,0.5-2.4c1-13.7-1.4-27.5-2.4-41.1c-0.5-7.2-1.1-14.4-1.4-21.6c-0.4-9.4-0.8-18.9-0.3-28.4c0.2-4.3-0.1-12.5,3.5-16.3c0.3-2.2,1.9-4.2,4.8-4.2h1.4c0.1,0,0.1,0,0.1,0c21.6,0,43.2,0.9,64.9,1c2.8,0,5.9,1.9,5.9,5.1c0.1,10.4,1.3,20.6,2.9,30.9c1.5,9.6,2.3,19.5,4.1,29.1c1.8,9.7,1.9,19.5,2.8,29.2c0.6,6.6-0.5,13.4,0.5,20c1,0.8,1.7,2.1,1.7,3.8v1.5c15.5,0.6,31,1,46.4,1.2c16.5,0.2,32.9,0.4,49.4-0.2c16.4-0.6,32.8-1.6,49.3-1.6c0.5,0,0.9,0,1.3,0.1c0.2-0.2,0.4-0.5,0.6-0.7C457.5,430.5,457.5,420.1,457.1,409.6z M336.1,180.7c0.2-1.6,1.1-3.2,2.7-4.2c2.7-1.7,6.3-1,9.2-0.5c7.8,1.4,15.7,2.6,23.6,2.7c2.8,0,5.9,1.9,5.9,5.1c-0.1,10.6-2.4,22.3,0.7,32.6c1,3.2-1.1,7.3-4.8,7.3c-8.2,0.1-19.9,2.5-28.1-1c-7.3,1.4-7.2-7.5-7.8-12.1c-1-8.7-2.9-17.2-3-26C334.5,183.1,335.2,181.7,336.1,180.7z M150.9,180.7c0.2-1.6,1.1-3.2,2.7-4.2c2.7-1.7,6.3-1,9.2-0.5c7.8,1.4,15.7,2.6,23.6,2.7c2.8,0,5.9,1.9,5.9,5.1c-0.1,10.6-2.4,22.3,0.7,32.6c1,3.2-1.1,7.3-4.8,7.3c-8.2,0.1-19.9,2.5-28.1-1c-7.3,1.4-7.2-7.5-7.8-12.1c-1-8.7-2.9-17.2-3-26C149.3,183.1,150,181.7,150.9,180.7z M91.1,250.7c0.2-1.6,1.1-3.2,2.7-4.2c2.7-1.7,6.3-1,9.2-0.5c7.8,1.4,15.7,2.6,23.6,2.7c2.8,0,5.9,1.9,5.9,5.1c-0.1,10.6-2.4,22.3,0.7,32.6c1,3.2-1.1,7.3-4.8,7.3c-8.2,0.1-19.9,2.5-28.1-1c-7.3,1.4-7.2-7.5-7.8-12.1c-1-8.7-2.9-17.2-3-26C89.5,253.1,90.1,251.7,91.1,250.7z M130.5,364.5c-8.2,0.1-19.9,2.5-28.1-1c-7.3,1.4-7.2-7.5-7.8-12.1c-1-8.7-2.9-17.2-3-26c0-1.7,0.6-3.1,1.6-4c0.2-1.6,1.1-3.2,2.7-4.2c2.7-1.7,6.3-1,9.2-0.5c7.8,1.4,15.7,2.6,23.6,2.7c2.8,0,5.9,1.9,5.9,5.1c-0.1,10.6-2.4,22.3,0.7,32.6C136.3,360.4,134.2,364.5,130.5,364.5z M130.5,223.8c-8.2,0.1-19.9,2.5-28.1-1c-7.3,1.4-7.2-7.5-7.8-12.1c-1-8.7-2.9-17.2-3-26c0-1.7,0.6-3.1,1.6-4c0.2-1.6,1.1-3.2,2.7-4.2c2.7-1.7,6.3-1,9.2-0.5c7.8,1.4,15.7,2.6,23.6,2.7c2.8,0,5.9,1.9,5.9,5.1c-0.1,10.6-2.4,22.3,0.7,32.6C136.3,219.7,134.2,223.8,130.5,223.8z M150.2,280.8c-1-8.7-2.9-17.2-3-26c0-1.7,0.6-3.1,1.6-4c0.2-1.6,1.1-3.2,2.7-4.2c2.7-1.7,6.3-1,9.2-0.5c7.8,1.4,15.7,2.6,23.6,2.7c2.8,0,5.9,1.9,5.9,5.1c-0.1,10.6-2.4,22.3,0.7,32.6c1,3.2-1.1,7.3-4.8,7.3c-8.2,0.1-19.9,2.5-28.1-1C150.7,294.2,150.8,285.4,150.2,280.8z M192.8,364.5c-8.2,0.1-19.9,2.5-28.1-1c-7.3,1.4-7.2-7.5-7.8-12.1c-1-8.7-2.9-17.2-3-26c0-1.7,0.6-3.1,1.6-4c0.2-1.6,1.1-3.2,2.7-4.2c2.7-1.7,6.3-1,9.2-0.5c7.8,1.4,15.7,2.6,23.6,2.7c2.8,0,5.9,1.9,5.9,5.1c-0.1,10.6-2.4,22.3,0.7,32.6C198.5,360.4,196.5,364.5,192.8,364.5z M245.9,293.8c-8.2,0.1-19.9,2.5-28.1-1c-7.3,1.4-7.2-7.5-7.8-12.1c-1-8.7-2.9-17.2-3-26c0-1.7,0.6-3.1,1.6-4c0.2-1.6,1.1-3.2,2.7-4.2c2.7-1.7,6.3-1,9.2-0.5c7.8,1.4,15.7,2.6,23.6,2.7c2.8,0,5.9,1.9,5.9,5.1c-0.1,10.6-2.4,22.3,0.7,32.6C251.6,289.7,249.6,293.8,245.9,293.8z M248,223.8c-8.2,0.1-19.9,2.5-28.1-1c-7.3,1.4-7.2-7.5-7.8-12.1c-1-8.7-2.9-17.2-3-26c0-1.7,0.6-3.1,1.6-4c0.2-1.6,1.1-3.2,2.7-4.2c2.7-1.7,6.3-1,9.2-0.5c7.8,1.4,15.7,2.6,23.6,2.7c2.8,0,5.9,1.9,5.9,5.1c-0.1,10.6-2.4,22.3,0.7,32.6C253.7,219.7,251.7,223.8,248,223.8z M306.4,295.6c-8.2,0.1-19.9,2.5-28.1-1c-7.3,1.4-7.2-7.5-7.8-12.1c-1-8.7-2.9-17.2-3-26c0-1.7,0.6-3.1,1.6-4c0.2-1.6,1.1-3.2,2.7-4.2c2.7-1.7,6.3-1,9.2-0.5c7.8,1.4,15.7,2.6,23.6,2.7c2.8,0,5.9,1.9,5.9,5.1c-0.1,10.6-2.4,22.3,0.7,32.6C312.1,291.5,310.1,295.6,306.4,295.6z M308.5,225.6c-8.2,0.1-19.9,2.5-28.1-1c-7.3,1.4-7.2-7.5-7.8-12.1c-1-8.7-2.9-17.2-3-26c0-1.7,0.6-3.1,1.6-4c0.2-1.6,1.1-3.2,2.7-4.2c2.7-1.7,6.3-1,9.2-0.5c7.8,1.4,15.7,2.6,23.6,2.7c2.8,0,5.9,1.9,5.9,5.1c-0.1,10.6-2.4,22.3,0.7,32.6C314.3,221.5,312.2,225.6,308.5,225.6z M332.4,254.8c0-1.7,0.6-3.1,1.6-4c0.2-1.6,1.1-3.2,2.7-4.2c2.7-1.7,6.3-1,9.2-0.5c7.8,1.4,15.7,2.6,23.6,2.7c2.8,0,5.9,1.9,5.9,5.1c-0.1,10.6-2.4,22.3,0.7,32.6c1,3.2-1.1,7.3-4.8,7.3c-8.2,0.1-19.9,2.5-28.1-1c-7.3,1.4-7.2-7.5-7.8-12.1C334.4,272.1,332.6,263.5,332.4,254.8z M376.4,368.5c-8.2,0.1-19.9,2.5-28.1-1c-7.3,1.4-7.2-7.5-7.8-12.1c-1-8.7-2.9-17.2-3-26c0-1.7,0.6-3.1,1.6-4c0.2-1.6,1.1-3.2,2.7-4.2c2.7-1.7,6.3-1,9.2-0.5c7.8,1.4,15.7,2.6,23.6,2.7c2.8,0,5.9,1.9,5.9,5.1c-0.1,10.6-2.4,22.3,0.7,32.6C382.2,364.4,380.1,368.4,376.4,368.5z M394,250.7c0.2-1.6,1.1-3.2,2.7-4.2c2.7-1.7,6.3-1,9.2-0.5c7.8,1.4,15.7,2.6,23.6,2.7c2.8,0,5.9,1.9,5.9,5.1c-0.1,10.6-2.4,22.3,0.7,32.6c1,3.2-1.1,7.3-4.8,7.3c-8.2,0.1-19.9,2.5-28.1-1c-7.3,1.4-7.2-7.5-7.8-12.1c-1-8.7-2.9-17.2-3-26C392.4,253.1,393.1,251.7,394,250.7z M433.5,364.5c-8.2,0.1-19.9,2.5-28.1-1c-7.3,1.4-7.2-7.5-7.8-12.1c-1-8.7-2.9-17.2-3-26c0-1.7,0.6-3.1,1.6-4c0.2-1.6,1.1-3.2,2.7-4.2c2.7-1.7,6.3-1,9.2-0.5c7.8,1.4,15.7,2.6,23.6,2.7c2.8,0,5.9,1.9,5.9,5.1c-0.1,10.6-2.4,22.3,0.7,32.6C439.2,360.4,437.2,364.5,433.5,364.5z M433.5,223.8c-8.2,0.1-19.9,2.5-28.1-1c-7.3,1.4-7.2-7.5-7.8-12.1c-1-8.7-2.9-17.2-3-26c0-1.7,0.6-3.1,1.6-4c0.2-1.6,1.1-3.2,2.7-4.2c2.7-1.7,6.3-1,9.2-0.5c7.8,1.4,15.7,2.6,23.6,2.7c2.8,0,5.9,1.9,5.9,5.1c-0.1,10.6-2.4,22.3,0.7,32.6C439.2,219.7,437.2,223.8,433.5,223.8z"/><path fill="#D6E5E5" d="M185.8,330.3c-4.7-0.3-9.4-0.9-14-1.6c-1.9-0.3-3.7-0.6-5.6-0.9c-0.4-0.1-0.8-0.1-1.2-0.1c0.3,5.2,1.1,10.3,1.9,15.4c0.4,2.8,1,5.7,1,8.6c0,0.4,0,0.8,0,1.1c0,0,0.1,0.1,0.1,0.1c2.1,1.8,8.7,1.2,11.7,1.1c2-0.1,4-0.2,6-0.3C184.7,346.1,185.4,338.1,185.8,330.3z"/><path fill="#EF4823" d="M448.6,134.7c-7.4-7.3-13.7-15.4-19.3-24.2c-3.9-6.2-8.4-12.2-13-17.9c-3.1-3.9-9.2-12.4-14.9-12.2c-0.7,0-1.3,0-1.8-0.2c-0.4,0.1-0.8,0.2-1.2,0.2c-32.2,2.3-64.5,0.5-96.7,1.1c-32.4,0.6-64.6,2-97,1.7c-15.8-0.2-31.7-0.3-47.4,1c-7.3,0.6-14.7,0.5-21.9,1.4c-7.2,1-12.2,4-17.7,8.5c-10.9,8.8-21.3,18.4-30.4,29.1c-4.7,5.6-9.5,10.8-15.1,15.5c-3.8,3.1-7.5,6.2-11,9.6c1.2,0,2.3,0,3.5,0c33.1,0.4,66.2,2,99.4,3.1c32.9,1,65.8,1,98.7,0c32.8-1,65.6-2.5,98.4-3c30.5-0.4,61,1.6,91.5,1.8c0.8-0.6,1.8-1,3.1-1c3.5,0,7,0,10.5-0.1C460.4,144.4,454,139.9,448.6,134.7z"/><path fill="#D6E5E5" d="M424.3 259.6c-4.7-.3-9.4-.9-14-1.6-1.9-.3-3.7-.6-5.6-.9-.4-.1-.8-.1-1.2-.1.3 5.2 1.1 10.3 1.9 15.4.4 2.8 1 5.7 1 8.6 0 .4 0 .8 0 1.1 0 0 .1.1.1.1 2.1 1.8 8.7 1.2 11.7 1.1 2-.1 4-.2 6-.3C423.3 275.4 424 267.4 424.3 259.6zM369.4 334.2c-4.7-.3-9.4-.9-14-1.6-1.9-.3-3.7-.6-5.6-.9-.4-.1-.8-.1-1.2-.1.3 5.2 1.1 10.3 1.9 15.4.4 2.8 1 5.7 1 8.6 0 .4 0 .8 0 1.1 0 0 .1.1.1.1 2.1 1.8 8.7 1.2 11.7 1.1 2-.1 4-.2 6-.3C368.3 350 369.1 342.1 369.4 334.2zM426.4 330.3c-4.7-.3-9.4-.9-14-1.6-1.9-.3-3.7-.6-5.6-.9-.4-.1-.8-.1-1.2-.1.3 5.2 1.1 10.3 1.9 15.4.4 2.8 1 5.7 1 8.6 0 .4 0 .8 0 1.1 0 0 .1.1.1.1 2.1 1.8 8.7 1.2 11.7 1.1 2-.1 4-.2 6-.3C425.4 346.1 426.1 338.1 426.4 330.3zM121.4 259.6c-4.7-.3-9.4-.9-14-1.6-1.9-.3-3.7-.6-5.6-.9-.4-.1-.8-.1-1.2-.1.3 5.2 1.1 10.3 1.9 15.4.4 2.8 1 5.7 1 8.6 0 .4 0 .8 0 1.1 0 0 .1.1.1.1 2.1 1.8 8.7 1.2 11.7 1.1 2-.1 4-.2 6-.3C120.3 275.4 121 267.4 121.4 259.6z"/><path d="M482.6,150.9c-7.1-9.1-17.1-15.5-25.4-23.4c-8.2-7.7-13.9-16.8-20.4-25.8c-5-6.8-9.7-13.8-15.4-20.1c-5.4-5.9-12.1-12.4-20.7-12.1c-0.4,0-0.8,0.1-1.1,0.2c-0.6-0.1-1.2-0.2-1.9-0.2c-1.7,0.1-3.4,0.2-5.1,0.3c-2.5-10-0.6-23.5-12.2-27.4c-6.5-2.2-14.6-1.9-21.4-2.1c-9.5-0.2-18.9,0.5-28.3,1.1c-3.2,0.2-5.1,2.9-5.1,5.9v23.1c-8.2-0.1-16.4-0.1-24.6,0.1c-32.4,0.5-64.6,2.1-97,1.7c-15.8-0.2-31.6-0.2-47.4,1c-13.5,1-27.9-0.2-39.6,7.7c-11.2,7.6-21.9,17.6-31.2,27.4c-4.6,4.9-8.8,10.2-13.3,15.2c-5.1,5.6-11.4,10.1-17,15.2c-2.6,2.3-5.1,4.9-7.4,7.5c-1.9,2.2-1.7,5-0.2,6.9c-0.1,3,1.9,6.2,5.7,6.2c2.2,0,4.3,0,6.5,0c0.2,3.2,0.7,6.5,1,9.3c1.1,12.6,1.9,25.4,2.1,38.1c0.4,28.1-0.5,56.1,0.1,84.2c0.7,27.8,2,55.6,3.6,83.4c0.8,13.4,1.1,26.8,2.3,40.2c0.4,4.9,0.8,9.8,1.3,14.8c0.4,3.2,1.6,8.2-0.3,11.1c-2.8,4.5,2,8.3,6.1,7.5c0.7,0.3,1.4,0.4,2.2,0.4c28.7,0,57.4-2.3,86.1-3.1c14.8-0.4,29.7-0.4,44.6,0.4c16,0.8,31.9,3,47.8,4.2c32.3,2.5,64.6,3.8,96.9,4.3c16.4,0.3,32.9,0.5,49.4,0c16.4-0.5,32.8-1.5,49.3-1.7c1.3,0,2.6,0,3.9,0c1.7,0,2.9-0.6,3.7-1.6c1,0.4,2,0.5,3.3,0.6c3.2,0.2,5.1-3.2,5.1-5.9c0-24-1.2-47.6-3.1-71.5c-1.9-23.8-1.6-47.7-1.6-71.6c0-11.5,0.1-23.1-0.7-34.6c-0.8-11.8-2.2-23.5-3-35.2c-1.7-23.6-0.7-47.5-0.6-71.2c0.8-0.1,1.6-0.5,2.1-0.9c5.6,0,11.2-0.2,16.8-1C482.2,159,485.3,154.4,482.6,150.9z M336.5,52.2c13-0.8,25.9-1.2,38.9,0.5c0.5,0.1,3.1,1,2.6,0.3c0.7,0.8,1,3,1.3,4.3c1,4.3,1.3,8.7,2.1,13c-15,0.5-29.9,0.4-44.9,0.3V52.2z M259,439.2c-8.8-0.7-17.6-1.6-26.3-2.4c2.2-20.6-2.1-41.6-3.2-62.1c-0.5-8.9-0.8-17.8-0.7-26.7c0-3.7,0.1-7.4,0.5-11c0.1-1.3,0.3-2.5,0.6-3.7c0,0,0,0,0-0.1c0.2-0.2,0.5-0.4,0.6-0.6c19.1,0.1,38.1,0.7,57.2,0.9c0.8,18.5,5,36.6,6.9,55c1,10.3,2,20.7,3,31c0.7,7.6-0.5,14.8,1.1,22.2C285.4,441,272.2,440.2,259,439.2z M456.9,441.7c-0.4-0.1-0.8-0.1-1.3-0.1c-16.4,0-32.9,1-49.3,1.6c-16.4,0.6-32.9,0.4-49.4,0.2c-15.5-0.2-31-0.6-46.4-1.2v-1.5c0-1.8-0.7-3-1.7-3.8c-1-6.6,0.1-13.3-0.5-20c-0.9-9.8-1-19.6-2.8-29.2c-1.8-9.6-2.6-19.5-4.1-29.1c-1.6-10.2-2.8-20.5-2.9-30.9c0-3.2-3.1-5-5.9-5.1c-21.6-0.1-43.2-1-64.9-1c0,0-0.1,0-0.1,0h-1.4c-3,0-4.5,1.9-4.8,4.2c-3.6,3.8-3.2,12-3.5,16.3c-0.5,9.4-0.1,19,0.3,28.4c0.3,7.2,0.9,14.4,1.4,21.6c1,13.6,3.4,27.4,2.4,41.1c-0.3,0.7-0.5,1.5-0.5,2.4v0.3c-3.4-0.3-6.7-0.5-10.1-0.8c-14.7-0.9-29.4-1-44.2-0.6c-28.4,0.6-56.8,2.9-85.2,3.2c0.2-5.4-1.1-11.3-1.5-16c-1-12.6-1.5-25.2-2.3-37.9c-1.8-28.4-3.2-56.9-4-85.4c-0.8-27.5-0.6-55-0.3-82.5c0.1-13-0.8-25.9-1.5-38.9c-0.2-4.7-0.7-9.3-1-14c-0.1-1-0.1-2.1-0.2-3.1c60.2,0.8,120.2,4.8,180.4,3.3c32.8-0.8,65.6-2.4,98.4-3.1c32.4-0.7,64.6,0.8,97,1.5c0.5,0,0.9,0,1.4,0c0,23.3-0.9,46.9,0.5,70.2c0.7,11.1,2,22.2,2.9,33.3c1,12.1,0.9,24.3,0.9,36.5c0.1,23.9-0.2,47.8,1.5,71.6c0.9,12.2,2.3,24.4,2.7,36.7c0.4,10.4,0.5,20.9,0.5,31.3C457.3,441.2,457.1,441.4,456.9,441.7z M455.6,149.5c-1.3,0-2.3,0.4-3.1,1c-30.5-0.3-60.9-2.2-91.5-1.8c-32.8,0.5-65.6,2-98.4,3c-32.9,1-65.8,1-98.7,0c-33.1-1-66.2-2.7-99.4-3.1c-1.2,0-2.3,0-3.5,0c3.5-3.4,7.3-6.5,11-9.6c5.6-4.7,10.4-9.9,15.1-15.5c9.1-10.7,19.5-20.3,30.4-29.1c5.6-4.5,10.5-7.6,17.7-8.5c7.2-1,14.7-0.8,21.9-1.4c15.8-1.3,31.6-1.2,47.4-1c32.4,0.3,64.7-1.1,97-1.7c32.2-0.6,64.5,1.2,96.7-1.1c0.4,0,0.8-0.1,1.2-0.2c0.6,0.2,1.2,0.2,1.8,0.2c5.7-0.2,11.8,8.3,14.9,12.2c4.6,5.7,9.1,11.7,13,17.9c5.6,8.7,11.9,16.9,19.3,24.2c5.3,5.3,11.7,9.7,17.4,14.7C462.6,149.5,459.1,149.5,455.6,149.5z"/><path d="M381.2 361.2c-3.1-10.3-.8-22-.7-32.6 0-3.2-3.1-5-5.9-5.1-7.9-.1-15.8-1.3-23.6-2.7-2.9-.5-6.6-1.3-9.2.5-1.5 1-2.4 2.5-2.7 4.2-1 1-1.6 2.3-1.6 4 .1 8.8 2 17.3 3 26 .5 4.6.5 13.5 7.8 12.1 8.2 3.5 19.9 1.1 28.1 1C380.1 368.4 382.2 364.4 381.2 361.2zM369.3 357.7c-2 .1-4 .2-6 .3-2.9.1-9.5.7-11.7-1.1 0 0-.1-.1-.1-.1 0-.4 0-.8 0-1.1 0-2.9-.6-5.7-1-8.6-.8-5.1-1.6-10.3-1.9-15.4.4 0 .8 0 1.2.1 1.9.3 3.7.6 5.6.9 4.6.8 9.3 1.3 14 1.6C369.1 342.1 368.3 350 369.3 357.7zM438.2 357.2c-3.1-10.3-.8-22-.7-32.6 0-3.2-3.1-5-5.9-5.1-7.9-.1-15.8-1.3-23.6-2.7-2.9-.5-6.6-1.3-9.2.5-1.5 1-2.4 2.5-2.7 4.2-1 1-1.6 2.3-1.6 4 .1 8.8 2 17.3 3 26 .5 4.6.5 13.5 7.8 12.1 8.2 3.5 19.9 1.1 28.1 1C437.2 364.5 439.2 360.4 438.2 357.2zM426.4 353.8c-2 .1-4 .2-6 .3-2.9.1-9.5.7-11.7-1.1 0 0-.1-.1-.1-.1 0-.4 0-.8 0-1.1 0-2.9-.6-5.7-1-8.6-.8-5.1-1.6-10.3-1.9-15.4.4 0 .8 0 1.2.1 1.9.3 3.7.6 5.6.9 4.6.8 9.3 1.3 14 1.6C426.1 338.1 425.4 346.1 426.4 353.8zM197.6 357.2c-3.1-10.3-.8-22-.7-32.6 0-3.2-3.1-5-5.9-5.1-7.9-.1-15.8-1.3-23.6-2.7-2.9-.5-6.6-1.3-9.2.5-1.5 1-2.4 2.5-2.7 4.2-1 1-1.6 2.3-1.6 4 .1 8.8 2 17.3 3 26 .5 4.6.5 13.5 7.8 12.1 8.2 3.5 19.9 1.1 28.1 1C196.5 364.5 198.5 360.4 197.6 357.2zM185.7 353.8c-2 .1-4 .2-6 .3-2.9.1-9.5.7-11.7-1.1 0 0-.1-.1-.1-.1 0-.4 0-.8 0-1.1 0-2.9-.6-5.7-1-8.6-.8-5.1-1.6-10.3-1.9-15.4.4 0 .8 0 1.2.1 1.9.3 3.7.6 5.6.9 4.6.8 9.3 1.3 14 1.6C185.4 338.1 184.7 346.1 185.7 353.8zM135.3 357.2c-3.1-10.3-.8-22-.7-32.6 0-3.2-3.1-5-5.9-5.1-7.9-.1-15.8-1.3-23.6-2.7-2.9-.5-6.6-1.3-9.2.5-1.5 1-2.4 2.5-2.7 4.2-1 1-1.6 2.3-1.6 4 .1 8.8 2 17.3 3 26 .5 4.6.5 13.5 7.8 12.1 8.2 3.5 19.9 1.1 28.1 1C134.2 364.5 136.3 360.4 135.3 357.2zM123.4 353.8c-2 .1-4 .2-6 .3-2.9.1-9.5.7-11.7-1.1 0 0-.1-.1-.1-.1 0-.4 0-.8 0-1.1 0-2.9-.6-5.7-1-8.6-.8-5.1-1.6-10.3-1.9-15.4.4 0 .8 0 1.2.1 1.9.3 3.7.6 5.6.9 4.6.8 9.3 1.3 14 1.6C123.2 338.1 122.4 346.1 123.4 353.8zM190.9 286.5c-3.1-10.3-.8-22-.7-32.6 0-3.2-3.1-5-5.9-5.1-7.9-.1-15.8-1.3-23.6-2.7-2.9-.5-6.6-1.3-9.2.5-1.5 1-2.4 2.5-2.7 4.2-1 1-1.6 2.3-1.6 4 .1 8.8 2 17.3 3 26 .5 4.6.5 13.5 7.8 12.1 8.2 3.5 19.9 1.1 28.1 1C189.8 293.8 191.9 289.7 190.9 286.5zM179.1 283.1c-2 .1-4 .2-6 .3-2.9.1-9.5.7-11.7-1.1 0 0-.1-.1-.1-.1 0-.4 0-.8 0-1.1 0-2.9-.6-5.7-1-8.6-.8-5.1-1.6-10.3-1.9-15.4.4 0 .8 0 1.2.1 1.9.3 3.7.6 5.6.9 4.6.8 9.3 1.3 14 1.6C178.8 267.4 178.1 275.4 179.1 283.1zM133.2 286.5c-3.1-10.3-.8-22-.7-32.6 0-3.2-3.1-5-5.9-5.1-7.9-.1-15.8-1.3-23.6-2.7-2.9-.5-6.6-1.3-9.2.5-1.5 1-2.4 2.5-2.7 4.2-1 1-1.6 2.3-1.6 4 .1 8.8 2 17.3 3 26 .5 4.6.5 13.5 7.8 12.1 8.2 3.5 19.9 1.1 28.1 1C132.1 293.8 134.1 289.7 133.2 286.5zM121.3 283.1c-2 .1-4 .2-6 .3-2.9.1-9.5.7-11.7-1.1 0 0-.1-.1-.1-.1 0-.4 0-.8 0-1.1 0-2.9-.6-5.7-1-8.6-.8-5.1-1.6-10.3-1.9-15.4.4 0 .8 0 1.2.1 1.9.3 3.7.6 5.6.9 4.6.8 9.3 1.3 14 1.6C121 267.4 120.3 275.4 121.3 283.1zM250.6 286.5c-3.1-10.3-.8-22-.7-32.6 0-3.2-3.1-5-5.9-5.1-7.9-.1-15.8-1.3-23.6-2.7-2.9-.5-6.6-1.3-9.2.5-1.5 1-2.4 2.5-2.7 4.2-1 1-1.6 2.3-1.6 4 .1 8.8 2 17.3 3 26 .5 4.6.5 13.5 7.8 12.1 8.2 3.5 19.9 1.1 28.1 1C249.6 293.8 251.6 289.7 250.6 286.5zM238.8 283.1c-2 .1-4 .2-6 .3-2.9.1-9.5.7-11.7-1.1 0 0-.1-.1-.1-.1 0-.4 0-.8 0-1.1 0-2.9-.6-5.7-1-8.6-.8-5.1-1.6-10.3-1.9-15.4.4 0 .8 0 1.2.1 1.9.3 3.7.6 5.6.9 4.6.8 9.3 1.3 14 1.6C238.5 267.4 237.8 275.4 238.8 283.1zM311.2 288.3c-3.1-10.3-.8-22-.7-32.6 0-3.2-3.1-5-5.9-5.1-7.9-.1-15.8-1.3-23.6-2.7-2.9-.5-6.6-1.3-9.2.5-1.5 1-2.4 2.5-2.7 4.2-1 1-1.6 2.3-1.6 4 .1 8.8 2 17.3 3 26 .5 4.6.5 13.5 7.8 12.1 8.2 3.5 19.9 1.1 28.1 1C310.1 295.6 312.1 291.5 311.2 288.3zM299.3 284.9c-2 .1-4 .2-6 .3-2.9.1-9.5.7-11.7-1.1 0 0-.1-.1-.1-.1 0-.4 0-.8 0-1.1 0-2.9-.6-5.7-1-8.6-.8-5.1-1.6-10.3-1.9-15.4.4 0 .8 0 1.2.1 1.9.3 3.7.6 5.6.9 4.6.8 9.3 1.3 14 1.6C299 269.2 298.3 277.1 299.3 284.9zM376.1 286.5c-3.1-10.3-.8-22-.7-32.6 0-3.2-3.1-5-5.9-5.1-7.9-.1-15.8-1.3-23.6-2.7-2.9-.5-6.6-1.3-9.2.5-1.5 1-2.4 2.5-2.7 4.2-1 1-1.6 2.3-1.6 4 .1 8.8 2 17.3 3 26 .5 4.6.5 13.5 7.8 12.1 8.2 3.5 19.9 1.1 28.1 1C375.1 293.8 377.1 289.7 376.1 286.5zM364.3 283.1c-2 .1-4 .2-6 .3-2.9.1-9.5.7-11.7-1.1 0 0-.1-.1-.1-.1 0-.4 0-.8 0-1.1 0-2.9-.6-5.7-1-8.6-.8-5.1-1.6-10.3-1.9-15.4.4 0 .8 0 1.2.1 1.9.3 3.7.6 5.6.9 4.6.8 9.3 1.3 14 1.6C364 267.4 363.3 275.4 364.3 283.1zM436.1 286.5c-3.1-10.3-.8-22-.7-32.6 0-3.2-3.1-5-5.9-5.1-7.9-.1-15.8-1.3-23.6-2.7-2.9-.5-6.6-1.3-9.2.5-1.5 1-2.4 2.5-2.7 4.2-1 1-1.6 2.3-1.6 4 .1 8.8 2 17.3 3 26 .5 4.6.5 13.5 7.8 12.1 8.2 3.5 19.9 1.1 28.1 1C435.1 293.8 437.1 289.7 436.1 286.5zM424.3 283.1c-2 .1-4 .2-6 .3-2.9.1-9.5.7-11.7-1.1 0 0-.1-.1-.1-.1 0-.4 0-.8 0-1.1 0-2.9-.6-5.7-1-8.6-.8-5.1-1.6-10.3-1.9-15.4.4 0 .8 0 1.2.1 1.9.3 3.7.6 5.6.9 4.6.8 9.3 1.3 14 1.6C424 267.4 423.3 275.4 424.3 283.1zM193 216.5c-3.1-10.3-.8-22-.7-32.6 0-3.2-3.1-5-5.9-5.1-7.9-.1-15.8-1.3-23.6-2.7-2.9-.5-6.6-1.3-9.2.5-1.5 1-2.4 2.5-2.7 4.2-1 1-1.6 2.3-1.6 4 .1 8.8 2 17.3 3 26 .5 4.6.5 13.5 7.8 12.1 8.2 3.5 19.9 1.1 28.1 1C192 223.8 194 219.7 193 216.5zM181.2 213.1c-2 .1-4 .2-6 .3-2.9.1-9.5.7-11.7-1.1 0 0-.1-.1-.1-.1 0-.4 0-.8 0-1.1 0-2.9-.6-5.7-1-8.6-.8-5.1-1.6-10.3-1.9-15.4.4 0 .8 0 1.2.1 1.9.3 3.7.6 5.6.9 4.6.8 9.3 1.3 14 1.6C180.9 197.4 180.2 205.4 181.2 213.1zM135.3 216.5c-3.1-10.3-.8-22-.7-32.6 0-3.2-3.1-5-5.9-5.1-7.9-.1-15.8-1.3-23.6-2.7-2.9-.5-6.6-1.3-9.2.5-1.5 1-2.4 2.5-2.7 4.2-1 1-1.6 2.3-1.6 4 .1 8.8 2 17.3 3 26 .5 4.6.5 13.5 7.8 12.1 8.2 3.5 19.9 1.1 28.1 1C134.2 223.8 136.3 219.7 135.3 216.5zM123.4 213.1c-2 .1-4 .2-6 .3-2.9.1-9.5.7-11.7-1.1 0 0-.1-.1-.1-.1 0-.4 0-.8 0-1.1 0-2.9-.6-5.7-1-8.6-.8-5.1-1.6-10.3-1.9-15.4.4 0 .8 0 1.2.1 1.9.3 3.7.6 5.6.9 4.6.8 9.3 1.3 14 1.6C123.2 197.4 122.4 205.4 123.4 213.1zM252.7 216.5c-3.1-10.3-.8-22-.7-32.6 0-3.2-3.1-5-5.9-5.1-7.9-.1-15.8-1.3-23.6-2.7-2.9-.5-6.6-1.3-9.2.5-1.5 1-2.4 2.5-2.7 4.2-1 1-1.6 2.3-1.6 4 .1 8.8 2 17.3 3 26 .5 4.6.5 13.5 7.8 12.1 8.2 3.5 19.9 1.1 28.1 1C251.7 223.8 253.7 219.7 252.7 216.5zM240.9 213.1c-2 .1-4 .2-6 .3-2.9.1-9.5.7-11.7-1.1 0 0-.1-.1-.1-.1 0-.4 0-.8 0-1.1 0-2.9-.6-5.7-1-8.6-.8-5.1-1.6-10.3-1.9-15.4.4 0 .8 0 1.2.1 1.9.3 3.7.6 5.6.9 4.6.8 9.3 1.3 14 1.6C240.6 197.4 239.9 205.4 240.9 213.1zM313.3 218.3c-3.1-10.3-.8-22-.7-32.6 0-3.2-3.1-5-5.9-5.1-7.9-.1-15.8-1.3-23.6-2.7-2.9-.5-6.6-1.3-9.2.5-1.5 1-2.4 2.5-2.7 4.2-1 1-1.6 2.3-1.6 4 .1 8.8 2 17.3 3 26 .5 4.6.5 13.5 7.8 12.1 8.2 3.5 19.9 1.1 28.1 1C312.2 225.6 314.3 221.5 313.3 218.3zM301.4 214.9c-2 .1-4 .2-6 .3-2.9.1-9.5.7-11.7-1.1 0 0-.1-.1-.1-.1 0-.4 0-.8 0-1.1 0-2.9-.6-5.7-1-8.6-.8-5.1-1.6-10.3-1.9-15.4.4 0 .8 0 1.2.1 1.9.3 3.7.6 5.6.9 4.6.8 9.3 1.3 14 1.6C301.2 199.2 300.4 207.1 301.4 214.9zM378.2 216.5c-3.1-10.3-.8-22-.7-32.6 0-3.2-3.1-5-5.9-5.1-7.9-.1-15.8-1.3-23.6-2.7-2.9-.5-6.6-1.3-9.2.5-1.5 1-2.4 2.5-2.7 4.2-1 1-1.6 2.3-1.6 4 .1 8.8 2 17.3 3 26 .5 4.6.5 13.5 7.8 12.1 8.2 3.5 19.9 1.1 28.1 1C377.2 223.8 379.2 219.7 378.2 216.5zM366.4 213.1c-2 .1-4 .2-6 .3-2.9.1-9.5.7-11.7-1.1 0 0-.1-.1-.1-.1 0-.4 0-.8 0-1.1 0-2.9-.6-5.7-1-8.6-.8-5.1-1.6-10.3-1.9-15.4.4 0 .8 0 1.2.1 1.9.3 3.7.6 5.6.9 4.6.8 9.3 1.3 14 1.6C366.1 197.4 365.4 205.4 366.4 213.1zM438.2 216.5c-3.1-10.3-.8-22-.7-32.6 0-3.2-3.1-5-5.9-5.1-7.9-.1-15.8-1.3-23.6-2.7-2.9-.5-6.6-1.3-9.2.5-1.5 1-2.4 2.5-2.7 4.2-1 1-1.6 2.3-1.6 4 .1 8.8 2 17.3 3 26 .5 4.6.5 13.5 7.8 12.1 8.2 3.5 19.9 1.1 28.1 1C437.2 223.8 439.2 219.7 438.2 216.5zM426.4 213.1c-2 .1-4 .2-6 .3-2.9.1-9.5.7-11.7-1.1 0 0-.1-.1-.1-.1 0-.4 0-.8 0-1.1 0-2.9-.6-5.7-1-8.6-.8-5.1-1.6-10.3-1.9-15.4.4 0 .8 0 1.2.1 1.9.3 3.7.6 5.6.9 4.6.8 9.3 1.3 14 1.6C426.1 197.4 425.4 205.4 426.4 213.1z"/></svg>