<?xml version="1.0" encoding="UTF-8"?>
<svg xmlns="http://www.w3.org/2000/svg" xmlns:xlink="http://www.w3.org/1999/xlink" viewBox="0 0 192 192" width="192px" height="192px">
<g id="surface162643217">
<path style=" stroke:none;fill-rule:nonzero;fill:rgb(22.745098%,70.19608%,48.627451%);fill-opacity:1;" d="M 69.039062 98.699219 C 68.925781 97.5 68.4375 96.710938 67.5 96 C 64.648438 93.824219 55.875 91.875 54.300781 96.488281 C 58.085938 98.699219 61.648438 101.851562 66.335938 100.949219 C 67.460938 100.726562 69.1875 100.125 69.039062 98.699219 Z M 69.039062 98.699219 "/>
<path style=" stroke:none;fill-rule:nonzero;fill:rgb(22.745098%,70.19608%,48.627451%);fill-opacity:1;" d="M 105.523438 156.300781 C 105.449219 148.199219 105.039062 140.136719 104.585938 132.074219 C 103.648438 115.6875 102.414062 99.300781 102.976562 82.875 C 102.976562 82.726562 103.011719 82.613281 103.011719 82.460938 C 102.976562 82.425781 102.9375 82.425781 102.898438 82.386719 C 102.414062 82.085938 101.886719 81.824219 101.398438 81.601562 C 100.273438 81.074219 99.148438 80.585938 98.023438 80.175781 C 95.851562 79.351562 93.675781 78.523438 91.5 77.773438 C 83.101562 74.886719 74.585938 72.300781 66.300781 69.148438 C 58.085938 66.074219 50.289062 62.210938 42.335938 58.5 C 38.324219 56.625 34.3125 54.5625 30.113281 53.101562 C 28.3125 52.460938 26.25 51.488281 24.335938 51.261719 C 24.074219 51.226562 23.773438 51.1875 23.511719 51.113281 C 23.585938 54.488281 24.148438 57.789062 24.636719 61.125 C 25.164062 65.023438 25.199219 68.886719 25.425781 72.824219 C 25.914062 81.039062 26.25 89.25 26.664062 97.460938 C 27.113281 105.9375 27.601562 114.449219 27.601562 122.960938 C 27.601562 129.601562 26.699219 136.5 27.710938 143.136719 C 33.335938 143.851562 38.210938 147.261719 43.3125 149.585938 C 50.398438 152.851562 57.449219 156.148438 64.761719 158.886719 C 71.851562 161.511719 78.9375 164.25 85.875 167.25 C 92.289062 170.023438 98.664062 172.761719 104.398438 176.851562 C 104.851562 176.738281 105.335938 176.8125 105.863281 177.148438 C 105.9375 177.1875 106.011719 177.226562 106.050781 177.300781 C 105.898438 170.289062 105.601562 163.3125 105.523438 156.300781 Z M 85.648438 104.324219 C 84.863281 107.101562 83.25 109.6875 81.039062 111.5625 C 78.863281 113.4375 76.386719 114.375 73.761719 114.824219 C 78.675781 117.601562 82.761719 121.5 84.261719 127.273438 C 85.3125 131.289062 85.460938 135.414062 83.324219 139.085938 C 81.636719 141.9375 79.164062 144.335938 75.898438 145.273438 C 69.414062 147.1875 62.4375 144.898438 56.398438 142.460938 C 53.324219 141.226562 50.25 139.875 47.210938 138.601562 C 43.949219 137.210938 40.613281 135.636719 38.4375 132.75 C 37.800781 131.886719 37.988281 130.988281 38.511719 130.386719 C 38.476562 130.238281 38.476562 130.085938 38.476562 129.898438 L 38.476562 128.023438 C 38.476562 127.949219 38.476562 127.835938 38.476562 127.761719 C 38.550781 117.9375 39.039062 108.148438 38.773438 98.324219 C 38.664062 94.273438 38.210938 90.488281 37.5 86.511719 C 36.9375 83.363281 36.226562 79.726562 37.574219 76.6875 C 38.101562 75.488281 39.226562 75.335938 40.164062 75.75 C 42.523438 75.1875 45 75.1875 47.4375 75.375 C 53.585938 75.898438 59.699219 77.773438 65.324219 80.25 C 70.949219 82.726562 76.726562 85.949219 80.925781 90.488281 C 84.261719 94.164062 87.113281 99.1875 85.648438 104.324219 Z M 85.648438 104.324219 "/>
<path style=" stroke:none;fill-rule:nonzero;fill:rgb(83.92157%,89.803922%,89.803922%);fill-opacity:1;" d="M 65.0625 115.460938 C 63.039062 114.710938 63.898438 112.125 65.625 111.710938 C 65.925781 111.414062 66.375 111.1875 66.9375 111.1875 C 67.539062 111.1875 68.101562 111.1875 68.699219 111.1875 C 73.238281 111.113281 77.398438 110.289062 80.175781 106.351562 C 81.449219 104.585938 82.085938 102.488281 81.789062 100.351562 C 81.074219 95.363281 76.351562 91.5 72.488281 88.875 C 67.273438 85.3125 61.238281 82.6875 55.125 81.039062 C 50.738281 79.835938 45.261719 78.601562 40.875 79.800781 C 40.761719 80.773438 40.914062 81.824219 41.023438 82.6875 C 41.210938 84.335938 41.511719 85.988281 41.8125 87.636719 C 42.5625 91.539062 42.789062 95.398438 42.824219 99.375 C 43.011719 109.425781 42.523438 119.511719 42.488281 129.5625 C 42.488281 130.085938 42.335938 130.5 42.074219 130.835938 C 43.988281 133.085938 47.25 134.25 49.875 135.300781 C 52.386719 136.3125 54.863281 137.4375 57.375 138.488281 C 62.289062 140.476562 68.0625 142.726562 73.425781 141.675781 C 76.011719 141.1875 78.261719 139.613281 79.539062 137.289062 C 81.226562 134.175781 81.113281 130.914062 79.988281 127.613281 C 77.738281 120.898438 71.363281 117.75 65.0625 115.460938 Z M 51.261719 98.550781 C 50.476562 98.210938 49.875 97.425781 50.0625 96.335938 C 51.601562 87.335938 65.851562 88.199219 70.875 93.449219 C 74.289062 97.011719 73.761719 102.824219 68.699219 104.511719 C 66.113281 105.375 63.335938 105.414062 60.75 104.625 C 57.636719 103.6875 55.085938 101.625 52.3125 100.050781 C 51.675781 99.710938 51.335938 99.148438 51.261719 98.550781 Z M 70.914062 134.363281 C 69.261719 135.863281 67.164062 136.085938 65.023438 135.636719 C 60.898438 134.699219 56.625 132.488281 53.363281 129.824219 C 52.613281 129.1875 52.5 128.398438 52.761719 127.6875 C 52.726562 127.574219 52.6875 127.425781 52.648438 127.3125 C 51.898438 122.585938 57.710938 121.949219 61.011719 122.398438 C 64.949219 122.960938 69.976562 124.726562 71.699219 128.664062 C 72.488281 130.351562 72.414062 132.976562 70.914062 134.363281 Z M 70.914062 134.363281 "/>
<path style=" stroke:none;fill-rule:nonzero;fill:rgb(60.784316%,34.901962%,71.372551%);fill-opacity:1;" d="M 150.261719 44.664062 C 146.851562 43.238281 143.324219 41.960938 139.835938 40.726562 C 132.675781 38.210938 125.363281 36.039062 118.238281 33.449219 C 111.636719 31.085938 105.414062 27.976562 99.039062 25.125 C 93 22.425781 86.738281 20.175781 80.101562 19.800781 C 79.835938 19.800781 79.613281 19.726562 79.386719 19.648438 C 75.113281 20.398438 70.949219 22.949219 67.164062 24.789062 C 61.613281 27.449219 56.023438 29.960938 50.476562 32.585938 C 45 35.136719 39.5625 37.726562 34.351562 40.800781 C 32.136719 42.113281 29.960938 43.5 27.636719 44.625 C 26.398438 45.226562 24.824219 45.824219 23.738281 46.835938 C 24.261719 46.949219 24.789062 47.101562 25.273438 47.210938 C 29.8125 48.488281 34.164062 50.136719 38.398438 52.125 C 47.511719 56.363281 56.4375 61.050781 65.851562 64.613281 C 75.113281 68.136719 84.675781 70.800781 93.976562 74.289062 C 96.488281 75.226562 99.039062 76.085938 101.511719 77.136719 C 102.5625 77.585938 103.914062 78.074219 105.039062 78.789062 C 107.363281 77.324219 109.6875 75.863281 111.976562 74.363281 C 116.511719 71.4375 121.386719 69.074219 125.960938 66.226562 C 131.664062 62.664062 137.175781 58.726562 142.835938 55.050781 C 146.738281 52.5 151.273438 50.136719 154.648438 46.875 C 153.226562 46.011719 151.761719 45.261719 150.261719 44.664062 Z M 128.398438 52.6875 L 128.25 52.6875 C 127.875 53.511719 127.425781 54.300781 126.863281 55.011719 C 124.386719 58.199219 120.898438 60.675781 117.375 62.550781 C 113.625 64.539062 109.539062 66.074219 105.226562 66.1875 C 99.601562 66.335938 94.425781 64.574219 89.175781 62.773438 C 83.960938 60.976562 78.601562 59.398438 73.613281 57 C 69.488281 55.011719 64.914062 52.3125 62.664062 48.148438 C 60.375 43.914062 60.9375 39.5625 64.425781 36.148438 C 66.710938 33.898438 69.335938 31.875 72.039062 30.148438 C 74.289062 28.6875 77.738281 26.363281 80.585938 27.226562 C 80.664062 27.226562 80.738281 27.1875 80.8125 27.1875 C 81.601562 27.113281 82.199219 27.449219 82.539062 27.9375 C 82.648438 27.976562 82.761719 28.011719 82.875 28.085938 C 83.25 28.199219 83.585938 28.351562 83.960938 28.386719 C 85.273438 28.539062 86.925781 29.550781 88.050781 30.226562 C 90.9375 31.988281 90.9375 34.613281 88.949219 37.085938 C 87.976562 38.289062 83.886719 41.511719 84.710938 43.425781 C 85.3125 44.8125 87.148438 46.050781 88.425781 46.761719 C 89.960938 47.625 91.574219 48.375 93.300781 48.824219 C 96.75 49.726562 100.726562 50.210938 104.289062 49.574219 C 106.199219 49.238281 107.773438 48.375 109.199219 47.136719 C 110.363281 46.125 111.636719 44.773438 113.175781 44.363281 C 118.539062 42.898438 124.539062 46.539062 129.1875 48.863281 C 130.875 49.648438 130.5 52.6875 128.398438 52.6875 Z M 128.398438 52.6875 "/>
<path style=" stroke:none;fill-rule:nonzero;fill:rgb(99.607843%,74.901962%,6.27451%);fill-opacity:1;" d="M 118.761719 48.710938 C 117.488281 48.335938 116.023438 47.886719 114.636719 48.148438 C 113.289062 48.414062 112.050781 50.0625 111 50.886719 C 107.960938 53.289062 104.363281 53.851562 100.613281 53.8125 C 96.898438 53.773438 93.1875 53.289062 89.699219 51.898438 C 86.550781 50.664062 82.949219 48.601562 81.1875 45.601562 C 79.6875 43.011719 80.960938 39.824219 82.761719 37.726562 C 83.773438 36.601562 84.898438 35.550781 85.800781 34.3125 C 85.914062 34.164062 86.023438 34.011719 86.136719 33.863281 C 86.136719 33.863281 86.136719 33.863281 86.101562 33.824219 C 85.574219 33.449219 84.976562 33.1875 84.414062 32.960938 C 83.210938 32.4375 81 32.136719 79.761719 31.273438 C 77.925781 30.75 74.699219 33.261719 73.164062 34.351562 C 70.914062 35.925781 68.289062 37.648438 66.5625 39.824219 C 63.789062 43.351562 66.261719 47.101562 69.226562 49.539062 C 72.636719 52.351562 76.835938 54.113281 80.925781 55.613281 C 85.539062 57.300781 90.261719 58.988281 94.949219 60.414062 C 99.75 61.875 104.476562 62.625 109.425781 61.351562 C 112.648438 60.523438 115.726562 58.914062 118.460938 57.039062 C 120.5625 55.574219 123.414062 53.625 124.460938 51.074219 C 122.664062 50.136719 120.75 49.273438 118.761719 48.710938 Z M 118.761719 48.710938 "/>
<path style=" stroke:none;fill-rule:nonzero;fill:rgb(22.745098%,70.19608%,48.627451%);fill-opacity:1;" d="M 67.949219 130.238281 C 66.601562 127.949219 63.414062 126.9375 60.898438 126.523438 C 59.773438 126.335938 58.351562 126.1875 57.335938 126.488281 C 57 126.601562 56.851562 126.636719 56.773438 126.675781 C 56.773438 126.75 56.773438 126.824219 56.8125 126.976562 C 56.8125 127.085938 56.851562 127.164062 56.851562 127.273438 C 58.988281 128.851562 61.5 130.125 63.9375 131.023438 C 65.175781 131.476562 69.300781 132.523438 67.949219 130.238281 Z M 67.949219 130.238281 "/>
<path style=" stroke:none;fill-rule:nonzero;fill:rgb(96.470588%,52.156866%,12.156863%);fill-opacity:1;" d="M 158.210938 127.050781 C 158.175781 123.226562 157.386719 119.476562 157.125 115.648438 C 156.5625 107.8125 156.636719 99.976562 156.300781 92.101562 C 155.925781 83.886719 155.0625 75.710938 154.800781 67.5 C 154.6875 63.824219 154.460938 60.148438 154.351562 56.476562 C 154.3125 55.164062 154.3125 53.773438 154.425781 52.386719 C 151.425781 54.636719 148.011719 56.550781 144.976562 58.539062 C 139.3125 62.210938 133.835938 66.1875 128.101562 69.710938 C 123.523438 72.5625 118.648438 74.925781 114.113281 77.851562 C 111.75 79.351562 109.425781 80.851562 107.0625 82.3125 C 107.0625 82.425781 107.101562 82.539062 107.0625 82.648438 C 106.539062 99.074219 107.738281 115.460938 108.675781 131.851562 C 109.164062 140.175781 109.574219 148.5 109.648438 156.824219 C 109.6875 162.789062 109.949219 168.75 110.101562 174.710938 C 112.425781 172.085938 115.351562 169.875 118.011719 167.625 C 122.625 163.726562 126.863281 159.414062 131.625 155.625 C 136.5 151.726562 141.148438 147.449219 146.324219 143.960938 C 148.613281 142.386719 151.011719 141 153.335938 139.460938 C 155.101562 138.261719 157.011719 137.023438 158.289062 135.261719 C 157.949219 132.601562 158.25 129.824219 158.210938 127.050781 Z M 152.625 127.351562 C 150.789062 128.851562 149.25 130.761719 147.789062 132.636719 C 147.113281 133.460938 146.25 133.539062 145.5 133.164062 C 145.011719 133.386719 144.449219 133.425781 143.8125 133.125 C 142.085938 132.261719 141.261719 128.960938 140.511719 127.386719 C 139.5 125.210938 138.5625 122.773438 137.175781 120.75 C 136.273438 121.125 135.375 121.539062 134.4375 121.800781 C 133.3125 127.648438 134.738281 133.726562 133.5 139.574219 C 133.761719 140.210938 133.726562 140.960938 133.125 141.636719 C 130.199219 144.9375 125.25 147.5625 121.011719 148.613281 C 118.648438 149.175781 117.300781 145.914062 119.136719 144.9375 C 119.8125 135.226562 118.425781 125.585938 118.648438 115.875 C 118.875 106.011719 120.863281 96.300781 120.9375 86.4375 C 120.9375 85.425781 121.574219 84.75 122.324219 84.449219 C 122.398438 84.335938 122.476562 84.261719 122.585938 84.148438 C 124.648438 82.238281 127.164062 81.113281 129.226562 79.273438 C 130.648438 78 132.113281 76.648438 133.6875 75.5625 C 134.101562 74.023438 136.648438 73.5 137.585938 75.1875 C 138.039062 75.636719 138.300781 76.238281 138.261719 76.835938 C 141.226562 84.710938 141.75 93.300781 145.050781 101.101562 C 148.164062 108.523438 151.726562 116.023438 153.1875 123.976562 C 153.226562 124.164062 153.226562 124.3125 153.226562 124.5 C 153.863281 125.476562 153.488281 126.636719 152.625 127.351562 Z M 152.625 127.351562 "/>
<path style=" stroke:none;fill-rule:nonzero;fill:rgb(11.764706%,26.274511%,51.764709%);fill-opacity:1;" d="M 149.0625 124.273438 C 147.636719 116.511719 143.925781 109.164062 140.925781 101.925781 C 137.960938 94.835938 137.324219 87.039062 134.886719 79.761719 C 133.6875 80.699219 132.5625 81.75 131.398438 82.761719 C 129.601562 84.335938 127.386719 85.238281 125.664062 86.851562 C 125.476562 87.039062 125.25 87.1875 125.023438 87.261719 C 124.835938 96.9375 122.8125 106.5 122.773438 116.210938 C 122.738281 125.324219 123.75 134.363281 123.335938 143.4375 C 125.511719 142.5 127.648438 141.226562 129.261719 139.726562 C 130.988281 133.125 128.925781 126.226562 130.726562 119.625 C 130.988281 118.726562 131.625 118.050781 132.601562 117.976562 C 134.398438 117.824219 135.976562 116.664062 137.699219 116.210938 C 139.199219 115.835938 140.324219 117.039062 140.4375 118.199219 C 141.789062 120.074219 142.761719 122.398438 143.738281 124.460938 C 144.335938 125.773438 144.9375 127.085938 145.574219 128.398438 C 145.613281 128.476562 145.648438 128.585938 145.726562 128.699219 C 146.851562 127.351562 148.011719 126.074219 149.289062 124.875 C 149.175781 124.6875 149.101562 124.5 149.0625 124.273438 Z M 130.425781 107.175781 C 129.488281 104.664062 128.585938 100.875 130.164062 98.4375 C 130.761719 97.5 131.851562 96.976562 132.9375 97.5 C 133.875 97.949219 134.476562 99.335938 133.875 100.273438 C 132.898438 101.773438 133.761719 104.289062 134.363281 105.789062 C 135.261719 108.300781 131.363281 109.648438 130.425781 107.175781 Z M 130.425781 107.175781 "/>
<path style=" stroke:none;fill-rule:nonzero;fill:rgb(0.392157%,0.392157%,0.392157%);fill-opacity:1;" d="M 162.261719 134.25 C 161.960938 131.625 162.335938 128.886719 162.335938 126.261719 C 162.300781 122.664062 161.511719 119.101562 161.25 115.539062 C 160.648438 107.699219 160.761719 99.863281 160.425781 91.988281 C 160.085938 84.261719 159.300781 76.574219 158.960938 68.851562 C 158.8125 65.289062 158.773438 61.761719 158.550781 58.238281 C 158.398438 55.574219 158.289062 52.761719 158.925781 50.175781 C 158.960938 50.136719 159 50.101562 159.039062 50.0625 C 158.8125 48.675781 158.664062 47.289062 158.550781 45.898438 C 158.4375 45.335938 158.324219 44.8125 158.210938 44.25 C 157.351562 43.835938 156.5625 43.238281 155.738281 42.75 C 154.238281 41.886719 152.664062 41.175781 151.050781 40.539062 C 147.675781 39.1875 144.226562 37.914062 140.8125 36.710938 C 133.648438 34.164062 126.375 31.988281 119.210938 29.4375 C 106.800781 25.011719 95.476562 17.398438 82.238281 15.898438 C 81.898438 15.523438 81.375 15.300781 80.738281 15.375 C 75.5625 15.75 70.988281 18.601562 66.335938 20.664062 C 60.300781 23.363281 54.335938 26.289062 48.335938 29.101562 C 42.449219 31.835938 36.601562 34.6875 31.011719 38.023438 C 28.875 39.300781 26.773438 40.5 24.523438 41.625 C 22.5 42.636719 20.511719 43.835938 19.351562 45.863281 C 18.898438 46.648438 19.050781 47.4375 19.460938 48 C 19.273438 48.449219 19.199219 48.976562 19.351562 49.460938 C 19.238281 53.210938 19.835938 56.925781 20.363281 60.601562 C 20.960938 64.726562 21.039062 68.8125 21.261719 72.976562 C 21.75 81.449219 22.125 89.886719 22.539062 98.363281 C 22.988281 106.835938 23.4375 115.351562 23.4375 123.863281 C 23.4375 130.800781 22.613281 137.8125 23.773438 144.710938 C 23.699219 145.199219 23.8125 145.726562 24.039062 146.175781 C 24.074219 146.289062 24.074219 146.363281 24.113281 146.476562 C 24.488281 148.238281 26.398438 148.273438 27.449219 147.300781 C 29.886719 147.636719 32.101562 148.613281 34.3125 149.773438 C 37.273438 151.3125 40.199219 152.773438 43.238281 154.164062 C 50.023438 157.273438 56.738281 160.351562 63.75 162.976562 C 70.726562 165.5625 77.664062 168.261719 84.488281 171.1875 C 90.824219 173.925781 97.085938 176.664062 102.675781 180.75 C 103.199219 181.164062 103.761719 181.199219 104.210938 181.050781 C 105.449219 181.800781 106.726562 182.175781 108.1875 182.324219 C 108.300781 182.324219 108.449219 182.324219 108.5625 182.324219 C 109.351562 182.511719 110.210938 182.289062 110.699219 181.3125 C 112.949219 176.625 117.5625 173.585938 121.425781 170.289062 C 126.113281 166.3125 130.425781 161.925781 135.300781 158.101562 C 140.25 154.199219 144.898438 149.925781 150.1875 146.511719 C 153.789062 144.1875 158.210938 142.011719 161.023438 138.601562 C 162 138.335938 162.824219 137.4375 162.601562 136.199219 C 162.863281 135.414062 162.675781 134.738281 162.261719 134.25 Z M 27.636719 44.625 C 29.960938 43.5 32.136719 42.113281 34.351562 40.800781 C 39.5625 37.726562 45 35.136719 50.476562 32.585938 C 56.023438 30 61.613281 27.449219 67.164062 24.789062 C 70.949219 22.949219 75.148438 20.398438 79.386719 19.648438 C 79.613281 19.726562 79.835938 19.800781 80.101562 19.800781 C 86.738281 20.175781 93 22.425781 99.039062 25.125 C 105.414062 27.976562 111.636719 31.050781 118.238281 33.449219 C 125.398438 36.039062 132.675781 38.175781 139.835938 40.726562 C 143.324219 41.960938 146.851562 43.238281 150.261719 44.664062 C 151.761719 45.300781 153.261719 46.050781 154.648438 46.914062 C 151.273438 50.175781 146.738281 52.539062 142.835938 55.085938 C 137.175781 58.761719 131.699219 62.699219 125.960938 66.261719 C 121.386719 69.113281 116.511719 71.476562 111.976562 74.398438 C 109.648438 75.898438 107.363281 77.363281 105.039062 78.824219 C 103.914062 78.113281 102.5625 77.625 101.511719 77.175781 C 99.039062 76.125 96.488281 75.261719 93.976562 74.324219 C 84.710938 70.835938 75.148438 68.175781 65.851562 64.648438 C 56.4375 61.085938 47.511719 56.398438 38.398438 52.164062 C 34.125 50.175781 29.773438 48.523438 25.273438 47.25 C 24.789062 47.101562 24.261719 46.988281 23.738281 46.875 C 24.824219 45.863281 26.398438 45.226562 27.636719 44.625 Z M 105.863281 177.113281 C 105.335938 176.773438 104.851562 176.699219 104.398438 176.8125 C 98.699219 172.726562 92.324219 169.988281 85.875 167.210938 C 78.9375 164.210938 71.851562 161.511719 64.761719 158.851562 C 57.449219 156.113281 50.398438 152.8125 43.3125 149.550781 C 38.210938 147.226562 33.335938 143.8125 27.710938 143.101562 C 26.699219 136.460938 27.601562 129.601562 27.601562 122.925781 C 27.601562 114.414062 27.113281 105.9375 26.664062 97.425781 C 26.25 89.210938 25.914062 81 25.425781 72.789062 C 25.199219 68.886719 25.164062 64.988281 24.636719 61.085938 C 24.1875 57.75 23.625 54.449219 23.511719 51.074219 C 23.773438 51.148438 24.039062 51.1875 24.335938 51.226562 C 26.25 51.449219 28.3125 52.425781 30.113281 53.0625 C 34.3125 54.5625 38.289062 56.585938 42.335938 58.460938 C 50.25 62.210938 58.085938 66.039062 66.300781 69.113281 C 74.625 72.226562 83.101562 74.851562 91.5 77.738281 C 93.675781 78.488281 95.886719 79.3125 98.023438 80.136719 C 99.148438 80.585938 100.3125 81.039062 101.398438 81.5625 C 101.925781 81.789062 102.414062 82.085938 102.898438 82.351562 C 102.9375 82.386719 102.976562 82.386719 103.011719 82.425781 C 102.976562 82.539062 102.976562 82.6875 102.976562 82.835938 C 102.449219 99.261719 103.648438 115.648438 104.585938 132.039062 C 105.074219 140.101562 105.449219 148.199219 105.523438 156.261719 C 105.601562 163.238281 105.898438 170.210938 106.050781 177.1875 C 105.976562 177.1875 105.898438 177.148438 105.863281 177.113281 Z M 153.335938 139.539062 C 151.050781 141.074219 148.613281 142.5 146.324219 144.039062 C 141.148438 147.523438 136.5 151.800781 131.625 155.699219 C 126.898438 159.488281 122.664062 163.800781 118.011719 167.699219 C 115.3125 169.988281 112.425781 172.164062 110.101562 174.789062 C 109.949219 168.824219 109.6875 162.863281 109.648438 156.898438 C 109.613281 148.574219 109.164062 140.25 108.675781 131.925781 C 107.738281 115.539062 106.5 99.148438 107.0625 82.726562 C 107.0625 82.613281 107.0625 82.5 107.0625 82.386719 C 109.425781 80.886719 111.789062 79.425781 114.113281 77.925781 C 118.648438 75 123.523438 72.636719 128.101562 69.789062 C 133.835938 66.226562 139.3125 62.289062 144.976562 58.613281 C 148.050781 56.625 151.425781 54.710938 154.425781 52.460938 C 154.3125 53.851562 154.3125 55.199219 154.351562 56.550781 C 154.460938 60.226562 154.648438 63.898438 154.800781 67.574219 C 155.0625 75.789062 155.925781 83.960938 156.300781 92.175781 C 156.636719 100.011719 156.5625 107.886719 157.125 115.726562 C 157.386719 119.550781 158.175781 123.261719 158.210938 127.125 C 158.25 129.898438 157.914062 132.675781 158.289062 135.414062 C 157.011719 137.0625 155.101562 138.335938 153.335938 139.539062 Z M 153.335938 139.539062 "/>
<path style=" stroke:none;fill-rule:nonzero;fill:rgb(0.392157%,0.392157%,0.392157%);fill-opacity:1;" d="M 85.648438 104.324219 C 87.148438 99.148438 84.261719 94.164062 80.886719 90.488281 C 76.648438 85.949219 70.914062 82.726562 65.289062 80.25 C 59.664062 77.773438 53.550781 75.898438 47.398438 75.375 C 44.960938 75.1875 42.523438 75.148438 40.125 75.75 C 39.226562 75.335938 38.0625 75.523438 37.539062 76.6875 C 36.1875 79.726562 36.9375 83.363281 37.460938 86.511719 C 38.175781 90.488281 38.625 94.273438 38.738281 98.324219 C 39 108.148438 38.550781 117.9375 38.4375 127.761719 C 38.4375 127.835938 38.4375 127.949219 38.4375 128.023438 L 38.4375 129.898438 C 38.4375 130.085938 38.476562 130.238281 38.476562 130.386719 C 37.914062 130.988281 37.761719 131.886719 38.398438 132.75 C 40.574219 135.636719 43.914062 137.25 47.175781 138.601562 C 50.25 139.875 53.289062 141.226562 56.363281 142.460938 C 62.398438 144.898438 69.375 147.1875 75.863281 145.273438 C 79.125 144.335938 81.601562 141.9375 83.289062 139.085938 C 85.460938 135.414062 85.273438 131.289062 84.226562 127.273438 C 82.726562 121.460938 78.636719 117.5625 73.726562 114.824219 C 76.351562 114.335938 78.824219 113.398438 81 111.5625 C 83.210938 109.6875 84.824219 107.101562 85.648438 104.324219 Z M 68.699219 111.1875 C 68.101562 111.1875 67.539062 111.1875 66.9375 111.1875 C 66.335938 111.1875 65.925781 111.375 65.625 111.710938 C 63.898438 112.164062 63.039062 114.75 65.0625 115.460938 C 71.363281 117.75 77.738281 120.898438 80.023438 127.613281 C 81.148438 130.914062 81.261719 134.175781 79.574219 137.289062 C 78.300781 139.613281 76.050781 141.1875 73.460938 141.675781 C 68.0625 142.726562 62.289062 140.476562 57.414062 138.488281 C 54.898438 137.476562 52.425781 136.3125 49.914062 135.300781 C 47.25 134.210938 44.023438 133.085938 42.113281 130.835938 C 42.375 130.5 42.523438 130.085938 42.523438 129.5625 C 42.523438 119.511719 43.011719 109.425781 42.863281 99.375 C 42.789062 95.398438 42.5625 91.539062 41.851562 87.636719 C 41.550781 85.988281 41.25 84.335938 41.0625 82.6875 C 40.949219 81.789062 40.835938 80.773438 40.914062 79.800781 C 45.300781 78.601562 50.773438 79.835938 55.164062 81.039062 C 61.238281 82.6875 67.273438 85.3125 72.523438 88.875 C 76.425781 91.539062 81.113281 95.363281 81.824219 100.351562 C 82.125 102.488281 81.449219 104.585938 80.210938 106.351562 C 77.398438 110.289062 73.273438 111.113281 68.699219 111.1875 Z M 68.699219 111.1875 "/>
<path style=" stroke:none;fill-rule:nonzero;fill:rgb(0.392157%,0.392157%,0.392157%);fill-opacity:1;" d="M 71.699219 128.625 C 69.976562 124.726562 64.949219 122.925781 61.011719 122.363281 C 57.710938 121.914062 51.898438 122.550781 52.648438 127.273438 C 52.6875 127.425781 52.6875 127.539062 52.761719 127.648438 C 52.5 128.363281 52.613281 129.148438 53.363281 129.789062 C 56.625 132.449219 60.898438 134.664062 65.023438 135.601562 C 67.164062 136.085938 69.261719 135.863281 70.914062 134.324219 C 72.414062 132.976562 72.488281 130.351562 71.699219 128.625 Z M 63.898438 130.988281 C 61.460938 130.085938 58.949219 128.8125 56.8125 127.238281 C 56.8125 127.164062 56.8125 127.050781 56.773438 126.9375 C 56.738281 126.824219 56.738281 126.710938 56.738281 126.636719 C 56.8125 126.601562 56.960938 126.523438 57.300781 126.449219 C 58.3125 126.148438 59.738281 126.300781 60.863281 126.488281 C 63.335938 126.898438 66.523438 127.914062 67.914062 130.199219 C 69.300781 132.523438 65.175781 131.476562 63.898438 130.988281 Z M 70.914062 93.488281 C 65.886719 88.238281 51.636719 87.335938 50.101562 96.375 C 49.914062 97.460938 50.511719 98.25 51.300781 98.585938 C 51.375 99.1875 51.675781 99.75 52.351562 100.125 C 55.164062 101.738281 57.675781 103.761719 60.789062 104.699219 C 63.375 105.488281 66.148438 105.414062 68.738281 104.585938 C 73.761719 102.863281 74.289062 97.050781 70.914062 93.488281 Z M 66.335938 100.949219 C 61.648438 101.851562 58.085938 98.699219 54.300781 96.488281 C 55.875 91.835938 64.648438 93.789062 67.5 96 C 68.4375 96.710938 68.925781 97.5 69.039062 98.699219 C 69.1875 100.125 67.460938 100.726562 66.335938 100.949219 Z M 153.1875 124.5 C 153.1875 124.351562 153.1875 124.164062 153.148438 123.976562 C 151.6875 116.023438 148.125 108.523438 145.011719 101.101562 C 141.710938 93.300781 141.148438 84.75 138.226562 76.835938 C 138.261719 76.273438 138 75.636719 137.550781 75.1875 C 136.613281 73.460938 134.0625 74.023438 133.648438 75.5625 C 132.039062 76.648438 130.613281 78 129.1875 79.273438 C 127.125 81.113281 124.574219 82.238281 122.550781 84.148438 C 122.4375 84.226562 122.363281 84.335938 122.289062 84.449219 C 121.539062 84.75 120.898438 85.425781 120.898438 86.4375 C 120.863281 96.300781 118.835938 106.011719 118.613281 115.875 C 118.386719 125.585938 119.773438 135.226562 119.101562 144.9375 C 117.261719 145.949219 118.613281 149.210938 120.976562 148.613281 C 125.210938 147.5625 130.164062 144.976562 133.085938 141.636719 C 133.6875 140.960938 133.726562 140.210938 133.460938 139.574219 C 134.699219 133.726562 133.238281 127.648438 134.398438 121.800781 C 135.335938 121.539062 136.199219 121.125 137.136719 120.75 C 138.523438 122.773438 139.460938 125.175781 140.476562 127.386719 C 141.226562 129 142.050781 132.300781 143.773438 133.125 C 144.414062 133.425781 144.976562 133.425781 145.460938 133.164062 C 146.175781 133.5 147.074219 133.460938 147.75 132.636719 C 149.25 130.800781 150.75 128.886719 152.585938 127.351562 C 153.488281 126.636719 153.863281 125.476562 153.1875 124.5 Z M 145.648438 128.699219 C 145.613281 128.585938 145.539062 128.476562 145.5 128.398438 C 144.898438 127.085938 144.300781 125.773438 143.664062 124.460938 C 142.6875 122.363281 141.75 120.074219 140.363281 118.199219 C 140.25 117 139.164062 115.800781 137.625 116.210938 C 135.898438 116.664062 134.324219 117.824219 132.523438 117.976562 C 131.550781 118.050781 130.914062 118.761719 130.648438 119.625 C 128.851562 126.226562 130.914062 133.164062 129.1875 139.726562 C 127.574219 141.261719 125.4375 142.539062 123.261719 143.4375 C 123.636719 134.363281 122.664062 125.324219 122.699219 116.210938 C 122.738281 106.539062 124.761719 96.976562 124.949219 87.261719 C 125.175781 87.148438 125.398438 87.039062 125.585938 86.851562 C 127.3125 85.238281 129.5625 84.335938 131.324219 82.761719 C 132.449219 81.75 133.574219 80.699219 134.8125 79.761719 C 137.210938 87.039062 137.886719 94.800781 140.851562 101.925781 C 143.851562 109.164062 147.5625 116.511719 148.988281 124.273438 C 149.023438 124.5 149.101562 124.6875 149.175781 124.835938 C 147.9375 126.039062 146.773438 127.351562 145.648438 128.699219 Z M 145.648438 128.699219 "/>
<path style=" stroke:none;fill-rule:nonzero;fill:rgb(0.392157%,0.392157%,0.392157%);fill-opacity:1;" d="M 134.289062 105.824219 C 133.726562 104.324219 132.863281 101.773438 133.800781 100.3125 C 134.398438 99.375 133.800781 97.988281 132.863281 97.539062 C 131.773438 97.011719 130.726562 97.539062 130.085938 98.476562 C 128.511719 100.914062 129.414062 104.699219 130.351562 107.210938 C 131.363281 109.648438 135.261719 108.300781 134.289062 105.824219 Z M 129.148438 48.789062 C 124.539062 46.460938 118.5 42.824219 113.136719 44.289062 C 111.601562 44.699219 110.324219 46.050781 109.164062 47.0625 C 107.738281 48.300781 106.125 49.164062 104.25 49.5 C 100.6875 50.136719 96.75 49.648438 93.261719 48.75 C 91.539062 48.300781 89.925781 47.585938 88.386719 46.6875 C 87.113281 45.976562 85.273438 44.738281 84.675781 43.351562 C 83.851562 41.476562 87.9375 38.210938 88.914062 37.011719 C 90.9375 34.539062 90.9375 31.914062 88.011719 30.148438 C 86.886719 29.476562 85.273438 28.5 83.925781 28.3125 C 83.550781 28.273438 83.175781 28.125 82.835938 28.011719 C 82.726562 27.976562 82.613281 27.9375 82.5 27.863281 C 82.125 27.375 81.5625 27.074219 80.773438 27.113281 C 80.699219 27.113281 80.625 27.113281 80.550781 27.148438 C 77.699219 26.289062 74.25 28.648438 72 30.074219 C 69.300781 31.800781 66.675781 33.824219 64.386719 36.074219 C 60.898438 39.488281 60.335938 43.835938 62.625 48.074219 C 64.875 52.238281 69.449219 54.9375 73.574219 56.925781 C 78.5625 59.324219 83.925781 60.863281 89.136719 62.699219 C 94.386719 64.5 99.5625 66.261719 105.1875 66.113281 C 109.5 66 113.585938 64.460938 117.335938 62.476562 C 120.863281 60.601562 124.386719 58.125 126.824219 54.9375 C 127.386719 54.1875 127.835938 53.4375 128.210938 52.613281 L 128.324219 52.613281 C 130.5 52.6875 130.875 49.648438 129.148438 48.789062 Z M 118.539062 57.039062 C 115.800781 58.914062 112.726562 60.523438 109.5 61.351562 C 104.550781 62.625 99.863281 61.875 95.023438 60.414062 C 90.300781 58.988281 85.613281 57.300781 81 55.613281 C 76.914062 54.113281 72.675781 52.351562 69.300781 49.539062 C 66.335938 47.101562 63.863281 43.351562 66.636719 39.824219 C 68.363281 37.648438 70.988281 35.925781 73.238281 34.351562 C 74.773438 33.300781 78 30.789062 79.835938 31.273438 C 81.113281 32.136719 83.324219 32.4375 84.488281 32.960938 C 85.050781 33.226562 85.648438 33.488281 86.175781 33.824219 C 86.175781 33.824219 86.175781 33.824219 86.210938 33.863281 C 86.101562 34.011719 85.988281 34.164062 85.875 34.3125 C 84.9375 35.511719 83.8125 36.5625 82.835938 37.726562 C 81.039062 39.824219 79.726562 43.011719 81.261719 45.601562 C 83.023438 48.601562 86.625 50.664062 89.773438 51.898438 C 93.261719 53.289062 96.976562 53.773438 100.6875 53.8125 C 104.476562 53.851562 108.039062 53.289062 111.074219 50.886719 C 112.125 50.0625 113.363281 48.414062 114.710938 48.148438 C 116.0625 47.886719 117.523438 48.335938 118.835938 48.710938 C 120.824219 49.273438 122.738281 50.136719 124.613281 51.074219 C 123.488281 53.585938 120.675781 55.574219 118.539062 57.039062 Z M 118.539062 57.039062 "/>
</g>
</svg>
