<svg xmlns="http://www.w3.org/2000/svg"  viewBox="0 0 48 48" width="192px" height="192px"><path fill="#ef4754" d="M41.9,16.62l-0.08,0.01c-6.88,0.42-13.6,0.83-20.48,1.24c-4.97,0.3-9.95,0.6-14.92,0.29H6.4 c0.03-0.71,0.06-1.43,0.09-2.14c0.04-0.96,0.08-2.67,0.12-3.63c0.02-0.71,0.44-1.5,1.13-1.81c0.68-0.32,1.44-0.41,2.19-0.49 c0.83-0.1,1.66-0.19,2.49-0.28c0.85-0.09,1.7-0.17,2.54-0.24c2.69-0.25,5.37-0.42,8.06-0.51c0.86-0.03,1.71-0.05,2.57-0.06 c2.47-0.03,4.95,0.02,7.42,0.16c0.85,0.05,1.71,0.11,2.56,0.18c1.49,0.13,2.98,0.29,4.47,0.49c0.25,0.03,0.52,0.08,0.72,0.24 c0.26,0.23,0.33,0.6,0.39,0.94C41.47,12.92,41.71,14.78,41.9,16.62z"/><path fill="#d6e5e5" d="M42.51,32.03c0.02,1.47-0.11,3.35-0.43,5.09c-0.14,0.7-0.28,1.92-0.76,2.43 c-0.51,0.54-1.48,0.49-2.19,0.62c-0.61,0.11-2.9-0.01-3.52,0.05c-2.59,0.23-4.47-0.05-7.69,0.06c-2.59,0.1-5.62,0.02-8.23,0.22 c-2.49,0.19-5.08,0.17-7.69,0.28c-1.56,0.06-3.18,0.09-4.61-0.58C7,40.02,6.62,39.78,6.38,39.42c-0.38-0.57-0.36-1.31-0.33-2 c0.17-4.06-0.13-8.12,0.04-12.19c0.1-2.36,0.2-4.71,0.31-7.07h0.02c4.97,0.31,9.95,0.01,14.92-0.29c6.88-0.41,13.6-0.82,20.48-1.24 l0.08-0.01C42.4,21.72,42.44,26.63,42.51,32.03z"/><path fill="#f58420" d="M29.53,30.71c0.16-0.06,0.2-0.14,0.3-0.2c1.05-0.68,1.9-1.68,2.82-2.54 c-0.37-0.3-0.78-0.56-1.21-0.75c-0.23-0.1-0.47-0.19-0.71-0.27c-0.28-0.1-0.85-0.34-1.13-0.44c0.01-0.29,0.13-1.3,0.33-1.83 c0.34-0.92,1.13-2.46,0.92-2.79c-0.14-0.23-0.81,0.03-1.19,0.2c-1.12,0.49-2.12,0.74-3.24,1.23c-0.04-0.19-0.14-0.33-0.22-0.53 c-0.41-1.03-1.22-1.64-1.86-2.55c-0.3,0.13-0.45,0.45-0.59,0.74c-0.34,0.73-0.9,1.75-1.35,2.41c-1.22-0.45-2.91-1.18-3.91-2.03 c-0.12,0.9-0.03,1.83,0.27,2.69c0.28,0.77,0.33,0.86,0.37,1.67c-0.99,0.75-2.64,1.51-3.65,2.22c0.51,0.31,0.91,0.76,1.33,1.18 c0.57,0.58,1.3,0.9,1.96,1.38c-0.25,0.59-0.59,1.71-0.69,2.34c-0.13,0.76-0.25,1.52-0.38,2.27c1.31-0.49,2.48-0.59,3.81-1.04 c0.59,0.9,1.36,1.44,2.02,2.29c0.17,0.22,0.34,0.44,0.57,0.59c0.24,0.17,0.52,0.25,0.8,0.33c0.73-1.24,1.28-1.97,1.74-3.34 c0.5,0.26,0.95,0.22,1.48,0.4c1.02,0.34,2.04,0.69,3.06,1.04c-0.03-0.89-0.62-1.64-1.03-2.43C29.81,32.29,29.63,31.45,29.53,30.71z M27.05,31.61c-0.53,0.46-1.23,0.65-1.91,0.83c-0.6,0.15-1.22,0.31-1.83,0.21c-0.71-0.11-1.32-0.55-1.83-1.06 c-0.91-0.9-1.58-2.17-1.37-3.43c0.12-0.78,0.57-1.48,1.16-2c0.58-0.52,1.3-0.87,2.05-1.12c0.83-0.28,1.77-0.42,2.57-0.06 c0.58,0.28,0.67,0.41,0.93,0.7s0.41,0.66,0.55,1.02c0.3,0.82,0.58,1.67,0.6,2.54C27.99,30.12,27.71,31.03,27.05,31.61z"/><path fill="#febf10" d="M27.97,29.24c0.02,0.88-0.26,1.79-0.92,2.37c-0.53,0.46-1.23,0.65-1.91,0.83 c-0.6,0.15-1.22,0.31-1.83,0.21c-0.71-0.11-1.32-0.55-1.83-1.06c-0.91-0.9-1.58-2.17-1.37-3.43c0.12-0.78,0.57-1.48,1.16-2 c0.58-0.52,1.3-0.87,2.05-1.12c0.83-0.28,1.77-0.42,2.57-0.06c0.58,0.28,0.67,0.41,0.93,0.7s0.41,0.66,0.55,1.02 C27.67,27.52,27.95,28.37,27.97,29.24z"/><path fill="#73a1b2" d="M15,8.42c0,0.38-0.01,0.76-0.04,1.15c-0.02,0.63-0.07,1.26-0.11,1.88c-0.02,0.35-0.03,0.7-0.04,1.04 c-0.01,0.33-0.16,0.73-0.46,0.86c-0.31,0.14-0.63,0.12-0.95,0.12c-0.36,0-0.67-0.27-0.77-0.62c-0.11-0.39-0.16-0.82-0.19-1.27 c-0.04-0.57-0.03-1.18-0.02-1.77c0.01-0.7,0.03-1.38-0.02-1.97c-0.03-0.53,0.3-0.82,0.78-0.87C15.48,6.72,15.01,7.47,15,8.42z"/><path fill="#73a1b2" d="M25.68,6.87C25.65,7.43,25.63,8.2,25.59,9c-0.02,0.73-0.06,1.48-0.12,2.12 c-0.09,1.01-0.24,1.75-0.52,1.74c-0.41-0.01-0.86,0.04-1.15,0c-0.31-0.05-0.37-0.37-0.42-0.68c-0.06-0.35-0.11-0.7-0.16-1.06 c-0.11-0.68-0.19-1.38-0.2-2.06c-0.04-0.8,0-1.59,0.19-2.32c0.1-0.35,0.44-0.36,1.14-0.37C25.07,6.36,25.72,6.33,25.68,6.87z"/><path fill="#73a1b2" d="M35.52,10.95c-0.04,0.41-0.12,0.8-0.24,1.18c-0.07,0.23-0.29,0.39-0.53,0.42 c-0.85,0.1-1.48,0.04-1.59-1c-0.02-0.24-0.05-0.49-0.06-0.74c-0.04-0.55-0.07-1.12-0.09-1.65c-0.03-1.32,0.01-2.43,0.11-2.56 c0.74-0.16,2.39-0.22,2.4,0.24c0,0.89,0.05,1.72,0.05,2.5C35.59,9.9,35.58,10.44,35.52,10.95z"/><path fill="#d6e5e5" d="M37.07,12.51c0,0.63-0.34,1.24-0.87,1.57c-0.51,0.31-1.14,0.36-1.74,0.37c-0.39,0-0.39,0-0.78-0.01 c-0.53-0.01-0.93,0.03-1.25-0.18c-0.65-0.42-0.94-0.82-0.91-1.59c0.02-0.77,0.7-1.68,1.58-1.86c0.01,0.25,0.04,0.5,0.06,0.74 c0.11,1.04,0.74,1.1,1.59,1c0.24-0.03,0.46-0.19,0.53-0.42c0.12-0.38,0.2-0.77,0.24-1.18h0.06C36.5,11.02,37.07,11.89,37.07,12.51z"/><path fill="#d6e5e5" d="M27.21,12.49c0.01,0.68-0.21,1.19-0.72,1.67c-0.15,0.14-0.71,0.43-0.89,0.53 c-0.5,0.27-1.11,0.27-1.68,0.21c-0.55-0.06-1.12-0.18-1.59-0.47c-0.46-0.29-0.71-0.7-0.72-1.23c-0.01-0.25,0.06-0.81,0.16-1.03 c0.18-0.41,0.72-0.9,1.44-1.05h0.01c0.05,0.36,0.1,0.71,0.16,1.06c0.05,0.31,0.11,0.63,0.42,0.68c0.29,0.04,0.74-0.01,1.15,0 c0.28,0.01,0.43-0.73,0.52-1.74C26.18,11.15,27.2,11.81,27.21,12.49z"/><path fill="#d6e5e5" d="M16.69,13.42c0.03,0.32-0.09,0.74-0.25,1.03c-0.13,0.25-0.35,0.45-0.59,0.61 c-1.16,0.73-2.84,0.71-4.02,0.01c-0.4-0.24-0.58-0.87-0.7-1.32c-0.1-0.37-0.09-0.92,0.11-1.24c0.2-0.33,0.69-0.84,1.16-0.93h0.04 c0.03,0.45,0.08,0.88,0.19,1.27c0.1,0.35,0.41,0.62,0.77,0.62c0.32,0,0.64,0.02,0.95-0.12c0.3-0.13,0.45-0.53,0.46-0.86 c0.01-0.34,0.02-0.69,0.04-1.04c0.35,0.08,0.9,0.26,1.16,0.52C16.4,12.35,16.63,12.87,16.69,13.42z"/><path fill="#010101" d="M32.999,28.325c0.18-0.172,0.208-0.54,0-0.707c-0.851-0.685-1.849-1.067-2.862-1.438 c0.08-0.719,0.268-1.393,0.555-2.068c0.27-0.633,0.81-1.509,0.677-2.226c-0.156-0.843-1.166-0.559-1.709-0.339 c-0.985,0.399-1.992,0.745-2.978,1.141c-0.471-1.019-1.237-1.784-1.911-2.701c-0.159-0.217-0.431-0.329-0.684-0.179 c-0.559,0.33-0.754,0.918-1.036,1.469c-0.262,0.512-0.549,1.012-0.854,1.5c-1.176-0.447-2.38-0.97-3.348-1.772 c-0.354-0.293-0.8-0.086-0.854,0.354c-0.101,0.837-0.049,1.684,0.184,2.497c0.162,0.565,0.349,1.054,0.419,1.621 c-1.083,0.742-2.29,1.288-3.37,2.035c-0.312,0.216-0.332,0.652,0,0.863c0.613,0.392,1.041,0.98,1.606,1.43 c0.422,0.336,0.885,0.609,1.338,0.899c-0.501,1.384-0.711,2.824-0.95,4.276c-0.056,0.34,0.22,0.757,0.615,0.615 c1.142-0.412,2.34-0.611,3.501-0.955c0.446,0.562,0.949,1.065,1.435,1.598c0.645,0.708,1.039,1.247,1.996,1.525 c0.213,0.062,0.453-0.041,0.565-0.23c0.578-0.976,1.159-1.923,1.592-2.964c0.505,0.151,1.031,0.24,1.534,0.411 c0.863,0.293,1.727,0.587,2.59,0.88c0.291,0.099,0.659-0.168,0.633-0.482c-0.07-0.835-0.435-1.512-0.845-2.229 c-0.401-0.701-0.619-1.425-0.759-2.202C31.18,30.272,32.079,29.202,32.999,28.325z M29.277,30.278 c-0.214,0.112-0.261,0.35-0.23,0.565c0.113,0.782,0.286,1.552,0.631,2.268c0.243,0.505,0.577,0.981,0.794,1.499 c-0.504-0.171-1.008-0.343-1.513-0.514c-0.33-0.112-0.657-0.239-0.996-0.32c-0.359-0.086-0.726-0.111-1.068-0.263 c-0.308-0.137-0.619-0.03-0.734,0.299c-0.359,1.018-0.912,1.919-1.464,2.835c-0.569-0.287-0.895-0.775-1.358-1.265 c-0.483-0.511-0.998-0.983-1.402-1.563c-0.123-0.177-0.344-0.301-0.565-0.23c-1.002,0.325-2.039,0.516-3.049,0.806 c0.209-1.282,0.437-2.549,0.928-3.767c0.087-0.215-0.062-0.447-0.23-0.565c-0.59-0.412-1.258-0.732-1.785-1.227 c-0.303-0.285-0.594-0.57-0.899-0.84c0.463-0.283,0.935-0.553,1.408-0.82c0.35-0.198,0.7-0.397,1.039-0.612 c0.256-0.163,0.668-0.361,0.8-0.647c0.211-0.457-0.084-1.278-0.24-1.725c-0.221-0.634-0.348-1.249-0.377-1.885 c1.023,0.664,2.167,1.145,3.305,1.567c0.214,0.079,0.45-0.056,0.565-0.23c0.326-0.493,0.622-1.004,0.901-1.525 c0.162-0.304,0.321-0.799,0.557-1.143c0.637,0.772,1.329,1.495,1.645,2.478c0.108,0.336,0.433,0.429,0.734,0.299 c0.948-0.408,1.942-0.691,2.894-1.087c0.17-0.071,0.337-0.15,0.51-0.215c0.072-0.028,0.145-0.05,0.219-0.074 c-0.045,0.141-0.084,0.294-0.097,0.328c-0.245,0.663-0.588,1.294-0.8,1.969c-0.183,0.584-0.262,1.23-0.299,1.84 c-0.016,0.258,0.137,0.407,0.327,0.458c0.015,0.007,0.024,0.019,0.04,0.025c0.813,0.299,1.665,0.581,2.402,1.047 C31.073,28.856,30.271,29.76,29.277,30.278z"/><path fill="#010101" d="M26.139,24.546c-0.021-0.01-0.04-0.009-0.06-0.016c-0.02-0.011-0.038-0.025-0.059-0.034 c-0.907-0.372-1.924-0.237-2.832,0.062c-0.865,0.284-1.701,0.703-2.367,1.332c-1.398,1.32-1.58,3.261-0.61,4.889 c0.462,0.776,1.129,1.5,1.913,1.958c0.862,0.505,1.781,0.509,2.733,0.288c0.873-0.203,1.796-0.438,2.497-1.025 c0.673-0.564,1.011-1.424,1.098-2.28c0.114-1.119-0.245-2.243-0.649-3.272C27.462,25.585,26.973,24.96,26.139,24.546z M27.039,30.865c-0.396,0.592-1.077,0.828-1.733,1.01c-0.712,0.197-1.496,0.451-2.227,0.208c-0.673-0.224-1.249-0.775-1.677-1.324 c-0.914-1.175-1.168-2.706-0.134-3.895c0.527-0.606,1.25-1.012,1.999-1.28c0.791-0.282,1.623-0.446,2.427-0.141 c0.51,0.266,0.86,0.599,1.095,1.148c0.315,0.737,0.597,1.557,0.667,2.359C27.514,29.613,27.415,30.304,27.039,30.865z"/><g><path fill="#010101" d="M42.476,17.43c-0.107-1.199-0.244-2.395-0.402-3.589c-0.146-1.105-0.203-2.326-0.537-3.392 c-0.328-1.05-1.252-1.092-2.203-1.211c-1.088-0.137-2.178-0.245-3.27-0.346c-0.001-0.058-0.001-0.115-0.003-0.173 c-0.009-0.38-0.023-0.759-0.032-1.139c-0.008-0.32,0.066-0.758-0.089-1.052c-0.215-0.409-0.732-0.488-1.146-0.527 c-0.506-0.048-1.022-0.008-1.524,0.067c-0.273,0.04-0.505,0.094-0.625,0.373c-0.076,0.177-0.087,0.378-0.104,0.568 c-0.049,0.541-0.047,1.089-0.039,1.633c-2.127-0.108-4.256-0.152-6.386-0.138c0.018-0.545,0.035-1.09,0.063-1.633 c0.005-0.091-0.015-0.165-0.045-0.23c-0.107-0.473-0.531-0.707-1.026-0.757c-0.527-0.054-1.201-0.081-1.715,0.071 c-0.615,0.181-0.718,0.764-0.798,1.326c-0.062,0.434-0.08,0.87-0.081,1.306c-2.348,0.089-4.693,0.238-7.034,0.445 c0.006-0.203,0.019-0.406,0.019-0.61c0.012-0.652,0.197-1.418-0.505-1.798c-0.44-0.238-0.998-0.218-1.479-0.183 c-0.657,0.048-1.354,0.213-1.561,0.934c-0.085,0.297-0.04,0.595-0.029,0.898c0.013,0.362,0.005,0.724-0.001,1.085 c-1.228,0.112-2.513,0.176-3.686,0.51c-1.101,0.314-1.93,1.053-2.099,2.226c-0.155,1.079-0.09,2.219-0.127,3.308 c-0.047,1.408-0.116,2.816-0.18,4.224c-0.14,3.112-0.316,6.225-0.294,9.342c0.011,1.534,0.048,3.068,0.061,4.602 c0.012,1.524-0.121,3.066-0.06,4.586c0.114,2.838,3.365,3.188,5.605,3.152c2.99-0.048,5.988-0.143,8.972-0.336 c2.832-0.183,5.687-0.157,8.523-0.209c2.381-0.044,4.747,0.067,7.127-0.051c0.963-0.048,1.93,0.039,2.894,0 c0.903-0.037,2.187-0.079,2.896-0.699c0.839-0.734,0.916-2.188,1.084-3.214c0.257-1.574,0.383-3.171,0.369-4.766 C42.947,27.16,42.908,22.284,42.476,17.43z M32.738,12.011c0.012,0.041,0.034,0.071,0.048,0.11c0.014,0.042,0.036,0.08,0.053,0.12 c0.035,0.076,0.068,0.155,0.113,0.221c0.052,0.083,0.124,0.154,0.198,0.225c0.025,0.024,0.048,0.05,0.075,0.072 c0.031,0.025,0.05,0.058,0.085,0.081c0.07,0.047,0.155,0.075,0.235,0.108c0.011,0.005,0.022,0.011,0.033,0.015 c0.429,0.164,0.968,0.164,1.384,0.054c0.197-0.052,0.349-0.15,0.476-0.272c0,0,0.001-0.001,0.001-0.001 c0.114-0.109,0.203-0.241,0.273-0.387c0.006-0.014,0.019-0.02,0.025-0.035c0.007-0.017,0.01-0.038,0.017-0.055 c0.066-0.159,0.116-0.328,0.152-0.503c0.015-0.064,0.038-0.123,0.051-0.188c0.128,0.072,0.244,0.166,0.338,0.278 c0.084,0.1,0.16,0.221,0.209,0.343c0.035,0.089,0.06,0.204,0.064,0.263c0.048,0.778-0.591,1.292-1.291,1.427 c-0.384,0.074-0.787,0.064-1.176,0.062c-0.37-0.002-0.757,0.018-1.124-0.026c-0.535-0.065-0.947-0.584-0.961-1.095 c-0.014-0.493,0.252-0.95,0.639-1.244C32.679,11.727,32.699,11.874,32.738,12.011z M35.105,7.061 C35.171,7.051,35.111,7.118,35.105,7.061L35.105,7.061z M34.418,6.983c0.191,0.002,0.384,0.009,0.544,0.045 c0.018,0.004,0.036,0.01,0.053,0.014c-0.025,0.281,0.016,0.604,0.024,0.871c0.01,0.339,0.021,0.677,0.027,1.016 c0.012,0.675,0.029,1.349-0.046,2.022c-0.023,0.211-0.058,0.419-0.107,0.625c-0.109,0.29-0.284,0.49-0.551,0.524 c-0.108-0.003-0.21-0.013-0.28-0.022c-0.011-0.003-0.022-0.003-0.033-0.007c-0.015-0.002-0.027-0.009-0.041-0.012 c-0.39-0.134-0.361-0.613-0.389-0.968c-0.042-0.542-0.068-1.085-0.091-1.628c-0.016-0.396-0.028-0.793-0.027-1.19 c0.001-0.344,0.005-0.688,0.025-1.031c0.003-0.05,0.008-0.13,0.014-0.2C33.828,7.002,34.121,6.979,34.418,6.983z M22.816,11.799 c0.085,0.577,0.135,1.351,0.812,1.534c0.294,0.079,0.625,0.041,0.925,0.032c0.3-0.009,0.604,0.037,0.846-0.178 c0.365-0.324,0.429-0.909,0.492-1.363c0.003-0.022,0.004-0.044,0.007-0.065c0.002-0.011,0.003-0.022,0.005-0.032 c0.406,0.161,0.813,0.484,0.806,0.853c-0.007,0.349-0.104,0.68-0.318,0.96c-0.056,0.073-0.123,0.136-0.184,0.204 c-0.085,0.094-0.007,0.022-0.078,0.071c-0.141,0.099-0.298,0.181-0.449,0.264c-0.304,0.166-0.589,0.312-0.942,0.343 c-0.436,0.039-0.892-0.011-1.318-0.107c-0.693-0.155-1.356-0.489-1.309-1.284c0.018-0.303,0.062-0.621,0.211-0.824 C22.451,12.03,22.625,11.9,22.816,11.799z M23.681,6.911c0.127,0.007,0.353-0.035,0.51-0.039c0.261-0.005,0.527-0.017,0.788,0 c0.053,0.004,0.133,0.027,0.199,0.035c-0.035,0.693-0.059,1.388-0.086,2.081c0,0.004-0.002,0.007-0.002,0.011 c-0.02,0.675-0.052,1.35-0.111,2.022c-0.025,0.284-0.059,0.569-0.108,0.85c-0.025,0.147-0.047,0.296-0.092,0.438 c-0.005,0.017-0.01,0.031-0.018,0.048c-0.197-0.009-0.399,0.011-0.596,0.015c-0.096,0-0.183-0.018-0.254-0.095 c-0.008-0.027-0.016-0.052-0.018-0.063c-0.05-0.232-0.087-0.468-0.121-0.704c-0.003-0.032-0.004-0.071-0.008-0.096 c-0.115-0.784-0.222-1.562-0.243-2.355c-0.001-0.042-0.016-0.082-0.027-0.122c-0.016-0.567,0.012-1.134,0.113-1.676 C23.626,7.157,23.667,6.999,23.681,6.911z M12.083,12.712c0.108,0.481,0.318,0.921,0.807,1.142c0.57,0.258,1.566,0.176,2.011-0.293 c0.353-0.372,0.428-0.894,0.446-1.417c0.089,0.041,0.183,0.075,0.259,0.132c0.292,0.219,0.464,0.616,0.545,0.96 c0.085,0.359,0.016,0.769-0.205,1.072c-0.2,0.276-0.549,0.458-0.862,0.574c-0.701,0.261-1.481,0.285-2.2,0.088 c-0.29-0.079-0.709-0.192-0.907-0.433c-0.186-0.227-0.266-0.544-0.34-0.822c-0.086-0.323-0.13-0.713,0.066-1.006 c0.08-0.12,0.184-0.236,0.299-0.34C12.023,12.488,12.05,12.602,12.083,12.712z M14.558,7.526c0,0-0.012-0.009-0.022-0.017 C14.549,7.516,14.559,7.522,14.558,7.526z M14.526,7.496c-0.001,0.002,0-0.002-0.001,0.002c0,0.002,0,0-0.001,0.001 c-0.004-0.002-0.004-0.001-0.008-0.003c0-0.009,0-0.018,0.001-0.028C14.517,7.476,14.522,7.486,14.526,7.496z M12.922,7.63 c0.07-0.138,0.234-0.155,0.375-0.172c0.378-0.045,0.812-0.081,1.164,0.019c0.01,0.003,0.02,0.007,0.03,0.01 c0,0,0.011,0.005,0.025,0.012c0-0.001,0-0.002,0-0.003c0.003,0.001,0.005,0.002,0.008,0.003c-0.001,0.005-0.001,0.001-0.002,0.004 c0.002,0.001,0.004,0.002,0.006,0.003c0.002,0.002-0.004-0.003,0,0.001c0,0,0-0.001,0-0.001c0,0,0,0,0,0 c0.006,0.016,0.012,0.031,0.013,0.045c-0.003-0.063,0.005-0.021,0.004,0.067C14.542,7.885,14.505,8.152,14.5,8.42 c-0.001,0.514-0.032,1.027-0.063,1.54c-0.028,0.532-0.064,1.063-0.093,1.595c-0.004,0.075-0.004,0.154-0.003,0.234 c-0.006,0.138-0.018,0.277-0.023,0.415c-0.003,0.081-0.002,0.174-0.007,0.266c-0.052,0.256-0.186,0.455-0.529,0.498 c-0.56,0.069-0.713-0.275-0.778-0.702c-0.014-0.112-0.026-0.226-0.036-0.323c-0.017-0.169-0.021-0.339-0.03-0.508 c-0.01-0.174-0.021-0.349-0.024-0.524c-0.003-0.234-0.003-0.469,0-0.704c0.001-0.065,0.001-0.129,0.002-0.194 c0.01-0.581,0.027-1.163,0.007-1.744C12.918,8.089,12.837,7.798,12.922,7.63z M7.838,11.091c0.655-0.414,1.573-0.442,2.318-0.529 c0.583-0.068,1.166-0.131,1.749-0.195c-0.008,0.273-0.014,0.565-0.009,0.862c-0.817,0.377-1.387,1.281-1.323,2.174 c0.034,0.481,0.185,0.975,0.4,1.405c0.238,0.477,0.63,0.736,1.109,0.938c0.98,0.411,2.137,0.474,3.15,0.142 c1.069-0.351,1.996-1.175,1.96-2.388c-0.019-0.638-0.292-1.277-0.707-1.755c-0.289-0.332-0.692-0.533-1.11-0.67 c0.023-0.347,0.046-0.695,0.067-1.042c2.363-0.209,4.73-0.36,7.101-0.449c0.015,0.247,0.046,0.492,0.074,0.738 c0.015,0.149,0.021,0.298,0.04,0.447c-0.377,0.149-0.729,0.374-0.996,0.675c-0.324,0.365-0.448,0.763-0.512,1.238 c-0.066,0.489-0.048,0.966,0.186,1.413c0.26,0.496,0.753,0.81,1.258,1.011c0.563,0.224,1.204,0.314,1.808,0.324 c0.593,0.01,1.114-0.131,1.633-0.408c0.393-0.209,0.763-0.416,1.053-0.762c0.367-0.438,0.566-0.943,0.613-1.511 c0.084-1.007-0.765-1.762-1.688-2.028c0.023-0.319,0.041-0.638,0.053-0.957c0.004-0.087,0.011-0.174,0.015-0.261 c2.148-0.015,4.296,0.03,6.441,0.139c0.004,0.274,0.01,0.553,0.02,0.836c-0.766,0.345-1.37,1.098-1.496,1.924 c-0.151,0.991,0.341,1.924,1.254,2.356c0.499,0.236,1.096,0.178,1.633,0.189c0.506,0.01,1.017,0.006,1.517-0.078 c1.15-0.193,2.06-1.078,2.117-2.272c0.046-0.951-0.647-1.739-1.501-2.033c0.01-0.227,0.016-0.45,0.014-0.671 c0.929,0.086,1.858,0.176,2.785,0.288c0.472,0.057,1.409-0.017,1.684,0.451c0.224,0.381,0.207,1.032,0.273,1.462 c0.21,1.351,0.375,2.709,0.518,4.069c-4.399,0.264-8.798,0.531-13.198,0.798c-4.626,0.28-9.254,0.619-13.887,0.77 c-2.446,0.079-4.893,0.08-7.337-0.047c0.048-1.127,0.096-2.255,0.13-3.383C7.078,13.276,6.829,11.73,7.838,11.091z M41.792,35.739 c-0.076,0.594-0.183,1.181-0.29,1.77c-0.089,0.489-0.156,1.065-0.413,1.501c-0.398,0.674-1.655,0.662-2.37,0.697 c-0.836,0.041-1.676-0.007-2.513-0.005c-0.889,0.003-1.774,0.105-2.664,0.111c-1.057,0.007-2.114-0.038-3.171-0.053 c-2.562-0.037-5.136,0.059-7.698,0.111c-2.666,0.054-5.325,0.265-7.992,0.328c-1.321,0.031-2.645,0.116-3.966,0.11 c-1.159-0.005-2.587-0.091-3.559-0.81c-0.55-0.407-0.627-1.017-0.62-1.661c0.007-0.719,0.051-1.439,0.06-2.158 c0.019-1.409-0.003-2.818-0.025-4.227c-0.045-2.853-0.006-5.69,0.117-8.54c0.061-1.412,0.127-2.825,0.19-4.237 c4.449,0.233,8.903,0.024,13.347-0.24c4.606-0.273,9.212-0.555,13.817-0.834c2.463-0.149,4.927-0.298,7.39-0.446 c0.052,0.552,0.115,1.103,0.156,1.656c0.328,4.398,0.364,8.81,0.421,13.218C42.021,33.269,41.949,34.51,41.792,35.739z"/><path fill="#010101" d="M14.522,7.502C14.52,7.501,14.518,7.5,14.516,7.499C14.516,7.513,14.518,7.512,14.522,7.502z"/></g></svg>