<?xml version="1.0" encoding="UTF-8"?>
<svg xmlns="http://www.w3.org/2000/svg" xmlns:xlink="http://www.w3.org/1999/xlink" viewBox="0 0 192 192" width="192px" height="192px">
<g id="surface163082999">
<path style=" stroke:none;fill-rule:nonzero;fill:rgb(44.705883%,31.37255%,4.705882%);fill-opacity:1;" d="M 105.734375 102.871094 C 105.621094 102.078125 107.308594 99.523438 107.644531 98.800781 C 111.238281 91.097656 110.882812 80.832031 106.730469 73.410156 C 108.019531 69.578125 109.3125 64.863281 109.613281 60.835938 C 109.910156 56.804688 109.113281 52.542969 106.578125 49.390625 C 104.757812 47.121094 102.023438 45.34375 101.359375 42.507812 C 100.859375 40.371094 100.5 38.265625 101.113281 36.15625 C 102.171875 32.5 102.617188 28.59375 101.78125 24.875 C 100.945312 21.160156 98.722656 17.664062 95.394531 15.816406 C 93.019531 14.496094 91.445312 14 88.734375 13.757812 C 84.507812 13.371094 80.222656 13.359375 76.050781 14.128906 C 73.699219 14.558594 59.644531 14.859375 57.257812 14.804688 C 49.792969 14.628906 42.734375 19.429688 37.8125 25.042969 C 32.886719 30.660156 30.496094 38.695312 32.5625 45.871094 C 28.089844 51.488281 25.429688 58.605469 25.667969 65.785156 C 25.78125 69.222656 26.339844 72.894531 28.675781 75.425781 C 26.988281 78.085938 26.035156 81.945312 27.246094 84.851562 C 27.6875 85.902344 28.308594 86.875 28.796875 87.90625 C 29.171875 88.695312 29.46875 89.523438 29.683594 90.367188 C 29.738281 90.585938 29.789062 90.820312 29.691406 91.019531 C 29.550781 91.324219 29.167969 91.402344 28.855469 91.527344 C 27.429688 92.089844 27.027344 93.902344 26.984375 95.4375 C 26.921875 97.523438 27.136719 99.660156 28.011719 101.554688 C 28.890625 103.449219 30.511719 105.070312 32.535156 105.585938 Z M 105.734375 102.871094 "/>
<path style=" stroke:none;fill-rule:nonzero;fill:rgb(44.313726%,77.254903%,59.607846%);fill-opacity:1;" d="M 55.527344 95.214844 C 45.808594 96.996094 34.835938 101.785156 26.503906 107.097656 C 24.949219 108.089844 23.390625 109.171875 22.339844 110.6875 C 20.980469 112.648438 20.601562 115.117188 20.472656 117.5 C 19.960938 126.839844 22.671875 136.019531 25.355469 144.976562 C 27.664062 152.679688 29.972656 160.386719 32.28125 168.09375 C 32.566406 169.046875 33.210938 170.769531 33.980469 171.402344 C 41.257812 172.953125 49.109375 174.015625 56.496094 173.15625 L 107.785156 172.570312 L 110.113281 114.652344 C 110.214844 112.355469 108.179688 108.117188 107.613281 105.886719 C 107.140625 104.023438 106.628906 102.089844 105.378906 100.625 C 104.289062 99.34375 102.734375 98.558594 101.1875 97.902344 C 94.980469 95.28125 88.097656 94.269531 81.390625 94.992188 Z M 55.527344 95.214844 "/>
<path style=" stroke:none;fill-rule:nonzero;fill:rgb(16.862746%,54.901963%,36.862746%);fill-opacity:1;" d="M 151.226562 108.277344 C 159.363281 108.546875 165.523438 115.191406 168.332031 122.832031 C 171.140625 130.472656 170.480469 138.960938 168.773438 146.921875 C 167.0625 154.878906 167.078125 162.625 165.832031 170.667969 C 161.277344 172.125 152.425781 174.621094 147.671875 174.09375 L 103.757812 173.460938 L 102.214844 139.363281 C 102.816406 134.171875 103.878906 126.828125 105.394531 121.824219 C 106.066406 119.605469 106.839844 117.394531 107.96875 115.367188 C 112.164062 107.832031 121.617188 103.640625 130.019531 105.585938 Z M 151.226562 108.277344 "/>
<path style=" stroke:none;fill-rule:nonzero;fill:rgb(81.568629%,62.7451%,47.450981%);fill-opacity:1;" d="M 87.679688 36.078125 L 48.1875 34.078125 C 47.105469 45.945312 45.847656 58.773438 49.234375 70.191406 C 49.949219 72.59375 50.828125 74.964844 52.164062 77.078125 C 53.058594 78.503906 54.1875 79.769531 55.449219 80.878906 C 55.324219 84.148438 55.21875 87.347656 55.40625 88.421875 C 55.804688 90.660156 55.847656 92.964844 55.53125 95.21875 C 57.191406 97.628906 58.390625 99.472656 59.480469 101.308594 C 61.824219 105.265625 64.164062 109.222656 66.507812 113.179688 C 67.914062 115.558594 69.324219 117.9375 70.695312 120.335938 C 73.621094 112.347656 76.539062 104.359375 79.464844 96.371094 C 79.554688 93.738281 79.722656 86.464844 79.652344 80.601562 C 79.757812 80.503906 79.871094 80.414062 79.976562 80.316406 C 85.890625 74.507812 87.074219 65.515625 87.507812 57.234375 C 87.867188 50.1875 87.929688 43.128906 87.679688 36.078125 Z M 87.679688 36.078125 "/>
<path style=" stroke:none;fill-rule:nonzero;fill:rgb(0%,0%,0%);fill-opacity:1;" d="M 61.324219 48.617188 C 58.613281 47.726562 55.496094 48.238281 53.210938 49.960938 C 52.328125 50.625 52.152344 51.875 52.816406 52.761719 C 53.484375 53.648438 54.730469 53.828125 55.617188 53.15625 C 55.90625 52.9375 56.230469 52.753906 56.574219 52.605469 C 56.488281 52.84375 56.441406 53.105469 56.441406 53.375 C 56.441406 54.480469 57.464844 55.375 58.566406 55.375 C 59.671875 55.375 60.566406 54.480469 60.566406 53.375 C 60.566406 53.316406 60.539062 53.265625 60.53125 53.207031 C 60.785156 53.398438 61.066406 53.546875 61.398438 53.605469 C 61.511719 53.625 61.625 53.632812 61.730469 53.632812 C 62.691406 53.632812 63.539062 52.941406 63.703125 51.964844 C 63.953125 50.507812 62.992188 49.164062 61.324219 48.617188 Z M 61.324219 48.617188 "/>
<path style=" stroke:none;fill-rule:nonzero;fill:rgb(0%,0%,0%);fill-opacity:1;" d="M 83.085938 50.484375 C 80.558594 48.035156 76.292969 48.039062 73.769531 50.484375 C 72.976562 51.253906 72.957031 52.519531 73.722656 53.3125 C 74.460938 54.074219 75.644531 54.097656 76.4375 53.433594 C 76.46875 54.511719 77.339844 55.378906 78.425781 55.378906 C 79.507812 55.378906 80.378906 54.515625 80.410156 53.4375 C 80.785156 53.742188 81.226562 53.921875 81.683594 53.921875 C 82.203125 53.921875 82.726562 53.714844 83.121094 53.3125 C 83.894531 52.519531 83.875 51.253906 83.085938 50.484375 Z M 83.085938 50.484375 "/>
<path style=" stroke:none;fill-rule:nonzero;fill:rgb(0%,0%,0%);fill-opacity:1;" d="M 70.414062 68.664062 C 69.476562 68.664062 68.664062 68.414062 67.824219 67.898438 C 66.214844 66.902344 66.304688 65.003906 66.332031 64.378906 L 66.804688 53.8125 C 66.851562 52.710938 67.84375 51.84375 68.886719 51.902344 C 69.992188 51.953125 70.847656 52.882812 70.800781 53.988281 L 70.328125 64.558594 C 70.328125 64.597656 70.328125 64.628906 70.324219 64.65625 C 70.488281 64.675781 70.703125 64.65625 71.074219 64.570312 C 72.15625 64.34375 73.21875 65.023438 73.457031 66.105469 C 73.6875 67.183594 73.003906 68.246094 71.925781 68.480469 C 71.378906 68.605469 70.882812 68.664062 70.414062 68.664062 Z M 70.339844 64.992188 L 70.378906 64.992188 Z M 70.339844 64.992188 "/>
<path style=" stroke:none;fill-rule:nonzero;fill:rgb(0%,0%,0%);fill-opacity:1;" d="M 67.828125 76.820312 C 65.742188 76.820312 63.65625 76.359375 61.746094 75.433594 C 60.757812 74.953125 60.339844 73.757812 60.824219 72.761719 C 61.308594 71.769531 62.492188 71.34375 63.496094 71.839844 C 66.449219 73.269531 70.179688 73.105469 72.992188 71.402344 C 73.941406 70.824219 75.164062 71.136719 75.738281 72.078125 C 76.316406 73.023438 76.007812 74.257812 75.0625 74.828125 C 72.871094 76.148438 70.347656 76.820312 67.828125 76.820312 Z M 67.828125 76.820312 "/>
<path style=" stroke:none;fill-rule:nonzero;fill:rgb(44.705883%,31.37255%,4.705882%);fill-opacity:1;" d="M 52.214844 23.867188 C 55.96875 20.9375 61.851562 20.800781 66.007812 23.125 C 66.410156 23.347656 66.820312 23.601562 67.277344 23.644531 C 67.84375 23.699219 68.382812 23.429688 68.898438 23.183594 C 72.578125 21.445312 77.316406 19.851562 81.113281 21.320312 C 83.128906 22.101562 84.785156 24.019531 86.070312 25.753906 C 87.304688 27.402344 88.292969 29.320312 88.445312 31.375 C 88.597656 33.433594 87.785156 35.640625 86.054688 36.769531 C 84.328125 37.890625 81.691406 37.589844 80.558594 35.863281 C 78.863281 39.523438 74.980469 42.054688 70.949219 42.140625 C 66.914062 42.21875 62.9375 39.84375 61.09375 36.257812 C 58.28125 37.886719 54.828125 39.277344 51.871094 37.929688 C 49.382812 36.796875 48.003906 33.875 48.207031 31.148438 C 48.410156 28.421875 50.058594 25.550781 52.214844 23.867188 Z M 52.214844 23.867188 "/>
<path style=" stroke:none;fill-rule:nonzero;fill:rgb(81.568629%,62.7451%,47.450981%);fill-opacity:1;" d="M 161.488281 68.300781 C 158.285156 58.882812 148.3125 53.425781 138.613281 55.621094 C 132.292969 57.046875 126.371094 63.230469 124.023438 69.273438 C 121.675781 75.3125 121.746094 82.257812 124.21875 88.242188 C 124.785156 89.613281 125.472656 90.9375 126.34375 92.128906 C 127.734375 94.027344 129.539062 95.492188 131.574219 96.617188 C 131.203125 100.675781 130.761719 105.191406 130.761719 107.007812 C 131.5625 110.578125 134.6875 113.359375 138.214844 114.355469 C 141.738281 115.351562 142.496094 115.320312 146.015625 114.308594 C 149.132812 113.410156 150.035156 111.628906 150.222656 111.089844 C 150.027344 109.359375 150.078125 103.59375 150.273438 98.859375 C 154.011719 97.640625 157.109375 94.785156 159.058594 91.351562 C 161.105469 87.761719 162.019531 83.628906 162.414062 79.511719 C 162.78125 75.753906 162.707031 71.875 161.488281 68.300781 Z M 161.488281 68.300781 "/>
<path style=" stroke:none;fill-rule:nonzero;fill:rgb(44.705883%,31.37255%,4.705882%);fill-opacity:1;" d="M 127.851562 63.761719 C 127.769531 64.007812 127.894531 64.277344 128.03125 64.5 C 129.449219 66.8125 132.238281 68.199219 134.9375 67.933594 C 138.972656 67.527344 142.671875 63.8125 146.523438 65.078125 C 147.601562 65.4375 148.542969 66.164062 149.664062 66.34375 C 152.441406 66.796875 156.972656 63.859375 159.488281 65.125 C 159.488281 65.125 154.070312 54.996094 143.65625 55.152344 C 133.238281 55.304688 127.851562 63.761719 127.851562 63.761719 Z M 127.851562 63.761719 "/>
<path style=" stroke:none;fill-rule:nonzero;fill:rgb(0%,0%,0%);fill-opacity:1;" d="M 136.933594 80.855469 C 136.410156 80.855469 135.890625 80.652344 135.5 80.253906 C 134.414062 79.140625 132.421875 78.957031 131.152344 79.84375 C 130.242188 80.480469 129 80.261719 128.367188 79.355469 C 127.730469 78.449219 127.953125 77.203125 128.855469 76.570312 C 131.730469 74.550781 135.910156 74.941406 138.367188 77.464844 C 139.136719 78.253906 139.121094 79.519531 138.332031 80.292969 C 137.9375 80.667969 137.4375 80.855469 136.933594 80.855469 Z M 136.933594 80.855469 "/>
<path style=" stroke:none;fill-rule:nonzero;fill:rgb(0%,0%,0%);fill-opacity:1;" d="M 155.195312 81.832031 C 154.667969 81.832031 154.136719 81.621094 153.742188 81.207031 C 152.367188 79.761719 149.984375 79.332031 148.199219 80.222656 C 147.207031 80.726562 146.011719 80.3125 145.519531 79.324219 C 145.027344 78.335938 145.433594 77.132812 146.421875 76.644531 C 149.773438 74.96875 154.070312 75.734375 156.648438 78.457031 C 157.40625 79.257812 157.375 80.523438 156.570312 81.285156 C 156.183594 81.648438 155.6875 81.832031 155.195312 81.832031 Z M 155.195312 81.832031 "/>
<path style=" stroke:none;fill-rule:nonzero;fill:rgb(0%,0%,0%);fill-opacity:1;" d="M 142.277344 91.207031 C 140.570312 91.207031 138.867188 90.839844 137.304688 90.121094 C 136.304688 89.65625 135.863281 88.46875 136.328125 87.464844 C 136.792969 86.460938 137.984375 86.023438 138.984375 86.488281 C 140.585938 87.234375 142.476562 87.40625 144.167969 86.980469 C 145.238281 86.699219 146.328125 87.359375 146.597656 88.429688 C 146.863281 89.496094 146.214844 90.585938 145.144531 90.851562 C 144.203125 91.089844 143.238281 91.207031 142.277344 91.207031 Z M 142.277344 91.207031 "/>
<path style=" stroke:none;fill-rule:nonzero;fill:rgb(94.901961%,38.82353%,13.333334%);fill-opacity:1;" d="M 147.671875 130.605469 C 145.898438 146.152344 145.851562 162.894531 147.234375 178.484375 C 119.734375 181.367188 88.378906 175.570312 60.832031 177.964844 C 59.976562 178.300781 59.421875 177.058594 59.335938 176.144531 C 57.832031 159.988281 54.8125 143.078125 50.199219 127.523438 C 62.914062 126.613281 75.867188 129.300781 87.171875 135.191406 C 89.480469 136.394531 93.40625 137.324219 96.011719 137.425781 C 97.441406 137.480469 100.074219 139.4375 101.503906 139.390625 C 104.589844 139.292969 104.050781 139.035156 107.121094 138.679688 C 109.679688 138.382812 112.757812 136.65625 115.074219 135.535156 C 124.792969 130.847656 136.882812 130.753906 147.671875 130.605469 Z M 147.671875 130.605469 "/>
<path style=" stroke:none;fill-rule:nonzero;fill:rgb(0%,0%,0%);fill-opacity:1;" d="M 170.199219 122.160156 C 167.554688 114.882812 161.398438 107.101562 152.046875 106.382812 C 152.058594 104.054688 152.1875 101.585938 152.453125 100.148438 C 152.453125 100.144531 152.453125 100.140625 152.453125 100.136719 C 155.792969 98.617188 158.777344 95.914062 160.804688 92.34375 C 163.136719 88.238281 163.554688 83.871094 163.921875 80.023438 C 164.378906 75.210938 164.054688 71.378906 162.890625 67.972656 C 162.457031 66.691406 161.90625 65.484375 161.277344 64.339844 C 161.253906 64.289062 161.277344 64.226562 161.246094 64.179688 C 161.003906 63.71875 155.054688 52.996094 143.625 53.148438 C 143.382812 53.152344 143.183594 53.210938 142.953125 53.222656 C 141.367188 53.203125 139.773438 53.308594 138.171875 53.667969 C 130.8125 55.332031 124.546875 62.410156 122.164062 68.546875 C 119.625 75.074219 119.703125 82.535156 122.375 89.003906 C 123.0625 90.675781 123.835938 92.085938 124.734375 93.3125 C 126.15625 95.253906 127.894531 96.710938 129.757812 97.863281 C 129.6875 99.054688 129.519531 100.335938 129.3125 101.710938 C 129.222656 102.285156 129.148438 102.863281 129.066406 103.445312 C 122.585938 102.4375 115.683594 104.542969 110.734375 108.878906 C 110.628906 108.585938 110.546875 108.285156 110.441406 108 C 110.078125 107 109.71875 106.121094 109.558594 105.398438 C 109.269531 104.261719 108.902344 102.949219 108.335938 101.675781 C 108.539062 101.3125 108.746094 100.953125 108.878906 100.71875 C 109.121094 100.28125 109.359375 99.878906 109.441406 99.640625 C 113.199219 91.601562 112.960938 81.121094 108.921875 73.238281 C 110 69.800781 111.28125 65.121094 111.601562 61 C 111.960938 55.960938 110.761719 51.398438 108.121094 48.160156 C 107.519531 47.359375 106.839844 46.679688 106.121094 45.960938 C 104.839844 44.679688 103.640625 43.441406 103.320312 42.039062 C 102.800781 39.878906 102.601562 38.238281 103.039062 36.71875 C 104.320312 32.238281 104.558594 28.121094 103.71875 24.441406 C 102.71875 19.878906 100.039062 16.078125 96.359375 14.078125 C 93.761719 12.601562 91.878906 12.039062 88.921875 11.761719 C 83.921875 11.320312 79.601562 11.441406 75.679688 12.160156 C 73.601562 12.519531 59.921875 12.839844 57.320312 12.800781 C 50.199219 12.601562 42.558594 16.601562 36.320312 23.71875 C 30.878906 29.921875 28.679688 38.121094 30.398438 45.441406 C 25.800781 51.519531 23.441406 58.71875 23.679688 65.839844 C 23.761719 68.640625 24.160156 72.558594 26.28125 75.601562 C 24.878906 78.398438 24 82.28125 25.398438 85.640625 C 25.679688 86.28125 26.039062 86.960938 26.398438 87.601562 C 26.601562 87.960938 26.800781 88.359375 27 88.761719 C 27.160156 89.160156 27.359375 89.558594 27.480469 90 C 26.398438 90.640625 25.078125 92.121094 25 95.359375 C 24.921875 98.160156 25.320312 100.441406 26.199219 102.398438 C 26.503906 103.066406 26.882812 103.695312 27.316406 104.269531 C 26.6875 104.644531 26.050781 105.011719 25.441406 105.398438 C 23.800781 106.441406 22 107.71875 20.679688 109.558594 C 18.960938 112.039062 18.601562 115.039062 18.480469 117.398438 C 17.960938 127.199219 20.878906 136.960938 23.441406 145.558594 L 30.359375 168.679688 C 30.71875 169.839844 31.480469 171.921875 32.71875 172.960938 C 32.960938 173.160156 33.238281 173.28125 33.558594 173.359375 C 40.238281 174.761719 45.921875 175.480469 50.921875 175.480469 C 52.878906 175.480469 54.761719 175.359375 56.519531 175.160156 L 57.207031 175.152344 C 57.246094 175.546875 57.308594 175.9375 57.34375 176.332031 C 57.449219 177.449219 57.96875 178.898438 59.125 179.613281 C 59.757812 180 60.496094 180.109375 61.207031 179.941406 C 74.378906 178.8125 88.738281 179.585938 102.628906 180.335938 C 111.558594 180.816406 120.675781 181.304688 129.613281 181.304688 C 135.675781 181.304688 141.65625 181.074219 147.445312 180.472656 C 148.527344 180.359375 149.324219 179.390625 149.226562 178.308594 C 149.164062 177.59375 149.148438 176.875 149.09375 176.160156 C 154.371094 176.15625 162.042969 173.960938 166.441406 172.558594 C 167.160156 172.359375 167.679688 171.71875 167.800781 170.960938 C 168.359375 167.519531 168.640625 164.121094 168.960938 160.800781 C 169.359375 156.199219 169.761719 151.839844 170.71875 147.320312 C 172.878906 137.238281 172.71875 129 170.199219 122.160156 Z M 142.929688 57.21875 C 147.761719 57.296875 152.3125 59.464844 155.53125 63.132812 C 154.839844 63.296875 154.15625 63.496094 153.496094 63.6875 C 152.21875 64.070312 150.785156 64.503906 149.988281 64.371094 C 149.628906 64.3125 149.175781 64.089844 148.699219 63.847656 C 148.191406 63.597656 147.683594 63.351562 147.152344 63.179688 C 144.128906 62.183594 141.359375 63.433594 138.90625 64.527344 C 137.441406 65.1875 136.054688 65.808594 134.738281 65.941406 C 133.027344 66.113281 131.246094 65.34375 130.140625 64.015625 C 131.652344 62.109375 135.964844 57.636719 142.929688 57.21875 Z M 127.964844 90.949219 C 127.257812 89.980469 126.640625 88.847656 126.070312 87.480469 C 123.789062 81.949219 123.722656 75.570312 125.890625 69.996094 C 126.300781 68.941406 126.847656 67.921875 127.453125 66.921875 C 129.203125 68.796875 131.699219 69.960938 134.28125 69.960938 C 134.566406 69.960938 134.851562 69.949219 135.140625 69.914062 C 137.105469 69.71875 138.855469 68.9375 140.550781 68.171875 C 142.597656 67.257812 144.363281 66.457031 145.90625 66.976562 C 146.261719 67.089844 146.59375 67.261719 146.925781 67.429688 C 147.613281 67.769531 148.390625 68.15625 149.34375 68.3125 C 151.03125 68.59375 152.859375 68.046875 154.632812 67.519531 C 155.742188 67.191406 157.148438 66.800781 158.027344 66.824219 C 158.429688 67.609375 158.816406 68.398438 159.109375 69.261719 C 160.078125 72.113281 160.34375 75.410156 159.941406 79.640625 C 159.527344 83.953125 159.101562 87.242188 157.328125 90.367188 C 155.382812 93.785156 152.4375 96.257812 149.234375 97.148438 C 147.828125 97.539062 146.222656 97.695312 144.042969 97.640625 C 136.828125 97.488281 130.96875 95.046875 127.964844 90.949219 Z M 143.953125 101.640625 C 144.234375 101.644531 144.535156 101.652344 144.847656 101.652344 C 145.878906 101.652344 147.054688 101.550781 148.273438 101.375 C 148 104.285156 147.980469 108.265625 148.1875 110.714844 C 147.90625 111.128906 147.183594 111.890625 145.472656 112.382812 C 142.265625 113.308594 141.890625 113.304688 138.765625 112.429688 C 135.828125 111.605469 133.449219 109.34375 132.769531 106.777344 C 132.792969 105.433594 133.023438 103.914062 133.269531 102.316406 C 133.394531 101.46875 133.527344 100.605469 133.628906 99.746094 C 137.425781 101.167969 141.285156 101.585938 143.953125 101.640625 Z M 29.839844 100.71875 C 29.199219 99.359375 28.921875 97.640625 29 95.480469 C 29.039062 94.199219 29.359375 93.480469 29.679688 93.359375 C 30.078125 93.199219 31.039062 92.878906 31.480469 91.878906 C 31.921875 91 31.71875 90.199219 31.640625 89.878906 C 31.359375 88.921875 31.039062 87.960938 30.601562 87.039062 C 30.398438 86.601562 30.160156 86.121094 29.878906 85.679688 C 29.601562 85.160156 29.320312 84.640625 29.078125 84.078125 C 28.121094 81.761719 29.078125 78.519531 30.359375 76.480469 C 30.839844 75.71875 30.761719 74.71875 30.160156 74.078125 C 28.558594 72.359375 27.800781 69.800781 27.679688 65.71875 C 27.441406 59.238281 29.761719 52.601562 34.121094 47.121094 C 34.519531 46.601562 34.679688 45.921875 34.480469 45.320312 C 32.71875 39.160156 34.601562 31.71875 39.320312 26.359375 C 41.839844 23.480469 48.601562 16.800781 56.839844 16.800781 L 57.199219 16.800781 C 59.480469 16.839844 73.800781 16.558594 76.398438 16.078125 C 79.960938 15.441406 83.921875 15.320312 88.558594 15.761719 C 90.960938 15.960938 92.28125 16.359375 94.441406 17.558594 C 97.039062 19 99.078125 21.921875 99.839844 25.320312 C 100.519531 28.320312 100.28125 31.800781 99.199219 35.601562 C 98.441406 38.238281 98.921875 40.761719 99.398438 42.960938 C 100 45.480469 101.761719 47.238281 103.28125 48.800781 C 103.878906 49.398438 104.480469 50 105 50.640625 C 107 53.078125 107.921875 56.679688 107.601562 60.679688 C 107.320312 64.761719 105.921875 69.519531 104.839844 72.761719 C 104.640625 73.320312 104.71875 73.878906 105 74.398438 C 108.800781 81.199219 109.121094 90.878906 105.839844 97.960938 C 105.816406 98.007812 105.746094 98.117188 105.710938 98.179688 C 104.53125 97.230469 103.191406 96.570312 101.960938 96.039062 C 95.519531 93.316406 88.421875 92.285156 81.464844 92.988281 C 81.382812 89.503906 81.070312 85.40625 80.636719 82.328125 C 80.871094 82.121094 81.144531 81.960938 81.367188 81.738281 C 87.71875 75.5 89.03125 66.324219 89.496094 57.339844 C 89.859375 50.269531 89.921875 43.09375 89.671875 36.007812 C 89.667969 35.859375 89.609375 35.734375 89.570312 35.601562 C 90.214844 34.292969 90.546875 32.785156 90.4375 31.226562 C 90.277344 29.050781 89.347656 26.808594 87.675781 24.554688 C 86.289062 22.695312 84.367188 20.4375 81.832031 19.457031 C 78.234375 18.0625 73.71875 18.695312 67.964844 21.414062 C 67.777344 21.503906 67.492188 21.640625 67.527344 21.667969 C 67.449219 21.644531 67.230469 21.519531 66.980469 21.378906 C 61.972656 18.578125 55.238281 18.964844 50.980469 22.296875 C 48.324219 24.371094 46.453125 27.789062 46.210938 30.996094 C 46.152344 31.78125 46.246094 32.542969 46.378906 33.296875 C 46.296875 33.484375 46.214844 33.679688 46.195312 33.894531 L 46.140625 34.511719 C 45.078125 46.070312 43.878906 59.167969 47.316406 70.765625 C 48.238281 73.878906 49.210938 76.160156 50.46875 78.148438 C 51.164062 79.246094 51.980469 80.257812 52.867188 81.191406 C 52.867188 81.269531 52.839844 81.335938 52.851562 81.410156 C 52.972656 82.390625 53.015625 83.445312 53.0625 84.496094 C 53.128906 85.929688 53.191406 87.410156 53.4375 88.769531 C 53.714844 90.359375 53.742188 91.96875 53.632812 93.570312 C 46.402344 95.101562 38.308594 98.203125 30.867188 102.238281 C 30.46875 101.796875 30.105469 101.296875 29.839844 100.71875 Z M 77.472656 95.984375 L 70.285156 115.636719 C 69.601562 114.476562 68.914062 113.316406 68.226562 112.15625 L 61.199219 100.285156 C 60.1875 98.570312 59.085938 96.859375 57.613281 94.703125 C 57.847656 92.492188 57.773438 90.265625 57.378906 88.066406 C 57.191406 86.992188 57.136719 85.785156 57.078125 84.5625 C 59.503906 86.027344 62.222656 87 65.066406 87.328125 C 65.820312 87.410156 66.566406 87.457031 67.320312 87.457031 C 70.6875 87.457031 73.984375 86.511719 76.933594 84.90625 C 77.324219 88.542969 77.550781 92.941406 77.472656 95.984375 Z M 49.769531 38.867188 C 50.183594 39.175781 50.570312 39.527344 51.046875 39.738281 C 53.671875 40.9375 56.746094 40.65625 60.394531 38.886719 C 62.796875 42.105469 66.726562 44.136719 70.761719 44.136719 C 70.839844 44.136719 70.914062 44.136719 70.992188 44.136719 C 74.953125 44.050781 78.761719 42.003906 81.105469 38.84375 C 82.503906 39.496094 84.1875 39.613281 85.722656 39.117188 C 85.859375 45.121094 85.816406 51.160156 85.507812 57.128906 C 85.085938 65.308594 83.949219 73.605469 78.574219 78.882812 C 75.210938 82.183594 70.210938 83.941406 65.527344 83.351562 C 60.84375 82.808594 56.371094 79.996094 53.859375 76.007812 C 52.808594 74.339844 51.976562 72.371094 51.160156 69.617188 C 48.300781 59.992188 48.855469 49.347656 49.769531 38.867188 Z M 53.449219 25.441406 C 56.445312 23.101562 61.429688 22.847656 65.117188 24.910156 C 65.589844 25.179688 66.230469 25.542969 67.085938 25.636719 C 68.164062 25.746094 69.035156 25.328125 69.757812 24.992188 C 74.324219 22.832031 77.898438 22.226562 80.394531 23.1875 C 81.996094 23.804688 83.488281 25.628906 84.472656 26.941406 C 85.683594 28.570312 86.347656 30.113281 86.457031 31.519531 C 86.5625 33.003906 85.964844 34.4375 84.96875 35.09375 C 84.097656 35.65625 82.710938 35.5 82.230469 34.769531 C 81.835938 34.164062 81.15625 33.824219 80.410156 33.867188 C 79.6875 33.925781 79.046875 34.363281 78.742188 35.023438 C 77.378906 37.96875 74.15625 40.070312 70.90625 40.136719 C 67.699219 40.085938 64.355469 38.222656 62.871094 35.335938 C 62.621094 34.847656 62.183594 34.484375 61.65625 34.332031 C 61.472656 34.277344 61.285156 34.246094 61.09375 34.246094 C 60.742188 34.246094 60.394531 34.335938 60.089844 34.515625 C 56.878906 36.382812 54.464844 36.902344 52.699219 36.101562 C 51.101562 35.371094 50.046875 33.347656 50.199219 31.289062 C 50.359375 29.1875 51.664062 26.835938 53.449219 25.441406 Z M 56.28125 171.160156 C 50.320312 171.839844 43.601562 171.359375 35.078125 169.601562 C 34.800781 169.160156 34.480469 168.441406 34.199219 167.519531 L 27.28125 144.398438 C 24.679688 135.71875 21.960938 126.71875 22.480469 117.601562 C 22.558594 115.800781 22.839844 113.480469 24 111.839844 C 24.839844 110.601562 26.238281 109.640625 27.601562 108.800781 C 36.035156 103.421875 46.019531 99.230469 54.632812 97.46875 C 55.855469 99.273438 56.871094 100.835938 57.757812 102.324219 L 64.785156 114.195312 C 66.1875 116.566406 67.59375 118.941406 68.957031 121.324219 C 69.316406 121.953125 69.980469 122.332031 70.691406 122.332031 C 70.746094 122.332031 70.804688 122.328125 70.859375 122.324219 C 71.632812 122.257812 72.300781 121.746094 72.566406 121.019531 L 81.332031 97.054688 C 81.339844 97.027344 81.339844 97 81.347656 96.972656 C 81.433594 96.976562 81.507812 97.007812 81.597656 97 C 87.996094 96.320312 94.476562 97.238281 100.394531 99.761719 C 101.714844 100.28125 103.035156 100.921875 103.875 101.921875 C 104.835938 103.039062 105.277344 104.839844 105.675781 106.359375 C 105.875 107.199219 106.277344 108.238281 106.675781 109.398438 C 107.003906 110.285156 107.382812 111.324219 107.671875 112.285156 C 107.164062 112.972656 106.652344 113.652344 106.234375 114.398438 C 104.957031 116.679688 104.117188 119.160156 103.476562 121.238281 C 102.070312 125.894531 101.085938 132.371094 100.496094 137.054688 C 100.152344 136.902344 99.789062 136.726562 99.511719 136.59375 C 98.316406 136.011719 97.183594 135.46875 96.085938 135.429688 C 93.617188 135.335938 90.03125 134.433594 88.089844 133.421875 C 76.375 127.316406 63.199219 124.59375 50.046875 125.527344 C 49.445312 125.570312 48.890625 125.886719 48.546875 126.386719 C 48.203125 126.882812 48.105469 127.511719 48.277344 128.097656 C 52.191406 141.289062 55.046875 156.089844 56.734375 171.152344 Z M 75.949219 175.375 C 70.988281 175.375 66.09375 175.527344 61.324219 175.921875 C 59.820312 159.753906 56.886719 143.722656 52.824219 129.394531 C 64.3125 129.027344 76.085938 131.671875 86.246094 136.972656 C 88.433594 138.109375 91.929688 139.03125 94.832031 139.316406 L 95.324219 142.574219 C 96.953125 153.65625 98.046875 164.9375 98.644531 176.136719 C 91.085938 175.738281 83.453125 175.375 75.949219 175.375 Z M 102.84375 176.339844 C 102.792969 176.335938 102.734375 176.335938 102.683594 176.332031 C 102.089844 164.878906 100.941406 153.332031 99.277344 141.996094 L 99.089844 140.746094 C 99.945312 141.09375 100.800781 141.367188 101.558594 141.390625 C 103.445312 141.332031 104.109375 141.214844 105.039062 141.027344 C 105.046875 141.027344 105.058594 141.023438 105.0625 141.023438 C 104.671875 152.878906 105.300781 164.804688 106.964844 176.546875 C 105.59375 176.476562 104.210938 176.410156 102.84375 176.339844 Z M 145.074219 176.683594 C 134.234375 177.65625 122.660156 177.324219 111.175781 176.765625 C 111.09375 176.628906 111.058594 176.460938 110.953125 176.351562 C 109.242188 164.445312 108.636719 152.335938 109.085938 140.3125 C 111.027344 139.777344 112.988281 138.804688 114.769531 137.921875 L 115.945312 137.335938 C 124.601562 133.164062 135.535156 132.785156 145.445312 132.636719 C 144 146.648438 143.871094 161.78125 145.074219 176.683594 Z M 166.800781 146.480469 C 165.800781 151.238281 165.359375 155.921875 164.960938 160.441406 C 164.71875 163.28125 164.441406 166.199219 164.039062 169.121094 C 157.632812 171.089844 152.199219 172.183594 148.832031 172.136719 C 147.9375 158.0625 148.167969 143.902344 149.660156 130.832031 C 149.726562 130.261719 149.542969 129.691406 149.15625 129.261719 C 148.773438 128.835938 148.296875 128.597656 147.648438 128.605469 L 147.148438 128.613281 C 136.378906 128.757812 124.175781 128.925781 114.207031 133.730469 L 112.984375 134.335938 C 111.066406 135.292969 108.679688 136.484375 106.890625 136.691406 C 105.710938 136.828125 105.042969 136.953125 104.5 137.058594 C 105.054688 132.71875 105.992188 126.710938 107.324219 122.394531 C 107.882812 120.515625 108.644531 118.316406 109.722656 116.316406 C 113.359375 109.777344 121.445312 106.054688 128.8125 107.410156 C 128.816406 107.425781 128.8125 107.4375 128.816406 107.449219 C 129.742188 111.554688 133.222656 115.027344 137.679688 116.28125 C 139.566406 116.8125 140.808594 117.078125 142.046875 117.078125 C 143.320312 117.078125 144.597656 116.800781 146.574219 116.226562 C 150.683594 115.046875 151.859375 112.496094 152.125 111.742188 C 152.21875 111.464844 152.257812 111.160156 152.222656 110.863281 C 152.207031 110.730469 152.199219 110.5625 152.1875 110.414062 C 159.40625 111.195312 164.273438 117.558594 166.449219 123.515625 C 168.71875 129.640625 168.839844 137.160156 166.800781 146.480469 Z M 166.800781 146.480469 "/>
</g>
</svg>
