<svg xmlns="http://www.w3.org/2000/svg"  viewBox="0 0 512 512" width="192px" height="192px"><path fill="#BCBCBC" d="M332.4 442.8C332.3 442.8 332.3 442.8 332.4 442.8c-6.8.2-13.4 1-20.1 1-1.2 0-2.2-.3-3-.8-.4 2.7-1 5.3-1.8 7.8 8.3-.1 16.6-.3 25-.5C332.5 447.8 332.5 445.3 332.4 442.8zM330.3 421.8c-6.9 1.5-14.3.2-21.3 0 .4 3.7.7 7.5.8 11.2.5-.1 1-.2 1.6-.2 6.7 0 13.3-.8 20-1 0 0 0 0 0 0C331.1 428.5 330.7 425.1 330.3 421.8zM304.2 359.6c-.1.6-.3 1.2-.7 1.8 0 .1 0 .2 0 .4 0 .7 0 1.4.1 2.1.1 1.4.2 2.8.4 4.2.5-.1 1-.2 1.5-.2 7.9-.1 16.1-.9 23.9.7v-8.1C321 360 312.6 359.7 304.2 359.6zM220.3 360.8c0 2 0 4 0 6 8-1.7 16.9-1.2 25-1 0-1.7 0-3.4 0-5.1 0-.2 0-.5 0-.7C237 360.2 228.7 360.4 220.3 360.8zM309.6 243.2c-.5-1.2-1.1-3.3-2.1-4.1-1.8-1.4-9.4-4.3-11.4-2.1-2.2 2.4-3.7 5-6.1 6.8-.1.5-.3 1.1-.7 1.6 0 0 .1.1.1.1.8.7 3.2 1.9 4.7 2.3 4.6 1.3 9.8 1.9 14 .1 1.6-.7 1.9-1.1 2-2.4C310.1 245.8 309.8 243.9 309.6 243.2zM359.4 461.2c-.3-.1-.6-.3-.9-.4-17.5.1-35 .8-52.4 1-.4 5.5-.3 11.6 5.9 12.1 8.2.7 16.4-1.9 24.5-2 6.9-.1 13.9 1 20.8 0 2.9-.4 5.5-.9 5.8-4.3C363.4 464.6 362.2 462.2 359.4 461.2zM329.4 406.8v-5H307c.2 2.5.4 5.1.7 7.6 0 .5.1.9.2 1.4 4.1.1 8.1.5 12.2.6 2.7.1 6.8.6 9.5-.6C329.4 409.5 329.4 408.1 329.4 406.8zM220.4 378.1c0 2.6.1 5.2.1 7.8 6.6 2.5 15.2 1.9 21.9.9.9-.1 1.8-.1 2.5.2 0-.6.1-1.3.1-1.9.1-2.8.2-5.6.2-8.3C237.2 376.5 228.1 375.9 220.4 378.1zM328.8 379.7c-7.4-1.9-15-1-22.5-.9-.5 0-1-.1-1.4-.2 0 .2 0 .4.1.6.5 3.9.8 7.7 1.2 11.6h23.3v-11C329.2 379.8 329 379.7 328.8 379.7zM343.6 239c-2.4.4-5.1 1.3-7.4 2.6.4 1.1.4 2.3-.1 3.6 1.1.5 2.3.8 3.6.8 2.2 0 7.2-.1 8.4-2.5C349.8 239.7 346.7 238.5 343.6 239z"/><path fill="#74CCCF" d="M108.5,333c-16.3,1.2-27.6,13.4-27.2,29.5c0.6,0,1.1-0.1,1.7-0.2c1.4-0.3,2.8-0.7,4.2-1.2c3.5-1.2,6.9-2.6,10.3-3.7c5.6-1.9,14.3-4.1,18.3,2.1c2.3,3.6,2.2,7.8,1.5,11.9c-0.4,2.7-2.1,5.3-3.4,7.7c-1.2,2.1-3.1,3.9-0.4,5c4.9,2,11.3-1.7,15.4-4.3c4.6-2.9,8.7-6.7,10.7-11.9C146.7,349,126.2,331.7,108.5,333z"/><path fill="#BCBCBC" d="M118.3 312.8c-.8.1-1.5 0-2.1-.2-1.5 3.1-3 6.2-4.3 9.4 7.4.2 14.7 2.3 20.9 6.4 1 .7 2 1.4 3 2.1 2.9-3.3 4.4-7.7 5.4-12.4C134.2 314.8 126 312.1 118.3 312.8zM164.5 213.4c-4.5 1.5-8 5.6-10.8 9.8 4.1.4 8.1 1.4 11.7 3.2C165.1 222 164.7 217.7 164.5 213.4zM129.8 284.7c-.3.7-.6 1.5-.9 2.2-2.1 5-4.6 9.9-7.1 14.8 7.3.2 14.7 2.4 21.4 5.3.4-2.2 1-4.2 1.7-6.1 1.2-3.2 2.5-6.3 4-9.4C142.4 289.5 136.5 286 129.8 284.7zM247.4 467.8c0 0-.1 0-.1 0-7.3.1-14.7 1.1-22 1-4.6-.1-9.3-.6-13.9-.9-5-.4-10.3-.9-15.2-.1-.4.1-.7.1-1.1.2-.1.2-.7.7-1 1.4-.7 1.8-1.2 4.4-.4 6.2.9 2.1 2.3 1.3 4.8 1.2 3.8-.1 7.6 1.1 11.4 1.1 7.2.1 14.5-.5 21.7-1.2 4.1-.4 9.1-.8 12.8-3C247.1 472 247.8 470.3 247.4 467.8zM163.8 264.7c-7.4-2.1-18-4.4-25.1-9.6-2.3 6.2-3.8 12.7-5.5 19.1 6.5 1.5 12.3 4.9 18.7 6.7.7.2 1.4.5 1.9.9.1-.2.2-.3.3-.5 1.6-2.8 3.3-5.4 5.2-7.9 1.1-1.5 3-3.4 3.2-5.2.2-1.6 1-2.7 1.9-3.4C164.2 264.8 164 264.8 163.8 264.7zM243.3 397.8c-7 1.1-15.3 1.2-22.6-.5 0 3.2.1 6.4.1 9.6.9-.3 1.9-.4 3.1 0 5.8 1.7 11.6 1 17.5.9.5 0 .9 0 1.3.1.4-3.4.8-6.9 1.2-10.3C243.7 397.7 243.5 397.8 243.3 397.8zM242.1 418.8c-6.8.1-13.7.9-20.3-1.1-.3-.1-.6-.2-.8-.3.1 5.4.1 10.8.2 16.2.3-.2.5-.3.9-.5 4.7-2 9.5-1.4 14.4-1.3 1.3 0 2.6.2 3.9.2.1 0 .3 0 .4 0 .5-.3 1-.6 1.5-.8C242.1 427.1 242 422.9 242.1 418.8zM166.4 243.5c0-2-.1-4-.2-5.9-1.7.4-3.5-.1-5-1.2-3.4-2.4-8.9-2.6-12.9-2.6-.2 0-.3 0-.5 0-1.7 3.4-3.2 6.9-4.7 10.4 2.4 2.9 7.1 4.4 10.4 5.7 4.1 1.6 8.2 2.9 12.4 4.1.3.1.5.2.7.3C166.5 250.6 166.4 247.1 166.4 243.5zM242.8 443c-.3 0-.6 0-.9 0-4.9-.2-11.2-1.7-16.3.5-1.7.7-3.2.6-4.4-.1 0 4.8.1 9.6.1 14.3.1 0 .2 0 .3 0 7.2.5 14.5-.5 21.7-.8C243.3 452.3 243.1 447.6 242.8 443z"/><path fill="#74CCCF" d="M449.3,329.6c-17,1.3-36.4,23.8-24.7,40.1c3.1,4.3,7.5,8.3,12.2,10.9c2.3,1.3,5.6,3.2,8.3,2c1.3-0.6,2.8-1.1,2-2.4c-4.3-6.9-13.6-13.1-9.2-22.5c3.6-7.7,13.9-11.4,21.9-9.5c4.5,1.1,7,3.7,9.9,7.1c1.2,1.5,3,4.3,4.8,4.8C475.2,345.6,466.1,328.3,449.3,329.6z"/><path fill="#D6E5E5" d="M357.9,152.6c-0.6-10.5-0.4-21-1.4-31.4c-0.9-10-2.4-20.3-6.9-29.4c-4-8-11.3-10.7-19.8-11.3c-8.8-0.6-17.6,0.4-26.4,0.3c-13-0.1-26-0.4-39-0.8c-25.9-0.8-51.7-1.7-77.6-1.2c0,1.1,0.1,2.2,0.2,3.2c0.4,4.1,0.9,8.3,1.5,12.4c1.3,9.3,2.9,18.6,4.1,28c1.5,11.8,0.7,23.8,0.7,35.6c0,9.6,1.8,20.2,0.2,29.9c28.7,0.5,57.4,4,86.2,2.4c14.6-0.8,29.2-2.3,43.8-2.5c7.5-0.1,15-0.3,22.5,0c1.9,0.1,3.8,0.2,5.6,0.2c0.7,0,1.3,0,2,0c1.1-0.9,2.6-1.4,4-1.2C358.9,175.5,358.6,164,357.9,152.6z M250.6,137.4c-13.7,9.6-35.8-3.7-33.2-20.2c0.3-2,1.8-3.4,3.6-4.1c0.2-0.2,0.3-0.3,0.3-0.3c0.5-0.3,1.1-0.6,1.7-0.8c1.4-0.5,2.6-0.4,3.7,0c7.2-4.7,18.4-3.1,24.5,2.7C257.8,120.9,258.5,131.9,250.6,137.4z M291,162.9c-5.6,6.3-15.3,4-22.7,3.9c-7-0.1-7.9-11.1-0.8-11c3.2,0,13.4,2,15.3-0.1C287.4,150.4,295.7,157.6,291,162.9z M331,124.2c-1.9,8.2-10.5,11.1-18,11.8c-6.9,0.6-15.4,0.5-21.7-2.8c-2.4-1.2-3.1-3.4-2.9-5.5c-1.5-1.4-2.1-3.6-0.6-5.9c2.7-4.2,5-9.8,9.7-12.3c4.7-2.5,10-3.4,15.3-3C322,107.4,333.6,113,331,124.2z"/><path fill="#BCBCBC" d="M436 296.5c-3.4 3-8.6 4.9-11.9 6.4-3.1 1.4-6.3 2.7-9.5 4.1 3.8 7.1 7.4 14.4 11 21.6 6.4-5.5 14.2-9.3 22.2-9.9C445 310.7 440.6 303.5 436 296.5zM425.8 280.2c-1-1.8-1.9-3.5-2.8-5.3-6.3 4.7-14.3 7.2-20.3 12.4.2.3.5.7.7 1 2 2.9 3.9 6 5.7 9 3.1-1.3 6.2-2.5 9.2-3.9 2.5-1.1 5.1-2.3 7.5-3.7 1-.6 1.9-1.1 2.8-1.8.1-.1.2-.1.2-.2 0 0 0 0 0 0 .2-.5.4-.9.7-1.3C428.3 284.5 427 282.4 425.8 280.2zM338.9 30.8c-1.6-.2-9.8-1.2-9.1 2.4.5 2.3.3 4.2-.6 5.8.5.1.9.2 1.4.3 3.8 1 7.7 2.5 10.3-1.3C343 34.7 343.5 31.4 338.9 30.8zM206.2 32.5c-2.7 2.1 6 8.2 8.2 8.3.6 0 1.1.1 1.6.3C223 37.7 210.5 29.2 206.2 32.5zM243.2 122.4c-3.2-2.2-8.1-3-11.3-.6-1.1.8-2.2 1.2-3.2 1.1 2.2 5 10.3 8.1 15 5.9C246.8 127.4 245.3 123.9 243.2 122.4zM320.2 121.6c0-.1-.6-1.8-.5-1.8-2.1-1.7-5.7-2.3-8.4-2.4-2.7 0-6.1 0-8.4 1.8-1.6 1.3-2.7 3.2-3.8 5.1 2.9.7 6.5 1 9.5.9 3.4-.1 9.6-.2 11.6-3C320.3 122.2 320.3 122.3 320.2 121.6zM398.6 233.2c-.5.5-1.2 1-2 1.3-3.5 1.4-7.3 2.9-10.5 5-.3 2.3-1.8 4.3-4.9 4.3h-.6c.4 6 .8 12.1 1.3 18.1 0 0 0 0 0 0 2.5-2.9 5.7-5.4 8.5-7.7 4.9-4 10.1-7.6 15-11.5C403.3 239.5 401.1 236.3 398.6 233.2z"/><path fill="#D6E5E5" d="M373.4,321.7c0-12,0-24.1-0.9-36.1c-1.7-23.1-3.8-46.4-4.1-69.6c-14.2-1.3-28.7-0.4-43-0.3c-17.6,0.1-35.1,0.6-52.6,0.8c-17.2,0.2-34.4,0.1-51.6-1.2c-15.2-1.1-30.4-2.7-45.7-3.4c0.3,5.4,0.9,10.8,1.4,16.2c0.5,6.1,0.4,12.2,0.5,18.4c0.1,12.6,1.4,25.1,1.2,37.6c-0.2,13.3-1.1,26.5-1.2,39.8c-0.1,9.5-0.5,18.7-2.8,27.7c14.4-0.2,28.7-1.2,43.1-1.9c17.8-0.8,35.6-1,53.4-1.2c19.3-0.2,38.6-0.4,57.9,0.8c13.7,0.8,29,3.6,42.5,0c0-0.5,0.2-1.1,0.4-1.7C375,339.9,373.4,330,373.4,321.7z M324.7,236.7c5.8-5.5,15.5-10.3,23.8-8.6c9.1,1.9,14,12.7,9.1,20.9c-4.2,7-14.1,9.1-21.6,7.6c-6.6-1.3-12.6-6.2-11.1-12.8C322.9,241.9,322.2,239,324.7,236.7z M279.5,240.6c-0.3-2.3,0.7-4.7,3.6-5.5c2.3-0.7,3.7-4.5,5.5-6.1c2.7-2.4,6.3-3.6,9.9-3.5c7,0.3,15.3,2,18.9,8.7c4.8,8.6,5.3,18.8-4.7,23.6C301.9,263,270.6,256.8,279.5,240.6z M358.3,341.8c-15.3,0.2-31,5.1-45.9-0.6c-2.8-1.1-3.5-3.4-3-5.6c-1.4-1.4-1.9-3.5-0.5-5.8c1.7-2.7,1.2-6.8,1-9.8c-0.2-4-0.3-8.1-0.6-12.1c-0.6-10.6-4.7-20.6-5-31.2c0-2.2,1-3.8,2.5-4.8c0.6-1.7,2.1-3.1,4.6-3.1c13.7-0.2,27.2-3.8,41-3c3.1,0.2,5.5,1.8,5.9,5.1c2.9,21.6,4.9,43.2,5,65C363.3,338.7,361.4,341.7,358.3,341.8z"/><path fill="#FEBF10" d="M348,276.7c-10.9,0.2-21.6,2.5-32.4,3c0.5,4.8,1.7,9.4,2.7,14.2c1.2,5.7,1.8,11.1,2.1,16.9c0.3,6.4,2,15-0.4,21.5c10.2,2.7,21.7-0.2,32.3-1.1C352,312.9,350.3,294.8,348,276.7z"/><path fill="#BCBCBC" d="M412.6 254.6c-.4-.8-.9-1.6-1.4-2.4-4.2 3.3-8.5 6.3-12.7 9.6-2.9 2.3-8.5 6.3-10 9.6.7.7 1.4 1.4 2.1 2.2 1.8 1.7 3.5 3.5 5.1 5.3 3.5-2.8 7.3-5 11.3-7.1 3.3-1.8 8.3-3.7 11-6.7C416.3 261.5 414.5 258 412.6 254.6zM379.4 218c.1 4.2.3 8.4.5 12.6 3.5-2.3 7.4-4.1 11.3-5.8C387.9 221.5 383.7 218.1 379.4 218z"/><path d="M369,153.5c-0.6-11.6-0.6-23.2-1.6-34.8c-1-10.9-3.1-22-8-31.9c-4.4-8.9-11.6-14.1-21.2-16.3c-8.8-2-18.1-1.2-27-0.8c-2.2,0.1-4.5,0.1-6.7,0.2c1.9-3.3,5.8-6,8.2-8.5c2.8-2.9,5.4-11.3,9.7-12.1c4.5-0.8,9.4,2.1,14,2.2c6.2,0.1,11.4-3.4,14.4-8.8c5.7-10.4,1.2-21.3-11-22.9c-4.9-0.6-10.7-0.5-15,2.2c-2.4,1.5-4.4,4.5-5.4,7.1c-0.5,1.2-0.8,2.6-0.7,4c0,0.1,0,0.3,0,0.4c-1.4,1.5-1.6,3.7-0.9,5.6c-4.5,1.4-7.3,5.8-9.7,9.5c-2.6,3.9-5.4,7.3-8.8,10.5c-3.2,3-5.9,6.3-6.7,10.6c-7.1-0.1-14.2-0.4-21.3-0.6c-8.2-0.2-16.4-0.5-24.5-0.7c-0.4-1.2-1.2-2.3-2.5-3.1c-7-4.2-14.2-10.6-19.1-17.6c4.4-4.3,5.6-10.3,1.7-16.8c-4.6-7.8-14.7-11.5-23.2-9.3c-7.9,2-10.3,10.8-7.2,17.6c2.4,5.4,6.8,9.3,12.1,11.2c0.9,0.8,2.2,1.3,3.7,1.3h2.4c3.7,6,8.8,11.5,14.5,16.2c-14.9-0.4-29.8-0.5-44.8-0.2c-1.5,0-2.6,0.5-3.4,1.3c-1.1,0.1-2.3,0.6-3.3,1.5c-4.1,3.8-1.6,13.8-1,18.4c1.2,9.9,2.9,19.7,4.3,29.6c1.5,10.2,1.3,20.2,1.3,30.5c0,7.5-0.1,15,0.3,22.5c0.3,5.7,1.3,12.6-0.7,18.1c-1,2.6,0,5,1.7,6.5c1,1.4,2.5,2.5,4.7,2.5c17.1,0.1,34.2,1.4,51.3,2.3c17.5,0.9,34.9,0.7,52.4-0.5c17.5-1.2,34.8-1.8,52.3-1.8c4.2,0,8.4,0.6,12.6,0.1c2.3-0.3,4.2-1.6,5.2-3.3c2.7,0.6,5.8-0.6,6.2-4.2C369.8,178.8,369.6,166.1,369,153.5z M329.8,33.2c-0.7-3.6,7.5-2.6,9.1-2.4c4.6,0.6,4.1,3.9,1.9,7.2c-2.6,3.8-6.5,2.3-10.3,1.3c-0.5-0.1-0.9-0.2-1.4-0.3C330.1,37.4,330.3,35.5,329.8,33.2z M216,41.1c-0.5-0.2-1-0.3-1.6-0.3c-2.2-0.1-10.9-6.2-8.2-8.3C210.5,29.2,223,37.7,216,41.1z M357.7,186.9c-1.5-0.2-2.9,0.3-4,1.2c-0.7,0-1.3,0-2,0c-1.9,0-3.8-0.2-5.6-0.2c-7.5-0.3-15-0.1-22.5,0c-14.6,0.2-29.2,1.6-43.8,2.5c-28.8,1.6-57.4-1.9-86.2-2.4c1.6-9.7-0.2-20.3-0.2-29.9c0-11.8,0.8-23.9-0.7-35.6c-1.2-9.3-2.8-18.6-4.1-28c-0.6-4.1-1.1-8.2-1.5-12.4c-0.1-1.1-0.2-2.2-0.2-3.2c25.9-0.5,51.7,0.4,77.6,1.2c13,0.4,26,0.7,39,0.8c8.8,0.1,17.6-0.9,26.4-0.3c8.5,0.6,15.8,3.3,19.8,11.3c4.5,9.1,6,19.4,6.9,29.4c1,10.4,0.8,21,1.4,31.4C358.6,164,358.9,175.5,357.7,186.9z"/><path d="M251.2 114.8c-6.1-5.7-17.3-7.3-24.5-2.7-1.1-.4-2.3-.5-3.7 0-.6.2-1.2.4-1.7.8 0 0-.1.1-.3.3-1.8.7-3.3 2-3.6 4.1-2.6 16.5 19.5 29.7 33.2 20.2C258.5 131.9 257.8 120.9 251.2 114.8zM243.7 128.9c-4.7 2.2-12.8-.9-15-5.9 1 0 2.1-.3 3.2-1.1 3.2-2.4 8.1-1.6 11.3.6C245.3 123.9 246.8 127.4 243.7 128.9zM313 106.6c-5.3-.5-10.6.5-15.3 3-4.7 2.4-7 8.1-9.7 12.3-1.5 2.3-.9 4.5.6 5.9-.3 2 .5 4.2 2.9 5.5 6.3 3.3 14.8 3.4 21.7 2.8 7.5-.7 16.1-3.6 18-11.8C333.6 113 322 107.4 313 106.6zM320.2 122.3c-2 2.7-8.2 2.9-11.6 3-3 .1-6.6-.1-9.5-.9 1.1-1.9 2.1-3.8 3.8-5.1 2.3-1.9 5.7-1.9 8.4-1.8 2.6 0 6.3.6 8.4 2.4 0 0 .5 1.6.5 1.8C320.3 122.3 320.3 122.2 320.2 122.3zM282.7 155.7c-1.9 2.2-12 .2-15.3.1-7.1-.1-6.2 10.9.8 11 7.4.1 17.1 2.5 22.7-3.9C295.7 157.6 287.4 150.4 282.7 155.7zM459.3 319.8c.1-.7 0-1.5-.2-2.3-5-15.9-15.9-29.1-24.1-43.4-5.3-9.3-9.4-19.2-14.9-28.4-6-10.3-12.9-20.5-21.5-28.9-5.2-5.1-12.2-9.8-19.6-9.7-.9-.7-2.1-1.2-3.5-1.2h-.2c-15.5-2-31.1-1-46.7-1-17.6 0-35.1.5-52.7.8-17.6.3-35 .3-52.6-1-17.6-1.3-35.2-3.1-52.8-3.8-1.4-.1-2.4.3-3.2 1-.2 0-.5 0-.8 0-19.4 1.7-28.7 26.2-34.9 41.5-1.5 3.8-3 7.7-4.6 11.5-2.9 6.8-3.8 14.9-6 22-4.6 15.2-14.5 28.2-20 43-.4 1.1-.5 2.2-.3 3.2-5.9 1.4-11.5 4-16.3 7.7-10.4 8.2-14.9 20.9-14 33.9.1 1.9 1 3.2 2.2 4 .3 1.4 1.2 2.7 2.9 3.5 6.6 3.2 14.3-.2 20.6-2.6 3-1.1 6.1-2.5 9.2-3.1.5-.1 1.1-.1 1.5-.1 0 .2 0 .4 0 .7-.3 5-4.6 9.2-5.7 14.1-1.4 6 3.5 11.1 8.6 13.1 11 4.4 24.1-3.6 32.1-10.7 8.3-7.5 11.7-19.5 9.3-30.3-1.3-5.7-3.8-10.7-7.3-15.1 7.8-8.1 8.2-21.5 10.9-31.8 1.9-7 5.8-13.9 9.3-20.2 1-1.8 2.3-3.5 3.7-5.3 0 .1 0 .2 0 .3.1 12-.7 24-1.1 36-.4 11.9.4 24.2-3.6 35.6-.7 2.1-.3 4 .8 5.4.5 2.4 2.5 4.5 5.6 4.5 13.4 0 26.7-.8 40.1-1.5 0 31.9.9 63.7 1 95.6-3.2-.2-6.4-.4-9.7-.4-6.7 0-12.1 1-15.9 6.9-4 6.1-3.3 16.2 2 21.2 2.3 2.2 4.9 3.2 8 3.2 4.7.1 9.3.8 14 1 9.2.3 18.6-.4 27.8-1.7 6.1-.9 12.6-2.6 17.3-6.9 5.5-5 5.6-12.2 3.2-18.8-.6-1.6-1.6-2.6-2.9-3.1.1-.5.2-.9.2-1.5-.1-16.2-2.4-32.4-.6-48.6 1.8-16.2 2.6-32.1 2.6-48.4 0 0 0 0 0 0 5.2-.1 10.4-.1 15.6-.2 6.9-.1 13.7-.1 20.6-.1-.4 3.2.2 7 .4 9.6.9 9.9 2.3 19.8 3.1 29.8.7 8.8 1.4 17.6 2.1 26.4.6 7.9 1.4 17.2-2.2 24.5-1 1.9-.7 3.7.2 5.1-.4.8-.7 1.7-.7 2.8-.1 10.2-1 22.9 11.3 26.3 10.8 3 22.2-1.5 33.1-1.2 8.9.2 21.8 2.5 29.1-4 8.4-7.4 6.3-23.6-4.6-27.5-.4-.2-.9-.3-1.3-.3-.9-.8-2.1-1.2-3.6-1.2-5.4 0-10.7.1-16.1.2.7-14.8-3-29.3-3-44.1v-44.6c13.2 1.1 27 2 39.3-2.8 3.6-1.4 4.2-5.2 2.8-7.8 2.6-8.2 2-17.2 1.9-25.7-.2-12.1 0-24.2-.7-36.2-.1-2.3-.3-4.6-.4-6.9 3.4 3.6 7 7.2 10 11.3 2.4 3.3 4.6 6.7 6.8 10.3-1.2 3.4.8 7.8 4.4 7.7 4.3 7.9 8.2 16.1 12.2 24.1.3.7.8 1.3 1.3 1.7-3.9 5.4-6.6 11.5-7.6 17.7-1.8 11.8 4.4 22.5 13.2 29.9 9.1 7.7 22.6 14.4 32.3 3.7 8.5-9.4-4.1-17.1-7.8-24.6-1.6-3.4 6.1-4.5 7.8-4.6 1 0 2 .2 3 .5-1.8-.4-.2.1.6.8 1.9 1.8 3.5 4 5.2 5.9 3.8 4.3 9.5 7 15.1 4.3 1.1-.5 1.8-1.2 2.4-2 1.6-.5 3-1.8 3.2-4.1.2-1.8.3-3.6.3-5.4v0C485.5 341.7 476.6 325 459.3 319.8zM164.5 213.4c.2 4.3.6 8.7.9 13-3.6-1.8-7.6-2.8-11.7-3.2C156.5 219 160 214.9 164.5 213.4zM139.5 367.8c-2 5.2-6.1 9-10.7 11.9-4.1 2.5-10.4 6.2-15.4 4.3-2.7-1.1-.8-2.9.4-5 1.3-2.3 3-5 3.4-7.7.7-4.1.8-8.2-1.5-11.9-3.9-6.2-12.6-4-18.3-2.1-3.5 1.2-6.9 2.6-10.3 3.7-1.4.5-2.8.9-4.2 1.2-.6.1-1.1.1-1.7.2-.4-16.1 10.9-28.3 27.2-29.5C126.2 331.7 146.7 349 139.5 367.8zM135.8 330.5c-1-.7-2-1.5-3-2.1-6.2-4.1-13.5-6.2-20.9-6.4 1.3-3.2 2.8-6.3 4.3-9.4.6.2 1.3.3 2.1.2 7.8-.7 15.9 2 22.9 5.3C140.2 322.8 138.7 327.2 135.8 330.5zM144.9 300.8c-.7 1.9-1.2 4-1.7 6.1-6.7-2.9-14.1-5.1-21.4-5.3 2.5-4.8 5-9.7 7.1-14.8.3-.7.6-1.5.9-2.2 6.7 1.3 12.6 4.8 19.1 6.7C147.5 294.5 146.1 297.7 144.9 300.8zM162.5 268.2c-.2 1.8-2.1 3.7-3.2 5.2-1.9 2.5-3.6 5.1-5.2 7.9-.1.2-.2.3-.3.5-.5-.4-1.2-.7-1.9-.9-6.4-1.8-12.2-5.2-18.7-6.7 1.8-6.4 3.3-12.8 5.5-19.1 7.1 5.1 17.7 7.5 25.1 9.6.2.1.4.1.6.1C163.4 265.5 162.7 266.6 162.5 268.2zM165.9 253.9c-4.2-1.2-8.3-2.5-12.4-4.1-3.3-1.3-8-2.8-10.4-5.7 1.5-3.5 3-7 4.7-10.4.2 0 .3 0 .5 0 4 0 9.5.3 12.9 2.6 1.5 1.1 3.3 1.6 5 1.2.1 2 .2 3.9.2 5.9 0 3.5.1 7.1.2 10.6C166.4 254.1 166.2 254 165.9 253.9zM244.2 473.7c-3.6 2.2-8.7 2.5-12.8 3-7.2.8-14.4 1.3-21.7 1.2-3.8-.1-7.6-1.2-11.4-1.1-2.5 0-3.9.9-4.8-1.2-.8-1.9-.3-4.4.4-6.2.3-.7.9-1.2 1-1.4.3-.1.7-.1 1.1-.2 5-.8 10.2-.3 15.2.1 4.6.3 9.2.9 13.9.9 7.3.1 14.7-.9 22-1 0 0 .1 0 .1 0C247.8 470.3 247.1 472 244.2 473.7zM242.3 431.3c-.5.2-1 .5-1.5.8-.1 0-.3 0-.4 0-1.3 0-2.6-.2-3.9-.2-4.9-.1-9.7-.7-14.4 1.3-.3.1-.6.3-.9.5-.1-5.4-.1-10.8-.2-16.2.3.1.5.2.8.3 6.6 2 13.5 1.2 20.3 1.1C242 422.9 242.1 427.1 242.3 431.3zM225.7 443.5c5.1-2.2 11.3-.6 16.3-.5.3 0 .6 0 .9 0 .2 4.6.5 9.2.5 13.9-7.2.3-14.5 1.3-21.7.8-.1 0-.2 0-.3 0 0-4.8 0-9.6-.1-14.3C222.4 444.1 224 444.2 225.7 443.5zM242.7 407.9c-.4-.1-.8-.1-1.3-.1-5.9.1-11.8.8-17.5-.9-1.2-.4-2.2-.3-3.1 0 0-3.2-.1-6.4-.1-9.6 7.3 1.7 15.6 1.5 22.6.5.2 0 .4-.1.6-.1C243.5 401.1 243.1 404.5 242.7 407.9zM242.4 386.8c-6.7 1-15.3 1.5-21.9-.9 0-2.6-.1-5.2-.1-7.8 7.7-2.2 16.7-1.6 24.8-1.4-.1 2.8-.1 5.6-.2 8.3 0 .6-.1 1.3-.1 1.9C244.2 386.7 243.4 386.7 242.4 386.8zM220.4 366.8c0-2 0-4 0-6 8.4-.4 16.7-.6 25.1-.8 0 .2 0 .5 0 .7 0 1.7 0 3.4 0 5.1C237.3 365.6 228.4 365.1 220.4 366.8zM303.5 363.8c0-.7-.1-1.4-.1-2.1 0-.1 0-.2 0-.4.4-.6.6-1.2.7-1.8 8.4.1 16.8.4 25.2.9v8.1c-7.8-1.6-16-.8-23.9-.7-.6 0-1.1.1-1.5.2C303.8 366.6 303.6 365.2 303.5 363.8zM331.4 431.8c-6.7.2-13.3 1-20 1-.6 0-1.1.1-1.6.2-.1-3.7-.4-7.5-.8-11.2 7 .2 14.4 1.5 21.3 0C330.7 425.1 331.1 428.5 331.4 431.8 331.5 431.8 331.4 431.8 331.4 431.8zM332.3 442.8C332.3 442.8 332.3 442.8 332.3 442.8c.2 2.5.2 5 .1 7.5-8.3.2-16.6.4-25 .5.9-2.5 1.5-5.1 1.8-7.8.8.5 1.8.8 3 .8C319 443.7 325.6 442.9 332.3 442.8zM320 411.4c-4.1-.1-8.1-.5-12.2-.6-.1-.5-.1-1-.2-1.4-.3-2.5-.5-5.1-.7-7.6h22.4v5c0 1.4 0 2.7.1 4.1C326.8 412 322.7 411.5 320 411.4zM304.9 378.6c.4.1.9.2 1.4.2 7.5-.1 15.2-1 22.5.9.2 0 .4.1.6.1v11h-23.3c-.3-3.9-.7-7.7-1.2-11.6C304.9 379 304.9 378.8 304.9 378.6zM358.5 460.8c.3.2.6.3.9.4 2.8 1 4 3.4 3.7 6.3-.3 3.4-2.9 3.9-5.8 4.3-6.9 1-13.9-.1-20.8 0-8.2.2-16.3 2.7-24.5 2-6.2-.5-6.2-6.6-5.9-12.1C323.5 461.6 341 460.9 358.5 460.8zM371.9 347.8c-.2.6-.3 1.1-.4 1.7-13.6 3.6-28.9.8-42.5 0-19.3-1.2-38.6-1-57.9-.8-17.8.2-35.6.3-53.4 1.2-14.4.7-28.7 1.6-43.1 1.9 2.3-9.1 2.7-18.3 2.8-27.7.1-13.3 1.1-26.5 1.2-39.8.2-12.6-1.1-25.1-1.2-37.6-.1-6.1 0-12.3-.5-18.4-.5-5.4-1.1-10.8-1.4-16.2 15.3.7 30.5 2.3 45.7 3.4 17.2 1.3 34.4 1.5 51.6 1.2 17.6-.2 35.1-.7 52.6-.8 14.3-.1 28.8-1 43 .3.3 23.2 2.4 46.5 4.1 69.6.9 12 .9 24 .9 36.1C373.4 330 375 339.9 371.9 347.8zM379.4 218c4.2.1 8.4 3.5 11.8 6.8-3.9 1.6-7.8 3.4-11.3 5.8C379.7 226.4 379.5 222.2 379.4 218zM382 262C382 261.9 382 261.9 382 262c-.5-6.1-.9-12.1-1.3-18.2h.6c3 0 4.6-2 4.9-4.3 3.3-2.1 7-3.6 10.5-5 .8-.3 1.5-.8 2-1.3 2.4 3.1 4.7 6.3 6.8 9.6-4.9 3.9-10.1 7.5-15 11.5C387.7 256.5 384.5 259 382 262zM395.8 278.9c-1.6-1.8-3.3-3.5-5.1-5.3-.7-.7-1.4-1.4-2.1-2.2 1.5-3.3 7.1-7.4 10-9.6 4.1-3.3 8.5-6.3 12.7-9.6.5.8.9 1.6 1.4 2.4 2 3.4 3.7 6.9 5.5 10.4-2.7 3-7.7 5-11 6.7C403.1 273.9 399.2 276 395.8 278.9zM403.4 288.3c-.2-.4-.5-.7-.7-1 6-5.3 14-7.7 20.3-12.4.9 1.8 1.9 3.6 2.8 5.3 1.2 2.2 2.5 4.3 3.8 6.4-.3.4-.5.8-.7 1.3 0 0 0 0 0 0-.1 0-.1.1-.2.2-.9.7-1.9 1.2-2.8 1.8-2.4 1.4-5 2.5-7.5 3.7-3 1.4-6.1 2.6-9.2 3.9C407.3 294.3 405.4 291.3 403.4 288.3zM414.6 307c3.2-1.3 6.4-2.6 9.5-4.1 3.3-1.5 8.5-3.4 11.9-6.4 4.6 7 9 14.2 11.8 22.1-8.1.7-15.8 4.4-22.2 9.9C422 321.3 418.4 314.1 414.6 307zM474.6 360.2c-1.9-.5-3.6-3.3-4.8-4.8-2.9-3.4-5.4-6-9.9-7.1-8-1.9-18.3 1.8-21.9 9.5-4.3 9.3 4.9 15.6 9.2 22.5.8 1.3-.7 1.8-2 2.4-2.7 1.2-6-.7-8.3-2-4.6-2.6-9.1-6.6-12.2-10.9-11.7-16.3 7.6-38.8 24.7-40.1C466.1 328.3 475.2 345.6 474.6 360.2z"/><path d="M317.4 234.2c-3.7-6.6-12-8.4-18.9-8.7-3.6-.1-7.2 1.1-9.9 3.5-1.8 1.6-3.2 5.4-5.5 6.1-2.9.9-3.9 3.2-3.6 5.5-8.9 16.2 22.4 22.3 33.2 17.2C322.7 253.1 322.2 242.8 317.4 234.2zM308 247.9c-4.2 1.8-9.3 1.2-14-.1-1.4-.4-3.8-1.6-4.7-2.3 0 0-.1-.1-.1-.1.3-.5.5-1.1.7-1.6 2.4-1.8 3.9-4.4 6.1-6.8 2.1-2.3 9.6.7 11.4 2.1 1 .8 1.6 2.9 2.1 4.1.3.7.5 2.6.5 2.4C310 246.8 309.7 247.2 308 247.9zM348.5 228.1c-8.2-1.7-17.9 3.1-23.8 8.6-2.5 2.4-1.8 5.3.1 7.1-1.5 6.6 4.5 11.5 11.1 12.8 7.6 1.5 17.4-.6 21.6-7.6C362.4 240.8 357.6 230 348.5 228.1zM348.1 243.4c-1.2 2.4-6.2 2.5-8.4 2.5-1.3 0-2.5-.3-3.6-.8.5-1.3.5-2.5.1-3.6 2.3-1.3 5-2.2 7.4-2.6C346.7 238.5 349.8 239.7 348.1 243.4zM358.3 270.9c-.4-3.3-2.8-4.9-5.9-5.1-13.8-.8-27.3 2.8-41 3-2.5 0-4 1.4-4.6 3.1-1.5.9-2.5 2.6-2.5 4.8.2 10.6 4.3 20.6 5 31.2.2 4 .4 8.1.6 12.1.2 3 .7 7.1-1 9.8-1.4 2.3-.9 4.4.5 5.8-.6 2.2.2 4.5 3 5.6 14.9 5.7 30.5.8 45.9.6 3.2 0 5.1-3.1 5.1-5.9C363.3 314.1 361.2 292.4 358.3 270.9zM320 332.2c2.4-6.5.7-15 .4-21.5-.3-5.8-.9-11.2-2.1-16.9-1-4.8-2.2-9.4-2.7-14.2 10.9-.5 21.6-2.8 32.4-3 2.3 18.1 4 36.2 4.3 54.4C341.7 332.1 330.2 334.9 320 332.2z"/></svg>