<?xml version="1.0" encoding="UTF-8"?>
<svg xmlns="http://www.w3.org/2000/svg" xmlns:xlink="http://www.w3.org/1999/xlink" viewBox="0 0 192 192" width="192px" height="192px">
<g id="surface162629420">
<path style=" stroke:none;fill-rule:nonzero;fill:rgb(73.333335%,89.411765%,94.509804%);fill-opacity:1;" d="M 101.3125 14.027344 C 100.953125 13.988281 100.59375 13.992188 100.230469 14.039062 C 80.125 16.722656 58.289062 21.679688 42.351562 34.167969 C 22.722656 49.550781 12.367188 73.210938 14.308594 98.070312 C 15.539062 113.84375 22.070312 132.054688 31.550781 144.722656 C 41.027344 157.386719 54.632812 167.066406 69.921875 171.132812 C 74.648438 172.386719 79.496094 173.113281 84.34375 173.765625 C 93.925781 175.046875 103.667969 174.710938 113.09375 172.554688 C 119.464844 171.097656 125.722656 169.351562 131.605469 166.492188 C 137.847656 163.457031 144.160156 160.375 149.535156 155.980469 C 159.015625 148.230469 164.914062 136.960938 169.359375 125.546875 C 173.074219 116.003906 175.988281 105.949219 175.820312 95.707031 C 175.71875 89.554688 174.507812 83.464844 172.796875 77.554688 C 169.546875 66.351562 164.4375 55.632812 157.304688 46.398438 C 143.941406 29.097656 123.039062 16.527344 101.3125 14.027344 Z M 101.3125 14.027344 "/>
<path style=" stroke:none;fill-rule:nonzero;fill:rgb(0%,0%,0%);fill-opacity:1;" d="M 67.875 81.429688 C 67.042969 79.007812 63.175781 80.046875 64.019531 82.492188 C 64.367188 83.503906 63.890625 84.472656 63.566406 85.445312 C 63.164062 86.648438 62.765625 87.847656 62.367188 89.050781 C 61.628906 91.300781 60.898438 93.554688 60.167969 95.808594 C 59.140625 98.96875 58.046875 102.101562 56.960938 105.234375 C 56.84375 104.84375 56.738281 104.445312 56.640625 104.035156 C 56.175781 102.148438 55.695312 100.28125 55.054688 98.441406 C 53.703125 94.554688 51.882812 90.859375 49.644531 87.410156 C 48.671875 85.921875 46.5625 86.253906 45.988281 87.886719 C 43.8125 94.089844 42.078125 100.40625 40.652344 106.816406 C 39.960938 105.921875 39.640625 104.730469 39.207031 103.460938 C 38.386719 101.027344 37.578125 98.59375 36.78125 96.152344 C 35.140625 91.167969 33.511719 86.179688 31.816406 81.214844 C 30.984375 78.796875 27.121094 79.835938 27.957031 82.28125 C 29.9375 88.070312 31.820312 93.898438 33.742188 99.710938 C 35.265625 104.308594 36.003906 110.488281 41.40625 111.910156 C 42.398438 112.171875 43.648438 111.585938 43.867188 110.515625 C 45.0625 104.699219 46.652344 99 48.460938 93.351562 C 49.804688 95.898438 50.941406 98.546875 51.785156 101.320312 C 52.816406 104.722656 53.085938 108.902344 56.070312 111.28125 C 57.289062 112.246094 58.863281 111.902344 59.414062 110.394531 C 61.199219 105.5 62.824219 100.546875 64.4375 95.59375 C 65.203125 93.21875 65.972656 90.847656 66.761719 88.484375 C 67.507812 86.226562 68.699219 83.820312 67.875 81.429688 Z M 67.875 81.429688 "/>
<path style=" stroke:none;fill-rule:nonzero;fill:rgb(0%,0%,0%);fill-opacity:1;" d="M 112.234375 77.40625 C 109.714844 85.621094 107.78125 93.996094 105.484375 102.269531 C 103.609375 97.703125 101.59375 93.203125 99.390625 88.777344 C 98.585938 87.152344 96.226562 87.71875 95.734375 89.253906 C 94.027344 94.585938 91.707031 99.679688 89.667969 104.886719 C 85.867188 97.28125 82.480469 89.492188 80.027344 81.324219 C 79.296875 78.863281 75.4375 79.910156 76.175781 82.386719 C 79.148438 92.304688 83.441406 101.726562 88.21875 110.886719 C 89.0625 112.503906 91.355469 111.949219 91.875 110.410156 C 93.652344 105.179688 95.957031 100.15625 97.929688 95 C 100.101562 99.558594 102.167969 104.160156 103.878906 108.929688 C 104.535156 110.757812 107.136719 110.894531 107.734375 108.929688 C 110.824219 98.859375 113.003906 88.539062 116.09375 78.472656 C 116.847656 76.003906 112.988281 74.953125 112.234375 77.40625 Z M 112.234375 77.40625 "/>
<path style=" stroke:none;fill-rule:nonzero;fill:rgb(0%,0%,0%);fill-opacity:1;" d="M 176.839844 86.011719 C 170.976562 52.386719 146.148438 23.351562 112.988281 14.273438 C 109.15625 13.214844 105.257812 12.503906 101.3125 12.027344 C 97.554688 11.832031 93.363281 13 89.671875 13.644531 C 85.472656 14.375 81.292969 15.234375 77.152344 16.269531 C 69.03125 18.292969 61.039062 21 53.554688 24.769531 C 39.539062 31.820312 27.863281 43.253906 20.613281 57.179688 C 5.746094 85.730469 11.484375 122.425781 31.097656 147.394531 C 41.125 160.164062 55.320312 169.726562 71.164062 173.507812 C 89.878906 177.976562 109.386719 177.402344 127.441406 170.453125 C 135.542969 167.332031 143.820312 163.113281 150.613281 157.667969 C 157.113281 152.453125 162.054688 145.503906 165.886719 138.164062 C 174.171875 122.304688 179.976562 103.980469 176.839844 86.011719 Z M 153.5625 45.128906 C 148.53125 46.816406 143.5 48.558594 138.4375 50.226562 C 136.652344 45.140625 134.410156 40.207031 131.496094 35.527344 C 127.953125 29.84375 123.585938 24.5 118.402344 20.207031 C 127.238281 23.46875 135.519531 28.289062 142.742188 34.265625 C 146.71875 37.550781 150.304688 41.214844 153.5625 45.128906 Z M 101.3125 16.027344 C 102.265625 16.144531 103.203125 16.332031 104.152344 16.484375 C 104.207031 16.507812 104.238281 16.546875 104.300781 16.570312 C 115.074219 20.238281 123.179688 29.34375 128.855469 38.882812 C 131.253906 42.90625 133.140625 47.113281 134.664062 51.441406 C 125.710938 54.292969 116.660156 56.769531 107.34375 58.011719 C 104.597656 58.378906 101.824219 58.621094 99.042969 58.796875 C 98.527344 44.621094 98.34375 30.429688 97.472656 16.269531 C 98.777344 16.089844 100.070312 15.964844 101.3125 16.027344 Z M 90.332031 17.570312 C 91.351562 17.390625 92.425781 17.171875 93.503906 16.953125 C 94.34375 30.945312 94.539062 44.964844 95.050781 58.96875 C 89.90625 59.097656 84.761719 58.871094 79.683594 58.113281 C 72.585938 57.050781 65.996094 54.492188 59.226562 52.394531 C 61.144531 48.316406 63.46875 44.394531 65.625 40.722656 C 68.53125 35.777344 71.714844 30.949219 75.519531 26.640625 C 78.398438 23.375 82.21875 19.328125 86.6875 18.269531 C 87.902344 18.03125 89.121094 17.789062 90.332031 17.570312 Z M 46.578125 33.527344 C 55.328125 27.484375 65.277344 23.578125 75.527344 20.828125 C 74.972656 21.371094 74.425781 21.921875 73.894531 22.480469 C 69.519531 27.117188 65.882812 32.460938 62.628906 37.925781 C 60.113281 42.148438 57.484375 46.621094 55.371094 51.28125 C 54.785156 51.121094 54.203125 50.953125 53.613281 50.808594 C 49.980469 49.914062 46.246094 49.554688 42.617188 48.640625 C 39.628906 47.886719 36.253906 46.972656 33.609375 45.203125 C 37.445312 40.792969 41.789062 36.835938 46.578125 33.527344 Z M 59.816406 165.347656 C 52.925781 162.113281 46.597656 157.746094 41.097656 152.484375 C 38.90625 150.390625 36.914062 148.128906 35.027344 145.789062 C 35.210938 145.703125 35.398438 145.621094 35.574219 145.464844 C 41.355469 140.273438 48.945312 138.289062 56.46875 137.21875 C 56.957031 137.152344 57.449219 137.105469 57.9375 137.039062 C 64.199219 150.121094 72.796875 162 83.664062 171.664062 C 83.613281 171.65625 83.5625 171.65625 83.511719 171.648438 C 75.351562 170.535156 67.3125 168.867188 59.816406 165.347656 Z M 90.308594 172.289062 C 90.210938 172.15625 90.136719 172.019531 89.988281 171.898438 C 78.105469 162.316406 68.828125 150.097656 62.128906 136.519531 C 68.308594 135.835938 74.511719 135.359375 80.671875 134.453125 C 84.246094 133.925781 87.804688 133.472656 91.359375 133.117188 C 91.433594 138.375 91.851562 143.628906 92.476562 148.871094 C 93.40625 156.660156 94.78125 164.488281 94.875 172.351562 C 93.355469 172.351562 91.835938 172.371094 90.308594 172.289062 Z M 114.332031 170.050781 C 109.257812 171.246094 104.101562 172.007812 98.871094 172.265625 C 98.769531 164.433594 97.402344 156.632812 96.476562 148.871094 C 95.835938 143.515625 95.410156 138.148438 95.355469 132.777344 C 99.167969 132.507812 102.992188 132.382812 106.867188 132.570312 C 115.253906 132.976562 123.574219 134.292969 131.722656 136.296875 C 132.453125 136.476562 133.171875 136.695312 133.894531 136.886719 C 131.039062 149.652344 124.859375 161.355469 114.332031 170.050781 Z M 136.4375 161.863281 C 131.964844 164.171875 127.371094 166.097656 122.699219 167.679688 C 130.460938 159.304688 135.34375 148.992188 137.835938 137.957031 C 144.347656 139.863281 150.710938 142.253906 156.84375 145.160156 C 156.386719 145.785156 155.976562 146.445312 155.492188 147.046875 C 150.320312 153.535156 143.757812 158.089844 136.4375 161.863281 Z M 173.691406 100.347656 C 173.066406 109.257812 170.273438 117.910156 166.980469 126.15625 C 164.828125 131.550781 162.3125 136.902344 159.175781 141.832031 C 152.566406 138.671875 145.679688 136.0625 138.625 134 C 139.527344 128.757812 139.929688 123.386719 139.851562 118.015625 C 139.816406 115.445312 135.816406 115.4375 135.851562 118.015625 C 135.925781 123.035156 135.566406 128.035156 134.757812 132.910156 C 126.691406 130.804688 118.449219 129.398438 110.171875 128.769531 C 105.191406 128.386719 100.269531 128.441406 95.351562 128.761719 C 95.429688 126.449219 95.585938 124.136719 95.859375 121.824219 C 96.164062 119.273438 92.160156 119.296875 91.859375 121.824219 C 91.570312 124.234375 91.421875 126.652344 91.351562 129.066406 C 88.871094 129.304688 86.386719 129.59375 83.898438 129.953125 C 76.078125 131.085938 68.226562 131.808594 60.394531 132.753906 C 58.738281 129.074219 57.210938 125.335938 55.925781 121.507812 C 55.109375 119.074219 51.242188 120.117188 52.066406 122.566406 C 53.289062 126.195312 54.71875 129.742188 56.257812 133.246094 C 47.695312 134.425781 39.316406 136.734375 32.746094 142.632812 C 32.710938 142.664062 32.703125 142.703125 32.671875 142.734375 C 26.058594 133.609375 21.46875 123.039062 18.695312 112.097656 C 15.023438 97.613281 15.167969 82.480469 20.121094 68.3125 C 22.632812 61.125 26.371094 54.351562 31.054688 48.3125 C 35.761719 51.589844 42.125 52.867188 47.609375 53.71875 C 49.707031 54.046875 51.765625 54.523438 53.804688 55.074219 C 51.464844 61.324219 50.324219 67.863281 51.855469 74.554688 C 52.429688 77.066406 56.289062 76.007812 55.710938 73.496094 C 54.355469 67.589844 55.460938 61.761719 57.605469 56.183594 C 63.058594 57.890625 68.421875 59.9375 74.035156 61.132812 C 81.035156 62.625 88.140625 63.15625 95.234375 62.972656 C 95.386719 66.65625 95.539062 70.34375 95.773438 74.027344 C 95.933594 76.582031 99.933594 76.605469 99.773438 74.027344 C 99.535156 70.277344 99.378906 66.523438 99.222656 62.769531 C 109.113281 62.144531 118.949219 60.21875 128.4375 57.484375 C 130.933594 56.765625 133.410156 56.003906 135.882812 55.214844 C 137.769531 61.464844 139.007812 67.929688 139.945312 74.457031 C 140.308594 76.996094 144.164062 75.914062 143.800781 73.390625 C 142.855469 66.796875 141.589844 60.277344 139.679688 53.976562 C 145.199219 52.164062 150.699219 50.28125 156.210938 48.453125 C 161.972656 56.117188 166.464844 64.707031 169.554688 73.910156 C 172.421875 82.429688 174.320312 91.324219 173.691406 100.347656 Z M 173.691406 100.347656 "/>
<path style=" stroke:none;fill-rule:nonzero;fill:rgb(0%,0%,0%);fill-opacity:1;" d="M 156.230469 81.214844 C 154.472656 88.460938 154.011719 95.914062 152.816406 103.253906 C 150.445312 98.523438 147.765625 93.949219 145.210938 89.328125 C 144.507812 88.054688 142.445312 87.996094 141.761719 89.328125 C 139.246094 94.1875 136.617188 98.992188 134.425781 104 C 132.265625 96.488281 130.429688 88.878906 128.046875 81.429688 C 127.265625 78.984375 123.398438 80.03125 124.1875 82.492188 C 127.160156 91.785156 129.253906 101.328125 132.222656 110.621094 C 132.839844 112.546875 135.4375 112.484375 136.078125 110.621094 C 138.015625 105.011719 140.789062 99.773438 143.539062 94.53125 C 146.507812 99.816406 149.511719 105.09375 151.882812 110.671875 C 152.570312 112.292969 155.164062 111.746094 155.539062 110.195312 C 157.773438 101.007812 157.855469 91.464844 160.089844 82.28125 C 160.695312 79.78125 156.839844 78.710938 156.230469 81.214844 Z M 156.230469 81.214844 "/>
</g>
</svg>
